<svg xmlns="http://www.w3.org/2000/svg" width="275" height="200" fill="none" viewBox="0 0 275 200"><path fill="#7e55a3" d="M201.646 187.992c-7.395 0-12.743-4.089-15.025-5.836-5.949-4.559-11.318-9.623-16.509-14.522-2.313-2.182-4.508-4.256-6.728-6.261a10 10 0 0 0-1.357-.081c-3.092 0-7.258.888-10.937 1.675-2.335.498-4.543.969-6.619 1.255q-34.383 4.748-68.78 9.488c-1.2.165-3.109.585-5.13 1.029-4.966 1.093-11.149 2.45-17.2 2.45-6.043 0-11.163-1.39-15.216-4.134-10.233-6.924-11.739-20.264-12.836-30.004-.228-2.008-.44-3.902-.674-5.091l-11.76-59.81c-2.02-10.558 3.67-19.929 14.015-23.693q.336-.153.683-.288c1.677-.651 3.404-1.38 5.231-2.152 4.3-1.816 8.746-3.692 13.647-5.046.038-.012.125-.033.131-.036.886-.237 1.946-.51 3.096-.75 5.678-1.207 11.321-1.831 16.78-2.438 2.564-.285 4.986-.552 7.359-.873l4.262-.58 33.854-4.604a24 24 0 0 1-.817-4.692 18.8 18.8 0 0 1 .888-7.143c2.663-8.153 10.729-13.847 19.615-13.847 2.117 0 4.218.318 6.242.948a18.1 18.1 0 0 1 4.583 2.18c1.737.042 3.436.318 5.057.822 5.588 1.738 10.305 5.952 12.606 11.274a20 20 0 0 1 1.203 3.752q17.163-2.332 34.331-4.667l24.332-3.308q.646-.087 1.297-.111.502-.023.995-.024h.383c6.354 0 17.713 2.161 22.411 16.644.73 2.236 1.226 4.502 1.578 6.228 0 .015.041.198.041.198q.131.652.258 1.303s7.405 37.512 10.857 54.987c.215.958.62 2.387 1.05 3.897 1.163 4.085 2.607 9.173 3.087 14.36.78 8.431-1.294 15.104-6.164 19.834-3.514 3.404-7.314 4.803-9.625 5.637-.411 1.489-.885 3.864-1.228 5.575-1.871 9.365-4.434 22.191-15.677 27.465l-.187.087a20 20 0 0 1-2.348.903l-17.503 6.565c-2.46.954-5.001 1.438-7.555 1.438z"/><path fill="#fff" d="M131.619 24.013a8.2 8.2 0 0 1 2.413.366c1.821.568 3.38 2.207 3.938 4.098 1.129-.868 2.606-1.342 4.019-1.342.577 0 1.144.078 1.671.243 2.201.684 4.053 2.425 4.936 4.467 2.581 5.97-2.953 9.47-7.39 12.342q-1.613 1.046-3.227 2.087 11.63-1.578 23.259-3.158l.141-.018c20.11-2.732 40.22-5.47 60.34-8.204h.031c.215-.012.427-.018.627-.018h.271c6.336 0 8.983 3.518 10.507 8.219.505 1.549.892 3.23 1.244 4.959q.141.7.278 1.401l10.887 55.141c1.475 6.783 7.489 21.302 1.344 27.27-3.857 3.737-8.82 2.323-11.605 7.717-3.37 6.546-2.983 24.61-11.529 28.621l-.016.006a6.7 6.7 0 0 1-1.157.429l-18.012 6.756c-1.035.409-2.011.589-2.943.589-2.691 0-4.998-1.495-7.265-3.23-8.147-6.24-15.452-13.853-23.075-20.687-2.32-2.074-5.634-2.78-9.276-2.783-6.706 0-14.529 2.392-19.321 3.053-22.929 3.167-45.851 6.327-68.783 9.488-5.02.69-13.52 3.359-20.563 3.359-3.105 0-5.924-.516-8.04-1.951-7.293-4.935-7.019-20.321-8.428-27.501L25.144 75.975c-1.082-5.655 2.372-9.455 7.716-10.755l-.617.084c5.78-2.245 11.623-5.127 17.65-6.79.006 0 .016 0 .022-.006.81-.216 1.621-.423 2.438-.594 7.552-1.606 15.546-2.113 23.203-3.149 2.838-.384 5.675-.774 8.512-1.159q22.408-3.049 44.819-6.093a15 15 0 0 1-.286-.708c-1.001-2.573-2.033-5.133-3.009-7.715-.845-2.227-1.865-4.496-2.03-6.888a7.2 7.2 0 0 1 .34-2.744c1.038-3.178 4.225-5.442 7.717-5.442m0-24.013c-6.959 0-13.9 2.197-19.543 6.186-5.634 3.984-9.884 9.687-11.966 16.062a30.3 30.3 0 0 0-1.195 5.085l-18.32 2.491q-2.142.29-4.284.583l-4.228.576c-2.217.3-4.564.561-7.046.834-5.49.61-11.714 1.3-18.006 2.633a65 65 0 0 0-3.155.75 26 26 0 0 1 3.143-.543c-1.313.15-2.613.396-3.889.742a25.14 25.14 0 0 0-10.647 5.934 25 25 0 0 1 9.765-5.685c-5.394 1.551-10.192 3.577-14.448 5.372-1.74.736-3.383 1.43-4.889 2.015q-.435.17-.86.35C6.393 49.294-2.484 64.149.612 80.329c.006.038.016.077.022.116q2.936 14.939 5.877 29.882l5.874 29.875c.14.715.356 2.621.527 4.148.508 4.494 1.138 10.086 2.725 15.801 2.8 10.092 7.963 17.74 15.34 22.732 6.192 4.19 13.725 6.318 22.383 6.318 7.458 0 14.695-1.591 19.98-2.752 1.446-.319 3.426-.754 4.118-.85 22.935-3.161 45.858-6.321 68.79-9.488 2.535-.348 5.079-.892 7.542-1.417 1.434-.306 3.277-.699 4.926-.991q1.308 1.229 2.663 2.507c5.419 5.112 11.021 10.398 17.469 15.338 3.031 2.318 11.047 8.453 22.795 8.453 4.134 0 8.219-.768 12.144-2.281l17.148-6.433a32 32 0 0 0 3.467-1.357q.15-.067.297-.138c5.075-2.383 9.406-5.937 12.87-10.571 2.251-3.008 4.078-6.385 5.59-10.32 1.962-5.103 3.037-10.305 3.892-14.567a35 35 0 0 0 7.548-5.541l.019-.018c5.21-5.058 11.124-14.255 9.73-29.35-.576-6.259-2.254-12.157-3.479-16.464-.315-1.108-.702-2.468-.861-3.137L259.486 46.53l-.3-1.52q-.125-.645-.255-1.293l-.038-.195-.018-.087c-.412-2.026-1.004-4.713-1.924-7.528-2.192-6.736-5.556-12.067-10.289-16.29-4.471-3.992-12.269-8.75-24.014-8.75h-.489c-.465 0-.939.015-1.413.036-.842.03-1.68.105-2.516.216l-25.479 3.464-23.733 3.227a33 33 0 0 0-5.217-6.118 33.2 33.2 0 0 0-12.449-7.155 31 31 0 0 0-4.967-1.111 30.6 30.6 0 0 0-4.674-1.891q-.009 0-.018-.006A33.9 33.9 0 0 0 131.619 0z"/><path fill="#000" d="M86.222 53.628c-2.788.378-5.572.759-8.36 1.137-7.657 1.036-15.651 1.543-23.203 3.149-.817.174-1.627.378-2.438.594a14 14 0 0 1 1.734-.498c10.435-2.344 21.656-2.95 32.263-4.382m-.452-4.182-.078.012-.078.012c-3.42.463-7.005.847-10.47 1.219-7.333.786-14.915 1.6-22.177 3.233-.776.174-1.543.393-2.27.654l2.697 7.984a39 39 0 0 1 2.205-.537c4.839-1.03 10.045-1.606 15.08-2.164 2.56-.282 5.204-.576 7.792-.928q2.104-.284 4.21-.573c1.38-.189 2.765-.378 4.146-.564l.16-.021-1.217-8.324z"/><path fill="#4b8496" d="M203.961 178.087c-3.514 0-6.295-1.903-8.624-3.686-5.528-4.232-10.701-9.113-15.705-13.835-2.451-2.314-4.986-4.703-7.502-6.958-1.668-1.491-4.215-2.218-7.791-2.218-4.219 0-8.97 1.015-13.164 1.909-2.139.457-4.159.889-5.849 1.12-22.929 3.167-45.851 6.327-68.78 9.488-1.618.222-3.723.688-5.955 1.177-4.699 1.032-10.024 2.203-14.92 2.203-3.937 0-6.977-.762-9.297-2.332-6.423-4.347-7.589-14.672-8.524-22.972-.25-2.206-.483-4.289-.792-5.859-1.952-9.936-3.907-19.868-5.862-29.804a98962 98962 0 0 1-5.89-29.95c-1.137-5.934 2-10.845 8.045-12.82q.178-.112.38-.192c1.818-.705 3.692-1.498 5.506-2.263 3.991-1.684 8.12-3.428 12.363-4.599q.301-.081.602-.081c.922 0 1.773.567 2.073 1.45.365 1.075-.221 2.236-1.322 2.623-1.481.523-3.449 1.561-4.424 3.536q-.1.196-.194.439c-.452 1.14-.536 2.485-.25 3.983 3.38 17.214 6.773 34.447 10.162 51.67.561 2.858 1.11 5.718 1.659 8.576 1.103 5.748 2.245 11.691 3.467 17.511l.184.889c.499 2.443.929 4.553 2.472 6.219 1.6 1.723 3.916 2.528 7.284 2.528 3.058 0 6.488-.691 9.515-1.3 1.64-.33 3.187-.642 4.608-.837l33.327-4.593c11.611-1.6 23.222-3.203 34.83-4.8a559 559 0 0 0 8.696-1.293c5.865-.904 11.926-1.837 17.931-2.372a34 34 0 0 1 3.033-.162c2.386 0 5.513.346 8.515 3.029q3.446 3.09 6.881 6.18c4.59 4.125 9.338 8.39 14.025 12.565.233.204.47.423.71.64l.443.402c2.339 2.107 4.181 3.599 6.632 3.599q.253 0 .514-.021a6 6 0 0 0 1.276-.237q.327-.099.661-.099c.901 0 1.742.543 2.057 1.401.393 1.069-.168 2.246-1.266 2.657l-17.993 6.751c-1.247.489-2.51.738-3.754.738z"/><path fill="#000" d="M52.204 58.517c-2.572.91-4.586 2.464-5.643 4.607a7 7 0 0 0-.259.583c-.577 1.465-.73 3.172-.358 5.118 3.382 17.223 6.771 34.456 10.16 51.679 1.71 8.702 3.309 17.431 5.133 26.111.617 2.924 1.01 5.758 3.164 8.087 2.276 2.455 5.469 3.233 8.914 3.233 4.945 0 10.41-1.603 14.433-2.159 22.717-3.127 45.44-6.264 68.156-9.392 8.799-1.215 17.666-2.866 26.518-3.653.982-.087 1.924-.153 2.831-.153 2.55 0 4.842.51 7.031 2.468 6.971 6.252 13.918 12.522 20.908 18.748.387.339.764.69 1.151 1.035 2.344 2.117 4.758 4.164 8.119 4.164q.342 0 .698-.03a8.2 8.2 0 0 0 1.749-.328l-18.012 6.757c-1.035.408-2.014.589-2.943.589-2.691 0-4.998-1.495-7.265-3.23-8.147-6.238-15.452-13.853-23.075-20.688-2.32-2.074-5.634-2.782-9.279-2.782-6.706 0-14.526 2.392-19.318 3.05-22.929 3.166-45.851 6.327-68.78 9.488-5.02.693-13.52 3.359-20.563 3.359-3.105 0-5.927-.517-8.044-1.951-7.29-4.935-7.018-20.322-8.427-27.502L27.451 75.972c-1.082-5.656 2.373-9.459 7.717-10.755-.206.024-.411.057-.617.084 5.78-2.246 11.623-5.124 17.653-6.79m0-4.202a4.4 4.4 0 0 0-1.306.192c-4.347 1.21-8.509 2.965-12.534 4.664-1.883.796-3.66 1.546-5.447 2.24a5 5 0 0 0-.49.225c-2.952 1.005-5.365 2.656-7.036 4.835-2.199 2.864-2.969 6.415-2.23 10.272q0 .009.003.018 2.923 14.869 5.85 29.737l5.902 30.017c.293 1.486.523 3.53.767 5.694.982 8.72 2.207 19.571 9.44 24.463 2.698 1.828 6.152 2.714 10.555 2.714 5.14 0 10.83-1.252 15.405-2.257 2.186-.481 4.25-.934 5.777-1.144 22.93-3.161 45.852-6.321 68.78-9.488 1.768-.243 3.829-.682 6.009-1.15 4.084-.87 8.711-1.858 12.689-1.858 2.956 0 5.079.558 6.308 1.657 2.491 2.233 5.013 4.614 7.455 6.919 5.041 4.758 10.257 9.68 15.873 13.979 2.812 2.152 5.967 4.145 9.983 4.145 1.522 0 3.056-.297 4.558-.886l17.981-6.744c2.195-.823 3.314-3.176 2.532-5.313-.63-1.72-2.314-2.804-4.116-2.804-.436 0-.882.063-1.319.198-.233.072-.505.12-.804.144a4 4 0 0 1-.324.012c-1.522 0-2.816-.933-5.139-3.028q-.228-.205-.442-.403-.369-.334-.736-.663a3945 3945 0 0 1-13.968-12.514c-2.304-2.071-4.611-4.145-6.919-6.213-3.607-3.224-7.439-3.596-10.008-3.596-1.172 0-2.345.09-3.233.171-6.074.54-12.172 1.48-18.071 2.389-2.85.438-5.797.895-8.665 1.291-11.355 1.564-22.717 3.131-34.078 4.698l-34.079 4.697c-1.49.204-3.07.522-4.745.862-3.068.618-6.239 1.254-9.07 1.254-3.551 0-4.93-1.044-5.659-1.828-1.085-1.173-1.45-2.749-1.955-5.223-.062-.3-.121-.6-.187-.903-1.216-5.796-2.357-11.731-3.457-17.473-.54-2.812-1.098-5.721-1.662-8.581-3.39-17.221-6.779-34.45-10.161-51.67-.212-1.105-.163-2.063.143-2.846.053-.132.093-.216.115-.261l.01-.022c.642-1.302 2.036-2.04 3.124-2.434.296-.099.58-.228.842-.381a4.3 4.3 0 0 0 1.138-.96 4.1 4.1 0 0 0 .954-2.885A4.1 4.1 0 0 0 55.5 55.77a4.42 4.42 0 0 0-3.299-1.452z"/><path stroke="#000" stroke-miterlimit="10" stroke-width="4.202" d="m226.084 168.205-.015.006-1.157.429m-18.009 6.758-.592.226"/><path fill="#86d6f7" d="M222.466 171.097c-4.365 0-7.395-2.734-9.612-4.73a35 35 0 0 1-.462-.418 55 55 0 0 0-.667-.6c-4.702-4.187-9.45-8.453-14.043-12.58a5814 5814 0 0 0-6.881-6.18c-1.512-1.351-3.121-1.906-5.543-1.906-.901 0-1.834.072-2.632.144-5.858.522-11.848 1.443-17.641 2.338-2.874.441-5.846.9-8.767 1.306-11.602 1.597-57.042 7.861-68.157 9.392-1.281.177-2.765.474-4.334.789-3.233.652-6.9 1.387-10.41 1.39-4.64 0-8.088-1.288-10.545-3.935-2.335-2.528-2.924-5.412-3.495-8.204l-.178-.864c-1.228-5.856-2.372-11.818-3.48-17.584-.548-2.854-1.097-5.706-1.655-8.558a130944 130944 0 0 1-10.16-51.679c-.437-2.275-.278-4.376.464-6.255q.166-.415.333-.748c1.266-2.566 3.639-4.53 6.856-5.667l.063-.02.121-.037c1.01-.27 1.8-.462 2.557-.624 5.16-1.099 10.538-1.693 15.739-2.27 2.52-.279 5.123-.567 7.626-.906l4.334-.588q2.092-.287 4.178-.568 34.38-4.676 68.765-9.344l36.703-4.989q16.09-2.188 32.183-4.373.132-.017.268-.02.338-.02.677-.019h.293c8.462 0 11.236 5.532 12.59 9.692.58 1.774 1 3.701 1.3 5.181l.28 1.411 10.885 55.125c.271 1.249.708 2.783 1.213 4.554 2.273 7.99 5.384 18.931-.462 24.607-1.964 1.903-4.115 2.681-6.011 3.368-2.301.832-3.96 1.432-5.188 3.806-1.013 1.969-1.709 5.451-2.448 9.14-1.624 8.123-3.464 17.329-10.083 20.436a9.3 9.3 0 0 1-1.503.561c-.686.207-1.418.342-2.182.405-.296.024-.596.036-.889.036z"/><path fill="#000" d="M224.962 34.879c6.336 0 8.98 3.518 10.508 8.218.505 1.55.891 3.23 1.244 4.96l.28 1.401 10.888 55.143c1.475 6.784 7.489 21.3 1.341 27.27-3.854 3.737-8.821 2.324-11.605 7.718-3.371 6.546-2.984 24.607-11.53 28.62l-.013.006a6.7 6.7 0 0 1-1.156.43 8.4 8.4 0 0 1-1.749.327q-.356.029-.699.03c-3.364 0-5.774-2.047-8.119-4.163-.386-.346-.764-.697-1.15-1.036-6.99-6.226-13.937-12.496-20.909-18.748-2.192-1.957-4.483-2.468-7.03-2.468-.908 0-1.849.066-2.831.153-8.852.787-17.719 2.438-26.518 3.653-22.717 3.128-45.44 6.265-68.156 9.392-4.023.556-9.488 2.159-14.433 2.159-3.445 0-6.638-.778-8.914-3.233-2.154-2.329-2.544-5.163-3.165-8.087-1.82-8.683-3.423-17.409-5.132-26.111-3.389-17.223-6.778-34.456-10.16-51.68-.372-1.944-.22-3.652.358-5.117a8 8 0 0 1 .258-.582c1.057-2.144 3.072-3.699 5.644-4.608q.009.001.019-.006c.81-.216 1.62-.423 2.438-.594 7.551-1.606 15.545-2.11 23.203-3.15 2.837-.383 5.674-.773 8.515-1.158q38.585-5.248 77.17-10.488l.14-.017c20.111-2.732 40.224-5.472 60.34-8.204h.035c.212-.012.424-.018.623-.018h.275m0-4.202h-.312q-.37.002-.745.02a4 4 0 0 0-.487.04q-16.089 2.184-32.173 4.373l-28.17 3.83h-.019l-.13.018-9.214 1.252c-22.648 3.077-45.299 6.153-67.944 9.233l-4.303.585-4.206.574c-2.479.336-5.07.621-7.573.9-5.257.582-10.691 1.186-15.96 2.305-.786.165-1.634.373-2.67.652a3 3 0 0 0-.349.11c-3.76 1.33-6.554 3.66-8.075 6.74-.137.273-.265.56-.393.882 0 .006-.006.015-.01.021-.885 2.245-1.078 4.725-.57 7.372q0 .009.003.018 5.076 25.842 10.161 51.683a1804 1804 0 0 1 1.653 8.545c1.11 5.775 2.257 11.746 3.486 17.617.062.291.118.573.177.855.599 2.927 1.276 6.241 4.004 9.194 2.859 3.083 6.953 4.641 12.175 4.641 3.735 0 7.517-.762 10.856-1.432 1.534-.309 2.981-.6 4.197-.768q17.04-2.347 34.078-4.698 17.04-2.35 34.079-4.697c2.943-.406 5.924-.868 8.808-1.312 5.755-.889 11.707-1.804 17.494-2.317 1.06-.093 1.787-.135 2.429-.135 1.886 0 2.949.351 4.062 1.344 2.301 2.062 4.605 4.134 6.906 6.202 4.584 4.118 9.323 8.377 14.009 12.55l.019.018q.322.284.639.576.238.218.48.435c2.332 2.101 5.868 5.289 11.093 5.289.353 0 .714-.015 1.07-.045.917-.075 1.796-.24 2.622-.486a11.4 11.4 0 0 0 1.815-.676c.009-.003.015-.009.021-.009 3.573-1.678 6.249-4.934 8.179-9.956 1.456-3.788 2.322-8.135 3.089-11.971.677-3.386 1.378-6.888 2.261-8.605.801-1.549 1.652-1.921 3.997-2.771 2.002-.723 4.493-1.624 6.794-3.851 6.734-6.541 3.429-18.16 1.019-26.646-.47-1.657-.916-3.226-1.178-4.409l-10.878-55.104-.141-.706-.14-.702s0-.012-.003-.018c-.312-1.531-.749-3.533-1.363-5.41-1.091-3.358-2.612-5.876-4.645-7.692-2.579-2.3-5.949-3.467-10.024-3.467z"/><path fill="#ed1c24" d="M215.358 96.144a4.3 4.3 0 0 1-1.736-.363c-.889-.387-1.537-.997-2.008-1.44q-.955-.896-1.914-1.79a353 353 0 0 1-3.249-3.053l-.649-.612c-1.312-1.234-2.8-2.63-3.819-4.4a8.1 8.1 0 0 1-1.013-2.939c-.315-2.251.346-4.596 1.814-6.432 1.456-1.825 3.551-2.987 5.896-3.275q.399-.049.808-.048c1.222 0 2.475.336 3.585.93 1.126-1.032 2.56-1.732 4.041-1.912.34-.042.689-.063 1.038-.063 2.22 0 4.449.835 6.114 2.29 2.438 2.128 3.308 4.782 2.591 7.886-.549 2.371-1.93 4.592-3.152 6.555l-.58.934c-.998 1.603-1.995 3.209-3.002 4.808-.849 1.351-2.607 2.93-4.761 2.93z"/><path fill="#fff" d="M218.152 72.846c1.693 0 3.405.66 4.646 1.744 4.178 3.65 1.269 8.215-1.042 11.925-1.166 1.873-2.329 3.746-3.501 5.613-.583.925-1.709 1.915-2.896 1.915-.278 0-.558-.054-.833-.174-.533-.234-.966-.636-1.384-1.03-1.715-1.611-3.449-3.205-5.148-4.829-1.468-1.402-3.083-2.78-4.097-4.541a6.1 6.1 0 0 1-.76-2.2c-.477-3.407 2.014-6.877 5.821-7.343q.261-.031.533-.033c1.446 0 2.98.685 3.978 1.792.758-1.476 2.326-2.596 3.922-2.791q.38-.045.764-.045m0-4.203c-.439 0-.882.028-1.312.079-1.444.177-2.85.723-4.075 1.545a9.7 9.7 0 0 0-3.277-.579q-.548 0-1.082.066c-2.925.357-5.534 1.807-7.349 4.08-1.821 2.278-2.638 5.192-2.248 7.993.181 1.29.608 2.53 1.269 3.677 1.175 2.04 2.784 3.55 4.203 4.886.212.202.427.4.636.6a307 307 0 0 0 3.264 3.069q.959.89 1.912 1.785c.555.523 1.39 1.31 2.631 1.853a6.5 6.5 0 0 0 2.638.552c3.062 0 5.431-2.035 6.628-3.941 1.014-1.612 2.033-3.251 3.019-4.836l.492-.792.075-.12c1.241-1.994 2.784-4.476 3.411-7.178.889-3.839-.237-7.26-3.255-9.899-2.061-1.8-4.823-2.837-7.58-2.837z"/><path fill="#ed1c24" d="M179.344 104.709a4.7 4.7 0 0 1-1.896-.397c-.991-.432-1.702-1.101-2.273-1.636q-1.142-1.07-2.288-2.137c-1.266-1.18-2.579-2.401-3.854-3.623q-.384-.364-.776-.732c-1.619-1.519-3.293-3.089-4.475-5.145a9.3 9.3 0 0 1-1.159-3.359c-.359-2.575.396-5.259 2.076-7.363a10.15 10.15 0 0 1 6.741-3.743q.446-.054.91-.054c1.484 0 3.009.438 4.334 1.207 1.307-1.285 3.021-2.162 4.799-2.378a10 10 0 0 1 1.181-.072c2.541 0 5.092.955 7 2.624 6.245 5.457 2.039 12.217-.745 16.689l-.611.984a1141 1141 0 0 1-3.651 5.848c-.955 1.519-2.922 3.293-5.313 3.293z"/><path fill="#fff" d="M182.667 77.373c2.015 0 4.054.787 5.531 2.077 4.973 4.347 1.51 9.78-1.237 14.195-1.388 2.23-2.772 4.458-4.169 6.682-.692 1.101-2.036 2.281-3.445 2.281-.331 0-.664-.063-.992-.207-.636-.279-1.15-.756-1.649-1.228-2.039-1.918-4.106-3.815-6.13-5.75-1.746-1.67-3.669-3.309-4.876-5.407a7.2 7.2 0 0 1-.904-2.62c-.568-4.055 2.397-8.186 6.928-8.741q.314-.038.633-.04c1.724 0 3.548.814 4.739 2.135.901-1.756 2.772-3.092 4.667-3.323q.452-.054.907-.054m0-4.202c-.489 0-.978.03-1.456.087-1.727.21-3.407.907-4.838 1.948a10.8 10.8 0 0 0-4.016-.792 10 10 0 0 0-1.185.072c-3.261.399-6.173 2.014-8.197 4.547-2.033 2.546-2.946 5.796-2.51 8.921a11.4 11.4 0 0 0 1.413 4.097c1.337 2.326 3.208 4.082 4.857 5.631q.386.36.761.72c1.288 1.231 2.607 2.459 3.879 3.648q1.14 1.062 2.276 2.128c.617.582 1.552 1.462 2.893 2.047.889.387 1.83.585 2.797.585 3.298 0 5.871-2.224 7.18-4.307 1.213-1.927 2.432-3.89 3.611-5.784l.567-.913.087-.144c1.522-2.446 3.246-5.217 3.96-8.308.988-4.275-.265-8.084-3.623-11.016-2.304-2.014-5.388-3.167-8.465-3.167z"/><path fill="#ed1c24" d="M141.171 111.987a5 5 0 0 1-2.024-.423c-1.079-.471-1.858-1.207-2.488-1.798a421 421 0 0 0-2.585-2.413 500 500 0 0 1-4.362-4.101q-.436-.414-.876-.828c-1.814-1.705-3.694-3.467-5.01-5.757a10.3 10.3 0 0 1-1.278-3.701c-.396-2.84.439-5.8 2.291-8.123 1.84-2.302 4.477-3.767 7.433-4.13.324-.04.658-.06.992-.06 1.702 0 3.451.525 4.948 1.438 1.45-1.498 3.395-2.522 5.415-2.768q.644-.077 1.301-.078c2.803 0 5.618 1.057 7.723 2.894 6.89 6.021 2.204 13.55-.895 18.529l-.714 1.15c-1.366 2.194-2.728 4.388-4.106 6.576-1.042 1.657-3.178 3.593-5.765 3.593"/><path fill="#fff" d="M144.929 81.343c2.279 0 4.586.888 6.257 2.35 5.625 4.917 1.706 11.061-1.4 16.056-1.568 2.522-3.133 5.043-4.714 7.558-.782 1.246-2.301 2.579-3.897 2.579-.371 0-.748-.072-1.123-.237-.72-.316-1.3-.856-1.864-1.387-2.307-2.17-4.643-4.314-6.931-6.505-1.977-1.888-4.153-3.74-5.516-6.114a8.2 8.2 0 0 1-1.022-2.966c-.642-4.586 2.712-9.26 7.838-9.887q.356-.043.717-.042c1.949 0 4.013.921 5.36 2.413 1.019-1.987 3.133-3.497 5.278-3.758q.51-.063 1.026-.063m0-4.202c-.53 0-1.06.033-1.577.096-1.965.24-3.87 1.062-5.466 2.29a11.7 11.7 0 0 0-4.624-.978c-.424 0-.851.026-1.266.075-3.535.432-6.694 2.185-8.889 4.934-2.204 2.762-3.199 6.292-2.725 9.684a12.3 12.3 0 0 0 1.531 4.439c1.472 2.56 3.558 4.517 5.394 6.243l.867.817a459 459 0 0 0 4.374 4.112q1.295 1.207 2.585 2.416c.711.67 1.687 1.585 3.111 2.21.93.405 1.915.612 2.928.612 3.492 0 6.233-2.377 7.633-4.605 1.365-2.173 2.74-4.385 4.072-6.525l.651-1.051.1-.162c1.699-2.728 3.623-5.823 4.412-9.233 1.069-4.628-.287-8.756-3.922-11.931-2.501-2.186-5.853-3.44-9.189-3.44z"/><path fill="#ed1c24" d="M98.052 120.883c-.77 0-1.521-.156-2.229-.465-1.21-.528-2.105-1.372-2.825-2.05q-1.526-1.435-3.062-2.861a594 594 0 0 1-5.135-4.826q-.516-.492-1.041-.982c-2.123-1.993-4.315-4.052-5.843-6.709a11.7 11.7 0 0 1-1.462-4.238c-.455-3.254.502-6.646 2.628-9.305 2.105-2.636 5.13-4.317 8.512-4.73a9 9 0 0 1 1.122-.067c2.043 0 4.147.664 5.906 1.813 1.668-1.834 3.978-3.091 6.379-3.386.486-.06.988-.09 1.487-.09 3.211 0 6.438 1.21 8.852 3.32 3.504 3.065 4.761 6.883 3.729 11.35-.827 3.571-2.969 7.014-4.858 10.052l-.892 1.432c-1.568 2.521-3.189 5.13-4.798 7.687-1.176 1.873-3.576 4.058-6.47 4.058z"/><path fill="#fff" d="M102.485 85.089c2.688 0 5.413 1.05 7.386 2.774 6.641 5.802 2.014 13.057-1.652 18.955-1.852 2.975-3.701 5.952-5.566 8.921-.926 1.471-2.715 3.044-4.602 3.044-.44 0-.885-.087-1.325-.28-.848-.372-1.534-1.011-2.2-1.638-2.726-2.564-5.482-5.094-8.185-7.679-2.332-2.23-4.902-4.415-6.513-7.216a9.7 9.7 0 0 1-1.207-3.5c-.758-5.415 3.202-10.932 9.25-11.67q.418-.05.846-.051c2.3 0 4.736 1.087 6.326 2.849 1.203-2.345 3.697-4.128 6.232-4.437q.603-.072 1.213-.072m0-4.202c-.592 0-1.185.036-1.761.105-2.333.285-4.593 1.314-6.436 2.842-1.74-.831-3.657-1.287-5.571-1.287q-.708 0-1.397.084c-3.966.483-7.505 2.449-9.968 5.535-2.476 3.1-3.592 7.063-3.062 10.866a13.7 13.7 0 0 0 1.715 4.976c1.684 2.924 4.1 5.193 6.23 7.195.343.325.689.646 1.025.97a540 540 0 0 0 5.164 4.854q1.525 1.42 3.046 2.845c.798.751 1.89 1.777 3.445 2.459a7.8 7.8 0 0 0 3.13.654c2.488 0 5.987-1.333 8.338-5.07 1.618-2.575 3.248-5.199 4.826-7.732l.748-1.204.119-.189c1.973-3.173 4.212-6.772 5.116-10.674 1.197-5.184-.321-9.803-4.39-13.36-2.809-2.456-6.572-3.863-10.32-3.863z"/><path fill="#ed1c24" d="M133.917 51.534c-1.493 0-2.815-.561-3.716-1.581-.708-.799-1.054-1.693-1.335-2.414-.371-.954-.748-1.909-1.122-2.863a460 460 0 0 1-1.893-4.863l-.377-.982c-.792-2.038-1.615-4.145-1.777-6.49a9.2 9.2 0 0 1 .433-3.514c1.332-4.07 5.363-6.913 9.8-6.913 1.044 0 2.083.16 3.083.471 1.693.529 3.206 1.693 4.244 3.188a9.1 9.1 0 0 1 3.043-.537c.82 0 1.606.117 2.344.345 2.772.864 5.12 2.978 6.28 5.658 3.242 7.495-3.548 11.893-8.044 14.801l-1.11.72c-1.921 1.243-3.838 2.486-5.765 3.72-1.244.798-2.735 1.254-4.088 1.254"/><path fill="#000" d="M133.929 24.015a8 8 0 0 1 2.414.37c1.82.566 3.379 2.205 3.937 4.093 1.129-.867 2.607-1.341 4.019-1.341a5.6 5.6 0 0 1 1.672.243c2.201.684 4.053 2.425 4.935 4.466 2.582 5.97-2.952 9.47-7.389 12.343-2.239 1.45-4.477 2.903-6.722 4.34-.78.499-1.862.901-2.878.901-.776 0-1.519-.234-2.055-.843-.452-.514-.704-1.156-.951-1.787-1.001-2.572-2.029-5.132-3.008-7.714-.845-2.227-1.862-4.496-2.027-6.889a7.2 7.2 0 0 1 .34-2.743c1.041-3.179 4.224-5.445 7.716-5.445m0-4.202c-5.378 0-10.264 3.449-11.882 8.383a11.2 11.2 0 0 0-.53 4.287c.184 2.653 1.101 5.007 1.911 7.087q.188.48.372.963c.62 1.642 1.272 3.29 1.898 4.884.374.954.752 1.906 1.123 2.86.302.78.761 1.957 1.715 3.038 1.325 1.498 3.233 2.32 5.378 2.32 1.774 0 3.704-.585 5.297-1.605 1.949-1.25 3.922-2.528 5.827-3.762l.911-.59.143-.094c2.457-1.59 5.241-3.395 7.252-5.898 2.782-3.464 3.33-7.426 1.587-11.455-1.399-3.238-4.249-5.799-7.62-6.85a10.1 10.1 0 0 0-3.015-.447c-.748 0-1.502.078-2.238.232-1.207-1.282-2.722-2.267-4.375-2.783a12.6 12.6 0 0 0-3.757-.573z"/><path fill="#ed1c24" d="M117.769 76.648a4.1 4.1 0 0 1-1.606-.33c-.829-.355-1.422-.904-1.855-1.303q-.846-.781-1.696-1.558c-.951-.87-1.933-1.77-2.893-2.671q-.287-.268-.577-.535c-1.179-1.09-2.516-2.323-3.449-3.908a7.4 7.4 0 0 1-.947-2.671c-.306-2.047.277-4.185 1.599-5.869a8.08 8.08 0 0 1 5.341-3.025 6 6 0 0 1 .795-.051 7 7 0 0 1 3.08.735c1.001-.882 2.252-1.483 3.549-1.654.33-.042.673-.066 1.013-.066 1.998 0 4.006.742 5.515 2.038 5.008 4.299 1.665 9.774-.33 13.043l-.483.792a1049 1049 0 0 1-2.629 4.295c-.779 1.264-2.407 2.738-4.427 2.738"/><path fill="#fff" d="M120.122 55.848c1.475 0 2.971.567 4.063 1.504 3.71 3.187 1.181 7.23-.823 10.517-1.014 1.66-2.024 3.317-3.043 4.971-.509.826-1.5 1.708-2.554 1.708-.24 0-.48-.045-.72-.147-.474-.201-.858-.552-1.229-.897-1.524-1.408-3.065-2.798-4.577-4.22-1.303-1.226-2.74-2.426-3.648-3.972a5.4 5.4 0 0 1-.686-1.936c-.445-2.999 1.722-6.075 5.073-6.514q.249-.032.502-.033c1.266 0 2.607.592 3.489 1.552.655-1.306 2.03-2.305 3.433-2.488q.355-.045.72-.045m0-4.203a10 10 0 0 0-1.306.085c-1.266.165-2.498.636-3.586 1.332a9.1 9.1 0 0 0-2.747-.432c-.364 0-.732.024-1.091.07-2.712.353-5.123 1.716-6.788 3.841-1.668 2.125-2.403 4.836-2.017 7.432a9.5 9.5 0 0 0 1.207 3.407c1.088 1.852 2.547 3.203 3.838 4.392l.561.519c.967.91 1.952 1.81 2.903 2.683q.85.779 1.696 1.561c.518.48 1.303 1.204 2.482 1.708.792.34 1.63.51 2.491.51 2.937 0 5.182-1.945 6.304-3.767.886-1.437 1.777-2.9 2.641-4.313l.412-.675.065-.105c1.098-1.798 2.463-4.035 3.009-6.5.783-3.523-.321-6.783-3.109-9.175-1.902-1.633-4.439-2.57-6.965-2.57z"/><path fill="#ed1c24" d="M129.33 134.721c-.474 0-.935-.093-1.372-.282-.673-.289-1.144-.724-1.459-1.015q-.575-.53-1.157-1.063c-.654-.6-1.306-1.197-1.951-1.804q-.191-.179-.387-.357c-.832-.768-1.777-1.642-2.457-2.8a5.7 5.7 0 0 1-.726-2.047c-.234-1.564.212-3.194 1.216-4.479a6.17 6.17 0 0 1 4.084-2.311q.314-.041.633-.042c.674 0 1.344.135 1.974.381a5.24 5.24 0 0 1 3.195-1.048c1.522 0 3.053.565 4.2 1.552 3.82 3.281 1.279 7.444-.084 9.678l-.355.582q-.874 1.431-1.753 2.864c-.651 1.056-1.939 2.185-3.604 2.185z"/><path fill="#fff" d="M130.924 119.96c.998 0 2.011.384 2.75 1.018 2.51 2.158.798 4.892-.558 7.117-.686 1.122-1.369 2.245-2.058 3.364-.343.559-1.017 1.156-1.727 1.156-.163 0-.325-.03-.487-.099-.321-.138-.58-.375-.832-.609-1.032-.955-2.074-1.894-3.096-2.855-.883-.828-1.855-1.642-2.47-2.689a3.6 3.6 0 0 1-.464-1.309c-.303-2.029 1.166-4.112 3.433-4.41a3 3 0 0 1 .339-.021c.858 0 1.765.4 2.361 1.051.442-.882 1.375-1.561 2.322-1.684q.244-.03.487-.03m0-4.202c-.359 0-.72.024-1.073.069a7.4 7.4 0 0 0-2.453.78 7.4 7.4 0 0 0-2.573-.123c-2.21.288-4.175 1.399-5.531 3.128-1.353 1.726-1.948 3.929-1.637 6.042.147.979.477 1.915.986 2.783.838 1.429 1.951 2.455 2.846 3.284q.188.17.371.345c.661.621 1.332 1.233 1.977 1.828q.574.525 1.144 1.05c.371.343 1.06.982 2.083 1.417a5.7 5.7 0 0 0 2.26.462c2.579 0 4.521-1.66 5.482-3.214q.89-1.448 1.774-2.9l.293-.483.043-.072c.795-1.3 1.781-2.921 2.198-4.803.64-2.882-.265-5.55-2.544-7.507a8.8 8.8 0 0 0-5.652-2.083z"/><path fill="#ed1c24" d="M81.287 138.078q-.283 0-.565-.045c-.726-.12-1.297-.429-1.674-.633q-.699-.377-1.39-.753a190 190 0 0 1-2.361-1.285l-.465-.255c-1.007-.546-2.145-1.165-3.102-2.125a5.8 5.8 0 0 1-1.228-1.807 5.85 5.85 0 0 1 .025-4.629 6.02 6.02 0 0 1 3.358-3.215 5.2 5.2 0 0 1 1.867-.342q.376 0 .745.051a5.15 5.15 0 0 1 2.086-1.546 6.3 6.3 0 0 1 2.273-.417 6.6 6.6 0 0 1 2.937.682c4.546 2.266 3.159 6.903 2.413 9.395l-.171.573q-.487 1.635-.982 3.266c-.468 1.534-1.812 3.079-3.763 3.079z"/><path fill="#fff" d="M80.856 123.179c.673 0 1.347.156 1.933.447 2.99 1.489 2.036 4.551 1.294 7.03a752 752 0 0 1-1.129 3.752c-.215.708-.83 1.57-1.671 1.57q-.1 0-.203-.018c-.346-.057-.657-.225-.963-.39-1.244-.679-2.498-1.339-3.735-2.026-1.07-.595-2.22-1.147-3.084-2.015a3.7 3.7 0 0 1-.789-1.158c-.817-1.894.069-4.263 2.19-5.091a2.9 2.9 0 0 1 1.044-.186 3.4 3.4 0 0 1 1.836.537c.203-.96.93-1.84 1.818-2.188.458-.18.954-.264 1.453-.264m0-4.202a8.5 8.5 0 0 0-3.096.573 7.2 7.2 0 0 0-2.177 1.342 7.3 7.3 0 0 0-2.522.495c-2.067.807-3.685 2.353-4.552 4.349a7.9 7.9 0 0 0-.028 6.244 7.9 7.9 0 0 0 1.671 2.458c1.182 1.183 2.525 1.915 3.604 2.5q.225.121.45.247c.797.444 1.605.876 2.381 1.296l1.385.748c.449.243 1.281.696 2.385.876.305.051.62.075.929.075 2.669 0 5.023-1.843 5.858-4.589q.495-1.635.983-3.269l.15-.501.024-.081c.433-1.45.973-3.254.892-5.178-.125-2.945-1.687-5.313-4.4-6.664a8.9 8.9 0 0 0-3.94-.918z"/></svg>