<svg xmlns="http://www.w3.org/2000/svg" width="186" height="200" fill="none" viewBox="0 0 186 200"><path fill="#28a052" d="M145.598 101.288c-.586 0-1.179-.02-1.762-.061a24 24 0 0 1-4.304-.695c-.824-.213-1.398-.931-1.395-1.753s.574-1.538 1.399-1.748a26 26 0 0 1 4.178-.709 26.5 26.5 0 0 1 4.208-.04c1.423.094 2.848.307 4.238.629.833.192 1.425.903 1.442 1.727s-.55 1.556-1.376 1.778a25.5 25.5 0 0 1-4.361.77 25 25 0 0 1-2.267.102"/><path fill="#225128" d="M146.077 98.026q.855 0 1.71.059c1.322.09 2.637.285 3.933.584a23.3 23.3 0 0 1-4.025.709 23 23 0 0 1-3.723.038 22 22 0 0 1-3.957-.638 24 24 0 0 1 3.867-.657 24 24 0 0 1 2.192-.097m0-3.624a28.7 28.7 0 0 0-7.023.874c-1.649.422-2.797 1.857-2.799 3.499s1.143 3.08 2.792 3.503a26.2 26.2 0 0 0 6.551.818c.813 0 1.637-.037 2.446-.111a27.6 27.6 0 0 0 4.69-.827c1.651-.444 2.783-1.904 2.752-3.555-.031-1.65-1.216-3.073-2.884-3.458a29 29 0 0 0-4.549-.675 29 29 0 0 0-1.973-.068z"/><path fill="#28a052" d="M145.644 102.578a26.2 26.2 0 0 1-6.067-.708 26 26 0 0 1-2.42-.711c-.741-.261-1.235-.936-1.237-1.694a1.82 1.82 0 0 1 1.223-1.705 26.4 26.4 0 0 1 6.572-1.44 2 2 0 0 1 .329 0c.515.042 1.045.063 1.569.063.63 0 1.273-.032 1.91-.09h.031c.075-.012.159-.017.242-.017q.064-.001.124.005a26.5 26.5 0 0 1 6.711 1.331c.746.252 1.249.927 1.259 1.69.009.761-.478 1.447-1.219 1.716a26.6 26.6 0 0 1-6.663 1.458l-.043.003a27 27 0 0 1-2.317.102z"/><path fill="#225128" d="M147.787 98.085a25 25 0 0 1 3.933.584c.771.179 1.536.396 2.286.65a23 23 0 0 1-2.265.688 24.6 24.6 0 0 1-3.907.661h-.005a25 25 0 0 1-3.902.039 24 24 0 0 1-3.897-.598c-.753-.181-1.499-.4-2.23-.657q1.09-.39 2.218-.677a24 24 0 0 1 3.867-.656q.858.07 1.726.07 1.044 0 2.101-.1l.075-.007m0-3.623q-.212 0-.421.023l-.033.005a18 18 0 0 1-1.719.081c-.473 0-.946-.018-1.409-.057a3.7 3.7 0 0 0-.661.003 28.3 28.3 0 0 0-7.057 1.544c-1.477.532-2.453 1.893-2.446 3.41s.995 2.872 2.477 3.39c.84.295 1.715.55 2.601.766a28.2 28.2 0 0 0 9.063.649 28.6 28.6 0 0 0 7.158-1.567c1.481-.536 2.455-1.906 2.436-3.43-.016-1.524-1.023-2.874-2.516-3.379a28 28 0 0 0-2.651-.754 29 29 0 0 0-4.554-.677 3 3 0 0 0-.263-.009z"/><path fill="#28a052" d="M162.654 48.958c-7.498-10.6-19.603-15.887-29.317-19.311-1.919-.67-3.942-1.39-5.727-2.16-7.659-3.311-10.846-7.077-10.338-12.213l.005-.038c.407-6.006 5.346-10.736 11.749-11.246.705-.056 1.312-.532 1.505-1.186.125-.424.073-.87-.148-1.252a1.7 1.7 0 0 0-1.026-.784c-2.076-.573-4.163-.772-6.188-.586-4.676.382-9.039 2.68-12.28 6.47-3.609 4.222-5.41 9.86-4.822 15.067 1.035 10.638 11.248 17.221 20.023 21.766 3.966 2.088 7.863 5.136 12.257 9.583.569.586 1.148 1.17 1.727 1.76 4.354 4.417 8.858 8.985 10.827 14.718 1.239 3.728 1.173 7.34-.196 11.02-.042.11-.124.303-.214.509-.162.382-.28.656-.345.84-.492 1.136-1.238 2.031-2.348 2.817a7 7 0 0 1-1.023.604c.877-1.3 1.113-2.907.661-4.553-.391-1.43-1.291-2.813-2.463-3.798-1.028-.87-2.328-1.551-3.869-2.027-4.968-1.65-10.787.542-13.271 4.991-3.693 6.307-.308 13.392 4.747 16.852a21.5 21.5 0 0 0 5.219 2.661q1.09-.391 2.218-.677a24 24 0 0 1 3.867-.657 25.2 25.2 0 0 1 7.835.546q1.16.269 2.286.65c3.108-1.107 5.994-2.851 8.39-5.202 2.367-2.278 4.378-5.341 6.165-9.388 4.77-11.236 2.616-24.273-5.906-35.776"/><path fill="#28a052" d="M138.316 84.376c.026-.034.205-.123.529-.1.36.025.842.147 1.308.265.275.07.555.14.835.2l.271.063c1.079.256 1.681.396 2.888 1.087.106.072.223.131.343.176-1.557.279-3.21.17-4.631-.369-1.409-.638-1.555-.935-1.552-1.29.002-.019.007-.028.007-.032z"/><mask id="b" width="7" height="3" x="138" y="84" maskUnits="userSpaceOnUse" style="mask-type:luminance"><mask id="a" width="67" height="100" x="105" y="0" maskUnits="userSpaceOnUse" style="mask-type:luminance"><path fill="#fff" d="M162.654 48.965c-7.498-10.6-19.603-15.888-29.317-19.312-1.919-.67-3.942-1.39-5.727-2.16-7.659-3.31-10.846-7.076-10.338-12.212l.005-.039c.407-6.005 5.346-10.735 11.749-11.245.705-.056 1.312-.532 1.505-1.186.125-.424.073-.87-.148-1.253a1.7 1.7 0 0 0-1.026-.783c-2.076-.573-4.163-.772-6.188-.587-4.676.383-9.039 2.682-12.28 6.47-3.609 4.223-5.41 9.862-4.822 15.068 1.035 10.638 11.248 17.22 20.023 21.766 3.966 2.087 7.863 5.135 12.257 9.583.569.586 1.148 1.17 1.727 1.76 4.354 4.417 8.858 8.985 10.827 14.718 1.239 3.727 1.173 7.34-.196 11.019-.042.111-.124.303-.214.51-.162.382-.28.656-.345.84-.492 1.136-1.238 2.03-2.348 2.817a7 7 0 0 1-1.023.604c.877-1.3 1.113-2.907.661-4.554-.391-1.428-1.291-2.812-2.463-3.797-1.028-.87-2.328-1.551-3.869-2.027-4.968-1.65-10.787.541-13.271 4.991-3.693 6.307-.308 13.392 4.747 16.852a21.5 21.5 0 0 0 5.219 2.66q1.09-.39 2.218-.676a24 24 0 0 1 3.867-.657 25.1 25.1 0 0 1 7.835.546q1.16.269 2.286.65c3.108-1.108 5.994-2.851 8.39-5.202 2.367-2.278 4.378-5.342 6.165-9.388 4.77-11.236 2.616-24.273-5.906-35.776"/></mask><g mask="url(#a)"><path fill="#fff" d="M138.316 84.38c.026-.033.205-.122.529-.099.36.025.842.147 1.308.265.275.07.555.14.835.2l.271.063c1.079.255 1.681.396 2.888 1.087.106.072.223.13.343.176-1.557.279-3.21.17-4.631-.369-1.409-.639-1.555-.935-1.552-1.29.002-.019.007-.028.007-.032z"/></g></mask><g mask="url(#b)"><path fill="#245c2e" d="M189.5 119.174q-.192.001-.383-.038l-53.245-10.643c-.894-.179-1.527-.951-1.498-1.83.028-.878.71-1.612 1.613-1.737 3.004-.414 6.273-1.992 9.719-4.694 8.748-6.859 13.638-17.343 13.419-28.763-.216-11.272-5.424-21.428-14.284-27.866-2.957-2.15-6.316-3.934-9.567-5.66-4.899-2.601-9.966-5.293-14.089-9.385-1.726-1.714-2.587-3.478-3.418-5.186-.461-.944-.893-1.836-1.472-2.722-2.623-4.01 3.321-8.292 4.008-8.765a1.93 1.93 0 0 1 1.237-.335l57.298 4.084c.889.064 1.611.72 1.727 1.572l9.26 67.807q.01.076.014.151l1.543 32.117a1.78 1.78 0 0 1-.659 1.463 1.92 1.92 0 0 1-1.22.433z"/><path fill="#225128" d="m121.4 13.354 57.298 4.085 9.26 67.806 1.543 32.117-53.245-10.643c3.69-.507 7.31-2.473 10.641-5.083 19.123-14.996 18.824-45.138-.92-59.483-7.494-5.446-16.796-8.268-23.439-14.86-2.404-2.384-2.931-4.983-4.65-7.61-1.757-2.684 3.514-6.33 3.514-6.33m0-3.623a3.87 3.87 0 0 0-2.197.682 18.8 18.8 0 0 0-3.09 2.758c-.951 1.08-1.621 2.176-1.993 3.257-.625 1.818-.418 3.661.581 5.19.518.79.927 1.632 1.362 2.524.856 1.758 1.825 3.748 3.771 5.677 4.318 4.287 9.509 7.045 14.531 9.713 3.338 1.773 6.492 3.448 9.34 5.518 8.397 6.1 13.33 15.743 13.537 26.454.099 5.17-.957 10.35-3.053 14.986-2.214 4.89-5.469 9.044-9.672 12.34-3.176 2.492-6.137 3.939-8.797 4.306-1.809.249-3.171 1.714-3.23 3.473-.056 1.76 1.207 3.304 2.997 3.662l53.245 10.643q.382.075.765.075c.886 0 1.754-.302 2.441-.868a3.56 3.56 0 0 0 1.317-2.923l-1.543-32.117a3 3 0 0 0-.028-.306l-9.26-67.806c-.233-1.703-1.675-3.014-3.453-3.141l-57.298-4.085a4 4 0 0 0-.278-.01z"/></g><path fill="#28a052" d="M146.076 103.779a27 27 0 0 1-2.366-.104 26.4 26.4 0 0 1-4.178-.709c-.823-.21-1.397-.928-1.399-1.748s.571-1.54 1.395-1.753a24.2 24.2 0 0 1 6.066-.756c.757 0 1.524.034 2.277.104a25.4 25.4 0 0 1 4.351.768c.826.222 1.393.953 1.376 1.777-.016.825-.609 1.536-1.442 1.728a27 27 0 0 1-6.082.693z"/><path fill="#225128" d="M145.596 100.517q1.053 0 2.098.095c1.36.118 2.708.356 4.025.709a25 25 0 0 1-7.835.546 24 24 0 0 1-3.867-.657 22.2 22.2 0 0 1 5.582-.695m0-3.623a26 26 0 0 0-6.551.817c-1.647.423-2.792 1.861-2.792 3.503s1.15 3.078 2.799 3.499c1.453.371 2.964.627 4.488.763a28.5 28.5 0 0 0 4.513.045 29 29 0 0 0 4.545-.675c1.667-.385 2.853-1.807 2.884-3.457.03-1.651-1.101-3.112-2.752-3.556a27 27 0 0 0-4.688-.826 28 28 0 0 0-2.446-.111z"/><path fill="#28a052" d="M147.786 103.719q-.107 0-.216-.011l-.047-.005a20 20 0 0 0-3.479-.027 1.7 1.7 0 0 1-.331 0 26 26 0 0 1-6.57-1.44 1.82 1.82 0 0 1-1.223-1.705c.002-.759.499-1.436 1.237-1.694a25.3 25.3 0 0 1 6.633-1.359 27 27 0 0 1 4.215.04 26.6 26.6 0 0 1 4.215.715c.84.21 1.666.462 2.449.745.741.269 1.228.953 1.218 1.716-.009.761-.51 1.436-1.258 1.689a26.6 26.6 0 0 1-6.711 1.332q-.067.004-.132.004"/><path fill="#225128" d="M145.643 99.223q1.094.001 2.185.097h.005c1.315.116 2.625.336 3.907.662q1.15.288 2.265.688-1.128.381-2.286.65a25 25 0 0 1-3.933.584l-.076-.007a22 22 0 0 0-3.826-.029 24 24 0 0 1-3.867-.657 23 23 0 0 1-2.218-.677 24 24 0 0 1 2.229-.657 24 24 0 0 1 5.615-.656m0-3.623a28.2 28.2 0 0 0-6.52.763c-.899.217-1.774.473-2.611.767-1.482.519-2.47 1.87-2.477 3.39-.007 1.518.969 2.878 2.446 3.411a28 28 0 0 0 7.059 1.546q.171.015.344.016.158 0 .317-.014a18.4 18.4 0 0 1 3.128.025h.026l.012.005a3.6 3.6 0 0 0 .682.014 29 29 0 0 0 4.549-.675 28 28 0 0 0 2.653-.757c1.494-.505 2.498-1.854 2.517-3.378s-.957-2.894-2.439-3.43a28.6 28.6 0 0 0-7.155-1.567c-.021 0-.042-.005-.064-.005a29 29 0 0 0-2.469-.107z"/><path fill="#28a052" d="M162.654 151.04c-7.498 10.6-19.603 15.888-29.317 19.311-1.919.671-3.942 1.391-5.727 2.161-7.659 3.31-10.846 7.076-10.338 12.212l.005.038c.407 6.006 5.346 10.736 11.749 11.246.705.056 1.312.532 1.505 1.186.125.424.073.87-.148 1.253a1.7 1.7 0 0 1-1.026.783c-2.076.573-4.163.772-6.188.587-4.676-.383-9.039-2.682-12.28-6.47-3.609-4.223-5.41-9.862-4.822-15.068 1.035-10.638 11.248-17.221 20.023-21.766 3.966-2.087 7.863-5.135 12.257-9.583.569-.586 1.148-1.17 1.727-1.759 4.354-4.418 8.858-8.986 10.827-14.719 1.239-3.727 1.173-7.339-.196-11.019a14 14 0 0 0-.214-.51c-.162-.382-.28-.656-.345-.84-.492-1.136-1.238-2.031-2.348-2.817a7 7 0 0 0-1.023-.604c.877 1.3 1.113 2.907.661 4.554-.391 1.428-1.291 2.812-2.463 3.797-1.028.87-2.328 1.551-3.869 2.027-4.968 1.651-10.787-.541-13.271-4.991-3.693-6.307-.308-13.392 4.747-16.852a21.5 21.5 0 0 1 5.219-2.661 24.2 24.2 0 0 0 6.085 1.334 25 25 0 0 0 7.835-.546 24 24 0 0 0 2.286-.65c3.108 1.108 5.994 2.851 8.39 5.202 2.367 2.278 4.378 5.342 6.165 9.388 4.77 11.236 2.616 24.273-5.906 35.776"/><path fill="#28a052" d="M138.316 115.621c.026.034.205.122.529.1.36-.025.842-.147 1.308-.265.275-.07.555-.141.835-.199l.271-.064c1.079-.256 1.681-.396 2.888-1.087.106-.072.223-.131.343-.176-1.557-.279-3.21-.17-4.631.369-1.409.638-1.555.935-1.552 1.29.002.019.007.028.007.032z"/><mask id="d" width="7" height="3" x="138" y="113" maskUnits="userSpaceOnUse" style="mask-type:luminance"><mask id="c" width="67" height="100" x="105" y="100" maskUnits="userSpaceOnUse" style="mask-type:luminance"><path fill="#fff" d="M162.654 151.042c-7.498 10.6-19.603 15.888-29.317 19.311-1.919.671-3.942 1.391-5.727 2.161-7.659 3.31-10.846 7.076-10.338 12.212l.005.038c.407 6.006 5.346 10.736 11.749 11.246.705.056 1.312.532 1.505 1.186.125.424.073.87-.148 1.252a1.7 1.7 0 0 1-1.026.784c-2.076.573-4.163.772-6.188.586-4.676-.382-9.039-2.681-12.28-6.469-3.609-4.223-5.41-9.862-4.822-15.068 1.035-10.638 11.248-17.221 20.023-21.766 3.966-2.087 7.863-5.135 12.257-9.583.569-.586 1.148-1.171 1.727-1.759 4.354-4.418 8.858-8.986 10.827-14.719 1.239-3.727 1.173-7.339-.196-11.019a13 13 0 0 0-.214-.51c-.162-.382-.28-.656-.345-.84-.492-1.136-1.238-2.031-2.348-2.817a7 7 0 0 0-1.023-.604c.877 1.3 1.113 2.907.661 4.554-.391 1.428-1.291 2.812-2.463 3.797-1.028.87-2.328 1.551-3.869 2.027-4.968 1.651-10.787-.541-13.271-4.991-3.693-6.307-.308-13.392 4.747-16.852a21.5 21.5 0 0 1 5.219-2.661q1.09.391 2.218.677a24.7 24.7 0 0 0 7.769.695 25 25 0 0 0 3.933-.584 24 24 0 0 0 2.286-.65c3.108 1.108 5.994 2.851 8.39 5.202 2.367 2.278 4.378 5.342 6.165 9.388 4.77 11.236 2.616 24.273-5.906 35.776"/></mask><g mask="url(#c)"><path fill="#fff" d="M138.316 115.622c.026.034.205.122.529.1.36-.025.842-.147 1.308-.265.275-.07.555-.141.835-.199l.271-.064c1.079-.256 1.681-.396 2.888-1.087.106-.072.223-.131.343-.176-1.557-.279-3.21-.17-4.631.369-1.409.638-1.555.935-1.552 1.29.002.019.007.028.007.032z"/></g></mask><g mask="url(#d)"><path fill="#245c2e" d="M79.32 190.337c-.79 0-1.71-.49-1.983-1.581-.44-1.753 1.063-3.202 1.98-3.951 4.808-11.067 17.267-49.796 17.394-50.19a1.86 1.86 0 0 1 1.487-1.252l31.539-5.086c-5.659-5.892-4.953-11.263-3.885-14.146 2.215-5.98 9.262-10.321 16.756-10.321 5.681 0 10.735 2.466 14.238 6.94 3.73 4.769 5.014 11.144 3.617 17.948-1.449 7.054-7.171 20.768-29.225 33.347-9.472 5.403-19.859 10.353-29.023 14.721-8.797 4.191-16.437 7.832-19.807 10.294-.93 2.047-1.663 3.274-3.086 3.274z"/><path fill="#225128" d="M142.608 105.625c4.589 0 9.293 1.82 12.735 6.22 8.503 10.87 3.751 32.212-25.062 48.647-19.222 10.965-42.894 20.365-49.41 25.43 4.766-10.706 17.64-50.769 17.64-50.769l35.293-5.69c-14.421-11.345-3.213-23.836 8.804-23.838m-61.736 80.297c-.734 1.651-1.277 2.604-1.55 2.604q-.105.001-.155-.194c-.16-.632.458-1.443 1.705-2.41m61.739-83.92c-3.924 0-7.915 1.109-11.244 3.12-3.469 2.097-6.056 5.081-7.286 8.403-1.137 3.066-1.113 6.357.07 9.516q.76 2.031 2.131 3.958l-28.392 4.576c-1.402.227-2.555 1.194-2.974 2.503-.124.389-12.285 38.19-17.168 49.643-1.183 1.044-2.867 2.958-2.239 5.458.447 1.773 1.978 2.966 3.813 2.966.691 0 2.02-.19 3.135-1.467.254-.293.49-.628.744-1.056.218-.371.456-.828.722-1.385 3.434-2.367 11.073-6.008 19.132-9.849 9.194-4.381 19.614-9.347 29.147-14.784 8.724-4.977 15.79-10.645 21-16.852 4.81-5.732 7.877-11.687 9.112-17.702 1.503-7.318.097-14.204-3.961-19.39-3.867-4.941-9.455-7.663-15.738-7.663z"/></g><path fill="#28a052" d="M111.89 188.277a3.93 3.93 0 0 1-2.921-1.284 1 1 0 0 1-.083-.099l-65.878-84.609a1.77 1.77 0 0 1-.374-1.031l-.059-1.847a1.76 1.76 0 0 1 .39-1.16l.231-.29L108.31 16.16a3.9 3.9 0 0 1 3.072-1.459c.859 0 1.672.267 2.354.772a3.67 3.67 0 0 1 1.478 2.464 3.6 3.6 0 0 1-.765 2.751l-63.267 79.476 63.679 82.014c.642.74.957 1.676.886 2.645a3.65 3.65 0 0 1-1.317 2.547 3.98 3.98 0 0 1-2.538.913z"/><path fill="#225128" d="M111.382 16.51c.421 0 .847.13 1.204.395a1.864 1.864 0 0 1 .367 2.676L48.82 100.146l64.568 83.158c.72.794.628 2.004-.197 2.694a2.05 2.05 0 0 1-1.301.467 2 2 0 0 1-1.498-.659l-65.879-84.609-.058-1.848.23-.29 65.116-81.801c.391-.491.984-.75 1.579-.75m0-3.623c-1.802 0-3.467.79-4.564 2.165L41.698 96.854l-.226.283a3.53 3.53 0 0 0-.78 2.32l.058 1.848c.023.745.285 1.466.75 2.063l65.879 84.609q.08.101.167.2c1.091 1.213 2.674 1.909 4.344 1.909a5.9 5.9 0 0 0 3.775-1.359c1.155-.969 1.851-2.314 1.96-3.786a5.36 5.36 0 0 0-1.285-3.893l-62.8-80.879 62.403-78.389c1.928-2.42 1.451-5.899-1.063-7.756a5.9 5.9 0 0 0-3.496-1.143z"/><path fill="#86d6f7" d="M11.2 114.357a1.92 1.92 0 0 1-1.3-.503l-6.95-6.406a1.8 1.8 0 0 1-.581-1.268c-.012-.48.176-.944.522-1.293l4.634-4.66-5.083-4.828a1.763 1.763 0 0 1-.02-2.561L9.18 86.24c.35-.341.828-.536 1.327-.538h.014c.494 0 .97.187 1.322.52l9.465 8.988 2.284-.014a1.763 1.763 0 0 1 .165-2.362l6.757-6.596c.35-.342.828-.537 1.327-.539h.012c.493 0 .969.188 1.322.521l9.328 8.859 121.92-.743a6.64 6.64 0 0 1 2.103-2.878c1.247-.985 2.63-1.486 4.104-1.486 2.752 0 5.152 1.744 7.078 3.145l.212.154c1.267.922 2.535 1.841 3.801 2.77 1.606 1.173 2.611 3.3 1.416 5.088-.412.618-.958 1.017-1.357 1.307-.497.364-.998.736-1.496 1.105-.864.638-1.755 1.3-2.644 1.94q-.263.191-.525.385c-1.068.786-2.281 1.676-3.749 2.217a7 7 0 0 1-2.402.437h-.044c-3.19 0-5.878-2.031-6.647-4.778l-121.116.739-9.263 9.311a1.9 1.9 0 0 1-1.36.559c-.467 0-.935-.167-1.3-.502l-6.95-6.407a1.765 1.765 0 0 1-.06-2.561l.285-.287-2.818.018-9.133 9.18c-.37.371-.863.559-1.36.559z"/><path fill="#225128" d="m31.854 87.516 9.884 9.386 124.204-.757c.071-1.247.76-2.474 1.778-3.278.974-.77 1.95-1.076 2.912-1.076 2.152 0 4.229 1.533 6.022 2.837q1.966 1.425 3.925 2.86c.8.585 1.595 1.737.974 2.668-.226.339-.571.595-.91.842-1.378 1.012-2.745 2.04-4.133 3.041-1.199.865-2.39 1.832-3.817 2.358a5.1 5.1 0 0 1-1.739.317h-.035c-2.608 0-4.986-1.979-4.986-4.577q0-.105.007-.21l-123.593.754-9.813 9.866-6.95-6.406 3.358-3.379-8.058.05-9.684 9.735-6.95-6.406 5.915-5.949-6.402-6.08 6.758-6.596 10.02 9.515 7.58-.045-3.024-2.874zm0-3.624h-.026a3.84 3.84 0 0 0-2.653 1.078l-6.757 6.597c-.4.392-.69.847-.868 1.331l-8.386-7.964a3.85 3.85 0 0 0-2.643-1.044h-.026a3.84 3.84 0 0 0-2.654 1.078l-6.757 6.596a3.53 3.53 0 0 0 .037 5.125l3.764 3.573-3.352 3.37a3.56 3.56 0 0 0-1.044 2.584c.02.96.44 1.872 1.16 2.538l6.95 6.406a3.82 3.82 0 0 0 2.601 1.006c.99 0 1.98-.374 2.72-1.117l8.008-8.052a3.6 3.6 0 0 0 1.054 1.757l6.95 6.406a3.82 3.82 0 0 0 2.602 1.006c.99 0 1.98-.374 2.72-1.117l8.711-8.759 119.009-.727a8.2 8.2 0 0 0 1.919 2.491 9.04 9.04 0 0 0 6.026 2.278h.052a9 9 0 0 0 3.072-.557c1.717-.632 3.041-1.605 4.212-2.466l.513-.376c.901-.65 1.8-1.315 2.67-1.958q.74-.552 1.484-1.096c.454-.331 1.211-.886 1.802-1.773.967-1.45 1.082-3.234.313-4.894-.461-.994-1.235-1.922-2.183-2.615a921 921 0 0 0-3.839-2.797l-.096-.07-.078-.057c-2.037-1.48-4.829-3.512-8.211-3.512-1.924 0-3.707.639-5.299 1.898a8.5 8.5 0 0 0-2.12 2.472l-119.94.732-8.773-8.333a3.85 3.85 0 0 0-2.644-1.044z"/></svg>