<svg width="275" height="200" viewBox="0 0 275 200" fill="none" xmlns="http://www.w3.org/2000/svg">
<path d="M201.646 187.992C194.251 187.992 188.903 183.903 186.621 182.156C180.672 177.597 175.303 172.533 170.112 167.634C167.799 165.452 165.604 163.378 163.384 161.373C163.116 161.334 162.676 161.292 162.027 161.292C158.935 161.292 154.769 162.18 151.09 162.967C148.755 163.465 146.547 163.936 144.471 164.222C121.548 167.388 98.6225 170.549 75.6906 173.71C74.4902 173.875 72.5821 174.295 70.5617 174.739C65.5949 175.832 59.4122 177.189 53.3604 177.189C47.318 177.189 42.1984 175.799 38.1452 173.055C27.9124 166.131 26.4065 152.791 25.309 143.051C25.0814 141.043 24.8693 139.149 24.6355 137.96C24.6355 137.96 12.878 78.1672 12.8749 78.1492C10.8545 67.5924 16.5446 58.2212 26.8897 54.4571C27.1142 54.3551 27.3418 54.259 27.5725 54.169C29.25 53.5176 30.9772 52.7883 32.8043 52.0168C37.1039 50.2008 41.5499 48.3248 46.4512 46.971C46.4886 46.959 46.5759 46.9381 46.5822 46.9351C47.4676 46.6979 48.5277 46.4248 49.6782 46.1846C55.3558 44.978 60.9992 44.3536 66.4586 43.7473C69.0215 43.4621 71.444 43.195 73.8167 42.8738C75.2354 42.6817 76.6571 42.4866 78.0789 42.2945C79.4944 42.1024 102.062 39.0317 111.933 37.69C111.543 36.2612 111.231 34.6913 111.116 32.9983C110.951 30.561 111.25 28.1627 112.004 25.8545C114.667 17.702 122.733 12.0078 131.619 12.0078C133.736 12.0078 135.837 12.326 137.861 12.9564C139.495 13.4667 141.035 14.205 142.444 15.1355C144.181 15.1775 145.88 15.4538 147.501 15.958C153.089 17.696 157.806 21.9102 160.107 27.2322C160.643 28.4719 161.042 29.7265 161.31 30.9842C172.753 29.4294 184.195 27.8745 195.641 26.3167L219.973 23.0089C220.403 22.9519 220.837 22.9128 221.27 22.8978C221.604 22.8828 221.937 22.8738 222.265 22.8738C222.392 22.8738 222.52 22.8738 222.648 22.8738C229.002 22.8738 240.361 25.035 245.059 39.518C245.789 41.7542 246.285 44.0205 246.637 45.7464C246.637 45.7614 246.678 45.9445 246.678 45.9445C246.765 46.3797 246.852 46.812 246.936 47.2472C246.936 47.2472 254.341 84.7589 257.793 102.234C258.008 103.192 258.413 104.621 258.843 106.131C260.006 110.216 261.45 115.304 261.93 120.491C262.71 128.922 260.636 135.595 255.766 140.325C252.252 143.729 248.452 145.128 246.141 145.962C245.73 147.451 245.256 149.826 244.913 151.537C243.042 160.902 240.479 173.728 229.236 179.002C229.174 179.032 229.111 179.059 229.049 179.089C228.285 179.44 227.496 179.743 226.701 179.992L209.198 186.557C206.738 187.511 204.197 187.995 201.643 187.995L201.646 187.992Z" fill="#7E55A3"/>
<path d="M131.619 24.0132C132.414 24.0132 133.224 24.1303 134.032 24.3794C135.853 24.9467 137.412 26.5857 137.97 28.4767C139.099 27.6092 140.576 27.135 141.989 27.135C142.566 27.135 143.133 27.213 143.66 27.378C145.861 28.0624 147.713 29.8034 148.596 31.8445C151.177 37.8148 145.643 41.3147 141.206 44.1873C140.131 44.8837 139.055 45.5801 137.979 46.2735C145.733 45.2229 153.484 44.1693 161.238 43.1157C161.285 43.1097 161.332 43.1037 161.379 43.0977C181.489 40.3662 201.599 37.6287 221.719 34.8942H221.75C221.965 34.8822 222.177 34.8762 222.377 34.8762C222.467 34.8762 222.561 34.8762 222.648 34.8762C228.984 34.8762 231.631 38.3941 233.155 43.0947C233.66 44.6436 234.047 46.3245 234.399 48.0535C234.493 48.5217 234.586 48.9869 234.677 49.4552C238.306 67.8373 241.935 86.2194 245.564 104.596C247.039 111.379 253.053 125.898 246.908 131.866C243.051 135.603 238.088 134.189 235.303 139.583C231.933 146.129 232.32 164.193 223.774 168.204L223.758 168.21C223.393 168.384 223.007 168.531 222.601 168.639L204.589 175.395C203.554 175.804 202.578 175.984 201.646 175.984C198.955 175.984 196.648 174.489 194.381 172.754C186.234 166.514 178.929 158.901 171.306 152.067C168.986 149.993 165.672 149.287 162.03 149.284C155.324 149.284 147.501 151.676 142.709 152.337C119.78 155.504 96.8576 158.664 73.9257 161.825C68.9059 162.515 60.4067 165.184 53.3634 165.184C50.258 165.184 47.4394 164.668 45.3224 163.233C38.0297 158.298 38.3041 142.912 36.8948 135.732C32.9788 115.813 29.0596 95.8938 25.1436 75.9748C24.0617 70.3197 27.5163 66.5196 32.8603 65.2199C32.6545 65.2469 32.4487 65.2769 32.243 65.3039C38.0235 63.0587 43.8664 60.1771 49.8932 58.5142C49.8994 58.5142 49.9088 58.5142 49.915 58.5081C50.7257 58.292 51.5363 58.0849 52.3532 57.9138C59.9047 56.3079 67.8989 55.8007 75.5564 54.7651C78.3936 54.3809 81.2309 53.9907 84.0681 53.6065C99.0058 51.5744 113.947 49.5423 128.887 47.5131C128.785 47.282 128.691 47.0418 128.601 46.8047C127.6 44.2323 126.568 41.6719 125.592 39.0905C124.747 36.8633 123.727 34.594 123.562 32.2017C123.497 31.2382 123.621 30.3167 123.902 29.4582C124.94 26.2795 128.127 24.0162 131.619 24.0162M131.619 0.00300458C124.66 0.00300458 117.719 2.20025 112.076 6.18944C106.442 10.1726 102.192 15.8758 100.11 22.2513C99.564 23.9202 99.1649 25.6161 98.9154 27.3361C92.8075 28.1675 86.6996 28.996 80.5948 29.8274C79.1669 30.0195 77.7389 30.2146 76.3109 30.4097C74.9016 30.6018 73.4924 30.7939 72.0831 30.986C69.8663 31.2862 67.5185 31.5473 65.0367 31.8205C59.5461 32.4298 53.3229 33.1202 47.031 34.453C45.8556 34.6991 44.7674 34.9692 43.8757 35.2034C44.9046 34.9572 45.9553 34.7771 47.0185 34.66C45.7059 34.8101 44.4058 35.0563 43.1305 35.4015C39.121 36.491 35.4606 38.5322 32.483 41.3357C35.2829 38.7003 38.619 36.7732 42.2482 35.6506C36.8543 37.2025 32.0559 39.2285 27.8 41.0235C26.0602 41.7589 24.4171 42.4524 22.9112 43.0377C22.6212 43.1518 22.3344 43.2688 22.0506 43.3889C6.39271 49.2931 -2.48386 64.1483 0.612184 80.3272C0.61842 80.3662 0.627776 80.4052 0.634011 80.4442C2.59203 90.4037 4.55005 100.363 6.51118 110.326C8.46921 120.285 10.4272 130.245 12.3853 140.201C12.5256 140.916 12.7407 142.822 12.9122 144.349C13.4204 148.843 14.0502 154.435 15.6372 160.15C18.437 170.242 23.6002 177.89 30.9771 182.882C37.1692 187.072 44.702 189.2 53.3603 189.2C60.8182 189.2 68.0548 187.609 73.3396 186.448C74.7862 186.129 76.7661 185.694 77.4583 185.598C100.393 182.437 123.316 179.277 146.248 176.11C148.783 175.762 151.327 175.218 153.79 174.693C155.224 174.387 157.067 173.994 158.716 173.702C159.589 174.522 160.475 175.356 161.379 176.209C166.798 181.321 172.4 186.607 178.848 191.547C181.879 193.865 189.895 200 201.643 200C205.777 200 209.862 199.232 213.787 197.719L230.935 191.286C232.114 190.902 233.274 190.449 234.402 189.929C234.502 189.884 234.602 189.839 234.699 189.791C239.774 187.408 244.105 183.854 247.569 179.22C249.82 176.212 251.647 172.835 253.159 168.9C255.121 163.797 256.196 158.595 257.051 154.333C259.423 153.033 262.055 151.256 264.599 148.792C264.605 148.786 264.611 148.78 264.618 148.774C269.828 143.716 275.742 134.519 274.348 119.424C273.772 113.165 272.094 107.267 270.869 102.96C270.554 101.852 270.167 100.492 270.008 99.8229C266.501 82.0621 262.993 64.2954 259.486 46.5286L259.186 45.0097C259.102 44.5775 259.018 44.1483 258.931 43.7161L258.893 43.5209C258.887 43.4909 258.881 43.4609 258.875 43.4339C258.463 41.4078 257.871 38.7213 256.951 35.9058C254.759 29.1701 251.395 23.8391 246.662 19.6158C242.191 15.6236 234.393 10.866 222.648 10.866C222.486 10.866 222.321 10.866 222.159 10.866C221.694 10.866 221.22 10.881 220.746 10.902C219.904 10.932 219.066 11.0071 218.23 11.1181C209.737 12.2738 201.244 13.4264 192.751 14.582C184.838 15.6566 176.928 16.7342 169.018 17.8088C167.546 15.5786 165.787 13.5104 163.801 11.6914C160.247 8.44063 155.941 5.96431 151.352 4.53553C149.734 4.03125 148.072 3.65906 146.385 3.42493C144.885 2.66851 143.32 2.03515 141.711 1.53388C141.705 1.53388 141.699 1.53087 141.693 1.52787C138.428 0.513309 135.039 0 131.619 0V0.00300458Z" fill="white"/>
<path d="M86.2215 53.6276C83.4341 54.0058 80.6498 54.387 77.8624 54.7652C70.205 55.8008 62.2108 56.3081 54.6593 57.9139C53.8424 58.088 53.0318 58.2921 52.2211 58.5083C52.773 58.3101 53.3498 58.1451 53.9547 58.01C64.3902 55.6657 75.6114 55.0594 86.2183 53.6276M85.7663 49.4463L85.6883 49.4583L85.6104 49.4703C82.1901 49.9326 78.6045 50.3168 75.1406 50.689C67.8073 51.4754 60.2247 52.2889 52.9632 53.9218C52.1868 54.0959 51.4198 54.315 50.6934 54.5761L53.3903 62.5605C54.2758 62.3234 54.9555 62.1553 55.5946 62.0232C60.4336 60.9937 65.6404 60.4173 70.6758 59.859C73.2356 59.5768 75.8795 59.2827 78.4673 58.9315C79.8704 58.7424 81.2734 58.5503 82.6765 58.3582C84.0577 58.1691 85.442 57.98 86.8232 57.7939L86.9822 57.7729L85.7663 49.4493V49.4463Z" fill="black"/>
<path d="M203.961 178.087C200.447 178.087 197.666 176.184 195.337 174.401C189.809 170.169 184.636 165.288 179.632 160.566C177.181 158.252 174.646 155.863 172.13 153.608C170.462 152.117 167.915 151.39 164.339 151.39C160.12 151.39 155.369 152.405 151.175 153.299C149.036 153.756 147.016 154.188 145.326 154.419C122.397 157.586 99.4746 160.746 76.5458 163.907C74.9276 164.129 72.823 164.595 70.5906 165.084C65.892 166.116 60.5667 167.287 55.6716 167.287C51.7338 167.287 48.6939 166.525 46.3742 164.955C39.9514 160.608 38.7853 150.283 37.8499 141.983C37.6005 139.777 37.3666 137.694 37.058 136.124C35.1062 126.188 33.1513 116.256 31.1964 106.32C29.2321 96.337 27.2679 86.3535 25.3067 76.37C24.1687 70.4357 27.3053 65.5251 33.3508 63.55C33.4693 63.4749 33.5971 63.4119 33.7312 63.3579C35.5489 62.6525 37.4228 61.8601 39.2374 61.0946C43.2282 59.4107 47.3563 57.6667 51.5997 56.4961C51.7993 56.4421 52.0019 56.415 52.2015 56.415C53.1243 56.415 53.9755 56.9824 54.2748 57.8649C54.6396 58.9395 54.0535 60.1011 52.9529 60.4883C51.4719 61.0106 49.5045 62.0492 48.5286 64.0243C48.4631 64.1563 48.3977 64.3004 48.3353 64.4625C47.8832 65.6031 47.799 66.9479 48.0859 68.4457C51.4656 85.6601 54.8579 102.893 58.247 120.116C58.8082 122.974 59.357 125.834 59.9057 128.692C61.0094 134.44 62.1506 140.383 63.3728 146.203C63.4351 146.498 63.4944 146.795 63.5567 147.092C64.0556 149.535 64.4859 151.645 66.0292 153.311C67.6287 155.034 69.9452 155.839 73.3125 155.839C76.3712 155.839 79.8008 155.148 82.8283 154.539C84.4683 154.209 86.0147 153.897 87.4365 153.702C98.5454 152.171 109.654 150.64 120.763 149.109C132.374 147.509 143.985 145.906 155.593 144.309C158.48 143.91 161.433 143.457 164.289 143.016C170.154 142.112 176.215 141.179 182.22 140.644C183.114 140.563 184.175 140.482 185.253 140.482C187.639 140.482 190.766 140.828 193.768 143.511C196.066 145.57 198.358 147.632 200.649 149.691C205.239 153.816 209.987 158.081 214.674 162.256C214.907 162.46 215.144 162.679 215.384 162.896C215.531 163.031 215.681 163.163 215.827 163.298C218.166 165.405 220.008 166.897 222.459 166.897C222.627 166.897 222.799 166.891 222.973 166.876C223.429 166.837 223.859 166.759 224.249 166.639C224.467 166.573 224.688 166.54 224.91 166.54C225.811 166.54 226.652 167.083 226.967 167.941C227.36 169.01 226.799 170.187 225.701 170.598L207.708 177.349C206.461 177.838 205.198 178.087 203.954 178.087H203.961Z" fill="#4B8496"/>
<path d="M52.2042 58.5169C49.632 59.4264 47.6178 60.9813 46.5608 63.1245C46.4673 63.3106 46.38 63.5087 46.3021 63.7068C45.7252 65.1716 45.5725 66.8795 45.9435 68.8246C49.3264 86.0481 52.7155 103.281 56.1046 120.504C57.8132 129.206 59.4127 137.935 61.2366 146.615C61.854 149.539 62.2468 152.373 64.4013 154.702C66.6773 157.157 69.87 157.935 73.3153 157.935C78.2602 157.935 83.7258 156.332 87.7479 155.776C110.465 152.649 133.188 149.512 155.904 146.384C164.703 145.169 173.57 143.518 182.422 142.731C183.404 142.644 184.346 142.578 185.253 142.578C187.803 142.578 190.095 143.088 192.284 145.046C199.255 151.298 206.202 157.568 213.192 163.794C213.579 164.133 213.956 164.484 214.343 164.829C216.687 166.946 219.101 168.993 222.462 168.993C222.689 168.993 222.923 168.984 223.16 168.963C223.777 168.912 224.363 168.804 224.909 168.635L206.897 175.392C205.862 175.8 204.883 175.981 203.954 175.981C201.263 175.981 198.956 174.486 196.689 172.751C188.542 166.513 181.237 158.898 173.614 152.063C171.294 149.989 167.98 149.281 164.335 149.281C157.629 149.281 149.809 151.673 145.017 152.331C122.088 155.497 99.1655 158.658 76.2367 161.819C71.2169 162.512 62.7176 165.178 55.6744 165.178C52.569 165.178 49.7473 164.661 47.6303 163.227C40.3407 158.292 40.612 142.905 39.2027 135.725C35.2866 115.806 31.3675 95.8875 27.4514 75.9716C26.3695 70.3164 29.8241 66.5133 35.1682 65.2166C34.9624 65.2406 34.7566 65.2737 34.5508 65.3007C40.3313 63.0554 46.1742 60.1768 52.2042 58.5109M52.2042 54.3086C52.0078 54.3086 51.8082 54.3206 51.6087 54.3477C51.3655 54.3807 51.1285 54.4317 50.8978 54.5007C46.5515 55.7104 42.3891 57.4664 38.364 59.1653C36.4808 59.9608 34.7036 60.7112 32.917 61.4045C32.7487 61.4706 32.5834 61.5456 32.4275 61.6297C29.4749 62.6352 27.0617 64.2861 25.3905 66.4653C23.1924 69.3289 22.4223 72.8799 23.1612 76.737C23.1612 76.743 23.1613 76.7489 23.1644 76.7549C25.113 86.6664 27.0617 96.5809 29.0135 106.492C30.9809 116.497 32.9482 126.504 34.9156 136.509C35.2087 137.995 35.4394 140.039 35.6826 142.203C36.6647 150.923 37.8901 161.774 45.1235 166.666C47.8205 168.494 51.2751 169.38 55.6775 169.38C60.8189 169.38 66.5089 168.128 71.0829 167.123C73.2685 166.642 75.3325 166.189 76.8603 165.979C99.7891 162.818 122.712 159.658 145.64 156.491C147.408 156.248 149.469 155.809 151.649 155.341C155.733 154.471 160.36 153.483 164.338 153.483C167.294 153.483 169.417 154.041 170.646 155.14C173.137 157.373 175.659 159.754 178.101 162.059C183.142 166.817 188.358 171.739 193.974 176.038C196.786 178.19 199.941 180.183 203.957 180.183C205.479 180.183 207.013 179.886 208.515 179.297L226.496 172.553C228.691 171.73 229.81 169.377 229.028 167.24C228.398 165.52 226.714 164.436 224.912 164.436C224.476 164.436 224.03 164.499 223.593 164.634C223.36 164.706 223.088 164.754 222.789 164.778C222.68 164.787 222.571 164.79 222.465 164.79C220.943 164.79 219.649 163.857 217.326 161.762C217.174 161.624 217.027 161.492 216.884 161.359C216.637 161.137 216.394 160.915 216.148 160.696C211.48 156.539 206.751 152.292 202.18 148.182C199.876 146.111 197.569 144.037 195.261 141.969C191.654 138.745 187.822 138.373 185.253 138.373C184.081 138.373 182.908 138.463 182.02 138.544C175.946 139.084 169.848 140.024 163.949 140.933C161.099 141.371 158.152 141.828 155.284 142.224C143.929 143.788 132.567 145.355 121.206 146.922C109.847 148.488 98.4858 150.052 87.1274 151.619C85.6371 151.823 84.0563 152.141 82.382 152.481C79.314 153.099 76.1432 153.735 73.3121 153.735C69.7609 153.735 68.3828 152.691 67.6532 151.907C66.5682 150.734 66.2034 149.158 65.6983 146.684C65.636 146.384 65.5767 146.084 65.5112 145.781C64.2953 139.985 63.1541 134.05 62.0535 128.308C61.5141 125.496 60.956 122.587 60.3917 119.727C57.0026 102.506 53.6135 85.2766 50.2306 68.0562C50.0186 66.9516 50.0684 65.994 50.374 65.2106C50.427 65.0785 50.4675 64.9945 50.4894 64.9495C50.4925 64.9435 50.4956 64.9345 50.4987 64.9285C51.141 63.6258 52.5347 62.8873 53.6228 62.4941C53.919 62.395 54.2027 62.266 54.4646 62.1129C54.9074 61.8547 55.2878 61.5276 55.6027 61.1524C56.1421 60.507 56.4881 59.7056 56.5536 58.8291C56.5692 58.643 56.5692 58.4569 56.5567 58.2678C56.4975 57.3133 56.1077 56.4458 55.4998 55.7704C54.8388 55.038 53.9221 54.5278 52.8808 54.3687C52.6594 54.3357 52.4318 54.3176 52.2011 54.3176L52.2042 54.3086Z" fill="black"/>
<path d="M226.084 168.205L226.069 168.211L224.912 168.64" stroke="black" stroke-width="4.20231" stroke-miterlimit="10"/>
<path d="M206.903 175.398L206.311 175.624" stroke="black" stroke-width="4.20231" stroke-miterlimit="10"/>
<path d="M222.466 171.097C218.101 171.097 215.071 168.363 212.854 166.367C212.701 166.231 212.545 166.09 212.392 165.949C212.171 165.748 211.95 165.547 211.725 165.349C207.023 161.162 202.275 156.896 197.682 152.769C195.391 150.707 193.096 148.648 190.801 146.589C189.289 145.238 187.68 144.683 185.258 144.683C184.357 144.683 183.424 144.755 182.626 144.827C176.768 145.349 170.778 146.27 164.985 147.165C162.111 147.606 159.139 148.065 156.218 148.471C144.616 150.068 99.1764 156.332 88.0612 157.863C86.7798 158.04 85.2957 158.337 83.7274 158.652C80.4941 159.304 76.8275 160.039 73.3168 160.042C68.6774 160.042 65.2291 158.754 62.7722 156.107C60.4369 153.579 59.8476 150.695 59.2771 147.903C59.2178 147.615 59.1586 147.33 59.0993 147.039C57.8709 141.183 56.7266 135.221 55.6198 129.455C55.071 126.601 54.5223 123.749 53.9642 120.897C50.5751 103.674 47.186 86.4416 43.8031 69.2181C43.3666 66.9429 43.5256 64.8417 44.2676 62.9626C44.3799 62.6865 44.489 62.4374 44.6013 62.2152C45.8671 59.6488 48.2398 57.6858 51.4574 56.5481C51.4793 56.5391 51.498 56.5331 51.5198 56.5271C51.5603 56.5151 51.6009 56.5031 51.6414 56.4911C52.6516 56.2209 53.4404 56.0289 54.198 55.8668C59.3581 54.7682 64.7364 54.1738 69.937 53.5975C72.4563 53.3183 75.0597 53.0302 77.5633 52.691C79.01 52.4959 80.4536 52.2978 81.8972 52.1027C83.2909 51.9136 84.6846 51.7214 86.0751 51.5353C108.995 48.4166 131.917 45.3039 154.84 42.1912C154.84 42.1912 182.155 38.4782 191.543 37.2025C202.269 35.7436 212.997 34.2849 223.726 32.8291C223.813 32.8171 223.904 32.8111 223.994 32.8081C224.218 32.7961 224.446 32.79 224.671 32.79C224.77 32.79 224.867 32.79 224.964 32.79C233.426 32.79 236.2 38.3221 237.554 42.4824C238.134 44.2564 238.554 46.1834 238.854 47.6632L239.134 49.074C242.764 67.4531 246.39 85.8292 250.019 104.199C250.29 105.448 250.727 106.982 251.232 108.753C253.505 116.743 256.616 127.684 250.77 133.36C248.806 135.263 246.655 136.041 244.759 136.728C242.458 137.56 240.799 138.16 239.571 140.534C238.558 142.503 237.862 145.985 237.123 149.674C235.499 157.797 233.659 167.003 227.04 170.11C226.541 170.347 226.036 170.533 225.537 170.671C224.851 170.878 224.119 171.013 223.355 171.076C223.059 171.1 222.759 171.112 222.466 171.112V171.097Z" fill="#86D6F7"/>
<path d="M224.962 34.879C231.298 34.879 233.942 38.397 235.47 43.0975C235.975 44.6464 236.361 46.3273 236.714 48.0563C236.807 48.5245 236.901 48.9898 236.994 49.458C240.623 67.8401 244.253 86.2222 247.882 104.601C249.357 111.385 255.371 125.901 249.223 131.871C245.369 135.608 240.402 134.195 237.618 139.589C234.247 146.135 234.634 164.196 226.088 168.209L226.075 168.215C225.711 168.389 225.324 168.537 224.919 168.645C224.373 168.81 223.79 168.921 223.17 168.972C222.933 168.99 222.699 169.002 222.471 169.002C219.107 169.002 216.697 166.955 214.352 164.839C213.966 164.493 213.588 164.142 213.202 163.803C206.212 157.577 199.265 151.307 192.293 145.055C190.101 143.098 187.81 142.587 185.263 142.587C184.355 142.587 183.414 142.653 182.432 142.74C173.58 143.527 164.713 145.178 155.914 146.393C133.197 149.521 110.474 152.658 87.7575 155.785C83.7354 156.341 78.2698 157.944 73.3249 157.944C69.8796 157.944 66.6869 157.166 64.4109 154.711C62.2565 152.382 61.8667 149.548 61.2463 146.624C59.4254 137.941 57.8228 129.215 56.1142 120.513C52.7251 103.29 49.336 86.0572 45.9531 68.8337C45.5821 66.8886 45.7349 65.1807 46.3117 63.7159C46.3927 63.5178 46.4769 63.3197 46.5704 63.1336C47.6274 60.9904 49.6415 59.4355 52.2138 58.526C52.22 58.526 52.2263 58.526 52.2325 58.52C53.0431 58.3039 53.8538 58.0968 54.6707 57.9257C62.2221 56.3198 70.2163 55.8155 77.8738 54.7769C80.7111 54.3927 83.5484 54.0026 86.3887 53.6183C112.111 50.1184 137.837 46.6244 163.559 43.1305C163.606 43.1245 163.653 43.1186 163.699 43.1126C183.81 40.3811 203.923 37.6405 224.039 34.909H224.074C224.286 34.897 224.498 34.891 224.697 34.891C224.788 34.891 224.881 34.891 224.972 34.891M224.972 30.6887C224.869 30.6887 224.763 30.6887 224.66 30.6887C224.414 30.6887 224.164 30.6977 223.915 30.7097C223.753 30.7127 223.59 30.7277 223.428 30.7487C212.703 32.2045 201.977 33.6633 191.255 35.1221C181.864 36.3978 172.476 37.6766 163.085 38.9523H163.066L162.936 38.9703L153.722 40.2219C131.074 43.2986 108.423 46.3753 85.7776 49.455C84.3465 49.6501 82.9092 49.8452 81.475 50.0403C80.0719 50.2324 78.672 50.4216 77.269 50.6137C74.7903 50.9499 72.1993 51.235 69.6957 51.5142C64.4389 52.0965 59.0045 52.6998 53.7353 53.8194C52.9496 53.9845 52.1015 54.1916 51.0664 54.4708C50.9853 54.4918 50.9074 54.5158 50.8294 54.5428C50.792 54.5548 50.7546 54.5669 50.7172 54.5819C46.9571 55.9116 44.1634 58.2409 42.6419 61.3206C42.5047 61.5937 42.3769 61.8818 42.2491 62.203C42.2491 62.209 42.2428 62.2181 42.2397 62.2241C41.3543 64.4693 41.1609 66.9487 41.6692 69.5961C41.6692 69.6021 41.6692 69.6082 41.6723 69.6142C45.0552 86.8406 48.4443 104.07 51.8334 121.297C52.3915 124.139 52.9496 127.039 53.4859 129.842C54.5958 135.617 55.7432 141.588 56.9717 147.459C57.034 147.75 57.0901 148.032 57.1494 148.314C57.748 151.241 58.4246 154.555 61.1527 157.508C64.0118 160.591 68.1056 162.149 73.328 162.149C77.0632 162.149 80.8452 161.387 84.1844 160.717C85.7184 160.408 87.1651 160.117 88.3811 159.949C99.7395 158.385 111.101 156.818 122.459 155.251C133.818 153.684 145.179 152.12 156.538 150.554C159.481 150.148 162.462 149.686 165.346 149.242C171.101 148.353 177.053 147.438 182.84 146.925C183.9 146.832 184.627 146.79 185.269 146.79C187.155 146.79 188.218 147.141 189.331 148.134C191.632 150.196 193.936 152.268 196.237 154.336C200.821 158.454 205.56 162.713 210.246 166.886C210.252 166.892 210.258 166.898 210.265 166.904C210.48 167.093 210.692 167.285 210.904 167.48C211.063 167.624 211.222 167.771 211.384 167.915C213.716 170.016 217.252 173.204 222.477 173.204C222.83 173.204 223.191 173.189 223.547 173.159C224.464 173.084 225.343 172.919 226.169 172.673C226.78 172.505 227.388 172.277 227.984 171.997C227.993 171.994 227.999 171.988 228.005 171.988C231.578 170.31 234.254 167.054 236.184 162.032C237.64 158.244 238.506 153.897 239.273 150.061C239.95 146.675 240.651 143.173 241.534 141.456C242.335 139.907 243.186 139.535 245.531 138.685C247.533 137.962 250.024 137.061 252.325 134.834C259.059 128.293 255.754 116.674 253.344 108.188C252.874 106.531 252.428 104.962 252.166 103.779C248.54 85.4148 244.914 67.0447 241.288 48.6746L241.147 47.9692L241.007 47.2668C241.007 47.2668 241.007 47.2549 241.004 47.2489C240.692 45.718 240.255 43.7159 239.641 41.8399C238.55 38.481 237.029 35.9626 234.996 34.1466C232.417 31.8473 229.047 30.6797 224.972 30.6797V30.6887Z" fill="black"/>
<path d="M215.358 96.1441C214.757 96.1441 214.174 96.021 213.622 95.7809C212.733 95.3937 212.085 94.7843 211.614 94.3401C210.978 93.7427 210.339 93.1484 209.7 92.5511C208.633 91.5576 207.529 90.528 206.451 89.4984C206.236 89.2943 206.02 89.0902 205.802 88.8861C204.49 87.6524 203.002 86.2566 201.983 84.4856C201.456 83.5671 201.113 82.5796 200.97 81.547C200.655 79.2958 201.316 76.9515 202.784 75.1145C204.24 73.2895 206.335 72.1279 208.68 71.8397C208.945 71.8067 209.216 71.7916 209.488 71.7916C210.71 71.7916 211.963 72.1279 213.073 72.7222C214.199 71.6896 215.633 70.9903 217.114 70.8102C217.454 70.7681 217.803 70.7471 218.152 70.7471C220.372 70.7471 222.601 71.5816 224.266 73.0374C226.704 75.1655 227.574 77.819 226.857 80.9227C226.308 83.294 224.927 85.5152 223.705 87.4783L223.125 88.4118C222.127 90.0147 221.13 91.6206 220.123 93.2205C219.274 94.5712 217.516 96.1501 215.362 96.1501L215.358 96.1441Z" fill="#ED1C24"/>
<path d="M218.152 72.8458C219.845 72.8458 221.557 73.5062 222.798 74.5898C226.976 78.2398 224.067 82.8053 221.756 86.5153C220.59 88.3883 219.427 90.2614 218.255 92.1284C217.672 93.0529 216.546 94.0435 215.359 94.0435C215.081 94.0435 214.801 93.9894 214.526 93.8694C213.993 93.6352 213.56 93.233 213.142 92.8398C211.427 91.2279 209.693 89.634 207.994 88.0101C206.526 86.6084 204.911 85.2306 203.897 83.4687C203.489 82.7603 203.243 82.0159 203.137 81.2684C202.66 77.8616 205.151 74.3917 208.958 73.9264C209.132 73.9054 209.31 73.8934 209.491 73.8934C210.937 73.8934 212.471 74.5778 213.469 75.6854C214.227 74.2086 215.795 73.089 217.391 72.8939C217.644 72.8638 217.9 72.8488 218.155 72.8488M218.155 68.6465C217.716 68.6465 217.273 68.6735 216.843 68.7245C215.399 68.9016 213.993 69.448 212.768 70.2704C211.717 69.8922 210.604 69.6911 209.491 69.6911C209.126 69.6911 208.764 69.7121 208.409 69.7572C205.484 70.1144 202.875 71.5641 201.06 73.8363C199.239 76.1146 198.422 79.0292 198.812 81.8298C198.993 83.1205 199.42 84.3602 200.081 85.5068C201.256 87.5479 202.865 89.0578 204.284 90.3935C204.496 90.5946 204.711 90.7927 204.92 90.9938C206.005 92.0324 207.112 93.065 208.184 94.0615C208.824 94.6558 209.46 95.2501 210.096 95.8475C210.651 96.3698 211.486 97.1562 212.727 97.6995C213.563 98.0657 214.451 98.2518 215.365 98.2518C218.427 98.2518 220.796 96.2166 221.993 94.3106C223.007 92.6987 224.026 91.0599 225.012 89.475L225.504 88.6825L225.579 88.5625C226.82 86.5694 228.363 84.087 228.99 81.3855C229.879 77.5464 228.753 74.1246 225.735 71.4861C223.674 69.6851 220.912 68.6495 218.155 68.6495V68.6465Z" fill="white"/>
<path d="M179.344 104.709C178.689 104.709 178.05 104.576 177.448 104.312C176.457 103.88 175.746 103.211 175.175 102.676C174.414 101.962 173.65 101.251 172.887 100.539C171.621 99.3596 170.308 98.1379 169.033 96.9163C168.777 96.6731 168.518 96.4299 168.257 96.1838C166.638 94.665 164.964 93.0951 163.782 91.039C163.178 89.9884 162.788 88.8598 162.623 87.6802C162.264 85.1048 163.019 82.4213 164.699 80.3171C166.367 78.231 168.759 76.9013 171.44 76.5741C171.736 76.5381 172.042 76.52 172.35 76.52C173.834 76.52 175.359 76.9582 176.684 77.7267C177.991 76.442 179.705 75.5655 181.483 75.3494C181.869 75.3014 182.268 75.2773 182.664 75.2773C185.205 75.2773 187.756 76.2319 189.664 77.9008C195.909 83.3578 191.703 90.1175 188.919 94.59L188.308 95.5745C187.095 97.5256 185.882 99.4767 184.657 101.422C183.702 102.941 181.735 104.715 179.344 104.715V104.709Z" fill="#ED1C24"/>
<path d="M182.667 77.3732C184.682 77.3732 186.721 78.1596 188.198 79.4503C193.171 83.7967 189.708 89.2297 186.961 93.6451C185.573 95.8754 184.189 98.1026 182.792 100.327C182.1 101.428 180.756 102.608 179.347 102.608C179.016 102.608 178.683 102.545 178.355 102.401C177.719 102.122 177.205 101.645 176.706 101.173C174.667 99.2553 172.6 97.3582 170.576 95.4222C168.83 93.7533 166.907 92.1143 165.7 90.0162C165.214 89.1727 164.92 88.2843 164.796 87.3958C164.228 83.3405 167.193 79.2102 171.724 78.6549C171.933 78.6309 172.145 78.6159 172.357 78.6159C174.081 78.6159 175.905 79.4293 177.096 80.7501C177.997 78.9941 179.868 77.6583 181.763 77.4272C182.063 77.3912 182.368 77.3732 182.67 77.3732M182.67 73.1709C182.181 73.1709 181.692 73.2009 181.214 73.258C179.487 73.4681 177.807 74.1645 176.376 75.206C175.1 74.6927 173.732 74.4136 172.36 74.4136C171.964 74.4136 171.565 74.4376 171.175 74.4857C167.914 74.8849 165.002 76.4997 162.978 79.0331C160.945 81.5785 160.032 84.8293 160.468 87.954C160.671 89.3918 161.145 90.7725 161.881 92.0513C163.218 94.3775 165.089 96.1335 166.738 97.6824C166.994 97.9225 167.25 98.1627 167.499 98.4028C168.787 99.6335 170.106 100.861 171.378 102.05C172.138 102.758 172.896 103.467 173.654 104.178C174.271 104.76 175.206 105.64 176.547 106.225C177.436 106.612 178.377 106.81 179.344 106.81C182.642 106.81 185.215 104.586 186.524 102.503C187.737 100.576 188.956 98.6129 190.135 96.7188L190.702 95.8063L190.789 95.6622C192.311 93.2159 194.035 90.4454 194.749 87.3537C195.737 83.0793 194.484 79.2703 191.126 76.3377C188.822 74.3235 185.738 73.1709 182.661 73.1709H182.67Z" fill="white"/>
<path d="M141.171 111.987C140.469 111.987 139.789 111.846 139.147 111.564C138.068 111.093 137.289 110.357 136.659 109.766C135.802 108.958 134.938 108.154 134.074 107.353C132.64 106.017 131.159 104.633 129.712 103.252C129.422 102.976 129.129 102.7 128.836 102.424C127.022 100.719 125.142 98.957 123.826 96.6667C123.159 95.5081 122.732 94.2624 122.548 92.9657C122.152 90.1261 122.987 87.1665 124.839 84.8432C126.679 82.541 129.316 81.0762 132.272 80.713C132.596 80.6739 132.93 80.6529 133.264 80.6529C134.966 80.6529 136.715 81.1782 138.212 82.0907C139.662 80.5929 141.607 79.5693 143.627 79.3232C144.055 79.2721 144.491 79.2451 144.928 79.2451C147.731 79.2451 150.546 80.3017 152.651 82.1387C159.541 88.1601 154.855 95.6882 151.756 100.668L151.042 101.818C149.676 104.012 148.314 106.206 146.936 108.394C145.894 110.051 143.758 111.987 141.171 111.987Z" fill="#ED1C24"/>
<path d="M144.929 81.343C147.208 81.343 149.515 82.2315 151.186 83.6933C156.811 88.61 152.892 94.7544 149.786 99.7492C148.218 102.271 146.653 104.792 145.072 107.307C144.29 108.553 142.771 109.886 141.175 109.886C140.804 109.886 140.427 109.814 140.052 109.649C139.332 109.333 138.752 108.793 138.188 108.262C135.881 106.092 133.545 103.948 131.257 101.757C129.28 99.8692 127.104 98.0172 125.741 95.6429C125.193 94.6884 124.859 93.6858 124.719 92.6772C124.077 88.0907 127.431 83.4172 132.557 82.7898C132.794 82.7598 133.034 82.7478 133.274 82.7478C135.223 82.7478 137.287 83.6693 138.634 85.1611C139.653 83.174 141.767 81.6642 143.912 81.403C144.252 81.361 144.595 81.34 144.938 81.34M144.938 77.1377C144.408 77.1377 143.878 77.1707 143.361 77.2338C141.396 77.4739 139.491 78.2963 137.895 79.524C136.436 78.8906 134.855 78.5455 133.271 78.5455C132.847 78.5455 132.42 78.5725 132.005 78.6205C128.47 79.0527 125.311 80.8058 123.116 83.5553C120.912 86.3168 119.917 89.8467 120.391 93.2386C120.609 94.7964 121.124 96.2913 121.922 97.678C123.394 100.238 125.48 102.195 127.316 103.921C127.606 104.195 127.896 104.465 128.183 104.738C129.636 106.128 131.12 107.511 132.557 108.85C133.421 109.655 134.281 110.459 135.142 111.266C135.853 111.936 136.829 112.851 138.253 113.476C139.183 113.881 140.168 114.088 141.181 114.088C144.673 114.088 147.414 111.711 148.814 109.483C150.179 107.31 151.554 105.098 152.886 102.958L153.537 101.907L153.637 101.745C155.336 99.0167 157.26 95.922 158.049 92.5121C159.118 87.8836 157.762 83.7563 154.127 80.5806C151.626 78.3954 148.274 77.1407 144.938 77.1407V77.1377Z" fill="white"/>
<path d="M98.0523 120.883C97.2822 120.883 96.5308 120.727 95.823 120.418C94.6133 119.89 93.7184 119.046 92.9982 118.368C91.9818 117.41 90.9591 116.459 89.9365 115.507C88.2466 113.934 86.5037 112.304 84.8013 110.681C84.4584 110.353 84.1092 110.026 83.76 109.699C81.6367 107.706 79.4448 105.647 77.9171 102.99C77.1563 101.667 76.6637 100.241 76.4548 98.752C75.9996 95.4982 76.9568 92.1063 79.0832 89.4469C81.1877 86.8114 84.2121 85.1305 87.595 84.7163C87.9629 84.6712 88.3401 84.6502 88.7174 84.6502C90.7596 84.6502 92.8641 85.3136 94.6226 86.4632C96.2907 84.6292 98.601 83.3715 101.002 83.0774C101.488 83.0173 101.99 82.9873 102.489 82.9873C105.7 82.9873 108.927 84.197 111.341 86.3071C114.845 89.3718 116.102 93.1899 115.07 97.6564C114.243 101.228 112.101 104.671 110.212 107.709L109.32 109.141C107.752 111.662 106.131 114.271 104.522 116.828C103.346 118.701 100.946 120.886 98.0523 120.886V120.883Z" fill="#ED1C24"/>
<path d="M102.485 85.089C105.173 85.089 107.898 86.1396 109.871 87.8626C116.512 93.6647 111.885 100.92 108.219 106.818C106.367 109.793 104.518 112.77 102.653 115.739C101.727 117.21 99.9377 118.783 98.0514 118.783C97.6118 118.783 97.1659 118.696 96.7263 118.503C95.8783 118.131 95.1924 117.492 94.5251 116.865C91.8001 114.301 89.0439 111.771 86.3407 109.186C84.0086 106.956 81.4394 104.771 79.8275 101.97C79.179 100.845 78.7861 99.6591 78.6209 98.4704C77.8632 93.0554 81.8229 87.5384 87.8716 86.8C88.1491 86.7669 88.4328 86.749 88.7165 86.749C91.0175 86.749 93.4526 87.8355 95.0427 89.5975C96.2462 87.2532 98.7405 85.4702 101.275 85.1611C101.678 85.113 102.08 85.089 102.488 85.089M102.488 80.8867C101.896 80.8867 101.303 80.9228 100.727 80.9918C98.3944 81.277 96.1339 82.3065 94.2913 83.8344C92.5515 83.0029 90.634 82.5466 88.7197 82.5466C88.2489 82.5466 87.7812 82.5737 87.3229 82.6307C83.3569 83.114 79.8181 85.08 77.355 88.1657C74.8794 91.2664 73.7632 95.2286 74.2933 99.0317C74.5365 100.779 75.1133 102.454 76.0081 104.008C77.6918 106.932 80.1081 109.201 82.2376 111.203C82.5806 111.528 82.9267 111.849 83.2634 112.173C84.9782 113.812 86.7304 115.448 88.4266 117.027C89.443 117.975 90.4594 118.921 91.4727 119.872C92.2709 120.623 93.3622 121.649 94.918 122.331C95.9126 122.766 96.9633 122.985 98.0483 122.985C100.536 122.985 104.035 121.652 106.386 117.915C108.004 115.34 109.634 112.716 111.212 110.183L111.96 108.979L112.079 108.79C114.052 105.617 116.291 102.018 117.195 98.1162C118.392 92.9324 116.874 88.3128 112.805 84.7559C109.996 82.3005 106.233 80.8927 102.485 80.8927L102.488 80.8867Z" fill="white"/>
<path d="M133.917 51.5343C132.424 51.5343 131.102 50.973 130.201 49.9525C129.493 49.154 129.147 48.2596 128.866 47.5392C128.495 46.5847 128.118 45.6301 127.744 44.6756C127.117 43.0847 126.472 41.4428 125.851 39.8129C125.727 39.4888 125.602 39.1616 125.474 38.8314C124.682 36.7933 123.859 34.6861 123.697 32.3418C123.613 31.1441 123.759 29.9615 124.13 28.8269C125.462 24.7566 129.493 21.9141 133.93 21.9141C134.974 21.9141 136.013 22.0732 137.013 22.3853C138.706 22.9136 140.219 24.0782 141.257 25.5731C142.23 25.2249 143.268 25.0358 144.3 25.0358C145.12 25.0358 145.906 25.1529 146.644 25.381C149.416 26.2455 151.764 28.3587 152.924 31.0391C156.166 38.5342 149.376 42.9316 144.88 45.8402L143.77 46.5606C141.849 47.8033 139.932 49.046 138.005 50.2797C136.761 51.0781 135.27 51.5343 133.917 51.5343Z" fill="#ED1C24"/>
<path d="M133.929 24.015C134.724 24.015 135.538 24.1321 136.343 24.3842C138.163 24.9515 139.722 26.5905 140.28 28.4785C141.409 27.611 142.887 27.1368 144.299 27.1368C144.876 27.1368 145.444 27.2148 145.971 27.3799C148.172 28.0643 150.024 29.8052 150.906 31.8464C153.488 37.8167 147.954 41.3165 143.517 44.1891C141.278 45.6389 139.04 47.0917 136.795 48.5295C136.015 49.0278 134.933 49.43 133.917 49.43C133.141 49.43 132.398 49.1959 131.862 48.5866C131.41 48.0733 131.158 47.4309 130.911 46.8005C129.91 44.2281 128.882 41.6677 127.903 39.0863C127.058 36.8591 126.041 34.5899 125.876 32.1975C125.81 31.234 125.935 30.3125 126.216 29.4541C127.257 26.2753 130.44 24.009 133.932 24.009M133.932 19.8067C128.554 19.8067 123.668 23.2556 122.05 28.1903C121.598 29.5741 121.417 31.0179 121.52 32.4767C121.704 35.1301 122.621 37.4835 123.431 39.5636C123.556 39.8848 123.681 40.2059 123.803 40.5271C124.423 42.169 125.075 43.8169 125.701 45.4108C126.075 46.3653 126.453 47.3169 126.824 48.2714C127.126 49.0518 127.585 50.2284 128.539 51.309C129.864 52.8069 131.772 53.6293 133.917 53.6293C135.691 53.6293 137.621 53.044 139.214 52.0235C141.163 50.7748 143.136 49.4961 145.041 48.2624L145.952 47.6711L146.095 47.578C148.552 45.9871 151.336 44.1832 153.347 41.6798C156.129 38.2159 156.677 34.2536 154.934 30.2254C153.535 26.9867 150.685 24.4263 147.314 23.3757C146.36 23.0786 145.347 22.9285 144.299 22.9285C143.551 22.9285 142.797 23.0065 142.061 23.1596C140.854 21.8779 139.339 20.8934 137.686 20.3771C136.467 19.9959 135.201 19.8037 133.929 19.8037L133.932 19.8067Z" fill="black"/>
<path d="M117.769 76.6478C117.214 76.6478 116.675 76.5367 116.163 76.3176C115.334 75.9634 114.741 75.4141 114.308 75.0149C113.744 74.4926 113.179 73.9763 112.612 73.457C111.661 72.5865 110.679 71.6861 109.719 70.7856C109.528 70.6085 109.335 70.4284 109.142 70.2513C107.963 69.1617 106.626 67.928 105.693 66.3431C105.204 65.5087 104.886 64.6112 104.746 63.6717C104.44 61.6245 105.023 59.4874 106.345 57.8034C107.658 56.1315 109.553 55.0569 111.686 54.7777C111.945 54.7447 112.213 54.7267 112.481 54.7267C113.541 54.7267 114.604 54.9879 115.561 55.4621C116.562 54.5796 117.813 53.9793 119.11 53.8082C119.44 53.7662 119.783 53.7422 120.123 53.7422C122.121 53.7422 124.129 54.4836 125.638 55.7803C130.646 60.0787 127.303 65.5537 125.308 68.8225L124.825 69.6149C123.952 71.0467 123.076 72.4815 122.196 73.9103C121.417 75.174 119.789 76.6478 117.769 76.6478Z" fill="#ED1C24"/>
<path d="M120.122 55.8478C121.597 55.8478 123.093 56.4151 124.185 57.3516C127.895 60.5394 125.366 64.5826 123.362 67.8694C122.348 69.5294 121.338 71.1863 120.319 72.8402C119.81 73.6657 118.819 74.5481 117.765 74.5481C117.525 74.5481 117.285 74.5031 117.045 74.401C116.571 74.1999 116.187 73.8487 115.816 73.5035C114.292 72.0958 112.751 70.706 111.239 69.2832C109.936 68.0585 108.499 66.8579 107.591 65.312C107.227 64.6907 107.002 64.0363 106.905 63.376C106.46 60.3773 108.627 57.3006 111.978 56.8623C112.143 56.8413 112.312 56.8294 112.48 56.8294C113.746 56.8294 115.087 57.4207 115.969 58.3812C116.624 57.0755 117.999 56.0759 119.402 55.8928C119.639 55.8628 119.879 55.8478 120.122 55.8478ZM120.122 51.6455C119.686 51.6455 119.246 51.6725 118.816 51.7296C117.55 51.8947 116.318 52.3659 115.23 53.0623C114.342 52.7801 113.412 52.6301 112.483 52.6301C112.119 52.6301 111.751 52.6541 111.392 52.6991C108.68 53.0533 106.269 54.416 104.604 56.5412C102.936 58.6664 102.201 61.3769 102.587 63.9733C102.765 65.174 103.173 66.3176 103.794 67.3801C104.882 69.2322 106.341 70.5829 107.632 71.7716C107.819 71.9457 108.009 72.1198 108.193 72.2909C109.16 73.2004 110.145 74.1008 111.096 74.9743C111.663 75.4936 112.228 76.0129 112.792 76.5352C113.31 77.0154 114.095 77.7389 115.274 78.2432C116.066 78.5824 116.904 78.7534 117.765 78.7534C120.702 78.7534 122.947 76.8083 124.069 74.9863C124.955 73.5486 125.846 72.0867 126.71 70.6729L127.122 69.9976L127.187 69.8926C128.285 68.0946 129.65 65.8583 130.196 63.3939C130.979 59.87 129.875 56.6103 127.087 54.2179C125.185 52.585 122.648 51.6485 120.122 51.6485V51.6455Z" fill="white"/>
<path d="M129.33 134.721C128.856 134.721 128.395 134.628 127.958 134.439C127.285 134.15 126.814 133.715 126.499 133.424C126.116 133.07 125.729 132.716 125.342 132.361C124.688 131.761 124.036 131.164 123.391 130.557C123.263 130.437 123.135 130.32 123.004 130.2C122.172 129.432 121.227 128.558 120.547 127.4C120.173 126.763 119.93 126.073 119.821 125.353C119.587 123.789 120.033 122.159 121.037 120.874C122.038 119.598 123.487 118.776 125.121 118.563C125.33 118.536 125.542 118.521 125.754 118.521C126.428 118.521 127.098 118.656 127.728 118.902C128.442 118.374 129.28 118.017 130.144 117.905C130.4 117.872 130.662 117.854 130.923 117.854C132.445 117.854 133.976 118.419 135.123 119.406C138.943 122.687 136.402 126.85 135.039 129.084L134.684 129.666C134.101 130.62 133.518 131.575 132.931 132.53C132.28 133.586 130.992 134.715 129.327 134.715L129.33 134.721Z" fill="#ED1C24"/>
<path d="M130.924 119.96C131.922 119.96 132.935 120.344 133.674 120.978C136.184 123.136 134.472 125.87 133.116 128.095C132.43 129.217 131.747 130.34 131.058 131.459C130.715 132.018 130.041 132.615 129.331 132.615C129.168 132.615 129.006 132.585 128.844 132.516C128.523 132.378 128.264 132.141 128.012 131.907C126.98 130.952 125.938 130.013 124.916 129.052C124.033 128.224 123.061 127.41 122.446 126.363C122.2 125.942 122.047 125.498 121.982 125.054C121.679 123.025 123.148 120.942 125.415 120.644C125.527 120.629 125.639 120.623 125.754 120.623C126.612 120.623 127.519 121.023 128.115 121.674C128.557 120.792 129.49 120.113 130.437 119.99C130.6 119.969 130.762 119.96 130.924 119.96ZM130.924 115.758C130.565 115.758 130.204 115.782 129.851 115.827C128.991 115.941 128.158 116.208 127.398 116.607C126.858 116.487 126.306 116.424 125.754 116.424C125.443 116.424 125.131 116.445 124.825 116.484C122.615 116.772 120.65 117.883 119.294 119.612C117.941 121.338 117.346 123.541 117.657 125.654C117.804 126.633 118.134 127.569 118.643 128.437C119.481 129.866 120.594 130.892 121.489 131.721C121.614 131.835 121.739 131.949 121.86 132.066C122.521 132.687 123.192 133.299 123.837 133.894C124.22 134.245 124.601 134.593 124.981 134.944C125.352 135.287 126.041 135.926 127.064 136.361C127.781 136.667 128.542 136.823 129.324 136.823C131.903 136.823 133.845 135.163 134.806 133.609C135.401 132.645 135.99 131.676 136.58 130.709L136.873 130.226L136.916 130.154C137.711 128.854 138.697 127.233 139.114 125.351C139.754 122.469 138.849 119.801 136.57 117.844C135.027 116.52 132.966 115.761 130.918 115.761L130.924 115.758Z" fill="white"/>
<path d="M81.2865 138.078C81.0994 138.078 80.9092 138.063 80.7221 138.033C79.9956 137.913 79.4251 137.604 79.0478 137.4C78.5833 137.148 78.1187 136.899 77.6573 136.647C76.8684 136.223 76.0796 135.797 75.297 135.362C75.1442 135.278 74.9883 135.194 74.8325 135.107C73.8254 134.561 72.6874 133.942 71.7302 132.982C71.2033 132.453 70.7886 131.847 70.5017 131.175C69.875 129.716 69.8813 128.029 70.5267 126.546C71.169 125.069 72.36 123.929 73.8846 123.331C74.4645 123.106 75.0944 122.989 75.7522 122.989C76.0017 122.989 76.2511 123.007 76.4974 123.04C77.0524 122.359 77.7726 121.813 78.5833 121.494C79.2941 121.218 80.058 121.077 80.8562 121.077C81.882 121.077 82.8984 121.314 83.7932 121.759C88.3391 124.025 86.9516 128.662 86.2064 131.154L86.035 131.727C85.7107 132.817 85.3833 133.906 85.0528 134.993C84.5852 136.527 83.2413 138.072 81.2895 138.072L81.2865 138.078Z" fill="#ED1C24"/>
<path d="M80.8559 123.179C81.5293 123.179 82.2028 123.335 82.7889 123.626C85.779 125.115 84.8249 128.177 84.0829 130.656C83.7087 131.908 83.3346 133.159 82.9542 134.408C82.7391 135.116 82.1248 135.978 81.283 135.978C81.2175 135.978 81.1489 135.972 81.0804 135.96C80.7343 135.903 80.4225 135.735 80.1169 135.57C78.8729 134.891 77.6195 134.231 76.3817 133.544C75.3123 132.949 74.1618 132.397 73.2981 131.529C72.9489 131.181 72.6902 130.788 72.5093 130.371C71.6925 128.477 72.5779 126.108 74.6981 125.28C75.0223 125.154 75.3778 125.094 75.7426 125.094C76.3817 125.094 77.0396 125.28 77.579 125.631C77.7817 124.671 78.5081 123.791 79.3967 123.443C79.855 123.263 80.3508 123.179 80.8496 123.179M80.8496 118.977C79.7677 118.977 78.7263 119.169 77.7536 119.55C76.9492 119.865 76.2134 120.324 75.5773 120.892C74.695 120.91 73.8469 121.075 73.055 121.387C70.9878 122.194 69.3697 123.74 68.5029 125.736C67.6361 127.732 67.6267 130.008 68.4748 131.98C68.8676 132.892 69.432 133.721 70.146 134.438C71.3276 135.621 72.6715 136.353 73.7502 136.938C73.8999 137.019 74.0495 137.101 74.1992 137.185C74.9974 137.629 75.8049 138.061 76.5813 138.481C77.0427 138.73 77.5042 138.98 77.9656 139.229C78.4146 139.472 79.2471 139.925 80.3508 140.105C80.6563 140.156 80.9712 140.18 81.2799 140.18C83.9488 140.18 86.3028 138.337 87.1383 135.591C87.4688 134.501 87.7962 133.411 88.1205 132.322L88.2701 131.821L88.2951 131.74C88.7285 130.29 89.2679 128.486 89.1868 126.562C89.0621 123.617 87.5 121.249 84.7875 119.898C83.584 119.298 82.2215 118.98 80.8465 118.98L80.8496 118.977Z" fill="white"/>
</svg>
