<svg width="186" height="200" viewBox="0 0 186 200" fill="none" xmlns="http://www.w3.org/2000/svg">
<path d="M145.598 101.288C145.012 101.288 144.419 101.268 143.836 101.227C142.363 101.123 140.917 100.889 139.532 100.532C138.708 100.319 138.134 99.6009 138.137 98.7789C138.139 97.9569 138.711 97.2413 139.536 97.0307C140.886 96.6865 142.293 96.4465 143.714 96.322C144.492 96.2518 145.29 96.2178 146.078 96.2178C146.689 96.2178 147.31 96.2382 147.922 96.2812C149.345 96.3763 150.77 96.5892 152.16 96.9107C152.993 97.1032 153.585 97.8142 153.602 98.6385C153.618 99.4627 153.052 100.194 152.226 100.416C150.798 100.799 149.333 101.057 147.865 101.186C147.119 101.254 146.355 101.288 145.598 101.288Z" fill="#28A052"/>
<path d="M146.077 98.0258C146.646 98.0258 147.218 98.0461 147.787 98.0846C149.109 98.1752 150.424 98.37 151.72 98.6689C150.402 99.0221 149.055 99.2599 147.695 99.3777C146.996 99.4411 146.296 99.4727 145.595 99.4727C145.054 99.4727 144.51 99.4546 143.972 99.4161C142.636 99.321 141.309 99.1104 140.015 98.7776C141.281 98.4538 142.577 98.2364 143.882 98.1209C144.609 98.0552 145.343 98.0235 146.074 98.0235M146.074 94.4004C145.228 94.4004 144.374 94.4389 143.536 94.5136C142.015 94.6472 140.505 94.9054 139.051 95.2745C137.402 95.6957 136.254 97.1313 136.252 98.773C136.25 100.415 137.395 101.853 139.044 102.276C140.542 102.661 142.106 102.915 143.694 103.028C144.327 103.073 144.964 103.094 145.595 103.094C146.408 103.094 147.232 103.057 148.041 102.983C149.617 102.845 151.195 102.566 152.731 102.156C154.382 101.712 155.514 100.252 155.483 98.6009C155.452 96.9501 154.267 95.5281 152.599 95.1431C151.11 94.7989 149.579 94.5702 148.05 94.4683C147.399 94.423 146.733 94.4004 146.077 94.4004H146.074Z" fill="#225128"/>
<path d="M145.644 102.578C145.042 102.578 144.418 102.558 143.795 102.515C142.372 102.415 140.956 102.198 139.577 101.87C138.745 101.668 137.933 101.43 137.157 101.159C136.416 100.898 135.922 100.223 135.92 99.4647C135.918 98.7061 136.405 98.0245 137.143 97.7596C137.922 97.4788 138.728 97.2342 139.542 97.0282C140.888 96.684 142.294 96.4462 143.715 96.3194C143.771 96.3149 143.83 96.3126 143.887 96.3126C143.941 96.3126 143.992 96.3126 144.044 96.3194C144.559 96.3624 145.089 96.3828 145.613 96.3828C146.243 96.3828 146.886 96.3511 147.523 96.2922H147.554C147.629 96.2809 147.713 96.2764 147.796 96.2764C147.838 96.2764 147.881 96.2764 147.92 96.2809C149.346 96.3783 150.771 96.5889 152.161 96.9104C152.989 97.1029 153.82 97.3384 154.631 97.6124C155.377 97.8638 155.88 98.5386 155.89 99.3017C155.899 100.063 155.412 100.749 154.671 101.018C153.888 101.301 153.062 101.553 152.218 101.765C150.849 102.112 149.431 102.352 148.008 102.476C147.993 102.476 147.979 102.479 147.965 102.479C147.189 102.547 146.408 102.581 145.648 102.581L145.644 102.578Z" fill="#28A052"/>
<path d="M147.787 98.0847C149.109 98.1752 150.424 98.37 151.72 98.6689C152.491 98.8478 153.256 99.0652 154.006 99.3188C153.263 99.5883 152.508 99.817 151.741 100.007C150.459 100.333 149.149 100.553 147.834 100.668H147.829C147.102 100.732 146.373 100.766 145.644 100.766C145.073 100.766 144.496 100.745 143.927 100.707C142.612 100.614 141.309 100.415 140.03 100.109C139.277 99.9279 138.531 99.7083 137.8 99.4524C138.527 99.192 139.265 98.9655 140.018 98.7753C141.283 98.4515 142.579 98.2341 143.885 98.1186C144.456 98.1662 145.033 98.1888 145.611 98.1888C146.307 98.1888 147.008 98.1549 147.712 98.0892C147.735 98.0869 147.761 98.0847 147.787 98.0824M147.787 94.4593C147.646 94.4593 147.505 94.4661 147.366 94.4819L147.333 94.4865C146.759 94.5408 146.18 94.568 145.614 94.568C145.141 94.568 144.668 94.5499 144.205 94.5114C144.099 94.5023 143.993 94.4978 143.887 94.4978C143.772 94.4978 143.659 94.5023 143.544 94.5136C142.017 94.6472 140.507 94.9054 139.056 95.2745C138.193 95.4919 137.325 95.7568 136.487 96.058C135.01 96.5901 134.034 97.9511 134.041 99.4683C134.048 100.985 135.036 102.34 136.518 102.858C137.358 103.153 138.233 103.408 139.119 103.624C140.611 103.979 142.135 104.212 143.659 104.319C144.336 104.364 145.002 104.387 145.649 104.387C146.46 104.387 147.293 104.35 148.121 104.278C148.142 104.278 148.161 104.276 148.182 104.273C149.709 104.14 151.233 103.882 152.708 103.508C153.606 103.284 154.495 103.012 155.34 102.706C156.821 102.17 157.795 100.8 157.776 99.2758C157.76 97.7518 156.753 96.4022 155.26 95.8972C154.389 95.6028 153.498 95.3492 152.609 95.1431C151.115 94.7967 149.584 94.5702 148.055 94.4661C147.968 94.4593 147.879 94.457 147.792 94.457L147.787 94.4593Z" fill="#225128"/>
<path d="M162.654 48.9579C155.156 38.358 143.051 33.0705 133.337 29.6466C131.418 28.9764 129.395 28.2563 127.61 27.4864C119.951 24.1757 116.764 20.41 117.272 15.2742L117.277 15.2357C117.684 9.23037 122.623 4.49992 129.026 3.99041C129.731 3.9338 130.338 3.45827 130.531 2.80384C130.656 2.38039 130.604 1.93429 130.383 1.55159C130.162 1.1689 129.797 0.888118 129.357 0.768102C127.281 0.195195 125.194 -0.00409625 123.169 0.181589C118.493 0.564281 114.13 2.86272 110.889 6.65115C107.28 10.8744 105.479 16.5128 106.067 21.7188C107.102 32.3572 117.315 38.94 126.09 43.4847C130.056 45.5726 133.953 48.6205 138.347 53.0679C138.916 53.6544 139.495 54.2386 140.074 54.8274C144.428 59.2453 148.932 63.8127 150.901 69.5463C152.14 73.2736 152.074 76.8854 150.705 80.5652C150.663 80.6761 150.581 80.8686 150.491 81.0747C150.329 81.4574 150.211 81.7313 150.146 81.9148C149.654 83.0515 148.908 83.946 147.798 84.7317C147.481 84.9582 147.137 85.1597 146.775 85.3363C147.652 84.0366 147.888 82.4288 147.436 80.7825C147.045 79.3537 146.145 77.9701 144.973 76.985C143.945 76.1155 142.645 75.4339 141.104 74.9584C136.136 73.3076 130.317 75.4996 127.833 79.9492C124.14 86.2557 127.525 93.3412 132.58 96.8013C134.198 97.9312 135.957 98.8189 137.799 99.462C138.526 99.2016 139.265 98.9752 140.017 98.7849C141.28 98.4611 142.579 98.2437 143.884 98.1282C145.178 98.0128 146.486 97.9992 147.786 98.0897C149.108 98.1803 150.423 98.3751 151.719 98.674C152.491 98.8529 153.255 99.0703 154.005 99.3239C157.113 98.2166 159.999 96.4729 162.395 94.1224C164.762 91.8444 166.773 88.7806 168.56 84.734C173.33 73.4978 171.176 60.4613 162.654 48.9579Z" fill="#28A052"/>
<path d="M138.316 84.3758C138.342 84.3418 138.521 84.2535 138.845 84.2761C139.205 84.301 139.687 84.4233 140.153 84.5411C140.428 84.6113 140.708 84.6815 140.988 84.7403L141.259 84.8038C142.338 85.0596 142.94 85.2 144.147 85.8907C144.253 85.9631 144.37 86.022 144.49 86.0673C142.933 86.3458 141.28 86.2371 139.859 85.6982C138.45 85.0596 138.304 84.763 138.307 84.4075C138.309 84.3894 138.314 84.3803 138.314 84.3758H138.316Z" fill="#28A052"/>
<mask id="mask0_337_10357" style="mask-type:luminance" maskUnits="userSpaceOnUse" x="138" y="84" width="7" height="3">
<mask id="mask1_337_10357" style="mask-type:luminance" maskUnits="userSpaceOnUse" x="105" y="0" width="67" height="100">
<path d="M162.654 48.9647C155.156 38.3648 143.051 33.0773 133.337 29.6535C131.418 28.9832 129.395 28.2631 127.61 27.4932C119.951 24.1826 116.764 20.4168 117.272 15.281L117.277 15.2425C117.684 9.2372 122.623 4.50675 129.026 3.99725C129.731 3.94064 130.338 3.46511 130.531 2.81068C130.656 2.38723 130.604 1.94112 130.383 1.55843C130.162 1.17574 129.797 0.894954 129.357 0.774938C127.281 0.202031 125.194 0.00273969 123.169 0.188425C118.493 0.571117 114.13 2.86955 110.889 6.65798C107.28 10.8812 105.479 16.5197 106.067 21.7256C107.102 32.364 117.315 38.9468 126.09 43.4916C130.056 45.5794 133.953 48.6273 138.347 53.0747C138.916 53.6612 139.495 54.2455 140.074 54.8342C144.428 59.2522 148.932 63.8196 150.901 69.5532C152.14 73.2804 152.074 76.8923 150.705 80.572C150.663 80.683 150.581 80.8754 150.491 81.0815C150.329 81.4642 150.211 81.7382 150.146 81.9216C149.654 83.0584 148.908 83.9528 147.798 84.7386C147.481 84.965 147.137 85.1666 146.775 85.3432C147.652 84.0434 147.888 82.4356 147.436 80.7894C147.045 79.3605 146.145 77.9769 144.973 76.9919C143.945 76.1223 142.645 75.4407 141.104 74.9652C136.136 73.3144 130.317 75.5064 127.833 79.956C124.14 86.2625 127.525 93.348 132.58 96.8081C134.198 97.9381 135.957 98.8257 137.799 99.4688C138.526 99.2084 139.265 98.982 140.017 98.7918C141.28 98.468 142.579 98.2506 143.884 98.1351C145.178 98.0196 146.486 98.006 147.786 98.0966C149.108 98.1871 150.423 98.3819 151.719 98.6808C152.491 98.8597 153.255 99.0771 154.005 99.3307C157.113 98.2234 159.999 96.4798 162.395 94.1293C164.762 91.8512 166.773 88.7874 168.56 84.7408C173.33 73.5046 171.176 60.4682 162.654 48.9647Z" fill="white"/>
</mask>
<g mask="url(#mask1_337_10357)">
<path d="M138.316 84.3807C138.342 84.3467 138.521 84.2584 138.845 84.281C139.205 84.3059 139.687 84.4282 140.153 84.546C140.428 84.6162 140.708 84.6864 140.988 84.7452L141.259 84.8086C142.338 85.0645 142.94 85.2049 144.147 85.8956C144.253 85.968 144.37 86.0269 144.49 86.0722C142.933 86.3507 141.28 86.242 139.859 85.7031C138.45 85.0645 138.304 84.7679 138.307 84.4124C138.309 84.3942 138.314 84.3852 138.314 84.3807H138.316Z" fill="white"/>
</g>
</mask>
<g mask="url(#mask0_337_10357)">
<path d="M189.5 119.174C189.373 119.174 189.244 119.163 189.117 119.136L135.872 108.493C134.978 108.314 134.345 107.542 134.374 106.663C134.402 105.785 135.084 105.051 135.987 104.926C138.991 104.512 142.26 102.934 145.706 100.232C154.454 93.3732 159.344 82.8888 159.125 71.4691C158.909 60.1967 153.701 50.0406 144.841 43.6028C141.884 41.4538 138.525 39.6694 135.274 37.9439C130.375 35.342 125.308 32.6496 121.185 28.5578C119.459 26.8436 118.598 25.0796 117.767 23.3722C117.306 22.4279 116.874 21.5357 116.295 20.6503C113.672 16.6399 119.616 12.3579 120.303 11.8846C120.623 11.6627 121.009 11.5449 121.402 11.5449C121.449 11.5449 121.493 11.5449 121.54 11.5495L178.838 15.6345C179.727 15.6979 180.449 16.3546 180.565 17.2061L189.825 85.0128C189.832 85.0627 189.837 85.1147 189.839 85.1645L191.382 117.281C191.408 117.841 191.166 118.38 190.723 118.744C190.38 119.027 189.945 119.177 189.503 119.177L189.5 119.174Z" fill="#245C2E"/>
<path d="M121.4 13.3536L178.698 17.4387L187.958 85.2454L189.501 117.362L136.256 106.719C139.946 106.212 143.566 104.246 146.897 101.636C166.02 86.6404 165.721 56.4982 145.977 42.1529C138.483 36.7069 129.181 33.8854 122.538 27.2936C120.134 24.9091 119.607 22.3095 117.888 19.6828C116.131 16.9994 121.402 13.3536 121.402 13.3536M121.402 9.73047C120.617 9.73047 119.847 9.96824 119.205 10.4121C119.031 10.5321 117.474 11.6281 116.115 13.1702C115.164 14.2503 114.494 15.3463 114.122 16.4265C113.497 18.2448 113.704 20.0881 114.703 21.6166C115.221 22.4069 115.63 23.2493 116.065 24.1415C116.921 25.8987 117.89 27.8891 119.836 29.8184C124.154 34.105 129.345 36.8631 134.367 39.5307C137.705 41.3037 140.859 42.9794 143.707 45.0491C152.104 51.1496 157.037 60.7916 157.244 71.5025C157.343 76.6722 156.287 81.8533 154.191 86.4886C151.977 91.3798 148.722 95.5329 144.519 98.8299C141.343 101.321 138.382 102.768 135.722 103.135C133.913 103.384 132.551 104.849 132.492 106.608C132.436 108.368 133.699 109.912 135.489 110.27L188.734 120.913C188.988 120.963 189.245 120.988 189.499 120.988C190.385 120.988 191.253 120.686 191.94 120.12C192.825 119.393 193.311 118.316 193.257 117.197L191.714 85.0801C191.71 84.9782 191.7 84.8764 191.686 84.7744L182.426 16.9677C182.193 15.2648 180.751 13.9537 178.973 13.8269L121.675 9.7418C121.583 9.73501 121.489 9.73274 121.397 9.73274L121.402 9.73047Z" fill="#225128"/>
</g>
<path d="M146.076 103.779C145.288 103.779 144.491 103.743 143.71 103.675C142.289 103.55 140.885 103.31 139.532 102.966C138.709 102.756 138.135 102.038 138.133 101.218C138.13 100.398 138.704 99.6782 139.528 99.4653C140.911 99.1098 142.36 98.8743 143.83 98.7701C144.415 98.7293 145.008 98.709 145.594 98.709C146.351 98.709 147.118 98.7429 147.871 98.8131C149.327 98.9399 150.794 99.1981 152.222 99.5808C153.048 99.8027 153.615 100.534 153.598 101.358C153.582 102.183 152.989 102.894 152.156 103.086C150.768 103.408 149.341 103.618 147.915 103.716C147.306 103.756 146.685 103.779 146.074 103.779H146.076Z" fill="#28A052"/>
<path d="M145.596 100.517C146.297 100.517 146.998 100.549 147.694 100.612C149.054 100.73 150.402 100.968 151.719 101.321C150.423 101.62 149.108 101.815 147.786 101.905C147.217 101.944 146.645 101.964 146.076 101.964C145.344 101.964 144.611 101.932 143.884 101.867C142.576 101.751 141.28 101.534 140.017 101.21C141.311 100.877 142.637 100.666 143.973 100.571C144.514 100.533 145.055 100.515 145.599 100.515M145.599 96.8916C144.968 96.8916 144.328 96.9142 143.7 96.9573C142.11 97.0705 140.544 97.3218 139.048 97.7091C137.401 98.1325 136.256 99.5704 136.256 101.212C136.256 102.854 137.406 104.29 139.055 104.711C140.508 105.082 142.019 105.338 143.543 105.474C144.378 105.549 145.232 105.587 146.078 105.587C146.735 105.587 147.4 105.564 148.056 105.519C149.581 105.415 151.112 105.189 152.601 104.844C154.268 104.459 155.454 103.037 155.485 101.387C155.515 99.7357 154.384 98.2752 152.733 97.8314C151.199 97.4192 149.621 97.1407 148.045 97.0048C147.236 96.9324 146.412 96.8939 145.599 96.8939V96.8916Z" fill="#225128"/>
<path d="M147.786 103.719C147.714 103.719 147.643 103.715 147.57 103.708L147.523 103.703C146.883 103.642 146.241 103.613 145.611 103.613C145.086 103.613 144.559 103.633 144.044 103.676C143.99 103.681 143.938 103.683 143.884 103.683C143.828 103.683 143.769 103.681 143.713 103.676C142.292 103.552 140.885 103.312 139.535 102.967C138.728 102.764 137.922 102.517 137.143 102.236C136.405 101.971 135.918 101.29 135.92 100.531C135.922 99.7723 136.419 99.0953 137.157 98.8371C137.933 98.5654 138.747 98.3254 139.573 98.1261C140.953 97.7955 142.372 97.5781 143.79 97.4785C144.421 97.4354 145.044 97.415 145.644 97.415C146.406 97.415 147.184 97.449 147.963 97.517C147.977 97.517 147.991 97.517 148.005 97.5192C149.428 97.6438 150.847 97.8838 152.22 98.2325C153.06 98.4431 153.886 98.6945 154.669 98.9775C155.41 99.247 155.897 99.9308 155.887 100.694C155.878 101.455 155.377 102.13 154.629 102.383C153.817 102.657 152.987 102.893 152.161 103.085C150.771 103.407 149.344 103.62 147.918 103.715C147.873 103.717 147.829 103.719 147.786 103.719Z" fill="#28A052"/>
<path d="M145.643 99.223C146.372 99.223 147.101 99.257 147.828 99.3204H147.833C149.148 99.4359 150.458 99.6556 151.74 99.9817C152.506 100.174 153.262 100.403 154.005 100.67C153.254 100.924 152.49 101.141 151.719 101.32C150.423 101.619 149.108 101.814 147.786 101.904C147.762 101.902 147.736 101.9 147.71 101.897C147.007 101.829 146.306 101.798 145.61 101.798C145.031 101.798 144.455 101.82 143.884 101.868C142.576 101.752 141.28 101.535 140.017 101.211C139.266 101.021 138.525 100.797 137.799 100.534C138.53 100.278 139.276 100.061 140.028 99.8775C141.306 99.5718 142.611 99.3725 143.926 99.2797C144.495 99.2412 145.071 99.2208 145.643 99.2208M145.643 95.5977C144.996 95.5977 144.33 95.6203 143.662 95.6656C142.129 95.7743 140.605 96.0075 139.123 96.3608C138.224 96.5782 137.349 96.834 136.512 97.1284C135.03 97.647 134.042 98.9989 134.035 100.518C134.028 102.036 135.004 103.396 136.481 103.929C137.321 104.23 138.189 104.495 139.062 104.717C140.506 105.086 142.016 105.342 143.54 105.475C143.655 105.484 143.768 105.491 143.884 105.491C143.989 105.491 144.095 105.487 144.201 105.477C144.665 105.439 145.137 105.421 145.61 105.421C146.177 105.421 146.756 105.448 147.329 105.502H147.355L147.367 105.507C147.506 105.523 147.642 105.53 147.781 105.53C147.87 105.53 147.96 105.527 148.049 105.521C149.578 105.416 151.107 105.19 152.598 104.846C153.492 104.637 154.383 104.384 155.251 104.089C156.745 103.584 157.749 102.235 157.768 100.711C157.787 99.1868 156.811 97.8168 155.329 97.2802C154.485 96.9745 153.595 96.7027 152.688 96.4763C151.222 96.1049 149.7 95.8467 148.174 95.7131C148.153 95.7131 148.132 95.7086 148.11 95.7086C147.282 95.6384 146.452 95.6022 145.641 95.6022L145.643 95.5977Z" fill="#225128"/>
<path d="M162.654 151.04C155.156 161.64 143.051 166.928 133.337 170.351C131.418 171.022 129.395 171.742 127.61 172.512C119.951 175.822 116.764 179.588 117.272 184.724L117.277 184.762C117.684 190.768 122.623 195.498 129.026 196.008C129.731 196.064 130.338 196.54 130.531 197.194C130.656 197.618 130.604 198.064 130.383 198.447C130.162 198.829 129.797 199.11 129.357 199.23C127.281 199.803 125.194 200.002 123.169 199.817C118.493 199.434 114.13 197.135 110.889 193.347C107.28 189.124 105.479 183.485 106.067 178.279C107.102 167.641 117.315 161.058 126.09 156.513C130.056 154.426 133.953 151.378 138.347 146.93C138.916 146.344 139.495 145.76 140.074 145.171C144.428 140.753 148.932 136.185 150.901 130.452C152.14 126.725 152.074 123.113 150.705 119.433C150.663 119.322 150.581 119.13 150.491 118.923C150.329 118.541 150.211 118.267 150.146 118.083C149.654 116.947 148.908 116.052 147.798 115.266C147.481 115.04 147.137 114.838 146.775 114.662C147.652 115.962 147.888 117.569 147.436 119.216C147.045 120.644 146.145 122.028 144.973 123.013C143.945 123.883 142.645 124.564 141.104 125.04C136.136 126.691 130.317 124.499 127.833 120.049C124.14 113.742 127.525 106.657 132.58 103.197C134.198 102.067 135.957 101.179 137.799 100.536C138.526 100.797 139.265 101.023 140.017 101.213C141.28 101.537 142.579 101.754 143.884 101.87C145.178 101.985 146.486 101.999 147.786 101.908C149.108 101.818 150.423 101.623 151.719 101.324C152.491 101.145 153.255 100.928 154.005 100.674C157.113 101.782 159.999 103.525 162.395 105.876C164.762 108.154 166.773 111.218 168.56 115.264C173.33 126.5 171.176 139.537 162.654 151.04Z" fill="#28A052"/>
<path d="M138.316 115.621C138.342 115.655 138.521 115.743 138.845 115.721C139.205 115.696 139.687 115.574 140.153 115.456C140.428 115.386 140.708 115.315 140.988 115.257L141.259 115.193C142.338 114.937 142.94 114.797 144.147 114.106C144.253 114.034 144.37 113.975 144.49 113.93C142.933 113.651 141.28 113.76 139.859 114.299C138.45 114.937 138.304 115.234 138.307 115.589C138.309 115.608 138.314 115.617 138.314 115.621H138.316Z" fill="#28A052"/>
<mask id="mask2_337_10357" style="mask-type:luminance" maskUnits="userSpaceOnUse" x="138" y="113" width="7" height="3">
<mask id="mask3_337_10357" style="mask-type:luminance" maskUnits="userSpaceOnUse" x="105" y="100" width="67" height="100">
<path d="M162.654 151.042C155.156 161.642 143.051 166.93 133.337 170.353C131.418 171.024 129.395 171.744 127.61 172.514C119.951 175.824 116.764 179.59 117.272 184.726L117.277 184.764C117.684 190.77 122.623 195.5 129.026 196.01C129.731 196.066 130.338 196.542 130.531 197.196C130.656 197.62 130.604 198.066 130.383 198.448C130.162 198.831 129.797 199.112 129.357 199.232C127.281 199.805 125.194 200.004 123.169 199.818C118.493 199.436 114.13 197.137 110.889 193.349C107.28 189.126 105.479 183.487 106.067 178.281C107.102 167.643 117.315 161.06 126.09 156.515C130.056 154.428 133.953 151.38 138.347 146.932C138.916 146.346 139.495 145.761 140.074 145.173C144.428 140.755 148.932 136.187 150.901 130.454C152.14 126.727 152.074 123.115 150.705 119.435C150.663 119.324 150.581 119.131 150.491 118.925C150.329 118.543 150.211 118.269 150.146 118.085C149.654 116.949 148.908 116.054 147.798 115.268C147.481 115.042 147.137 114.84 146.775 114.664C147.652 115.964 147.888 117.571 147.436 119.218C147.045 120.646 146.145 122.03 144.973 123.015C143.945 123.885 142.645 124.566 141.104 125.042C136.136 126.693 130.317 124.501 127.833 120.051C124.14 113.744 127.525 106.659 132.58 103.199C134.198 102.069 135.957 101.181 137.799 100.538C138.526 100.798 139.265 101.025 140.017 101.215C141.28 101.539 142.579 101.756 143.884 101.872C145.178 101.987 146.486 102.001 147.786 101.91C149.108 101.82 150.423 101.625 151.719 101.326C152.491 101.147 153.255 100.93 154.005 100.676C157.113 101.784 159.999 103.527 162.395 105.878C164.762 108.156 166.773 111.22 168.56 115.266C173.33 126.502 171.176 139.539 162.654 151.042Z" fill="white"/>
</mask>
<g mask="url(#mask3_337_10357)">
<path d="M138.316 115.622C138.342 115.656 138.521 115.744 138.845 115.722C139.205 115.697 139.687 115.575 140.153 115.457C140.428 115.387 140.708 115.316 140.988 115.258L141.259 115.194C142.338 114.938 142.94 114.798 144.147 114.107C144.253 114.035 144.37 113.976 144.49 113.931C142.933 113.652 141.28 113.761 139.859 114.3C138.45 114.938 138.304 115.235 138.307 115.59C138.309 115.609 138.314 115.618 138.314 115.622H138.316Z" fill="white"/>
</g>
</mask>
<g mask="url(#mask2_337_10357)">
<path d="M79.3195 190.337C78.5292 190.337 77.6095 189.847 77.3366 188.756C76.8968 187.003 78.3998 185.554 79.3171 184.805C84.1249 173.738 96.5841 135.009 96.7111 134.615C96.9204 133.961 97.4967 133.476 98.1976 133.363L129.737 128.277C124.078 122.385 124.784 117.014 125.852 114.131C128.067 108.151 135.114 103.81 142.608 103.81C148.289 103.81 153.343 106.276 156.846 110.75C160.576 115.519 161.86 121.894 160.463 128.698C159.014 135.752 153.292 149.466 131.238 162.045C121.766 167.448 111.379 172.398 102.215 176.766C93.4181 180.957 85.7784 184.598 82.4078 187.06C81.4787 189.107 80.7449 190.334 79.3218 190.334L79.3195 190.337Z" fill="#245C2E"/>
<path d="M142.608 105.625C147.197 105.625 151.901 107.445 155.343 111.845C163.846 122.715 159.094 144.057 130.281 160.492C111.059 171.457 87.3873 180.857 80.8719 185.922C85.6374 175.216 98.5105 135.153 98.5105 135.153L133.804 129.463C119.383 118.118 130.591 105.627 142.608 105.625ZM80.8719 185.922C80.1381 187.573 79.5947 188.526 79.3219 188.526C79.2513 188.526 79.1996 188.463 79.1667 188.332C79.0067 187.7 79.6253 186.889 80.8719 185.922ZM142.611 102.002C138.687 102.002 134.696 103.111 131.367 105.122C127.898 107.219 125.311 110.203 124.081 113.525C122.944 116.591 122.968 119.882 124.151 123.041C124.657 124.395 125.369 125.715 126.282 126.999L97.8895 131.575C96.4877 131.802 95.3352 132.769 94.9165 134.078C94.7918 134.467 82.6313 172.268 77.7483 183.721C76.5652 184.765 74.8811 186.679 75.5091 189.179C75.956 190.952 77.4872 192.145 79.3219 192.145C80.0134 192.145 81.3424 191.955 82.4573 190.678C82.7113 190.385 82.9465 190.05 83.2005 189.622C83.4193 189.251 83.6569 188.794 83.9226 188.237C87.3568 185.87 94.9964 182.229 103.055 178.388C112.249 174.007 122.669 169.041 132.202 163.604C140.926 158.627 147.992 152.959 153.202 146.752C158.012 141.02 161.079 135.065 162.314 129.05C163.817 121.732 162.411 114.846 158.353 109.66C154.486 104.719 148.898 101.997 142.615 101.997L142.611 102.002Z" fill="#225128"/>
</g>
<path d="M111.89 188.277C110.768 188.277 109.703 187.809 108.969 186.993C108.94 186.962 108.912 186.928 108.886 186.894L43.008 102.285C42.7751 101.986 42.6458 101.626 42.634 101.254L42.5752 99.4066C42.5611 98.9877 42.6998 98.5778 42.9656 98.2472L43.1962 97.9573L108.31 16.1585C109.049 15.2324 110.168 14.7002 111.382 14.7002C112.241 14.7002 113.054 14.9674 113.736 15.4724C114.553 16.0747 115.077 16.9511 115.214 17.9361C115.35 18.9211 115.077 19.8994 114.449 20.6874L51.1816 100.163L114.861 182.177C115.503 182.917 115.818 183.853 115.747 184.822C115.675 185.814 115.207 186.717 114.43 187.369C113.715 187.96 112.819 188.282 111.892 188.282L111.89 188.277Z" fill="#28A052"/>
<path d="M111.382 16.5108C111.803 16.5108 112.229 16.6398 112.586 16.9048C113.454 17.5456 113.619 18.748 112.953 19.5814L48.8201 100.146L113.388 183.304C114.108 184.098 114.016 185.308 113.191 185.998C112.829 186.297 112.367 186.465 111.89 186.465C111.316 186.465 110.77 186.227 110.392 185.806L44.5133 101.197L44.4545 99.349L44.685 99.0591L109.801 17.258C110.192 16.7667 110.785 16.5085 111.38 16.5085M111.38 12.8854C109.578 12.8854 107.913 13.6757 106.816 15.0502L41.6978 96.8536L41.472 97.1366C40.9404 97.8001 40.6653 98.6198 40.6911 99.4577L40.7499 101.305C40.7734 102.05 41.0345 102.771 41.5002 103.368L107.379 187.977C107.433 188.045 107.487 188.111 107.546 188.177C108.637 189.39 110.22 190.086 111.89 190.086C113.266 190.086 114.6 189.608 115.646 188.743C115.653 188.738 115.658 188.734 115.665 188.727C116.82 187.758 117.516 186.413 117.625 184.941C117.728 183.519 117.274 182.144 116.34 181.048L53.5408 100.169L115.943 21.7801C117.871 19.3594 117.394 15.8812 114.88 14.0244C113.887 13.2884 112.643 12.8809 111.384 12.8809L111.38 12.8854Z" fill="#225128"/>
<path d="M11.2009 114.357C10.7328 114.357 10.2648 114.189 9.90019 113.854L2.94964 107.448C2.58976 107.115 2.38043 106.66 2.36867 106.18C2.35691 105.7 2.54507 105.236 2.89084 104.887L7.52454 100.227L2.4416 95.3988C1.70068 94.6969 1.6936 93.5488 2.42276 92.8378L9.18045 86.2414C9.53092 85.8995 10.0084 85.7047 10.507 85.7025H10.5212C11.0151 85.7025 11.4902 85.8904 11.843 86.2233L21.308 95.2109L23.5919 95.1973C23.0392 94.4908 23.0933 93.4831 23.7566 92.8355L30.5142 86.2391C30.8647 85.8972 31.3422 85.7025 31.8408 85.7002H31.8526C32.3465 85.7002 32.8217 85.8882 33.1745 86.221L42.503 95.0796L164.423 94.3368C164.832 93.234 165.562 92.2196 166.526 91.4587C167.773 90.4737 169.156 89.9732 170.63 89.9732C173.382 89.9732 175.782 91.7168 177.708 93.1185L177.92 93.2725C179.187 94.1941 180.455 95.1135 181.721 96.042C183.327 97.2149 184.332 99.3413 183.137 101.13C182.725 101.748 182.179 102.147 181.78 102.437C181.283 102.801 180.782 103.173 180.284 103.542C179.42 104.18 178.529 104.842 177.64 105.482C177.466 105.609 177.289 105.738 177.115 105.867C176.047 106.653 174.834 107.543 173.366 108.084C172.592 108.37 171.783 108.517 170.964 108.521H170.92C167.73 108.521 165.042 106.49 164.273 103.743L43.1569 104.482L33.8942 113.793C33.525 114.164 33.031 114.352 32.5347 114.352C32.0666 114.352 31.5985 114.185 31.234 113.85L24.2835 107.443C23.5331 106.753 23.5072 105.605 24.2246 104.882L24.5092 104.595L21.6914 104.613L12.5581 113.793C12.1888 114.164 11.6949 114.352 11.1986 114.352L11.2009 114.357Z" fill="#86D6F7"/>
<path d="M31.8543 87.5157L41.738 96.9018L165.942 96.1455C166.013 94.8978 166.702 93.6705 167.72 92.8666C168.694 92.0967 169.67 91.791 170.632 91.791C172.784 91.791 174.861 93.324 176.654 94.6283C177.964 95.5794 179.274 96.5305 180.579 97.4883C181.379 98.0726 182.174 99.2251 181.553 100.156C181.327 100.495 180.982 100.751 180.643 100.998C179.265 102.01 177.898 103.038 176.51 104.039C175.311 104.904 174.12 105.871 172.693 106.397C172.116 106.61 171.531 106.711 170.954 106.714C170.943 106.714 170.931 106.714 170.919 106.714C168.311 106.714 165.933 104.735 165.933 102.137C165.933 102.067 165.935 101.997 165.94 101.927L42.3472 102.681L32.5341 112.547L25.5836 106.141L28.9424 102.762L20.884 102.812L11.2003 112.547L4.24978 106.141L10.1654 100.192L3.7629 94.112L10.5206 87.5157L20.5406 97.0309L28.1215 96.9856L25.0967 94.112L31.8543 87.5157ZM31.8543 83.8925C31.8543 83.8925 31.8379 83.8925 31.8285 83.8925C30.8312 83.8993 29.8762 84.2866 29.1753 84.9704L22.4176 91.5668C22.0177 91.9585 21.7284 92.4137 21.5497 92.8983L13.1643 84.9342C12.4587 84.2662 11.5108 83.8903 10.5206 83.8903C10.5111 83.8903 10.5041 83.8903 10.4947 83.8903C9.49739 83.8971 8.54242 84.2843 7.84148 84.9682L1.08382 91.5645C-0.374495 92.9889 -0.360374 95.2827 1.12147 96.689L4.88487 100.262L1.53309 103.632C0.843915 104.327 0.46756 105.255 0.488729 106.216C0.509898 107.176 0.92859 108.088 1.64834 108.754L8.59886 115.16C9.32802 115.833 10.2642 116.166 11.2003 116.166C12.1906 116.166 13.1808 115.792 13.9194 115.049L21.9284 106.997C22.093 107.644 22.4435 108.258 22.9821 108.754L29.9327 115.16C30.6618 115.833 31.598 116.166 32.5341 116.166C33.5244 116.166 34.5146 115.792 35.2532 115.049L43.9654 106.29L162.974 105.563C163.43 106.485 164.077 107.327 164.893 108.054C166.542 109.524 168.682 110.332 170.919 110.332H170.971C172.018 110.328 173.053 110.14 174.043 109.775C175.76 109.143 177.084 108.17 178.255 107.309C178.427 107.182 178.597 107.058 178.768 106.933C179.669 106.283 180.568 105.618 181.438 104.975C181.932 104.608 182.426 104.241 182.922 103.879C183.376 103.548 184.133 102.993 184.724 102.106C185.691 100.656 185.806 98.8719 185.037 97.212C184.576 96.2179 183.802 95.2895 182.854 94.5966C181.579 93.6614 180.276 92.7149 179.015 91.8L178.919 91.7298L178.841 91.6732C176.804 90.1922 174.012 88.161 170.63 88.161C168.706 88.161 166.923 88.7996 165.331 90.0586C164.463 90.7425 163.743 91.5917 163.211 92.5314L43.2716 93.2628L34.4981 84.9297C33.7925 84.2616 32.8446 83.8857 31.8543 83.8857V83.8925Z" fill="#225128"/>
</svg>
