<svg xmlns="http://www.w3.org/2000/svg" width="208" height="200" fill="none" viewBox="0 0 208 200"><path fill="#7e55a3" d="M102.872 186.854c-12.177 0-24.127-4-33.645-11.261-21.438-16.347-37.704-35.709-47.03-55.988-5.55-12.065-8.424-24.429-8.544-36.746v-.094c-.022-9.707 2.02-19.586 5.906-28.57 4.032-9.321 10.072-17.72 17.473-24.287a65.4 65.4 0 0 1 8.898-6.656c9.977-6.22 21.116-9.647 31.357-9.647 6.748 0 13.05 1.438 18.734 4.276a33.2 33.2 0 0 1 7.536 5.163 51 51 0 0 1 3.213-2.291c7.604-4.985 16.227-7.618 24.935-7.618 1.105 0 2.227.042 3.332.126 10.692.817 21.586 5.164 31.503 12.577 9.297 6.95 16.604 15.714 21.132 25.345 7.116 15.121 8.585 31.587 4.359 48.939-3.499 14.374-10.741 28.727-21.52 42.657-4.981 6.444-10.615 12.627-16.743 18.372a218 218 0 0 1-16.91 14.308c-9.646 7.348-21.717 11.395-33.986 11.395"/><path fill="#0b0b0b" d="M131.703 26.273q1.119 0 2.255.087c8.895.678 17.24 4.646 24.211 9.857 7.187 5.374 13.304 12.377 17.071 20.387 12.496 26.552 2.074 55.395-15.671 78.328-4.692 6.068-9.895 11.72-15.321 16.81a204 204 0 0 1-15.856 13.418c-7.474 5.692-16.5 8.559-25.516 8.559s-17.794-2.793-25.17-8.42c-18.045-13.762-33.863-31.084-43.03-51.011-4.52-9.829-7.268-20.51-7.375-31.548-.035-16.019 6.66-32.235 18.985-43.17a51.4 51.4 0 0 1 7.053-5.28c6.895-4.298 15.518-7.541 23.947-7.541 4.285 0 8.519.838 12.452 2.801 7.119 3.556 11.434 11.163 10.449 18.863.147-1.156 1.316-2.673 1.905-3.68 6.09-10.363 16.989-18.455 29.611-18.455M131.706 0c-9.647 0-19.159 2.423-27.82 7.05a53 53 0 0 0-1.581-.827C94.657 2.404 86.239.47 77.285.47c-7.028 0-14.237 1.21-21.43 3.59-6.004 1.99-11.843 4.738-17.354 8.175a79 79 0 0 0-10.75 8.041c-8.827 7.842-16.016 17.825-20.796 28.875C2.38 59.731-.025 71.364 0 82.798v.189c.137 14.12 3.404 28.229 9.712 41.943 5.407 11.755 12.851 23.175 22.129 33.949 8.281 9.618 18.007 18.708 28.909 27.023a68.3 68.3 0 0 0 20.128 10.585 70.3 70.3 0 0 0 21.99 3.513 70.9 70.9 0 0 0 22.205-3.571 69.2 69.2 0 0 0 20.248-10.659 232 232 0 0 0 17.952-15.191l.006-.006.005-.005c6.647-6.23 12.761-12.942 18.174-19.945 5.555-7.179 10.348-14.64 14.235-22.166 4.331-8.386 7.569-16.908 9.619-25.332 2.314-9.51 3.144-18.987 2.464-28.171a82.6 82.6 0 0 0-7.683-29.193c-5.438-11.562-14.15-22.042-25.192-30.296-12.029-8.99-25.445-14.28-38.795-15.297A59 59 0 0 0 131.697 0z"/><path fill="#7e55a3" d="M102.872 175.555c-9.543 0-18.903-3.132-26.357-8.819-19.956-15.215-35.029-33.098-43.589-51.708-4.897-10.648-7.435-21.506-7.54-32.275-.035-16.97 7.292-33.618 19.602-44.542a53.6 53.6 0 0 1 7.313-5.471c8.106-5.054 16.98-7.837 24.983-7.837 4.848 0 9.333 1.012 13.332 3.007 5.743 2.867 9.742 8.02 11.107 13.84 7.148-10.742 18.441-17.322 29.979-17.322a32 32 0 0 1 2.407.092c8.405.64 17.128 4.18 25.232 10.238 7.793 5.826 13.894 13.115 17.639 21.08 6.024 12.8 7.244 26.83 3.625 41.699-3.087 12.677-9.832 25.984-19.506 38.487-4.613 5.968-9.837 11.697-15.52 17.029a208 208 0 0 1-16.004 13.544c-7.583 5.776-17.065 8.955-26.703 8.955z"/><path fill="#fff" d="M131.702 26.277q1.12 0 2.255.086c8.896.678 17.24 4.646 24.211 9.857 7.187 5.374 13.304 12.378 17.071 20.387 12.496 26.552 2.075 55.395-15.67 78.328-4.693 6.068-9.895 11.721-15.322 16.811a205 205 0 0 1-15.856 13.417c-7.473 5.692-16.5 8.559-25.516 8.559s-17.794-2.793-25.17-8.419c-18.045-13.762-33.863-31.085-43.029-51.012-4.52-9.828-7.269-20.51-7.375-31.547-.036-16.02 6.663-32.236 18.984-43.17a51.4 51.4 0 0 1 7.053-5.28c6.895-4.299 15.518-7.542 23.947-7.542 4.286 0 8.52.839 12.453 2.802 7.118 3.555 11.434 11.163 10.448 18.862.148-1.156 1.316-2.672 1.906-3.679 6.089-10.364 16.989-18.455 29.61-18.455m0-3.68c-6.726 0-13.438 2.069-19.404 5.98-3.721 2.435-7.086 5.53-9.939 9.113a22 22 0 0 0-.993-2.005c-2.263-4.058-5.675-7.308-9.87-9.403-4.275-2.134-9.055-3.214-14.21-3.214-8.37 0-17.61 2.888-26.025 8.133a55.6 55.6 0 0 0-7.574 5.666c-6.36 5.645-11.568 12.895-15.06 20.965-3.387 7.836-5.17 16.45-5.15 24.915v.026c.106 11.018 2.697 22.124 7.703 33 8.685 18.884 23.952 37.006 44.15 52.405a44.6 44.6 0 0 0 13.15 6.916 46 46 0 0 0 14.392 2.3c10.067 0 19.97-3.322 27.889-9.353a209 209 0 0 0 16.15-13.667c5.76-5.4 11.05-11.203 15.723-17.249 4.728-6.11 8.781-12.414 12.048-18.74 3.527-6.827 6.145-13.698 7.782-20.426 3.718-15.273 2.46-29.697-3.745-42.878-3.873-8.233-10.167-15.765-18.206-21.772-8.399-6.278-17.478-9.949-26.253-10.62a33 33 0 0 0-2.555-.096z"/><path stroke="#000" stroke-miterlimit="10" stroke-width=".066" d="m109.602 67.08.226.428.011.003-.227-.428z"/><path fill="#e0c281" d="M159.567 134.933c-4.69 6.068-9.892 11.717-15.322 16.808a204 204 0 0 1-15.856 13.417c-14.849 11.316-35.842 11.466-50.688.142-18.045-13.762-33.86-31.087-43.03-51.014-4.52-9.828-7.266-20.508-7.372-31.545-.035-16.02 6.663-32.236 18.984-43.173-6.261 9.563-9.567 20.929-9.542 32.202.106 11.037 2.852 21.717 7.375 31.545 9.169 19.927 24.984 37.252 43.03 51.014 14.84 11.323 35.836 11.174 50.688-.142a205 205 0 0 0 15.856-13.418 142 142 0 0 0 5.879-5.836z"/><path fill="#ffe094" d="M159.567 134.93a144 144 0 0 1-5.879 5.836 205 205 0 0 1-15.857 13.418c-14.848 11.316-35.844 11.465-50.688.142-18.045-13.762-33.86-31.087-43.03-51.014-4.52-9.828-7.265-20.508-7.375-31.545-.027-11.27 3.281-22.639 9.543-32.201a52 52 0 0 1 7.053-5.28c10.4-6.48 24.728-10.569 36.4-4.74 7.118 3.552 11.434 11.163 10.448 18.862.148-1.159 1.316-2.672 1.906-3.679 6.452-10.979 18.296-19.404 31.865-18.368 8.895.678 17.24 4.646 24.211 9.857 7.19 5.374 13.304 12.374 17.074 20.384 12.496 26.554 2.074 55.395-15.673 78.331z"/><path fill="#fff" stroke="#0b0b0c" stroke-linejoin="round" stroke-width="3.153" d="M98.492 84.627c0 4.96-.832 9.6-2.287 13.568-2.017-9.42-7.512-16.182-13.981-16.182s-11.961 6.761-13.976 16.185c-1.455-3.968-2.287-8.61-2.287-13.57 0-14.65 7.282-26.523 16.263-26.523 7.888 0 14.458 9.147 15.954 21.288a44 44 0 0 1 .314 5.234Z"/><path fill="#000" stroke="#0b0b0c" stroke-miterlimit="10" stroke-width="3.153" d="M96.205 98.195c-2.837 7.763-8.036 12.96-13.981 12.96-2.378 0-4.635-.83-6.674-2.33-3.052-2.239-5.601-5.971-7.302-10.627 2.014-9.424 7.512-16.185 13.975-16.185 6.464 0 11.964 6.761 13.981 16.182Z"/><path fill="#fff" stroke="#0b0b0c" stroke-linejoin="round" stroke-width="3.153" d="M128.744 57.972c-7.886 0-14.456 9.147-15.952 21.288a44 44 0 0 0-.313 5.234c0 14.656 7.279 26.529 16.265 26.529 2.38 0 4.638-.833 6.677-2.331 5.653-4.15 9.586-13.423 9.586-24.197 0-14.65-7.28-26.523-16.263-26.523Z"/><path fill="#ffe094" d="M86.395 125.17s18.563 23.206 40.351-2.331z"/><path stroke="#0b0b0c" stroke-linecap="round" stroke-linejoin="round" stroke-width="4.73" d="M86.395 125.17s18.563 23.206 40.351-2.331"/><path fill="#ffc33e" stroke="#ffe094" stroke-linecap="round" stroke-linejoin="round" stroke-width="3.679" d="M65.183 111.21c1.76-4.649 6.524-7.692 11.634-7.151 3.925.418 6.728 2.728 8.54 5.132 2.531 3.354 3.683 7.479 3.538 11.621-.153 4.394-1.39 10.561-6.69 13.599l-.05.029-.07.039c-3.2 1.785-7.168 1.7-10.329-.15a12 12 0 0 1-3.166-2.683c-5.23-6.293-6.175-13.131-3.407-20.439z"/><path fill="#000" stroke="#0b0b0c" stroke-miterlimit="10" stroke-width="2.102" d="M143.023 98.195c-2.836 7.763-8.036 12.96-13.981 12.96-2.378 0-4.635-.83-6.674-2.33-3.052-2.239-5.601-5.971-7.302-10.627 2.015-9.424 7.512-16.185 13.976-16.185s11.964 6.761 13.981 16.182Z"/><path fill="#fff" d="M76.388 115.67c2.178 0 3.944-.759 3.944-1.695s-1.766-1.695-3.944-1.695-3.945.759-3.945 1.695 1.766 1.695 3.945 1.695"/><path fill="#ffc33e" stroke="#ffe094" stroke-linecap="round" stroke-linejoin="round" stroke-width="3.679" d="M146.945 111.21c-1.761-4.649-6.524-7.692-11.634-7.151-3.925.418-6.728 2.728-8.541 5.132-2.53 3.354-3.682 7.479-3.537 11.621.153 4.394 1.389 10.561 6.69 13.599l.049.029.071.039c3.199 1.785 7.168 1.7 10.329-.15a12 12 0 0 0 3.166-2.683c5.23-6.293 6.175-13.131 3.407-20.439z"/><path fill="#fff" d="M135.739 115.67c2.179 0 3.944-.759 3.944-1.695s-1.765-1.695-3.944-1.695c-2.178 0-3.944.759-3.944 1.695s1.766 1.695 3.944 1.695m-6.995-22.654c0 1.968-1.657 3.563-3.702 3.563s-3.698-1.595-3.698-3.563 1.657-3.56 3.698-3.56 3.702 1.594 3.702 3.56m-39.454 0c0 1.968-1.656 3.563-3.7 3.563s-3.7-1.595-3.7-3.563 1.657-3.56 3.7-3.56c2.041 0 3.7 1.594 3.7 3.56"/></svg>