<svg xmlns="http://www.w3.org/2000/svg" width="206" height="75" fill="none" viewBox="0 0 206 75"><path fill="#000" stroke="#e375ae" stroke-miterlimit="10" stroke-width="10.249" d="M72.31 33.23c-1.522-3.367-4.071-5.698-7.373-6.739-.42-.133-2.035-.505-3.632-.862.281-.061.543-.167.776-.31.24.205.526.37.85.474l1.174.385c.264.086.534.128.799.128.992 0 1.923-.576 2.308-1.51.15-.36.255-.744.315-1.14l.29-1.96c.624-4.216-.553-8.43-3.23-11.56-2.55-2.986-6.184-4.756-10.229-4.986a16 16 0 0 0-.9-.025c-3.75 0-7.45 1.363-10.421 3.838-3.13 2.603-5.178 6.19-5.772 10.101l-.851 4.539a13.7 13.7 0 0 0-3.256 1.175l-.036.02-.089.05c-2.468 1.466-4.662 3.718-6.204 6.36a11.3 11.3 0 0 0-2.017-2.46c-2.179-2.008-5.04-3.113-8.056-3.113-6.414 0-11.631 5-11.631 11.145s5.217 11.145 11.63 11.145c3.12 0 6.047-1.19 8.193-3.232l.015.078q.013.082.034.187l.013.067c.706 3.673 2.178 7.444 4.377 11.206.098.169.199.336.303.51l.037.06c.091.15.194.32.306.494.12.201.241.39.34.543l.214.331a60 60 0 0 0 .827 1.234c.186.27.386.553.61.866l.04.055.03.04q.034.044.067.092l.101.139.144.197c.365.493.76 1.02 1.166 1.54l.245.313.124.154q.334.42.676.841c.317.39.643.781.968 1.164 1.89 2.231 3.99 3.447 6.245 3.613l.597.106c1.566.282 3.341.602 5.166.602.709 0 1.388-.05 2.02-.15 2.513-.392 4.477-1.801 6.055-2.933l.374-.267c2.997-2.133 5.812-4.72 8.86-8.147 1.86-2.09 3.796-4.366 5.359-6.844 1.82-2.883 2.896-5.661 3.295-8.49.43-3.055-.023-6.36-1.246-9.064ZM47.729 20.642l.013-.083.002-.014c.43-2.895 2.995-5.25 5.718-5.25q.135 0 .27.008c1.079.06 2.002.504 2.668 1.285.812.948 1.142 2.254.931 3.676l-.29 1.962a4.9 4.9 0 0 0 .046 1.681c.068.333.204.636.392.898l-.08-.007q-.437-.12-.89-.21a13.18 13.18 0 0 0-9.007 1.407 12 12 0 0 0-.652-.489zM18.794 38.018c-.447.697-1.19 1.097-2.038 1.097-1.319 0-2.39-1.032-2.39-2.301s1.071-2.301 2.39-2.301c1.227 0 2.249.883 2.377 2.059q.014.121.014.242c0 .427-.122.843-.353 1.204Zm42.007.862-.003.076q-.006.59-.077 1.15l-.028.2-.036.229-.045.243-.049.233a10 10 0 0 1-.079.339l-.005.02q-.014.046-.024.092-.03.126-.063.239l-.016.056a9 9 0 0 1-.122.413 9 9 0 0 1-.096.292l-.006.02q-.065.178-.133.355l-.028.078q-.027.076-.055.148l-.07.18-.04.1-.053.133-.02.046-.081.201-.03.07-.119.283-.121.271a15 15 0 0 1-.214.472c-.054.119-.116.251-.192.406q-.012.022-.024.05-.044.093-.092.184l-.032.061-.017.037-.113.226-.02.038c-.064.128-.118.232-.169.328l-.006.01q-.12.225-.243.45l-.045.08a5 5 0 0 1-.127.227l-.053.095-.017.033-.175.301-.089.15-.02.033-.047.08-.034.057-.032.052q-.114.19-.23.377l-.022.035q-.138.22-.285.449l-.015.023c-.092.147-.198.305-.275.42l-.018.026c-.081.122-.176.264-.278.411l-.014.018q-.126.185-.259.373c-.12.171-.236.331-.362.504l-.025.034q-.076.107-.158.214l-.064.086-.043.058-.074.1-.037.048-.279.36q-.15.198-.31.396l-.015.019q-.165.209-.34.42l-.01.014q-.121.149-.246.298l-.007.008a35 35 0 0 1-.596.699l-.015.017q-.114.132-.23.26l-.047.053c-.253.284-.452.503-.643.71l-.01.011q-.112.122-.232.249l-.08.087-.223.233-.098.104-.533.547-.12.119q-.067.07-.144.145a65 65 0 0 1-.859.839l-.074.071-.028.026a64 64 0 0 1-.619.58l-.04.037a47 47 0 0 1-.809.73c-.147.133-.272.243-.394.347l-.475.41-.472.4q-.236.195-.463.39-.118.097-.233.195a67 67 0 0 1-2.29 1.796 10 10 0 0 1-.828.524l-.023.013-.094.05-.066.036-.027.014-.04.018-.046.023c-.439.217-.762.32-1.015.32l-.07-.003c-.503-.04-1.193-.548-1.942-1.433a71 71 0 0 1-1.53-1.865l-.074-.092-.066-.084-.167-.214q-.007-.011-.017-.022a68 68 0 0 1-1.235-1.639l-.107-.147a48 48 0 0 1-1.067-1.537l-.085-.124q-.105-.16-.21-.324l-.186-.286q-.144-.221-.269-.428l-.01-.016-.035-.058a18 18 0 0 1-.27-.436l-.018-.03-.25-.421c-1.702-2.914-2.884-5.794-3.518-8.574l8.257 1.746-.232.853a2.3 2.3 0 0 0 .257 1.814c.333.547.878.946 1.515 1.107l4.633 1.171q.318.08.633.079c1.102 0 2.108-.71 2.4-1.784l1.592-5.831c.172-.63.07-1.3-.283-1.855l-1.611-2.538a2.5 2.5 0 0 0-1.587-1.089L31.76 35.21q.194-.496.423-.97c1.02-1.785 2.443-3.289 4.023-4.25a7.45 7.45 0 0 1 3.269-.748c.32 0 .642.02.954.062a6.5 6.5 0 0 1 1.969.575 5.4 5.4 0 0 1 1.625 1.174l.037.04.029.03.05.058a8 8 0 0 0 .274.329l.051.066.096.128c.408.553 1.04.913 1.74.991l.915.102q.142.015.285.015c.597 0 1.177-.206 1.631-.588l.086-.072.136-.114.019-.015.046-.04.051-.04.1-.08q.04-.027.08-.06l.04-.03.025-.019.059-.044.073-.053.066-.047.088-.061.06-.041.032-.02q.204-.135.397-.246a6.77 6.77 0 0 1 3.418-.924c.805 0 1.592.14 2.341.414a6.34 6.34 0 0 1 2.922 2.159 9 9 0 0 1 .742 1.397l.014.036a9 9 0 0 1 .2.508l.006.018.046.133.038.111q.035.105.066.208.007.027.017.054l.02.072.003.011c.007.026.02.076.04.141l.03.106.023.086.024.097.04.17.048.205.022.108c.025.114.05.25.085.452q.004.017.006.035l.01.056.006.04.05.356v.01l.015.117.002.02.011.116.007.063.011.1.003.028q0 .036.004.07l.004.045q.001.03.005.06l.005.076.012.212.004.075q.003.055.005.164l.003.072v.026l.001.078v.053q0 .063.003.13zm6.6 2.61c-.495 3.525-2.583 6.726-5.037 9.718 1.553-2.413 2.705-4.832 3.441-7.224l.019-.064.035-.12.014-.043.062-.212c.175-.61.32-1.211.434-1.79l.039-.188.009-.045q.023-.111.041-.223s.01-.048.01-.054q.016-.082.026-.145l.034-.213.011-.075.007-.06q.01-.058.017-.116a17.5 17.5 0 0 0-.048-5.238l.1.216c.782 1.73 1.069 3.873.786 5.877Z"/><path fill="#ed1c24" d="m64.741 21.274-.288 1.954q-.038.246-.128.467.06-.2.06-.417c0-.967-.951-1.749-2.126-1.749s-2.127.782-2.127 1.75v.055a2 2 0 0 1-.017-.695l.288-1.954c.335-2.261-.236-4.393-1.608-5.998-1.213-1.418-2.946-2.26-4.884-2.37-4.426-.25-8.57 3.252-9.244 7.812l-1.17 6.477c-.154 1.046-.691.517-1.766.517q-.153 0-.31-.021c-1.198-.163-2.494.152-2.324-.993l1.23-6.568c.477-3.218 2.16-6.173 4.737-8.32 2.616-2.177 5.85-3.275 9.107-3.088 3.173.18 6.02 1.565 8.014 3.9 2.125 2.486 3.056 5.853 2.555 9.239z"/><path fill="#e176ae" d="M40.768 26.934a10 10 0 0 0-2.17-.045q.06.116.148.218c.413.478 1.115.505 1.794.532.266.01.54.021.803.056q.202.027.392.027c.259 0 .482.037.698.073.172.03.354.06.536.06s.36-.03.532-.119a9 9 0 0 0-2.733-.802"/><path fill="#cc2029" d="M70.48 41.892c-.747 5.301-4.31 9.718-7.935 13.792-2.497 2.806-5.22 5.462-8.348 7.687-1.511 1.076-3.155 2.353-5.08 2.654-2.236.35-4.752-.207-6.933-.583.665-.11 1.619-.4 2.194-.733q.106-.064.218-.128l.055-.036q.058-.035.123-.078l.086-.05.022-.013a1 1 0 0 0 .124-.076c.41-.248.812-.529 1.203-.824l.026-.018c.52-.366 1.025-.764 1.514-1.18l.062-.052q.35-.278.692-.568l.02-.016c3.284-2.525 6.45-5.618 9.017-8.994q.037-.045.069-.09c2.31-2.92 4.187-6.091 5.22-9.45l.114-.386q.222-.773.377-1.556l.053-.255q.025-.13.046-.258.004-.005.003-.01l.04-.244.022-.158c.324-2.294.141-4.655-.68-6.854a10.7 10.7 0 0 0-1.192-2.3l-.009-.012c-.667-1.07-4.509-3.335-4.509-3.335s6.201 1.35 6.878 1.564c5.29 1.669 7.19 7.72 6.51 12.56z"/><path fill="#e176ae" d="m44.852 64.137.097-.071a.6.6 0 0 0-.097.07m18.244-27.682v.01h.003zm.186 2.299-.001-.078v-.084l-.001-.047v-.06l-.003-.058v-.02q-.004-.148-.01-.276v-.012q-.008-.14-.018-.278l-.001-.026q-.001-.063-.01-.131l-.004-.045c0-.047-.007-.102-.012-.161l-.014-.124-.021-.217a3 3 0 0 0-.028-.207v-.01q-.023-.168-.048-.332v-.004l.003.01q.006.036.018.067l-.002-.011.036.08-.065-.253H63.1l-.002-.01v.01h-.002l.003.03-.006-.047-.007-.032-.002-.012c-.039-.223-.07-.395-.106-.557l-.013-.066-.02-.094-.005-.016-.04-.172-.032-.136-.009-.037-.03-.119q-.02-.082-.043-.166l-.007-.024-.017-.063-.008-.03q-.007-.016-.011-.034l-.015-.053-.054-.188-.004-.01a8 8 0 0 0-.092-.293l-.019-.055-.085-.245a12 12 0 0 0-.38-.938c-.25-.551-.54-1.076-.863-1.562a8.8 8.8 0 0 0-4.103-3.062c1.45.879 3.544 2.283 3.938 2.915l.029.04v.002c.456.666.832 1.393 1.12 2.165.748 2 .973 4.27.65 6.563q-.012.076-.02.15l-.038.24a.6.6 0 0 1 .066-.18l-.066.18v.002l-.002.003v.007l-.007.088q0-.039.007-.088l-.018.096-.024.14q-.029.127-.055.264a18 18 0 0 1-.421 1.694l-.058.194c-.931 3.027-2.653 6.14-5.117 9.252l-.028.04q-.016.023-.036.044l-.011.015c-2.433 3.201-5.512 6.272-8.904 8.88l-.007.005-.04.033c-.193.165-.407.34-.678.555l-.043.037-.03.024c-.52.442-1 .817-1.462 1.141l-.018.014a.5.5 0 0 1 .088-.05l-.105.062-.015.01a13 13 0 0 1-1.149.788l-.015.01.06-.03-.068.037-.07.053.059-.047-.013.007-.051.031-.023.014-.034.02-.034.02-.07.043q-.049.032-.095.058l-.062.04-.118.07-.084.05c-.497.287-1.34.542-1.915.644.89.069 1.691-.213 2.418-.573l.018-.008.049-.023.024-.012q.077-.039.153-.082l.015-.007-.034.021.071-.04-.015.008.02-.013.09-.046.004-.003.012-.008q.539-.302 1.079-.684a71 71 0 0 0 2.42-1.898q.117-.1.237-.198.236-.201.48-.404l.473-.401.474-.41a53 53 0 0 0 1.277-1.144l.02-.017.068-.064.011-.012q.292-.268.577-.539l.026-.023.409-.393a70 70 0 0 0 .741-.734l.104-.103q.282-.287.56-.576l.104-.108.238-.25.086-.092.249-.268c.2-.217.406-.445.672-.742q.154-.172.307-.348a39 39 0 0 0 .91-1.077 34 34 0 0 0 .72-.907l.008-.009q.138-.176.274-.355l-.032.05.034-.05.012-.018.007-.008.143-.194c.088-.117.172-.228.253-.342.15-.203.277-.38.393-.545q.141-.2.279-.4c.12-.172.23-.337.323-.476.094-.142.204-.307.311-.476q.156-.242.302-.476l.01-.016q.135-.215.27-.44l.005-.01q.021-.031.038-.06l.005-.01.091-.153.089-.15.196-.338.026-.047.018-.035q.089-.15.176-.314l.031-.055a38 38 0 0 0 .462-.87q.078-.152.152-.305l.008-.016q.066-.127.128-.255l.018-.037.007-.013q.117-.24.219-.465c.075-.158.149-.32.228-.502l.127-.284.044-.106.05-.119.032-.077.125-.303.006-.014q.044-.108.086-.217l.036-.08-.023.049.088-.225q.043-.112.083-.223l.004-.01q.075-.2.148-.401l.01-.028c.05-.14.096-.29.14-.427.042-.132.082-.27.128-.437l.002-.009q.054-.184.096-.363l.012-.035s0-.005.002-.006l.011-.039-.008.023.004-.02q.055-.215.102-.437l.027-.131.027-.126.057-.31q0-.006.003-.01v-.009q0-.008.003-.012v-.016l.018-.11.018-.117.033-.236c.059-.46.091-.942.098-1.422v-.012q.003-.086.002-.171v-.049m-.186-2.3v.011h.003zM44.852 64.138l.097-.071a.6.6 0 0 0-.097.07"/><path fill="#ed1c24" d="m63.904 38.638-.005-.122a1 1 0 0 0-.002-.12q-.003-.152-.011-.302a12 12 0 0 0-.031-.474q-.005-.1-.015-.2l-.014-.114a12 12 0 0 0-.032-.325l-.02-.137a14 14 0 0 0-.056-.377q0-.007-.002-.012 0-.021-.004-.039-.003-.03-.009-.064l-.007-.034a14 14 0 0 0-.11-.58q-.018-.091-.04-.182l-.075-.32q-.006-.022-.01-.045l-.027-.109-.057-.215-.031-.108-.005-.02q-.004-.008-.004-.015-.004-.005-.005-.01a9 9 0 0 0-.165-.542q-.052-.158-.108-.314a12 12 0 0 0-.26-.664 12 12 0 0 0-1.053-1.97c-2.872-3.943-8.49-5.102-12.873-2.539a12 12 0 0 0-.745.477c-.072.048-.142.1-.21.148l-.004.002-.104.079-.101.076-.02.013-.068.052-.024.018-.097.079-.053.042-.088.072q-.136.112-.27.228l-.181-.241-.029-.036-.013-.016-.071-.088-.073-.087q-.004-.002-.004-.006v-.004l-.062-.072-.027-.03-.042-.052-.004-.005-.002-.004q-.004-.002-.004-.004-.004-.006-.014-.014l-.004-.004-.005-.006q0-.002-.004-.006l-.004-.004q-.003-.003-.002-.005l-.009-.007-.033-.036a4 4 0 0 0-.156-.175q-.004-.002-.004-.005c-2.881-3.095-7.876-3.61-11.68-1.674-2.17 1.29-4.018 3.301-5.253 5.498a17.8 17.8 0 0 0-1.714 6.121q-.004.016-.005.039a20.7 20.7 0 0 0 .077 3.446l.045.398.01.1q.022.144.04.288.003.045.014.09a15 15 0 0 0 .069.454l.01.052.011.068q.004.008.003.017l.032.187c.003.007 0 .016.003.023q0 .006.002.01l.006.033c.009.05.015.1.027.15l.013.063.009.052c.696 3.621 2.143 7.056 4.031 10.287q.136.232.275.462.161.269.328.532.177.29.364.578.184.284.373.57.28.42.566.838a57 57 0 0 0 .614.87l.319.438c.373.502.747 1.002 1.13 1.492q.17.22.342.434.328.411.656.816.46.563.93 1.118c2.434 2.874 4.621 2.989 6.852 1.886l.069-.032c.07-.036.138-.07.21-.11l.028-.017.118-.062.011-.008a13 13 0 0 0 1.14-.723 71 71 0 0 0 2.455-1.924q.116-.1.236-.2l.48-.403.475-.404.478-.412q.23-.196.454-.4a58 58 0 0 0 .938-.851q.3-.278.593-.555l.43-.411.577-.568q.129-.128.254-.256l.013-.011a63 63 0 0 0 .924-.959q.173-.182.342-.367.34-.369.674-.743.159-.178.315-.358a45 45 0 0 0 1.937-2.377l.009-.012a7 7 0 0 0 .16-.215q.13-.171.256-.345a40 40 0 0 0 1.007-1.44q.163-.241.319-.488.158-.244.313-.492.14-.223.275-.45l.049-.08.183-.308.198-.343q.023-.038.042-.076.112-.191.216-.385.135-.243.266-.494a21 21 0 0 0 .36-.707q.07-.132.136-.269l.026-.052q.116-.239.225-.476.119-.253.231-.51l.125-.283.097-.23q.083-.197.163-.395.05-.12.097-.243.009-.018.015-.036l.046-.116q.065-.166.125-.333.083-.218.161-.438.079-.227.147-.452.073-.226.134-.456c.037-.128.073-.262.104-.392a12 12 0 0 0 .126-.526l.055-.265.06-.315.006-.039.002-.02c.014-.079.024-.16.038-.237l.032-.243c.062-.486.097-.987.104-1.494q.003-.095.002-.19l-.002-.127q0-.02.002-.038z"/><mask id="a" width="37" height="40" x="27" y="26" maskUnits="userSpaceOnUse" style="mask-type:luminance"><path fill="#fff" d="m63.904 38.638-.005-.122a1 1 0 0 0-.002-.12q-.003-.152-.011-.302a12 12 0 0 0-.031-.474q-.005-.1-.015-.2l-.014-.114a12 12 0 0 0-.032-.325l-.02-.137a14 14 0 0 0-.056-.377q0-.007-.002-.012 0-.021-.004-.039-.003-.03-.009-.064l-.007-.034a14 14 0 0 0-.11-.58q-.018-.091-.04-.182l-.075-.32q-.006-.022-.01-.045l-.027-.109-.057-.215-.031-.108-.005-.02q-.004-.008-.004-.015-.004-.005-.005-.01a9 9 0 0 0-.165-.542q-.052-.158-.108-.314a12 12 0 0 0-.26-.664 12 12 0 0 0-1.053-1.97c-2.872-3.943-8.49-5.102-12.873-2.539a12 12 0 0 0-.745.477c-.072.048-.142.1-.21.148l-.004.002-.104.079-.101.076-.02.013-.068.052-.024.018-.097.079-.053.042-.088.072q-.136.112-.27.228l-.181-.241-.029-.036-.013-.016-.071-.088-.073-.087q-.004-.002-.004-.006v-.004l-.062-.072-.027-.03-.042-.052-.004-.005-.002-.004q-.004-.002-.004-.004-.004-.006-.014-.014l-.004-.004-.005-.006q0-.002-.004-.006l-.004-.004q-.003-.003-.002-.005l-.009-.007-.033-.036a4 4 0 0 0-.156-.175q-.004-.002-.004-.005c-2.881-3.095-7.876-3.61-11.68-1.674-2.17 1.29-4.018 3.301-5.253 5.498a17.8 17.8 0 0 0-1.714 6.121q-.004.016-.005.039a20.7 20.7 0 0 0 .077 3.446l.045.398.01.1q.022.144.04.288.003.045.014.09a15 15 0 0 0 .069.454l.01.052.011.068q.004.008.003.017l.032.187c.003.007 0 .016.003.023q0 .006.002.01l.006.033c.009.05.015.1.027.15l.013.063.009.052c.696 3.621 2.143 7.056 4.031 10.287q.136.232.275.462.161.269.328.532.177.29.364.578.184.284.373.57.28.42.566.838a57 57 0 0 0 .614.87l.319.438c.373.502.747 1.002 1.13 1.492q.17.22.342.434.328.411.656.816.46.563.93 1.118c2.434 2.874 4.621 2.989 6.852 1.886l.069-.032c.07-.036.138-.07.21-.11l.028-.017.118-.062.011-.008a13 13 0 0 0 1.14-.723 71 71 0 0 0 2.455-1.924q.116-.1.236-.2l.48-.403.475-.404.478-.412q.23-.196.454-.4a58 58 0 0 0 .938-.851q.3-.278.593-.555l.43-.411.577-.568q.129-.128.254-.256l.013-.011a63 63 0 0 0 .924-.959q.173-.182.342-.367.34-.369.674-.743.159-.178.315-.358a45 45 0 0 0 1.937-2.377l.009-.012a7 7 0 0 0 .16-.215q.13-.171.256-.345a40 40 0 0 0 1.007-1.44q.163-.241.319-.488.158-.244.313-.492.14-.223.275-.45l.049-.08.183-.308.198-.343q.023-.038.042-.076.112-.191.216-.385.135-.243.266-.494a21 21 0 0 0 .36-.707q.07-.132.136-.269l.026-.052q.116-.239.225-.476.119-.253.231-.51l.125-.283.097-.23q.083-.197.163-.395.05-.12.097-.243.009-.018.015-.036l.046-.116q.065-.166.125-.333.083-.218.161-.438.079-.227.147-.452.073-.226.134-.456c.037-.128.073-.262.104-.392a12 12 0 0 0 .126-.526l.055-.265.06-.315.006-.039.002-.02c.014-.079.024-.16.038-.237l.032-.243c.062-.486.097-.987.104-1.494q.003-.095.002-.19l-.002-.127q0-.02.002-.038z"/></mask><g mask="url(#a)"><path fill="#f0526a" d="M33.288 30.366c.665.287 1.419.155 2.133.054 3.029-.426 6.366-.084 8.69 1.984.582.518 1.092 1.137 1.758 1.53 2.746 1.63 6.414-1.284 9.272.12 1.808.889 2.545 3.193 2.62 5.276.141 3.934-1.382 7.717-3.107 11.22-.547 1.11-1.128 2.244-1.259 3.486-.13 1.241.305 2.639 1.358 3.235.65.368 1.426.38 2.167.384l10.248.05c1.28.006 2.594.007 3.795-.46 1.735-.673 2.995-2.215 4.326-3.558 2.628-2.65 5.826-4.737 7.947-7.842 2.297-3.364 3.088-7.554 4.126-11.539a82 82 0 0 1 2.838-8.823c.606-1.574 1.221-3.505.213-4.834-.376-.495-.924-.81-1.464-1.094-4.542-2.39-9.611-3.54-14.14-5.957-3.534-1.886-6.666-4.506-10.177-6.439-3.805-2.095-7.999-3.348-12.246-4.067-4.948-.838-10.165-.938-14.824.992a18.74 18.74 0 0 0-6.71 4.758c-3.033 3.361-4.344 7.5-2.943 11.976.84 2.68 2.814 8.439 5.38 9.548"/></g><path fill="#e176ae" d="M40.936 25.75q-.557-.074-1.12-.09l-.101.544a.5.5 0 0 0-.006.14c.135.071.581.088.88.1.284.011.604.024.923.067.076.01.153.015.223.015.366 0 .668.05.91.092.068.01.15.024.217.033q.012-.048.024-.13l.004-.017.052-.29a10.6 10.6 0 0 0-2.007-.464m6.08 3.149.014.017v.003l.003.002.002.003.024.024-.046-.05zm17.51 9.825v-.053a.3.3 0 0 1-.007.069l.01-.134-.002-.045-.002-.048q.001-.081-.003-.14c-.003-.1-.004-.203-.011-.31q-.007-.15-.018-.297v-.004a3 3 0 0 0-.013-.185q-.007-.115-.019-.22l-.012-.108-.025-.248-.007-.048v.028l-.005-.081-.02-.136q-.021-.165-.045-.328l-.012-.074-.004-.027-.015-.096-.003-.018c-.041-.24-.076-.425-.115-.607l-.012-.055-.03-.135-.042-.18-.032-.136-.004-.018-.012-.045-.024-.1-.052-.197-.014-.05-.01-.036-.02-.068q.02.07.02.146l-.005-.018v.003l-.064-.26q.023.044.037.085a10 10 0 0 0-.172-.562l-.019-.053a12 12 0 0 0-.362-.957 12.4 12.4 0 0 0-1.108-2.075l-.014-.021a10 10 0 0 0-1.588-1.712l-.452-.1c.826.594 1.588 1.221 1.899 1.7l.018.025c.508.745.93 1.558 1.25 2.417.818 2.185 1.063 4.652.712 7.138l-.002.016-.016.11-.005.043-.036.224-.014.07-.01.06q-.014.09-.033.181l-.052.255a19 19 0 0 1-.502 1.987l-.003.01c-.973 3.163-2.76 6.402-5.31 9.626q-.044.061-.08.104c-2.493 3.279-5.645 6.423-9.115 9.094l-.014.01a26 26 0 0 1-.7.574l-.013.01-.039.033a21 21 0 0 1-1.584 1.233 14 14 0 0 1-1.258.86q-.05.032-.1.06l-.007.005-.014.008-.067.04-.01.006q-.068.044-.129.08-.017.01-.027.019l-.049.03-.113.065q-.048.03-.098.058-.032.02-.068.038l.495.075.08-.038.03-.015q.094-.047.187-.099l.042-.023.109-.057q.029-.016.052-.032a14 14 0 0 0 1.165-.74l.013-.01a74 74 0 0 0 2.475-1.94l.01-.01.234-.196.48-.403.48-.407.477-.411a62 62 0 0 0 1.414-1.27q.293-.273.58-.544l.03-.03q.21-.196.418-.4.293-.285.58-.57l.181-.182.091-.092c.197-.198.389-.396.585-.6l.103-.107.25-.262.083-.09q.134-.142.26-.28c.2-.216.41-.448.68-.75q.165-.183.32-.363a36 36 0 0 0 .933-1.104 43 43 0 0 0 1.019-1.293l.012-.018h.002l.004-.005v-.001c.057-.074.112-.15.163-.219q.134-.176.259-.35a35 35 0 0 0 1.021-1.46c.099-.147.215-.32.325-.496q.155-.24.307-.483l.011-.02.278-.452q.027-.043.05-.084l.096-.162q.045-.072.088-.147l.2-.346q.028-.047.052-.093.097-.168.186-.331l.028-.052a32 32 0 0 0 .64-1.222q.07-.137.137-.276l.006-.013.02-.04c.082-.168.16-.332.229-.483q.113-.242.237-.522l.127-.287a7 7 0 0 0 .1-.238l.035-.084q.068-.16.129-.314l.003-.008a11 11 0 0 0 .115-.284l.084-.216.09-.24q.078-.206.152-.414l.012-.033c.058-.164.11-.33.152-.467a11 11 0 0 0 .14-.475q.058-.195.103-.387a12 12 0 0 0 .137-.575l.027-.127q.015-.068.029-.143l.06-.317.01-.068h.001s0-.008.002-.011v-.009l.018-.11.017-.108.037-.266a14 14 0 0 0 .11-1.757z"/><path fill="#9a1c26" stroke="#fff" stroke-linejoin="bevel" stroke-width="1.196" d="m49.22 44.889-.002.004c-.859 2.502-2.52 6.766-4.06 7.4q-.034.015-.067.026c-1.467.583-3.137-.147-3.51-1.532l-1.577-5.859-.188-.697c-.532-2.758 1.263-5.645 4.01-6.447 2.75-.802 5.409.784 5.943 3.543.237 1.227.013 2.478-.55 3.562z"/><path fill="#fff" stroke="#e176ae" stroke-miterlimit="10" stroke-width="1.196" d="M62.212 25.027q-.059 0-.118-.007.058.005.118.007Zm-.235-.019.116.012c-1.075-.067-1.927-.792-1.96-1.686.174.853.894 1.545 1.844 1.674Zm2.347-1.308c-.185.623-.778 1.115-1.531 1.274a2.17 2.17 0 0 0 1.531-1.274Z"/><path fill="#cc2029" d="M64.386 23.278a1.5 1.5 0 0 1-.063.422 2.17 2.17 0 0 1-1.74 1.31l-.105.01q-.054.005-.109.006l-.097.003h-.061a2 2 0 0 1-.233-.02c-.95-.129-1.67-.821-1.844-1.675l-.001-.055c0-.967.952-1.75 2.127-1.75 1.176 0 2.127.783 2.127 1.75z"/><path fill="#fff" d="m59.517 23.411.008.037-.01-.049v.012z"/><path fill="#fff" d="M70.034 34.184c-1.23-2.723-3.26-4.598-5.87-5.421-.684-.216-6.296-1.44-6.934-1.578l-.025.059q-.586-.191-1.198-.314a10.62 10.62 0 0 0-7.452 1.245 13 13 0 0 0-.79.504l-.136.097-.074.053-.01.008-.006.002q-.058.042-.111.085l-.09.067-.007.006.033-.023-.075.057.04-.033-.017.012-.042.031-.022.017-.003.003-.037.03h-.001l.01-.009a.1.1 0 0 0-.027.02l-.002-.003-.04-.048-.039-.044-.01-.013-.01-.012-.002-.001-.003-.005-.047-.052a.5.5 0 0 1 .063.086l-.002.002-.016-.022.003.007-.07-.097-.011-.008-.007-.01.017.018-.003-.005-.013-.013-.01-.01-.002.002v-.005l.021.021-.028-.031a5 5 0 0 0-.17-.19l-.01-.01a9.1 9.1 0 0 0-2.684-1.964l1.167-6.463.003-.018c.629-4.258 4.482-7.532 8.593-7.299 1.761.1 3.339.864 4.44 2.153 1.26 1.473 1.784 3.438 1.473 5.533l-.289 1.955q-.06.428.015.843l.009.049c.23 1.127 1.18 1.992 2.362 2.151a3 3 0 0 0 .373.028h.012q.06 0 .12-.004.06-.001.129-.007l.152-.016a2.79 2.79 0 0 0 2.176-1.562l.097-.096v-.14q.084-.235.123-.49l.288-1.954c.526-3.553-.454-7.09-2.689-9.703-2.106-2.465-5.11-3.927-8.458-4.118-3.419-.196-6.81.953-9.55 3.235-2.687 2.236-4.443 5.317-4.943 8.675l-1.17 6.246a11.2 11.2 0 0 0-4.173 1.17l-.036.02c-2.184 1.297-4.128 3.33-5.473 5.723l-.016.03a18.3 18.3 0 0 0-1.777 6.39c-.043.715-.05 1.457-.018 2.204q0 .042.006.089.026.6.093 1.243l.021.199.023.206.004.034q.002.033.008.067l.002.017q.014.092.025.181l.01.076q.006.065.018.127.021.15.044.297a1 1 0 0 0 .015.095l.019.104q0 .012.004.024v.004l.007.037-.002-.018v.003l.004.033-.004-.018.004.025.03.165.001.022.015.08.006.035.024.132.01.041.005.039.004.02c.656 3.414 2.036 6.937 4.1 10.47l.284.477q.158.263.328.532c.105.175.215.347.322.513l.192.297.233.356.095.14c.154.231.314.47.476.704q.285.413.587.834l.024.03h.001l.026.032-.026-.032.012.02.144.196q.089.124.178.244c.354.478.737.991 1.135 1.5q.135.173.273.346l.076.097q.33.413.66.82c.303.372.618.751.938 1.128 1.49 1.758 3 2.666 4.624 2.747l.75.133c1.485.267 3.118.56 4.709.56.548 0 1.092-.035 1.623-.118 1.913-.299 3.537-1.464 4.968-2.491l.382-.273c2.843-2.022 5.527-4.494 8.45-7.779 1.83-2.057 3.657-4.206 5.122-6.53 1.464-2.321 2.569-4.818 2.956-7.57.371-2.636-.016-5.474-1.061-7.788zm-42.682 9.799v-.02l.001.02zm.01.08.026.093a1 1 0 0 1-.027-.094m19.826-14.958-.03-.033.031.033m-.092-.111h.001m.016.037-.008-.01.002-.001zq.014.025.025.051l-.01-.04-.016-.026.015.026a.5.5 0 0 1 .04.08l-.011.009q.018.057.024.116l-.029-.113-.023.02-.047-.107zm-.143-.18-.003.004.011.01h-.002l-.012-.008-.003.002-.057-.042-.023.034-.034-.086a.6.6 0 0 1 .123.087m15.69-4.461-.152.026-.083.008q-.036.003-.079.004l-.072.003h-.02l-.02-.002a2 2 0 0 1-.167-.013c-.645-.088-1.165-.546-1.31-1.15a.9.9 0 0 1 .068-.33 1 1 0 0 1 .08-.157l.034-.05.018-.023a.7.7 0 0 1 .09-.105l.015-.017a1 1 0 0 1 .092-.084l.05-.04a1.3 1.3 0 0 1 .167-.11q.054-.03.111-.057a1.8 1.8 0 0 1 .496-.146 2 2 0 0 1 .285-.02c.83 0 1.505.516 1.505 1.151l-.002.064q-.001.026-.005.053l-.008.043-.001.012-.01.04q0 .006-.003.012a1.55 1.55 0 0 1-1.08.888m-22.944 1.814.102-.544 1.126-6.011.003-.021c.456-3.077 2.065-5.901 4.53-7.953 2.492-2.075 5.57-3.121 8.662-2.944 3 .17 5.689 1.479 7.573 3.684 2.014 2.355 2.895 5.553 2.418 8.774l-.048.331-.048-.035-.03-.022-.086-.057a2.8 2.8 0 0 0-.618-.3l-.083-.029-.025-.008a2 2 0 0 0-.124-.035l-.12-.029a2 2 0 0 0-.254-.045l-.022-.003-.08-.009-.062-.006a3 3 0 0 0-.443-.006l-.103.007h-.006a3 3 0 0 0-.4.06v.002l-.129.031h-.003l-.11.032-.154.053-.081.03-.053.023q-.045.018-.09.04l.065-.444c.36-2.431-.26-4.727-1.744-6.462-1.324-1.549-3.216-2.467-5.327-2.587-4.733-.268-9.171 3.46-9.894 8.315l-1.115 6.178-.052.29-.004.018a2 2 0 0 1-.023.129 5 5 0 0 1-.217-.034 5 5 0 0 0-.911-.09q-.106 0-.223-.016a10 10 0 0 0-.922-.067c-.3-.012-.746-.029-.88-.1a.5.5 0 0 1 .005-.14M28.529 43.57q.007.02.013.057zm.018.117-.004-.055zm.046.309-.013-.034h.007l.011.032zm.018.056h.002l-.005-.027.007.026.003.014.006.038.002.027.002.042zM44.58 64.26l-.017.008c-.727.36-1.53.641-2.419.573-1.085-.084-2.3-.686-3.67-2.304a76 76 0 0 1-1.573-1.92l-.077-.096c-.086-.11-.173-.218-.262-.334a71 71 0 0 1-1.485-1.978 58 58 0 0 1-1.026-1.483l-.09-.136-.227-.347-.188-.29c-.108-.169-.21-.328-.308-.49l-.01-.017a21 21 0 0 1-.316-.511l-.004-.008q-.137-.225-.27-.454c-1.995-3.414-3.328-6.808-3.96-10.089l-.007-.044.003.02-.023-.118-.012-.069-.014-.082-.008-.051-.027-.15-.01-.06-.01-.066-.006-.022q0-.013-.004-.026l-.01-.066-.008-.038-.046-.32-.025-.175-.028-.204q0-.013-.003-.026l-.006-.06-.021-.19-.022-.2a20 20 0 0 1-.088-1.183l-.005-.064a21 21 0 0 1 .017-2.105l.004-.022a17.2 17.2 0 0 1 1.649-5.903c1.24-2.199 3.017-4.062 5.008-5.25a9.9 9.9 0 0 1 3.623-1.02 10 10 0 0 1 2.17.044 9 9 0 0 1 2.733.802 7.9 7.9 0 0 1 2.381 1.729l.051-.044.005.008-.05.043q.08.082.135.148l.032.037.025.028q.014.018.032.035l.04.049.028.03q.034.043.072.085l-.003.003.03.036.035.04.06.076.003.004h.001l.065.071-.042-.042q.004.007.01.012l.09.12.085.115.916.102.069-.058.19-.16.011-.009q.035-.03.068-.055l.023-.02.035-.027.056-.045.034-.028.01-.007.002-.002.014-.01.037-.03.01-.005.042-.032.049-.038.057-.041.08-.061.084-.06.118-.084.012-.007q.098-.072.186-.127l.008-.006q.246-.16.503-.311a9.38 9.38 0 0 1 7.932-.702 8.8 8.8 0 0 1 4.103 3.062 11 11 0 0 1 .993 1.862q.141.334.25.638l.085.245.018.055q.05.147.093.292l.003.011q.03.096.054.188l.015.053.011.034.008.03.018.063.007.024q.023.084.043.166l.03.119.008.037.032.136.04.172.005.016.02.094.013.066c.036.162.068.334.106.556l.003.013q.002.017.006.032l.006.046q0-.015-.003-.028h.002v-.011l.002.01h.002l.065.254-.037-.081.002.011-.018-.066-.002-.011v.004q.024.164.046.331v.012q.01.05.017.103.005.06.012.103l.021.217.014.124q.01.09.013.16l.003.046q.01.068.01.13l.002.027q.01.138.016.278v.011c.006.087.009.176.01.277v.02l.004.057v.192l.002.078v.049l-.002.17v.013c-.007.48-.04.961-.098 1.422l-.033.236-.018.116q-.008.056-.018.111v.016l-.003.013v.007l-.003.011-.058.31-.026.126-.028.131q-.046.222-.102.438l-.003.018.008-.022-.012.039-.002.006-.011.035q-.043.18-.096.363l-.003.01c-.046.166-.086.304-.128.436-.044.138-.09.286-.14.427l-.01.028q-.072.202-.147.4l-.004.011-.083.223-.088.225.023-.049-.037.08-.086.217-.006.014q-.06.152-.124.303l-.033.077-.05.119-.044.106-.127.284c-.079.181-.152.344-.228.502q-.1.225-.219.465l-.006.013-.019.038q-.061.128-.127.254l-.008.016q-.075.153-.152.304a38 38 0 0 1-.462.87l-.031.056q-.089.165-.176.314l-.019.035-.025.047-.196.338-.09.15-.09.152-.006.01q-.016.03-.037.061l-.006.01q-.134.225-.27.44l-.01.016a41 41 0 0 1-.613.952c-.093.139-.203.304-.323.475l-.278.401a33 33 0 0 1-.393.545c-.081.114-.165.225-.253.343q-.071.097-.144.193l-.006.008-.013.019-.033.049.032-.05q-.136.179-.274.355l-.008.009q-.169.223-.354.453a33 33 0 0 1-.64.786c-.222.266-.428.507-.636.745q-.152.176-.308.348a56 56 0 0 1-.92 1.01l-.086.091-.239.251-.102.108-.561.576-.104.103q-.081.084-.17.172-.284.282-.572.562-.203.197-.409.392l-.025.024q-.285.27-.577.54l-.011.011-.069.064-.02.018a53 53 0 0 1-1.277 1.144l-.474.409-.472.4q-.245.204-.48.405-.12.098-.237.199a71 71 0 0 1-2.42 1.897c-.359.254-.722.484-1.08.684l-.01.008-.005.003-.097.07a.6.6 0 0 1 .097-.07l-.089.046-.02.013.015-.008-.071.04.034-.021-.016.007q-.075.043-.152.082l-.025.012zM63.1 36.465v-.01l.003.01zm6.766 5.347c-.73 5.181-4.249 9.502-7.791 13.483-2.86 3.214-5.48 5.627-8.244 7.595l-.386.275c-1.383.992-2.812 2.018-4.425 2.27-1.222.19-2.572.088-3.893-.101q-.249-.036-.495-.075l.067-.038.099-.058.112-.066.049-.03.028-.018.127-.08.01-.006.068-.04.014-.008.007-.005q.05-.028.1-.06l.052-.033a14 14 0 0 0 1.244-.854 21 21 0 0 0 1.586-1.238l.013-.011c.275-.219.498-.402.7-.574l.013-.01c3.47-2.671 6.623-5.815 9.116-9.094q.035-.043.08-.104c2.55-3.224 4.336-6.463 5.309-9.627l.003-.009q.026-.095.056-.188l.058-.2c.158-.55.288-1.09.388-1.6l.052-.254q.018-.09.034-.181l.01-.06.013-.07.036-.224.006-.042q.007-.056.016-.111l.001-.017c.352-2.485.106-4.952-.711-7.137a11.3 11.3 0 0 0-1.251-2.417l-.018-.026c-.311-.478-1.072-1.105-1.9-1.7l.453.101c1.536.345 2.843.646 3.107.73 2.858.902 4.36 3.086 5.117 4.76.957 2.12 1.311 4.726.97 7.152"/><path fill="#ffca29" d="M45.933 41.267 25.28 36.9l.001-.12c0-4.505-3.817-8.156-8.526-8.156S8.23 32.275 8.23 36.78s3.818 8.156 8.526 8.156c3.42 0 6.37-1.926 7.728-4.706l18.882 3.992-.897 3.286 3.433.868 1.366-5.007zm-29.177.837c-3.035 0-5.495-2.369-5.495-5.29 0-2.922 2.46-5.29 5.495-5.29 2.839 0 5.175 2.071 5.465 4.73q.03.276.03.56a5.1 5.1 0 0 1-.814 2.772c-.967 1.512-2.702 2.519-4.681 2.519"/><path fill="#fff" d="m46.344 49.107-4.633-1.172.89-3.263-17.78-3.759c-1.583 2.822-4.696 4.62-8.065 4.62-5.043 0-9.147-3.926-9.147-8.753 0-4.826 4.104-8.753 9.147-8.753s8.94 3.732 9.14 8.392l20.428 4.32 1.61 2.537zm-3.116-2.025 2.23.564 1.142-4.182-1.06-1.668-20.903-4.419.023-.502q.002-.047.001-.095c0-4.167-3.546-7.557-7.905-7.557-4.36 0-7.905 3.39-7.905 7.557s3.546 7.558 7.905 7.558c3.058 0 5.871-1.712 7.166-4.363l.212-.432 19.998 4.228zm-26.472-4.38c-3.372 0-6.116-2.641-6.116-5.888 0-3.248 2.744-5.888 6.116-5.888 3.14 0 5.755 2.264 6.082 5.266q.035.31.035.622a5.7 5.7 0 0 1-.907 3.086c-1.124 1.755-3.071 2.803-5.21 2.803m0-10.58c-2.687 0-4.874 2.105-4.874 4.692s2.187 4.693 4.874 4.693c1.704 0 3.257-.835 4.153-2.234a4.56 4.56 0 0 0 .694-2.956c-.26-2.393-2.344-4.196-4.847-4.196"/><path fill="#7e55a3" d="M173.222 69.735c-1.178 0-2.266-.187-3.236-.554-1.77-.667-3.183-1.96-4.087-3.74l-.07-.112-.074-.178-.179-.378-.506-1.078-.035-.073-1.83-3.886-1.458-3.092a360 360 0 0 1-1.87-4.047l-.188.423-2.017 4.531-.027.061q-.288.651-.577 1.297l-.21.474-.026.04c-.866 1.78-2.245 3.088-3.996 3.79-1.031.414-2.163.618-3.454.618-.643 0-1.322-.05-2.078-.155-.705-.098-6.688-1.152-8.504-1.474l-.042-.007-4.821-.909-.366-.067-5.346-1.014-1.324-.235c-2.215-.394-4.014-1.923-4.694-3.991l-.835-2.543c-.531-1.322-.543-2.854-.034-4.556l.037-.124.046-.122c.149-.384.31-.733.452-1.042l.12-.264q.458-1.026.918-2.05l.261-.585c2.597-5.798 5.316-11.65 7.946-17.311 2.636-5.673 5.362-11.54 7.954-17.33l.118-.263.282-.63q.066-.148.151-.313c.785-1.533 2.042-2.752 3.638-3.528q.104-.052.214-.096c1.107-.467 2.38-.703 3.783-.703q.444 0 .914.03l.117.008.117.015c1.107.144 2.267.337 3.762.623l.06.012.52.12c.588.134 1.142.261 1.608.346l1.172.215q.933.17 1.865.342c1.288.235 2.529.447 3.729.653 1.239.212 2.52.43 3.874.678l.102.018q.074.012.148.027l1.711.313c1.321.244 3.525.65 4.995 2.513l.034.042.07.097c.498-.09.965-.168 1.421-.237l.117-.018.117-.01c.4-.034.793-.051 1.166-.051 1.298 0 2.489.21 3.537.626q.129.05.254.11c1.595.742 2.865 1.926 3.679 3.43q.089.162.164.322l.289.608 1.021 2.155 15.429 32.56 1.24 2.615q.058.124.126.26c.147.304.314.648.47 1.026l.051.123.041.127c.543 1.689.565 3.218.065 4.55l-.782 2.563c-.631 2.08-2.397 3.646-4.606 4.086l-1.319.262-5.347 1.127-.06.012-.279.057-4.823 1.01-.02.004c-1.288.255-7.748 1.531-8.471 1.646-.843.135-1.6.2-2.312.2z"/><path fill="#fff" d="M147.255 7.912q.334 0 .675.023c1.183.155 2.365.362 3.545.589.791.179 1.544.36 2.218.483l3.034.556c2.658.487 4.98.85 7.637 1.339q.065.01.132.023.017.001.033.005l1.766.324c1.084.2 2.203.416 2.847 1.231a2.4 2.4 0 0 1 .445 1.22l.002.013v.013a3.5 3.5 0 0 1-.002.674l-.002.022q-.003.015-.005.04l-.013.111q0 .018-.004.037l-.005.042q-.01.07-.022.137l-.031.11-.035.11q-.03.096-.065.193.001-.005.004-.007c.072-.195.14-.392.163-.6l.003-.024.064-.017.848-.212a60 60 0 0 1 3.532-.66q.433-.037.855-.038c.786 0 1.536.107 2.211.377q.006.002.011.006a4.53 4.53 0 0 1 2.2 2.112l.422.89q8.16 17.222 16.322 34.442l1.239 2.614c.176.371.369.748.529 1.133.284.883.388 1.749.087 2.467l-.002.005v.001l-.817 2.68c-.265.873-1.01 1.534-1.937 1.718l-1.34.265-5.342 1.127-.048.009-.304.062-2.305.483-2.506.524s-7.645 1.511-8.336 1.622a11 11 0 0 1-1.738.155c-.683 0-1.341-.09-1.943-.317-.91-.343-1.694-1.004-2.256-2.16l-.023-.042-.005-.012q-.359-.76-.715-1.52l-.033-.07-3.289-6.979c-1.671-3.548-3.396-7.432-5.119-11.3a355 355 0 0 1-2.27 5.23l-3.135 7.044-.031.07-.681 1.533-.006.012-.021.044c-.536 1.166-1.307 1.844-2.209 2.204-.645.26-1.358.359-2.1.359-.515 0-1.044-.047-1.576-.121-.693-.096-8.37-1.453-8.37-1.453l-2.517-.474-2.314-.436-.306-.056-.048-.008-5.366-1.017-1.343-.24c-.93-.165-1.69-.81-1.975-1.678l-.875-2.663v-.002l-.002-.003c-.318-.712-.231-1.58.034-2.47.15-.388.335-.769.503-1.142l1.181-2.64c5.188-11.587 10.711-23.052 15.898-34.641l.402-.898q.033-.073.071-.145a4.52 4.52 0 0 1 2.095-2.017c.72-.305 1.53-.423 2.382-.423m5.117 13.604q-.035-.09-.067-.183a4 4 0 0 1-.07-.219 2 2 0 0 1-.031-.18l-.02-.145-.009-.086c.006.073.008.146.018.22.028.206.101.402.178.594m7.315 15.55.012-.027-.006-.012-.011.027zm-1.606 3.607q.072-.166.148-.331v-.002zm-31.212 13.053q-.021-.006-.036-.008zm24.721 1.415q.084-.126.163-.26c.045-.077.073-.165.11-.245a7 7 0 0 1-.273.505m19.472 5.95a7 7 0 0 1-.285-.503c.038.08.068.167.116.244q.081.133.169.258M147.258 1.124c-1.89 0-3.635.33-5.188.983q-.195.082-.385.174c-2.287 1.108-4.092 2.857-5.22 5.057a9 9 0 0 0-.233.483l-.291.648-.104.234c-2.585 5.773-5.306 11.629-7.937 17.292-2.634 5.67-5.358 11.534-7.963 17.352l-.289.645-.891 1.992-.106.233c-.154.335-.345.75-.531 1.23l-.094.243-.075.25c-.56 1.872-.662 3.642-.307 5.281v.114l.108.327q.122.45.291.888l.805 2.448c1.074 3.267 3.916 5.683 7.416 6.305l1.301.232 5.327 1.01.025.004.024.005.048.008.285.052 2.294.431 2.515.475.041.007.041.008c2.918.515 7.92 1.394 8.641 1.495.921.128 1.764.19 2.577.19 1.743 0 3.365-.298 4.821-.884 2.517-1.011 4.492-2.843 5.739-5.314l.065.138 1.818 3.858.017.036.011.025.011.024.5 1.062.209.443.165.352.058.093c1.298 2.487 3.329 4.309 5.896 5.28 1.383.524 2.906.79 4.528.79.908 0 1.854-.08 2.891-.245.737-.118 5.702-1.096 8.601-1.67l.039-.008.04-.008 2.506-.524 2.291-.48.255-.053.02-.004.051-.01.05-.011 5.299-1.118 1.296-.257c3.489-.693 6.277-3.165 7.279-6.453l.752-2.469q.156-.43.267-.874l.083-.273v-.093c.342-1.672.208-3.468-.402-5.363l-.082-.253-.101-.246c-.195-.47-.393-.88-.552-1.208l-.119-.244-1.233-2.604-16.115-34.007-.206-.435-.143-.3-.27-.57a9 9 0 0 0-.255-.5c-1.171-2.16-2.997-3.86-5.288-4.92a7 7 0 0 0-.396-.171c-1.484-.592-3.134-.893-4.906-.893-.477 0-.975.023-1.479.066l-.069.006c-2.07-1.676-4.441-2.112-5.708-2.346h-.007l-.812-.149-.873-.16a9 9 0 0 0-.3-.053c-1.367-.251-2.651-.47-3.894-.683a303 303 0 0 1-3.685-.645q-.93-.172-1.858-.341l-1.178-.216a38 38 0 0 1-1.451-.314q-.231-.054-.468-.107l-.119-.027-.121-.023a66 66 0 0 0-3.978-.659l-.233-.03-.235-.015a18 18 0 0 0-1.152-.039z"/><path fill="#ed1c24" d="m156.81 53.846-.01.05-.003.024"/><path stroke="#000" stroke-miterlimit="10" stroke-width=".021" d="m156.81 53.846-.01.05-.003.024m-2.098-1.491v-.001"/><path fill="#ed1c24" stroke="#000" stroke-miterlimit="10" stroke-width=".021" d="M160.238 38.133a4.52 4.52 0 0 1 2.083-2.012c-.852.364-1.575.995-2.083 2.012Z"/><path fill="#ed1c24" d="m163.613 59.922.012.05.004.024"/><path stroke="#000" stroke-miterlimit="10" stroke-width=".021" d="m163.613 59.922.012.05.004.024m2.062-1.534"/><path fill="#3a294b" d="M149.381 61.031c-.504 0-1.047-.041-1.664-.127-.698-.097-8.08-1.4-8.393-1.457l-4.839-.91-.348-.064-5.372-1.018-1.337-.238c-1.157-.205-2.096-1.003-2.452-2.083l-.874-2.663 1.142-.437c.212.42 1.123.891 1.726 1.103l.027.007.062.014c.252.062.519.114.771.162l.156.03 2.393.45 1.81.34h.015l.061.015 3.256.613 2.472.466q.918.173 1.841.352c2.319.447 4.716.91 7.07 1.19q.312.037.61.037c1.566 0 2.845-.77 3.701-2.224a1 1 0 0 0 .038-.088l.041-.099.007-.014.006-.013c1.81-3.994 3.625-8.1 5.381-12.07l1.077-2.437c2.779-6.282 5.652-12.78 8.527-19.143.431-.954.861-1.927 1.279-2.869q.349-.79.701-1.577l.07-.156.034-.072.134-.296q.037-.079.066-.148c.059-.128.104-.232.141-.327l.007-.016q.016-.035.03-.071l.005-.015.006-.013.008-.02.041-.111.02-.053a2 2 0 0 0 .126-.448l.008-.125q.002-.063.007-.127.015-.203.006-.39l-.003-.043 1.231-.075.338 5.475a4.9 4.9 0 0 1-.41 2.339l-.567 1.276q-1.105 2.478-2.206 4.955c-1.511 3.394-3.09 7.157-4.617 10.795-1.526 3.636-3.103 7.395-4.615 10.791l-3.677 8.263-.186.418-.006.011-.013.025c-.56 1.214-1.412 2.057-2.533 2.506-.674.271-1.439.403-2.336.403z"/><path fill="#000" d="m169.595 13.815.002.044zm.002.044.335 5.426a4.3 4.3 0 0 1-.361 2.07l-.568 1.276q-1.105 2.478-2.206 4.955c-3.023 6.791-6.21 14.796-9.232 21.586l-3.135 7.044-.032.07q-.34.767-.682 1.533l-.006.012-.021.043c-.537 1.167-1.307 1.844-2.21 2.206-.645.26-1.357.358-2.101.358-.514 0-1.043-.048-1.575-.122-.694-.095-8.371-1.452-8.371-1.452l-2.516-.474-2.315-.436-.305-.056-.048-.009-5.366-1.017-1.344-.239c-.93-.165-1.69-.81-1.975-1.678l-.875-2.663c.425.845 2.11 1.417 2.11 1.417l.033.007.035.009.032.006q.401.097.812.17l.147.028q2.135.403 4.272.804l.005.001 5.738 1.08c2.961.556 5.959 1.192 8.953 1.549q.35.041.686.041c1.808 0 3.282-.897 4.238-2.525.045-.077.074-.164.11-.246l.007-.014c2.092-4.612 4.151-9.29 6.211-13.948 2.914-6.589 5.818-13.159 8.777-19.71.668-1.478 1.32-2.966 1.981-4.449l.102-.225a25 25 0 0 0 .414-.946l.049-.129.005-.014c.072-.195.14-.392.165-.599.011-.09.011-.182.018-.273a4 4 0 0 0 .006-.468m1.228-.124-2.462.15.003.04a3 3 0 0 1-.005.313l-.009.145-.006.084a1.6 1.6 0 0 1-.09.305q-.016.038-.028.075l-.032.086-.003.006v.003l-.01.022-.011.029-.018.043-.007.015-.006.016a7 7 0 0 1-.128.297l-.003.007-.004.008-.058.13-.002.006-.003.006q-.063.143-.131.286l-.001.004-.002.005-.032.07-.075.165-.7 1.578c-.416.94-.847 1.911-1.276 2.861-2.872 6.36-5.743 12.85-8.519 19.127l-.262.592-.824 1.864a1404 1404 0 0 1-5.376 12.059l-.018.04-.062.148c-.749 1.26-1.809 1.9-3.151 1.9q-.261 0-.534-.032c-2.332-.277-4.718-.738-7.026-1.182-.605-.117-1.23-.237-1.843-.352l-2.519-.475-3.218-.605h-.003l-.002-.001-.113-.021-1.79-.337-2.361-.445-.161-.03a14 14 0 0 1-.794-.167c-.578-.21-1.235-.595-1.351-.796l-2.284.878.875 2.663c.423 1.29 1.545 2.243 2.927 2.488l1.337.237 5.359 1.017h.005l.006.001.047.009.3.054 2.311.435 2.516.474.008.002h.007c.787.14 7.72 1.365 8.418 1.462.645.09 1.217.133 1.75.133.981 0 1.823-.148 2.576-.45 1.266-.507 2.226-1.451 2.854-2.805l.012-.02.028-.064.167-.375q.259-.58.515-1.16l.002-.004.002-.003.01-.023.019-.043 1.566-3.518 1.567-3.522c1.515-3.403 3.094-7.166 4.621-10.804 1.526-3.635 3.103-7.394 4.611-10.782l2.502-5.62.272-.613a5.45 5.45 0 0 0 .458-2.614l-.334-5.414q0-.029-.003-.058z"/><path fill="#86d6f7" d="M147.388 57.993c-1.202 0-2.485-.246-3.726-.483l-.503-.096-11.079-2.084h-.015l-.061-.015-1.827-.344-2.435-.458q-.07-.015-.142-.027l-.013-.003a65 65 0 0 1-.751-.157l-.086-.018-.034.002-.12-.04c-.198-.067-1.939-.683-2.46-1.718l-.053-.105-.002-.02c-.3-.746-.284-1.655.049-2.771l.007-.023.008-.022c.119-.304.253-.597.384-.882l.132-.289 1.181-2.638c2.589-5.783 5.306-11.629 7.932-17.283 2.639-5.68 5.368-11.553 7.966-17.36l.015-.033.386-.863q.042-.091.087-.177a5.1 5.1 0 0 1 2.4-2.296c.75-.318 1.61-.472 2.628-.472q.345 0 .716.024l.02.001.02.003a60 60 0 0 1 3.584.595l.021.004.451.102c.622.143 1.21.278 1.74.374l1.341.246 1.694.31c1.312.241 2.565.456 3.777.663a314 314 0 0 1 4.045.71l1.745.32c1.081.199 2.426.446 3.224 1.455l.011.015c.309.42.495.92.553 1.488l.005.04.003.052v.001l.004.048q.02.297-.004.603l-.008.137-.002.01-.015.134-.002.015-.007.059q-.012.093-.028.176l-.004.017-.004.017-.04.137q-.018.064-.037.12-.037.116-.079.23l-.035.096-.011.026a3 3 0 0 1-.07.17 10 10 0 0 1-.154.359l-.07.157-.136.299-.033.074-.064.139-1.982 4.452-4.351 9.772-4.427 9.94-6.211 13.947-.007.015-.009.017c-1.013 2.09-2.66 3.107-5.034 3.107z"/><path fill="#000" d="M147.257 7.912q.334 0 .674.023a59 59 0 0 1 3.545.589c.79.179 1.543.36 2.218.483l3.033.556c2.658.487 4.98.85 7.639 1.339l.164.03 1.765.322c1.086.2 2.204.416 2.848 1.231.262.355.401.767.444 1.22l.003.013v.013l.007.084q.016.249-.004.513l-.01.14-.017.146-.005.044q-.01.069-.022.137a1 1 0 0 1-.031.11l-.035.11q-.035.11-.075.219l-.041.11-.022.053a8 8 0 0 1-.188.441l-.068.154q-.067.15-.136.298-.052.112-.102.225-.992 2.224-1.981 4.449l-8.778 19.71-6.211 13.947-.007.015c-1.048 2.162-2.649 2.764-4.476 2.764-1.297 0-2.706-.303-4.111-.568l-11.139-2.095-.005-.001q-2.137-.404-4.272-.804-.067-.015-.147-.028c-.275-.056-.639-.134-.812-.17l-.032-.007-.035-.008-.032-.007h-.002s-1.684-.573-2.11-1.418v-.001l-.002-.004c-.317-.711-.232-1.58.034-2.468.151-.389.334-.769.503-1.143l1.18-2.64c5.189-11.588 10.712-23.052 15.899-34.641l.402-.898q.034-.073.07-.145a4.53 4.53 0 0 1 2.095-2.018c.72-.305 1.531-.423 2.383-.423m0-1.187c-1.104 0-2.044.17-2.873.52a5.7 5.7 0 0 0-2.808 2.78q-.2.452-.401.896l-.002.004c-2.596 5.802-5.324 11.673-7.962 17.35-2.628 5.657-5.345 11.505-7.937 17.292l-.612 1.368-.569 1.272-.129.282a17 17 0 0 0-.396.913l-.017.044-.013.045c-.359 1.204-.38 2.21-.064 3.064l.004.048.103.206c.295.586.862 1.094 1.735 1.55.545.287 1.023.451 1.075.47l.238.08.074-.004h.004c.19.042.507.109.755.159l.013.002.012.003.12.023.009.002.008.001a2203 2203 0 0 0 4.272.804l.117.023 6.666 1.253 4.36.82.501.096c1.27.243 2.584.495 3.847.495 2.639 0 4.468-1.128 5.593-3.45l.003-.005.006-.013.002-.003.013-.03q3.103-6.972 6.21-13.945l4.386-9.849 4.392-9.862 1.981-4.448.002-.004.002-.005.058-.128.033-.073q.07-.15.139-.303l.073-.163a9 9 0 0 0 .203-.478l.033-.081.008-.02.042-.113a6 6 0 0 0 .123-.37q.03-.093.047-.162l.009-.034.007-.035c.015-.079.025-.15.032-.202v-.005l.024-.197.003-.016.006-.085.004-.05.003-.048a4.6 4.6 0 0 0-.001-.74l-.001-.028v-.005l-.009-.08a3.54 3.54 0 0 0-.663-1.76l-.011-.015-.013-.015c-.94-1.191-2.414-1.462-3.598-1.679l-1.315-.24-.42-.078-.094-.017-.107-.019a303 303 0 0 0-3.864-.677c-1.209-.207-2.46-.421-3.769-.66l-1.68-.308-1.353-.248a40 40 0 0 1-1.71-.368q-.226-.053-.456-.104l-.021-.005-.021-.004a60 60 0 0 0-3.621-.6l-.041-.006-.041-.002q-.392-.026-.757-.026z"/><path fill="#ed1c24" d="M147.777 56.093c1.38-.088 2.209-.662 2.854-1.978l.005-.013.011-.02q3.097-6.96 6.198-13.92l10.759-24.159c.021-.05.048-.109.075-.168l.03-.066q.07-.151.133-.293l.006-.013.058-.128.007-.017a8 8 0 0 0 .126-.292l.014-.035.015-.036.011-.032.014-.03.027-.072c.025-.07.047-.131.066-.191l.008-.023.016-.053.01-.034.021-.166.004-.048.004-.07a2 2 0 0 0 .004-.336l-.003-.03-.003-.028-.002-.033a1.16 1.16 0 0 0-.187-.557c-.324-.39-1.041-.548-2.016-.727l-1.71-.313h-.011l-.091-.019-1.248-.24-.736 1.599c-.218.537-.811.838-1.394.709l-10.736-2.108c-.528-.117-.837-.648-.664-1.143l.484-1.391-2.142-.395s-.685-.023-.987-.004c-.523.033-.98.13-1.362.286a3.2 3.2 0 0 0-1.461 1.417l-.012.023-.032.067-.401.895-.651 1.453c-4.97 11.104-10.276 22.084-15.248 33.187l-1.181 2.64-.14.306c-.116.254-.226.494-.321.73-.19.66-.222 1.182-.09 1.517.135.183.742.53 1.271.724l.079.018a76 76 0 0 0 .867.179l4.091.77.043-.003.172.044 11.101 2.088.509.097c1.357.26 2.638.505 3.733.435z"/><mask id="b" width="44" height="48" x="125" y="9" maskUnits="userSpaceOnUse" style="mask-type:luminance"><path fill="#fff" d="M147.777 56.093c1.38-.088 2.209-.662 2.854-1.978l.005-.013.011-.02q3.097-6.96 6.198-13.92l10.759-24.159c.021-.05.048-.109.075-.168l.03-.066q.07-.151.133-.293l.006-.013.058-.128.007-.017a8 8 0 0 0 .126-.292l.014-.035.015-.036.011-.032.014-.03.027-.072c.025-.07.047-.131.066-.191l.008-.023.016-.053.01-.034.021-.166.004-.048.004-.07a2 2 0 0 0 .004-.336l-.003-.03-.003-.028-.002-.033a1.16 1.16 0 0 0-.187-.557c-.324-.39-1.041-.548-2.016-.727l-1.71-.313h-.011l-.091-.019-1.248-.24-.736 1.599c-.218.537-.811.838-1.394.709l-10.736-2.108c-.528-.117-.837-.648-.664-1.143l.484-1.391-2.142-.395s-.685-.023-.987-.004c-.523.033-.98.13-1.362.286a3.2 3.2 0 0 0-1.461 1.417l-.012.023-.032.067-.401.895-.651 1.453c-4.97 11.104-10.276 22.084-15.248 33.187l-1.181 2.64-.14.306c-.116.254-.226.494-.321.73-.19.66-.222 1.182-.09 1.517.135.183.742.53 1.271.724l.079.018a76 76 0 0 0 .867.179l4.091.77.043-.003.172.044 11.101 2.088.509.097c1.357.26 2.638.505 3.733.435z"/></mask><g mask="url(#b)"><path fill="#ffca29" d="M161.106 4.37a2473 2473 0 0 0-17.424 11.42c-3.653 2.418-7.558 4.781-10.708 7.787-.524.524-1.066 1.052-1.393 1.676-.022.046-.02.078-.006.013a.5.5 0 0 0-.007-.206.77.77 0 0 0-.193-.368.9.9 0 0 0-.31-.213c-.071-.026-.101-.029-.11-.032.306-.032.638-.145.966-.254a22 22 0 0 0 1.965-.816c1.779-.824 3.531-1.762 5.26-2.702 7.067-3.837 13.865-8.157 21.17-11.656 1.471-.68 2.997-1.348 4.63-1.798 1.266-.33 2.607-.555 3.952-.073.991.34 1.888 1.196 2.225 2.17.217.57.241 1.12.251 1.692-.027 8.66-10.287 13.34-17.381 16.17a79 79 0 0 1-11.705 3.607c-3.833.896-7.838 1.534-11.507 2.795-.885.312-1.743.667-2.467 1.083-.357.208-.687.428-.913.653a1.5 1.5 0 0 0-.25.317.45.45 0 0 0-.067.22c.014.138.126.263.227.399-.011-.048-.28-.36-.354-.393a1.4 1.4 0 0 0-.252-.155c-.107-.051-.134-.057-.144-.065q-.01-.007.027-.007c.625-.01 1.213-.088 1.873-.18 4.42-.69 8.811-1.826 13.247-2.558 6.021-.996 12.017-1.86 18.119-2.478 4.118-.407 8.232-.69 12.401-.693 3.286.013 6.532.156 9.793.826 2.295.49 4.6 1.248 6.458 2.774 1.121.928 2.064 2.195 2.453 3.604.506 1.788-.126 3.714-1.567 4.928-1.358 1.147-2.956 1.586-4.552 1.887-1.156.208-2.27.305-3.408.37-6.186.298-12.331-.177-18.478-.542-8.334-.643-36.568-1.643-40.461 6.325-.049.111-.064.199-.06.165.018-.177-.153-.496-.312-.588-.037-.025-.048-.026-.033-.02.03.016.149.054.299.079.588.089 1.185.073 1.831.035 1.432-.098 2.849-.324 4.287-.573 11.217-1.804 36.459-9.648 45.584-2.206 1.915 1.52 2.759 3.475 3.477 5.708.89 2.745 1.191 6.157-1.014 8.433-4.457 4.582-15.347 1.583-20.597-.533-1.884-.756-3.691-1.826-5.492-2.713-6.048-3.085-12.106-4.676-17.677.114a20 20 0 0 0-1.928 1.902l-2.802-2.35a24 24 0 0 1 2.338-2.216c2.561-2.134 5.851-3.594 9.272-3.74 5.999-.308 11.294 2.852 16.326 5.474 4.144 1.991 13.151 4.666 17.379 2.536 2.63-1.385 1.482-5.077.637-7.274-.161-.394-.315-.796-.52-1.17-1.194-2.236-3.765-3.269-6.247-3.739-2.818-.527-5.7-.485-8.597-.288-7.942.61-15.73 2.49-23.51 4.194-2.983.65-5.985 1.329-9.046 1.746-1.862.216-4.513.57-6.142-.558a2.77 2.77 0 0 1-1.186-2.492c.039-.519.17-.902.304-1.241.262-.63.571-1.12.96-1.654 5.364-7.11 22.249-7.445 30.791-7.95a2657 2657 0 0 0 24.164-1.336c2.385-.157 4.782-.336 7.112-.722.824-.15 1.734-.302 2.417-.608-.1.041-.332.254-.478.456-.423.533-.589 1.455-.365 2.076l.028.077.021.048.001.001q.002 0 .001-.002a.2.2 0 0 0-.03-.05 1.6 1.6 0 0 0-.346-.293c-4.5-2.662-17.321-1.841-22.907-1.55-5.918.351-11.985.937-17.919 1.468-4.565.371-9.16.574-13.754.619a23 23 0 0 1-2.118-.078c-.452-.053-.905-.106-1.383-.327a2.2 2.2 0 0 1-.412-.248c-.126-.068-.436-.429-.479-.528a4.1 4.1 0 0 1-.508-1.412c-.211-1.217.349-2.436 1.149-3.312.444-.5.899-.901 1.36-1.256 1.775-1.339 3.648-2.26 5.588-3.228a134 134 0 0 1 13.974-5.885c3.646-1.289 7.355-2.51 10.817-4.11 3.167-1.495 7.99-3.935 8.681-7.42.041-.219.065-.447.072-.673 0-.039.002-.018.006.03.044.44.296.92.651 1.233.244.234.66.443.946.455.044 0 .044-.007.024-.012-.216-.038-.565.027-.839.067-1.308.245-2.593.68-3.9 1.141-5.556 2.037-10.986 4.606-16.367 7.088-4.147 1.891-8.218 3.96-12.524 5.526-.896.286-1.771.609-2.763.534-1.134-.103-1.776-1.131-1.376-2.165.197-.544.582-1.006.94-1.414.716-.793 1.476-1.462 2.261-2.157 3.807-3.261 7.639-6.474 11.682-9.451a327 327 0 0 1 9.818-6.867 252 252 0 0 1 5.013-3.297l2.063 2.976z"/></g><path fill="#251b2f" d="M173.221 66.936c-.823 0-1.532-.117-2.168-.359-1.129-.425-1.999-1.251-2.586-2.454l-.008-.015-.009-.015-.196-.415-.537-1.143-3.321-7.047c-1.586-3.366-3.246-7.093-4.85-10.696-1.607-3.606-3.268-7.335-4.853-10.698q-1.155-2.454-2.313-4.908l-.596-1.266a4.9 4.9 0 0 1-.461-2.336l.218-5.473 1.232.049-.001.042q-.007.189.014.391l.009.127q.004.063.011.124c.019.14.075.29.136.446l.02.052.041.102.012.028.007.015.006.014.031.07.006.015q.06.143.145.317.036.08.07.149.072.152.143.295l.038.078.075.156q.367.776.733 1.56c.437.932.89 1.897 1.341 2.84 3.007 6.29 6.016 12.715 8.925 18.926l1.147 2.45a1415 1415 0 0 0 5.645 11.96l.013.028.044.1c.013.03.031.071.04.085.868 1.406 2.13 2.15 3.652 2.15q.345 0 .707-.051c2.347-.329 4.735-.84 7.043-1.334l1.831-.389 2.486-.52 3.217-.675.062-.016h.016l4.185-.877.156-.033a14 14 0 0 0 .821-.19l.031-.008c.597-.224 1.498-.714 1.701-1.138l1.152.415-.816 2.68c-.332 1.086-1.253 1.903-2.405 2.132l-1.339.266-5.335 1.125-.356.072-4.807 1.007c-.32.064-7.672 1.518-8.367 1.628a12 12 0 0 1-1.838.163z"/><path fill="#000" d="m152.154 20.137-.002.045zm-.002.045q-.008.229.016.467c.009.091.012.183.024.273a2.6 2.6 0 0 0 .184.61l.052.126.022.054.043.098q.073.17.155.34l.072.152.142.295.107.222c.693 1.469 1.377 2.943 2.077 4.408 3.103 6.489 6.149 12.998 9.208 19.528 2.161 4.613 4.323 9.25 6.515 13.818l.007.014c.038.08.068.167.115.244.972 1.574 2.424 2.44 4.182 2.44q.388 0 .796-.057c2.986-.418 5.969-1.114 8.917-1.73l5.713-1.197h.006l4.253-.892q.066-.015.147-.03a15 15 0 0 0 .908-.211s1.673-.607 2.079-1.46l-.817 2.68c-.266.873-1.011 1.534-1.937 1.718l-1.34.267-5.342 1.125-.047.01-.305.061-2.305.483-2.506.525s-7.646 1.513-8.337 1.622c-.587.093-1.171.154-1.738.154-.684 0-1.34-.089-1.943-.317-.91-.343-1.695-1.004-2.257-2.16l-.022-.043-.006-.012q-.359-.759-.715-1.519l-.032-.07-3.289-6.979c-3.169-6.727-6.531-14.665-9.703-21.393a5425 5425 0 0 0-2.908-6.174 4.3 4.3 0 0 1-.407-2.061l.216-5.432m-1.231-.098-.003.058-.216 5.42a5.5 5.5 0 0 0 .517 2.605l.283.603.311.66c.635 1.346 1.472 3.12 2.314 4.91 1.583 3.357 3.242 7.083 4.847 10.686 1.606 3.607 3.268 7.336 4.856 10.707l1.639 3.477 1.648 3.498.02.042.01.023.002.002.002.003.544 1.155.172.366.03.064.013.02c.656 1.341 1.637 2.265 2.916 2.747.708.268 1.491.398 2.392.398.585 0 1.22-.056 1.94-.17.694-.11 7.598-1.475 8.382-1.63l.007-.002.007-.002 2.506-.525 2.302-.483.3-.06.045-.01h.006l.005-.003 5.335-1.124 1.332-.265c1.376-.273 2.476-1.25 2.872-2.547l.816-2.68-2.305-.829c-.109.201-.756.598-1.331.82l-.068.018a13 13 0 0 1-.722.166l-.161.034-2.362.494-1.751.367h-.036l-.129.034a3559 3559 0 0 1-5.683 1.19c-.611.128-1.232.26-1.834.39-2.298.492-4.674 1-6.999 1.325a4.4 4.4 0 0 1-.618.044c-1.302 0-2.347-.618-3.108-1.837l-.013-.031a3 3 0 0 0-.071-.155 1444 1444 0 0 1-5.64-11.95l-.862-1.843-.278-.593c-2.912-6.217-5.923-12.646-8.933-18.943-.451-.942-.902-1.904-1.339-2.835l-.735-1.564-.079-.165-.033-.069-.002-.004-.002-.004-.136-.283-.003-.006-.003-.006-.061-.129-.004-.007-.003-.008a9 9 0 0 1-.135-.294l-.007-.015-.007-.016-.019-.043-.011-.028-.01-.021-.003-.008-.034-.086q-.013-.037-.029-.073a1.6 1.6 0 0 1-.097-.303l-.007-.085-.011-.144a2.4 2.4 0 0 1-.012-.313l.002-.04-2.465-.1z"/><path fill="#86d6f7" d="M175.153 63.857c-2.279 0-3.891-.983-4.925-3.006l-.018-.035-6.494-13.775-4.614-9.786-4.612-9.782-2.078-4.407-.067-.14-.039-.08-.143-.297c-.023-.048-.05-.104-.074-.158a9 9 0 0 1-.235-.523l-.008-.02-.038-.099a5 5 0 0 1-.123-.343 2 2 0 0 1-.042-.135l-.005-.017-.003-.016q-.018-.084-.031-.168l-.002-.013-.008-.057-.002-.01-.017-.132v-.003l-.003-.009-.012-.142c-.02-.2-.026-.401-.017-.593l.004-.07v-.026l.001-.041.004-.018a2.97 2.97 0 0 1 .52-1.49l.011-.016c.776-1.025 2.115-1.3 3.191-1.52l1.737-.354.073-.015.118-.024.097-.02 7.837-1.604 1.687-.345 1.333-.273a41 41 0 0 0 1.73-.409l.462-.115.01-.002c1.4-.299 2.534-.511 3.57-.668l.02-.003.02-.002q.475-.04.91-.04c.938 0 1.738.137 2.447.42a5.1 5.1 0 0 1 2.537 2.42l.421.89q8.16 17.223 16.322 34.443l1.239 2.615.137.284c.137.282.279.574.403.875l.009.022.007.022c.354 1.101.392 2.004.113 2.756v.02l-.056.119c-.498 1.045-2.227 1.697-2.421 1.768l-.105.038h-.036l-.086.02c-.188.044-.511.12-.76.175l-.012.003-.133.028-.009.001-2.328.488-1.914.4-.063.017h-.016l-11.028 2.308q-.25.051-.5.106c-1.296.275-2.637.56-3.892.56z"/><path fill="#000" d="M174.876 13.65c.786 0 1.536.106 2.21.376l.011.006a4.53 4.53 0 0 1 2.2 2.112q.209.445.421.889 8.16 17.222 16.322 34.442l1.238 2.615c.176.37.369.747.529 1.133.284.883.389 1.75.087 2.467l-.002.005v.001c-.406.854-2.078 1.46-2.078 1.46h-.002l-.032.008q-.015.002-.035.008l-.032.008c-.173.04-.535.125-.809.186l-.147.032q-2.125.447-4.253.89l-.005.001-11.091 2.321c-1.456.306-2.919.653-4.26.653-1.759 0-3.309-.598-4.372-2.674l-.007-.015-6.515-13.818-9.208-19.528-2.077-4.407-.107-.223q-.072-.147-.142-.295l-.072-.152a8 8 0 0 1-.22-.492l-.043-.108a6 6 0 0 1-.081-.217l-.037-.11q-.019-.053-.034-.11a2 2 0 0 1-.025-.137l-.006-.043-.02-.146-.005-.04-.009-.1a3.4 3.4 0 0 1-.015-.512l.005-.084v-.013l.002-.013c.033-.453.163-.868.417-1.228.625-.828 1.739-1.067 2.82-1.288l1.758-.36a.1.1 0 0 1 .032-.005q.067-.015.133-.026 3.969-.814 7.939-1.625l3.021-.617c.671-.137 1.421-.333 2.207-.528a59 59 0 0 1 3.531-.66q.434-.038.856-.039m0-1.188q-.462 0-.965.044l-.041.003-.041.006a61 61 0 0 0-3.607.674l-.02.005-.021.005-.453.113c-.611.153-1.187.298-1.701.402l-1.346.276-1.676.343-7.809 1.598-.125.025a4 4 0 0 0-.2.041l-1.23.251-.497.102c-1.179.242-2.647.542-3.561 1.752l-.011.015-.012.016a3.54 3.54 0 0 0-.624 1.772l-.007.081-.001.031-.003.067q-.016.33.018.675l.005.049.004.048.008.085.004.016.016.116.012.082v.005c.009.051.02.122.037.2l.007.035.01.034q.019.068.05.16.017.058.044.13.045.129.087.238.021.056.045.112l.008.02.033.081.048.11q.071.166.166.363.037.082.076.16l.145.3.036.074.061.127.001.004.002.005 2.078 4.406 4.61 9.778 4.597 9.751q3.258 6.908 6.514 13.817l.014.028.001.004.008.013.002.005c.609 1.189 1.422 2.071 2.418 2.62.872.483 1.873.717 3.061.717 1.322 0 2.695-.293 4.024-.575l.499-.105 10.96-2.294h.037l.13-.035 1.831-.383 2.391-.502.009-.001.009-.002.119-.026.012-.002.013-.003c.246-.055.562-.129.75-.173l.006-.001.072.002.237-.085a8 8 0 0 0 1.064-.49c.863-.476 1.419-.994 1.701-1.587l.099-.207.002-.05c.299-.861.256-1.866-.13-3.062l-.014-.045-.018-.044c-.131-.317-.277-.615-.417-.905l-.136-.282-.584-1.231-.653-1.381-15.906-33.564-.417-.879-.42-.886v-.002l-.002-.002a5.7 5.7 0 0 0-2.868-2.724c-.784-.312-1.659-.464-2.675-.464"/><path fill="#7e55a3" d="M174.897 61.963c-1.381-.06-2.223-.617-2.897-1.92l-.005-.012-.01-.02-6.502-13.79-9.208-19.528-2.077-4.408-.08-.166-.031-.065q-.075-.15-.14-.29l-.006-.012-.061-.127-.007-.017a11 11 0 0 1-.132-.29l-.015-.034-.016-.035-.012-.032-.013-.03-.029-.07q-.04-.103-.071-.191l-.008-.023-.017-.053-.012-.034-.024-.166-.005-.048-.006-.07a2 2 0 0 1-.011-.336l.002-.03.003-.03.002-.031c.018-.23.075-.414.174-.561.315-.396 1.029-.569 1.999-.768l1.703-.348h.011l.091-.02 1.242-.266.771 1.583c.229.533.829.822 1.409.681l11.019-2.456c.526-.128.822-.665.639-1.156l-.515-1.381 2.134-.439s.684-.036.986-.024c.523.023.983.11 1.367.258a3.2 3.2 0 0 1 1.493 1.387l.012.023q.018.032.034.066l.421.888.682 1.44 15.638 33 1.238 2.615.147.304c.121.251.237.49.336.724.205.655.248 1.176.124 1.514-.131.185-.729.544-1.255.75l-.079.019a59 59 0 0 1-.862.196l-4.073.853-.043-.001-.171.046-11.053 2.314q-.255.052-.507.107c-1.351.288-2.626.56-3.723.512z"/><mask id="c" width="44" height="48" x="153" y="14" maskUnits="userSpaceOnUse" style="mask-type:luminance"><path fill="#fff" d="M174.897 61.963c-1.381-.06-2.223-.617-2.897-1.92l-.005-.012-.01-.02-6.502-13.79-9.208-19.528-2.077-4.408-.08-.166-.031-.065q-.075-.15-.14-.29l-.006-.012-.061-.127-.007-.017a11 11 0 0 1-.132-.29l-.015-.034-.016-.035-.012-.032-.013-.03-.029-.07q-.04-.103-.071-.191l-.008-.023-.017-.053-.012-.034-.024-.166-.005-.048-.006-.07a2 2 0 0 1-.011-.336l.002-.03.003-.03.002-.031c.018-.23.075-.414.174-.561.315-.396 1.029-.569 1.999-.768l1.703-.348h.011l.091-.02 1.242-.266.771 1.583c.229.533.829.822 1.409.681l11.019-2.456c.526-.128.822-.665.639-1.156l-.515-1.381 2.134-.439s.684-.036.986-.024c.523.023.983.11 1.367.258a3.2 3.2 0 0 1 1.493 1.387l.012.023q.018.032.034.066l.421.888.682 1.44 15.638 33 1.238 2.615.147.304c.121.251.237.49.336.724.205.655.248 1.176.124 1.514-.131.185-.729.544-1.255.75l-.079.019a59 59 0 0 1-.862.196l-4.073.853-.043-.001-.171.046-11.053 2.314q-.255.052-.507.107c-1.351.288-2.626.56-3.723.512z"/></mask><g fill="#86d6f7" mask="url(#c)"><path d="M180.739 16.012c.91-1.033.142-3.1-1.715-4.615s-4.099-1.908-5.009-.875-.143 3.1 1.714 4.615 4.1 1.908 5.01.875m11.945 3.05c.91-1.033.142-3.1-1.714-4.615-1.857-1.516-4.1-1.908-5.01-.875s-.142 3.1 1.714 4.615c1.857 1.516 4.1 1.908 5.01.875m-33.66-1.122c.91-1.034.142-3.1-1.715-4.616s-4.099-1.907-5.009-.874-.142 3.099 1.714 4.615c1.857 1.516 4.1 1.907 5.01.874m11.945 3.051c.91-1.034.143-3.1-1.714-4.616s-4.1-1.908-5.01-.875-.142 3.1 1.715 4.615c1.856 1.517 4.099 1.908 5.009.875m11.949 3.051c.91-1.033.143-3.1-1.714-4.615s-4.1-1.908-5.01-.875c-.909 1.033-.142 3.1 1.715 4.615s4.099 1.908 5.009.875m11.946 3.05c.91-1.033.142-3.1-1.715-4.616s-4.099-1.907-5.009-.874-.143 3.1 1.714 4.615 4.1 1.908 5.01.875m-33.66-1.124c.909-1.033.142-3.1-1.715-4.615s-4.099-1.908-5.009-.875-.143 3.1 1.714 4.616 4.1 1.907 5.01.874m11.945 3.05c.91-1.033.142-3.1-1.715-4.615s-4.099-1.908-5.009-.875-.142 3.1 1.714 4.615c1.857 1.516 4.1 1.908 5.01.875m11.945 3.052c.91-1.033.143-3.1-1.714-4.615-1.857-1.517-4.1-1.908-5.01-.875s-.142 3.1 1.715 4.615 4.099 1.908 5.009.875m11.945 3.05c.91-1.033.143-3.1-1.714-4.616s-4.1-1.907-5.009-.874-.143 3.099 1.714 4.615 4.1 1.907 5.009.874m-33.66-1.124c.91-1.033.143-3.1-1.714-4.615s-4.1-1.908-5.01-.875-.142 3.1 1.715 4.615 4.099 1.908 5.009.875m11.946 3.051c.91-1.033.142-3.1-1.715-4.615s-4.099-1.908-5.009-.875-.143 3.1 1.714 4.615 4.1 1.908 5.01.875m11.949 3.051c.91-1.033.142-3.1-1.715-4.616s-4.099-1.907-5.009-.874-.142 3.099 1.714 4.615c1.857 1.516 4.1 1.907 5.01.875m11.941 3.049c.91-1.033.143-3.099-1.714-4.615s-4.1-1.907-5.01-.874-.142 3.099 1.715 4.615 4.099 1.907 5.009.874M153.61 38.97c.91-1.033.142-3.1-1.715-4.615s-4.099-1.908-5.009-.875-.143 3.1 1.714 4.616 4.1 1.907 5.01.874m11.945 3.05c.91-1.032.142-3.098-1.714-4.614-1.857-1.516-4.1-1.908-5.01-.875s-.142 3.1 1.715 4.615 4.099 1.908 5.009.875m11.949 3.051c.91-1.033.143-3.1-1.714-4.616s-4.1-1.907-5.01-.874-.142 3.1 1.715 4.615 4.099 1.908 5.009.875m11.946 3.05c.91-1.033.142-3.1-1.715-4.615s-4.099-1.908-5.009-.875-.143 3.1 1.714 4.615 4.1 1.908 5.01.875m11.945 3.05c.91-1.033.142-3.1-1.714-4.615-1.857-1.516-4.1-1.907-5.01-.875s-.142 3.1 1.714 4.616c1.857 1.516 4.1 1.907 5.01.874m-45.606-4.175c.91-1.033.143-3.1-1.714-4.615s-4.1-1.908-5.009-.875-.143 3.1 1.714 4.615 4.1 1.908 5.009.875m11.946 3.052c.91-1.033.142-3.1-1.715-4.616s-4.099-1.907-5.009-.874-.143 3.1 1.714 4.615 4.1 1.908 5.01.875M179.68 53.1c.91-1.034.142-3.1-1.714-4.616-1.857-1.516-4.1-1.907-5.01-.874s-.142 3.099 1.715 4.615 4.099 1.907 5.009.874m11.945 3.051c.91-1.033.143-3.1-1.714-4.615s-4.1-1.908-5.01-.875c-.909 1.033-.142 3.1 1.715 4.615s4.1 1.908 5.009.875m11.95 3.05c.91-1.033.142-3.1-1.715-4.615s-4.099-1.908-5.009-.875-.143 3.1 1.714 4.615 4.1 1.908 5.01.875m-45.61-4.175c.91-1.033.143-3.1-1.714-4.615s-4.1-1.908-5.01-.875-.142 3.1 1.715 4.615 4.099 1.908 5.009.875m11.946 3.052c.91-1.033.142-3.1-1.715-4.616s-4.099-1.907-5.009-.874-.143 3.099 1.714 4.615 4.1 1.907 5.01.875m11.945 3.049c.91-1.033.142-3.1-1.715-4.615s-4.099-1.908-5.009-.875-.142 3.1 1.714 4.615c1.857 1.516 4.1 1.908 5.01.875m11.945 3.051c.91-1.033.143-3.1-1.714-4.615s-4.1-1.908-5.01-.875-.142 3.1 1.715 4.616 4.099 1.907 5.009.874m-33.66-1.124c.91-1.033.142-3.1-1.714-4.616-1.857-1.516-4.1-1.907-5.01-.874s-.142 3.099 1.715 4.615 4.099 1.907 5.009.875m11.949 3.05c.91-1.033.143-3.099-1.714-4.615s-4.1-1.907-5.01-.874-.142 3.099 1.715 4.615 4.099 1.907 5.009.874m11.946 3.051c.91-1.033.142-3.1-1.715-4.616s-4.099-1.907-5.009-.874-.143 3.1 1.714 4.615 4.1 1.908 5.01.875"/></g><path fill="#ed1c24" stroke="#000" stroke-miterlimit="10" stroke-width=".021" d="M162.345 38.111a4.53 4.53 0 0 0-2.126-1.968c.86.346 1.597.963 2.126 1.968Z"/></svg>