<svg xmlns="http://www.w3.org/2000/svg" width="127" height="98" fill="none" viewBox="0 0 127 98"><mask id="a" width="107.247" height="84.504" x="12.059" y="5.684" fill="#000" maskUnits="userSpaceOnUse"><path fill="#fff" d="M12.059 5.684h107.247v84.504H12.059z"/><path d="M38.632 39.597q-2.018.176-3.665-.584a6.76 6.76 0 0 1-2.662-2.274q-1.035-1.514-1.213-3.53-.184-2.108.333-3.938a9.6 9.6 0 0 1 1.655-3.284 8.6 8.6 0 0 1 2.713-2.293q1.617-.886 3.567-1.057 2.062-.18 3.688.581a6.2 6.2 0 0 1 2.618 2.302q1.016 1.537 1.206 3.712l-4.057.354q-.146-1.14-.617-1.889-.474-.771-1.205-1.114-.731-.364-1.718-.279a3.8 3.8 0 0 0-1.777.607 4.5 4.5 0 0 0-1.302 1.379 6.2 6.2 0 0 0-.775 1.987q-.24 1.128-.124 2.45.09 1.032.54 1.783.472.75 1.206 1.137.755.363 1.697.281a3.85 3.85 0 0 0 2.452-1.14q1.016-1.038 1.43-2.768l4.034-.353q-.366 2.268-1.457 3.99a8.5 8.5 0 0 1-2.764 2.749q-1.674 1.005-3.803 1.19m12.142-7.748 6.097-.532.778 3.207-9.012.788zm6.043 5.82-2.65-11.424-4.792 12.074-4.371.382 7.22-16.85 4.484-.391 4.256 15.846zm14.697-1.285-5.244-9.842-.898 10.379-3.833.335 1.437-16.344 4.394-.384 4.843 9.132.85-9.63 3.834-.335L75.46 36.04zm10.974-14.94q.11 1.276-.28 2.215a3.9 3.9 0 0 1-1.155 1.524 4.8 4.8 0 0 1-1.683.892 6.3 6.3 0 0 1-1.97.217l.21-1.735q1.29.024 1.98-.353.689-.376.664-1.188a6 6 0 0 1-.416.15 2 2 0 0 1-.422.082q-.718.062-1.248-.32a1.34 1.34 0 0 1-.586-1.011q-.097-1.121.585-1.836a2.7 2.7 0 0 1 1.736-.806q.92-.081 1.69.462.79.518.895 1.706M90.54 34.72l-4.102.359 1.09-12.564-4.774.417.324-3.778 13.63-1.19-.302 3.775-4.775.417zM35.742 59.587l-4.102.358 1.437-16.344 10.603-.926-.317 3.596-6.5.569-.305 3.234 5.447-.477-.295 3.595-5.47.478zm11.752-1.027-4.103.358 1.438-16.344 4.102-.358zm12.02-1.05-5.244-9.843-.898 10.379-3.834.335 1.438-16.344 4.393-.384 4.843 9.132.851-9.63 3.834-.334-1.438 16.343zm12.255-1.072-6.276.549 1.437-16.344 5.896-.515q2.04-.18 3.661.538a6.16 6.16 0 0 1 2.651 2.163q1.029 1.423 1.201 3.396.18 2.04-.365 3.826a8.9 8.9 0 0 1-1.689 3.152 8.9 8.9 0 0 1-2.81 2.211q-1.643.844-3.706 1.024m-1.05-12.512-.833 9.063 1.95-.17q1.077-.095 1.917-.552a4.3 4.3 0 0 0 1.424-1.277q.585-.796.832-1.857.246-1.06.134-2.338-.093-1.055-.56-1.758a2.65 2.65 0 0 0-1.265-1.02q-.774-.338-1.85-.244zm17.73 4.707 6.097-.533.778 3.207-9.012.788zm6.044 5.82-2.65-11.425-4.793 12.075-4.371.382 7.22-16.85 4.484-.392L98.64 54.09zm-63.61 25.635-2.49-9.338-.873 9.632-3.721.325 1.437-16.344 4.73-.413 2.942 10.9 4.904-11.586 4.954-.433-1.437 16.344-3.744.327.886-9.745-4.248 10.039zM47.7 72.27l6.098-.533.778 3.207-9.012.788zm6.044 5.819-2.65-11.424-4.792 12.074-4.371.382 7.22-16.85 4.484-.391 4.256 15.846zm10.768-.942-4.102.359 1.09-12.564-4.774.418.324-3.779 13.63-1.19-.303 3.775-4.774.418zm12.693-.77q-2.018.177-3.665-.583a6.76 6.76 0 0 1-2.662-2.275q-1.035-1.513-1.213-3.53-.184-2.108.333-3.937a9.6 9.6 0 0 1 1.655-3.285 8.6 8.6 0 0 1 2.713-2.292q1.617-.887 3.567-1.057 2.062-.18 3.688.58a6.2 6.2 0 0 1 2.618 2.302q1.016 1.537 1.206 3.712l-4.057.354q-.146-1.14-.617-1.888-.475-.772-1.205-1.115-.731-.364-1.718-.279-.987.087-1.777.607a4.5 4.5 0 0 0-1.302 1.38 6.2 6.2 0 0 0-.775 1.987q-.24 1.127-.124 2.45.09 1.032.54 1.782.472.75 1.207 1.137.754.364 1.696.281a3.85 3.85 0 0 0 2.452-1.14q1.016-1.038 1.43-2.768l4.034-.352q-.366 2.268-1.457 3.99a8.5 8.5 0 0 1-2.764 2.748q-1.674 1.005-3.803 1.191m12.61-1.44-4.103.358 1.437-16.344 4.102-.358-.547 6.124 5.76-.504.549-6.124 4.102-.359-1.437 16.344-4.103.359.576-6.578-5.761.503zm18.799-6.862-2.802.245.03-11.003 4.753-.415zm.784 2.507q.063.717-.285 1.38-.327.66-.943 1.099-.594.436-1.379.505-.919.08-1.547-.385-.608-.489-.68-1.318a2.5 2.5 0 0 1 .261-1.401q.348-.663.965-1.1a2.9 2.9 0 0 1 1.402-.507q.94-.082 1.526.408.608.49.68 1.319"/></mask><path fill="#ef0000" d="M38.632 39.597q-2.018.176-3.665-.584a6.76 6.76 0 0 1-2.662-2.274q-1.035-1.514-1.213-3.53-.184-2.108.333-3.938a9.6 9.6 0 0 1 1.655-3.284 8.6 8.6 0 0 1 2.713-2.293q1.617-.886 3.567-1.057 2.062-.18 3.688.581a6.2 6.2 0 0 1 2.618 2.302q1.016 1.537 1.206 3.712l-4.057.354q-.146-1.14-.617-1.889-.474-.771-1.205-1.114-.731-.364-1.718-.279a3.8 3.8 0 0 0-1.777.607 4.5 4.5 0 0 0-1.302 1.379 6.2 6.2 0 0 0-.775 1.987q-.24 1.128-.124 2.45.09 1.032.54 1.783.472.75 1.206 1.137.755.363 1.697.281a3.85 3.85 0 0 0 2.452-1.14q1.016-1.038 1.43-2.768l4.034-.353q-.366 2.268-1.457 3.99a8.5 8.5 0 0 1-2.764 2.749q-1.674 1.005-3.803 1.19m12.142-7.748 6.097-.532.778 3.207-9.012.788zm6.043 5.82-2.65-11.424-4.792 12.074-4.371.382 7.22-16.85 4.484-.391 4.256 15.846zm14.697-1.285-5.244-9.842-.898 10.379-3.833.335 1.437-16.344 4.394-.384 4.843 9.132.85-9.63 3.834-.335L75.46 36.04zm10.974-14.94q.11 1.276-.28 2.215a3.9 3.9 0 0 1-1.155 1.524 4.8 4.8 0 0 1-1.683.892 6.3 6.3 0 0 1-1.97.217l.21-1.735q1.29.024 1.98-.353.689-.376.664-1.188a6 6 0 0 1-.416.15 2 2 0 0 1-.422.082q-.718.062-1.248-.32a1.34 1.34 0 0 1-.586-1.011q-.097-1.121.585-1.836a2.7 2.7 0 0 1 1.736-.806q.92-.081 1.69.462.79.518.895 1.706M90.54 34.72l-4.102.359 1.09-12.564-4.774.417.324-3.778 13.63-1.19-.302 3.775-4.775.417zM35.742 59.587l-4.102.358 1.437-16.344 10.603-.926-.317 3.596-6.5.569-.305 3.234 5.447-.477-.295 3.595-5.47.478zm11.752-1.027-4.103.358 1.438-16.344 4.102-.358zm12.02-1.05-5.244-9.843-.898 10.379-3.834.335 1.438-16.344 4.393-.384 4.843 9.132.851-9.63 3.834-.334-1.438 16.343zm12.255-1.072-6.276.549 1.437-16.344 5.896-.515q2.04-.18 3.661.538a6.16 6.16 0 0 1 2.651 2.163q1.029 1.423 1.201 3.396.18 2.04-.365 3.826a8.9 8.9 0 0 1-1.689 3.152 8.9 8.9 0 0 1-2.81 2.211q-1.643.844-3.706 1.024m-1.05-12.512-.833 9.063 1.95-.17q1.077-.095 1.917-.552a4.3 4.3 0 0 0 1.424-1.277q.585-.796.832-1.857.246-1.06.134-2.338-.093-1.055-.56-1.758a2.65 2.65 0 0 0-1.265-1.02q-.774-.338-1.85-.244zm17.73 4.707 6.097-.533.778 3.207-9.012.788zm6.044 5.82-2.65-11.425-4.793 12.075-4.371.382 7.22-16.85 4.484-.392L98.64 54.09zm-63.61 25.635-2.49-9.338-.873 9.632-3.721.325 1.437-16.344 4.73-.413 2.942 10.9 4.904-11.586 4.954-.433-1.437 16.344-3.744.327.886-9.745-4.248 10.039zM47.7 72.27l6.098-.533.778 3.207-9.012.788zm6.044 5.819-2.65-11.424-4.792 12.074-4.371.382 7.22-16.85 4.484-.391 4.256 15.846zm10.768-.942-4.102.359 1.09-12.564-4.774.418.324-3.779 13.63-1.19-.303 3.775-4.774.418zm12.693-.77q-2.018.177-3.665-.583a6.76 6.76 0 0 1-2.662-2.275q-1.035-1.513-1.213-3.53-.184-2.108.333-3.937a9.6 9.6 0 0 1 1.655-3.285 8.6 8.6 0 0 1 2.713-2.292q1.617-.887 3.567-1.057 2.062-.18 3.688.58a6.2 6.2 0 0 1 2.618 2.302q1.016 1.537 1.206 3.712l-4.057.354q-.146-1.14-.617-1.888-.475-.772-1.205-1.115-.731-.364-1.718-.279-.987.087-1.777.607a4.5 4.5 0 0 0-1.302 1.38 6.2 6.2 0 0 0-.775 1.987q-.24 1.127-.124 2.45.09 1.032.54 1.782.472.75 1.207 1.137.754.364 1.696.281a3.85 3.85 0 0 0 2.452-1.14q1.016-1.038 1.43-2.768l4.034-.352q-.366 2.268-1.457 3.99a8.5 8.5 0 0 1-2.764 2.748q-1.674 1.005-3.803 1.191m12.61-1.44-4.103.358 1.437-16.344 4.102-.358-.547 6.124 5.76-.504.549-6.124 4.102-.359-1.437 16.344-4.103.359.576-6.578-5.761.503zm18.799-6.862-2.802.245.03-11.003 4.753-.415zm.784 2.507q.063.717-.285 1.38-.327.66-.943 1.099-.594.436-1.379.505-.919.08-1.547-.385-.608-.489-.68-1.318a2.5 2.5 0 0 1 .261-1.401q.348-.663.965-1.1a2.9 2.9 0 0 1 1.402-.507q.94-.082 1.526.408.608.49.68 1.319"/><path fill="#fefffa" d="m34.967 39.014-1.899 3.941.034.016.033.016zm-2.662-2.275-3.61 2.471.008.011.007.011zm-.88-7.468-4.202-1.22-.004.015-.004.014zm1.655-3.284-3.448-2.693zm2.713-2.293 2.08 3.85.013-.007.012-.006zm7.255-.476-1.856 3.962zm2.618 2.302-3.676 2.37.012.02.013.02zm1.206 3.712.382 4.358 4.359-.38-.382-4.36zm-4.057.354-4.34.552.53 4.173 4.191-.366zm-.617-1.889-3.728 2.29.013.022.013.02zm-1.205-1.114-1.952 3.915.047.023.047.023zm-3.495.328-2.408-3.653-.022.014-.02.014zm-1.302 1.379-3.716-2.31zm-.775 1.987 4.28.912zm.416 4.233-3.754 2.247.026.043.026.042zm1.206 1.137-2.042 3.87.072.037.073.035zm4.15-.86 3.09 3.099.017-.018.019-.019zm1.428-2.767-.381-4.359-3.142.275-.733 3.067zm4.035-.353 4.32.698.895-5.546-5.596.49zm-1.457 3.99L48.894 38zm-2.764 2.749 2.252 3.752.02-.012.019-.012zm-3.803 1.19-.382-4.358c-.677.06-1.123-.046-1.452-.198l-1.831 3.974-1.832 3.973c1.868.86 3.865 1.144 5.879.968zm-3.665-.582 1.898-3.942a2.4 2.4 0 0 1-.965-.827l-3.595 2.494-3.595 2.493a11.13 11.13 0 0 0 4.358 3.723zm-2.662-2.275 3.61-2.471c-.222-.325-.405-.765-.464-1.44l-4.359.38-4.358.381c.176 2.014.802 3.928 1.961 5.621zm-1.213-3.53 4.36-.382c-.083-.935-.002-1.71.184-2.364l-4.21-1.192-4.211-1.19c-.505 1.784-.645 3.634-.481 5.508zm.333-3.938 4.203 1.22a5.3 5.3 0 0 1 .9-1.81l-3.448-2.694-3.448-2.693a14 14 0 0 0-2.409 4.758zm1.655-3.284 3.449 2.694a4.2 4.2 0 0 1 1.345-1.137l-2.08-3.85-2.081-3.85a13 13 0 0 0-4.081 3.45zm2.713-2.293 2.105 3.837c.513-.282 1.11-.47 1.844-.535l-.382-4.359-.382-4.358c-1.866.163-3.648.678-5.29 1.58zm3.567-1.057.382 4.359c.726-.063 1.165.051 1.45.184l1.856-3.962 1.855-3.962c-1.882-.881-3.901-1.154-5.925-.977zm3.688.581-1.856 3.962c.323.152.571.36.797.71l3.677-2.37 3.677-2.372a10.57 10.57 0 0 0-4.44-3.892zm2.618 2.302-3.65 2.41c.207.315.422.824.497 1.682l4.36-.38 4.358-.381c-.179-2.041-.768-4.007-1.914-5.742zm1.206 3.712-.382-4.36-4.057.355.382 4.36.382 4.358 4.057-.355zm-4.057.354 4.34-.551c-.154-1.212-.515-2.495-1.256-3.67l-3.701 2.332-3.702 2.333c-.056-.09-.071-.14-.067-.127.005.015.027.087.045.235zm-.617-1.889 3.727-2.29c-.706-1.149-1.721-2.15-3.073-2.785l-1.859 3.96-1.858 3.962a1.8 1.8 0 0 1-.447-.3 1.3 1.3 0 0 1-.218-.257zm-1.205-1.114 1.952-3.915c-1.349-.673-2.76-.836-4.052-.723l.382 4.359.381 4.359c.023-.002-.242.021-.615-.165zm-1.718-.279-.382-4.359a8.15 8.15 0 0 0-3.803 1.313l2.408 3.653 2.409 3.653a.7.7 0 0 1-.25.099zm-1.777.607-2.45-3.625a8.9 8.9 0 0 0-2.568 2.693l3.716 2.31 3.716 2.311a.5.5 0 0 1 .058-.08c.002-.003-.006.006-.021.016zm-1.302 1.379-3.716-2.31a10.5 10.5 0 0 0-1.338 3.386l4.28.911 4.279.912c.069-.324.156-.5.21-.589zm-.775 1.987-4.28-.911a12.7 12.7 0 0 0-.203 3.743l4.359-.381 4.359-.381c-.045-.514-.012-.89.045-1.158zm-.124 2.45-4.359.382c.108 1.228.448 2.485 1.145 3.648l3.754-2.247 3.754-2.247a1 1 0 0 1 .074.158c.006.022-.003.002-.01-.074zm.54 1.783-3.702 2.332a7.53 7.53 0 0 0 2.866 2.674l2.043-3.869 2.042-3.87c.103.056.203.127.29.208.085.08.137.152.163.193zm1.206 1.137-1.897 3.942c1.3.626 2.667.812 3.975.698l-.381-4.359-.382-4.359a1 1 0 0 1 .201.013c.117.02.249.059.382.123zm1.697.281.381 4.359a8.22 8.22 0 0 0 5.161-2.401l-3.09-3.098-3.09-3.099c0 .001.04-.038.123-.076.081-.038.137-.044.133-.044zm2.452-1.14 3.127 3.061c1.344-1.373 2.14-3.06 2.558-4.812l-4.256-1.017-4.256-1.017c-.132.555-.29.713-.3.723zm1.43-2.768.381 4.359 4.035-.353-.382-4.359-.381-4.359-4.035.353zm4.034-.353-4.32-.698c-.16 1.002-.46 1.757-.833 2.345l3.696 2.343L48.894 38c1.083-1.708 1.756-3.612 2.082-5.635zm-1.457 3.99-3.696-2.343a4.2 4.2 0 0 1-1.358 1.364l2.29 3.728 2.291 3.728A12.9 12.9 0 0 0 48.894 38zm-2.764 2.749-2.252-3.752c-.494.297-1.111.512-1.933.584l.382 4.359.382 4.358c2.017-.176 3.936-.755 5.673-1.797zm8.338-6.556-.381-4.36-2.189.192-1.153 1.87zm6.098-.533 4.252-1.03-.886-3.657-3.748.328zm.778 3.207.382 4.359 5.07-.444-1.2-4.946zm-9.012.788-3.724-2.299-4.576 7.416 8.682-.759zm8.18 2.357-4.262.987.858 3.702 3.786-.33zm-2.65-11.424 4.263-.988-3.163-13.64L50.1 24.63zm-4.792 12.074.382 4.359 2.689-.235.996-2.51zm-4.371.382-4.022-1.724-2.88 6.72 7.283-.637zm7.22-16.85-.381-4.358-2.609.228-1.031 2.407zm4.484-.391 4.226-1.134-.952-3.544-3.656.32zm4.256 15.846.382 4.359 5.198-.454-1.354-5.04zm-10.19-5.456.381 4.358 6.098-.533-.382-4.358-.382-4.36-6.097.534zm6.097-.533-4.252 1.03.778 3.207 4.252-1.03 4.252-1.03-.778-3.208zm.778 3.207-.382-4.359-9.012.788.382 4.359.382 4.358 9.012-.787zm-9.012.788 3.724 2.298 2.136-3.462-3.724-2.299-3.723-2.298-2.137 3.462zm8.18 2.357 4.263-.988-2.65-11.424-4.262.988-4.262.987 2.649 11.424zm-2.65-11.424-4.066-1.615-4.793 12.074 4.067 1.615 4.067 1.615 4.793-12.074zm-4.792 12.074-.382-4.359-4.371.382.382 4.359.381 4.359 4.372-.382zm-4.371.382 4.022 1.724 7.22-16.85-4.022-1.723-4.021-1.724-7.221 16.849zm7.22-16.85.382 4.36 4.484-.392-.382-4.359-.382-4.359-4.483.392zm4.484-.391-4.226 1.134L56.74 38.44l4.225-1.134 4.226-1.134-4.256-15.846zm4.256 15.846-.381-4.359-4.148.363.382 4.358.382 4.36 4.147-.363zm10.55-.922-3.861 2.057 1.36 2.554 2.883-.252zm-5.244-9.842 3.862-2.057-6.947-13.038-1.274 14.717zm-.898 10.379.382 4.359 3.66-.32.317-3.661zm-3.833.335-4.359-.384-.457 5.197 5.198-.454zm1.437-16.344-.382-4.359-3.655.32-.321 3.655zm4.394-.384 3.865-2.05-1.358-2.561-2.889.252zm4.843 9.132-3.865 2.049 6.923 13.054 1.3-14.718zm.85-9.63-.38-4.358-3.655.32-.323 3.653zm3.834-.335 4.359.385.457-5.197-5.198.454zM75.46 36.04l.382 4.359 3.655-.32.322-3.655zm-3.946.345 3.862-2.057-5.244-9.842-3.862 2.057-3.86 2.057 5.244 9.842zm-5.244-9.842-4.359-.378-.898 10.379 4.36.378 4.358.378.898-10.379zm-.898 10.379-.382-4.359-3.833.335.382 4.359.382 4.359 3.833-.335zm-3.833.335 4.359.384 1.437-16.344-4.359-.384-4.358-.384-1.438 16.344zm1.437-16.344.382 4.359 4.394-.384-.382-4.359-.382-4.359-4.394.384zm4.394-.384-3.865 2.05 4.843 9.131 3.865-2.05 3.865-2.049-4.843-9.131zm4.843 9.132 4.359.385.85-9.629-4.358-.386-4.359-.385-.85 9.629zm.85-9.63.383 4.36 3.833-.336-.382-4.358-.382-4.36-3.833.336zm3.834-.335-4.359-.384-1.437 16.344 4.359.384 4.359.384 1.437-16.343zM75.46 36.04l-.382-4.359-3.945.345.381 4.36.382 4.358 3.945-.345zm6.747-12.38 4.019 1.73.01-.02.008-.021zm-1.154 1.524-2.735-3.416-.023.018-.022.018zm-1.683.892 1.172 4.216.047-.014.047-.014zm-1.97.217-4.343-.525-.566 4.682 4.712.214zm.21-1.735.077-4.374-3.948-.07-.473 3.92zm1.98-.353 2.096 3.84zm.664-1.188 4.373-.138-.199-6.232-5.793 2.305zm-.416.15-1.319-4.173zm-1.67-.239 2.56-3.547zm-.001-2.846-3.12-3.069-.022.023-.022.024zm3.426-.344-2.52 3.577.06.042.062.04zm.895 1.706-4.36.381c.015.16.007.243.005.262-.002.016.002-.03.038-.116l4.036 1.689 4.037 1.689c.597-1.428.723-2.909.602-4.286zm-.28 2.216-4.02-1.731a.5.5 0 0 1 .13-.16l2.735 3.415 2.736 3.415a8.26 8.26 0 0 0 2.437-3.208zm-1.155 1.524-2.78-3.38a.45.45 0 0 1-.17.084l1.267 4.188 1.266 4.188a9.2 9.2 0 0 0 3.197-1.701zm-1.683.892-1.173-4.215c-.17.047-.363.072-.599.062l-.197 4.37-.198 4.371a10.6 10.6 0 0 0 3.339-.372zm-1.97.217 4.345.525.21-1.735-4.345-.525-4.344-.525-.21 1.735zm.21-1.735-.076 4.375c1.184.021 2.728-.11 4.152-.888l-2.096-3.84-2.097-3.84c.144-.08.264-.126.344-.153s.131-.036.142-.038l-.057.005a3 3 0 0 1-.235.005zm1.98-.353 2.096 3.84a5.6 5.6 0 0 0 2.234-2.19 5.7 5.7 0 0 0 .707-2.976l-4.373.138-4.374.139a3.06 3.06 0 0 1 .401-1.572 3.13 3.13 0 0 1 1.212-1.22zm.664-1.188-1.619-4.065q-.089.034-.116.042l1.319 4.173 1.318 4.172q.368-.117.716-.256zm-.416.15-1.319-4.173a2.4 2.4 0 0 1 .515-.104l.381 4.359.382 4.358a6.3 6.3 0 0 0 1.359-.268zm-.422.082-.382-4.36c.196-.016.473-.01.797.073.33.085.637.231.897.419l-2.56 3.547-2.56 3.548c1.293.933 2.778 1.255 4.19 1.131zm-1.248-.32 2.56-3.548c.262.189.568.485.814.91.249.43.366.868.399 1.246l-4.359.381-4.359.38a5.72 5.72 0 0 0 2.385 4.178zm-.586-1.011 4.359-.38c.01.107.013.359-.093.69a2.3 2.3 0 0 1-.517.877l-3.164-3.023-3.164-3.022c-1.45 1.517-1.938 3.43-1.78 5.239zm.585-1.836 3.119 3.07a1.7 1.7 0 0 1-1.001.482l-.382-4.358-.382-4.36a7.06 7.06 0 0 0-4.473 2.097zm1.736-.806.382 4.358a1.9 1.9 0 0 1-.654-.063 1.8 1.8 0 0 1-.557-.256l2.519-3.577 2.519-3.577a6.85 6.85 0 0 0-4.59-1.244zm1.69.462-2.398 3.66a2.6 2.6 0 0 1-.858-.943 1.8 1.8 0 0 1-.208-.63l4.359-.38 4.358-.382c-.152-1.745-.92-3.717-2.856-4.985zM90.54 34.72l.382 4.359 3.66-.32.317-3.66zm-4.102.359-4.36-.38-.45 5.192 5.192-.454zm1.09-12.564 4.36.38.45-5.193-5.191.454zm-4.774.417-4.36-.375-.445 5.187 5.187-.453zm.324-3.778-.382-4.358-3.663.32-.314 3.663zm13.63-1.19 4.361.349.412-5.16-5.155.451zm-.302 3.775.381 4.359 3.686-.322.294-3.687zm-4.775.417-.382-4.358-3.66.32-.317 3.66zm-1.09 12.564-.382-4.358-4.103.358.382 4.359.382 4.358 4.102-.358zm-4.103.359 4.36.379 1.09-12.564-4.36-.38-4.358-.378L82.079 34.7zm1.09-12.564-.381-4.359-4.775.418.382 4.358.382 4.359 4.775-.417zm-4.774.417 4.36.375.324-3.778-4.36-.375-4.36-.375-.324 3.778zm.324-3.778.382 4.359 13.63-1.191-.383-4.359-.381-4.359-13.63 1.192zm13.63-1.19-4.362-.35-.302 3.776 4.362.35 4.361.349.302-3.776zm-.302 3.775-.382-4.359-4.775.418.382 4.358.382 4.36 4.774-.418zm-4.775.417-4.36-.379-1.09 12.564 4.36.38 4.358.378 1.091-12.563zm-55.889 37.43.382 4.358 3.67-.32.308-3.67zm-4.102.358-4.359-.384-.457 5.197 5.198-.454zM33.077 43.6l-.381-4.358-3.656.32-.321 3.654zm10.603-.926 4.359.385.459-5.198-5.2.454zm-.317 3.596.382 4.36 3.654-.32.322-3.654zm-6.5.569-.383-4.36-3.633.318-.341 3.631zm-.305 3.234-4.356-.41-.492 5.225 5.23-.457zm5.447-.477 4.361.36.424-5.17-5.166.452zm-.295 3.595.382 4.359 3.677-.321.302-3.68zm-5.47.478-.381-4.358-3.67.32-.308 3.67zm-.498 5.917-.381-4.36-4.103.36.382 4.358.382 4.359 4.102-.359zm-4.102.358 4.359.384 1.437-16.343-4.359-.385-4.358-.384-1.438 16.344zM33.077 43.6l.382 4.36 10.603-.928-.382-4.358-.381-4.359-10.603.927zm10.603-.926-4.358-.386-.318 3.597 4.359.385 4.358.386.318-3.597zm-.317 3.596-.382-4.358-6.5.568.381 4.358.382 4.36 6.5-.569zm-6.5.569-4.357-.41-.304 3.233 4.356.41 4.356.41.304-3.233zm-.305 3.234.382 4.358 5.447-.476-.382-4.359-.381-4.358-5.448.476zm5.447-.477-4.36-.358-.296 3.595 4.361.358 4.361.359.295-3.595zm-.295 3.595-.382-4.359-5.47.479.383 4.358.381 4.359 5.47-.478zm-5.47.478-4.36-.368-.498 5.917 4.36.368 4.36.368.499-5.917zm11.254 4.89.381 4.358 3.656-.32.321-3.654zm-4.103.358-4.358-.384-.457 5.197 5.197-.454zm1.438-16.344-.382-4.358-3.656.32-.321 3.654zm4.102-.358 4.358.384.458-5.197-5.198.454zM47.494 58.56l-.382-4.36-4.102.36.381 4.358.382 4.359 4.102-.359zm-4.103.358 4.359.384 1.437-16.343-4.358-.385-4.36-.384-1.436 16.344zm1.438-16.344.381 4.36 4.103-.36-.382-4.358-.382-4.359-4.102.359zm4.102-.358-4.359-.384-1.437 16.343 4.359.385 4.358.384L53.29 42.6zm10.583 15.293-3.862 2.057 1.361 2.554 2.883-.252zm-5.244-9.842 3.861-2.057-6.947-13.038-1.273 14.717zm-.898 10.379.381 4.359 3.661-.32.317-3.661zm-3.834.335-4.358-.384-.457 5.197 5.197-.454zm1.438-16.344-.382-4.359-3.656.32-.321 3.655zm4.393-.384 3.866-2.05-1.359-2.561-2.888.252zm4.843 9.132-3.865 2.05 6.923 13.053 1.3-14.718zm.851-9.63-.382-4.358-3.653.32-.323 3.653zm3.834-.334 4.358.384.457-5.197-5.197.454zm-1.438 16.343.382 4.359 3.655-.32.322-3.655zm-3.945.345 3.861-2.057-5.244-9.842-3.861 2.057-3.862 2.057 5.244 9.842zm-5.244-9.842-4.36-.378-.898 10.379 4.36.378 4.359.378.898-10.379zm-.898 10.379-.382-4.359-3.833.335.381 4.359.382 4.359 3.833-.335zm-3.834.335 4.36.384 1.436-16.344-4.358-.384-4.359-.384-1.437 16.344zm1.438-16.344.381 4.359 4.394-.384-.382-4.359-.381-4.359-4.394.384zm4.393-.384-3.865 2.05 4.843 9.131 3.865-2.05 3.866-2.049-4.843-9.131zm4.843 9.132 4.359.386.85-9.63-4.358-.385-4.358-.386-.851 9.629zm.851-9.63.382 4.36 3.833-.336-.382-4.358-.381-4.36-3.834.336zm3.834-.334-4.36-.384L59.1 56.78l4.36.384 4.358.384 1.437-16.343zm-1.438 16.343-.382-4.358-3.945.344.382 4.36.382 4.358 3.945-.345zm2.034-.177-4.359-.385-.457 5.198 5.197-.455zm1.437-16.344-.382-4.359-3.655.32-.322 3.655zm9.557.023-1.768 4.002.012.005.012.005zm2.651 2.163-3.59 2.499.021.03.023.032zm.836 7.222-4.186-1.274zm-1.689 3.152-3.352-2.812zm-2.81 2.211-1.982-3.901-.01.004-.008.005zm-4.756-11.488-.382-4.359-3.641.318-.334 3.64zm-.833 9.063-4.357-.401-.48 5.215 5.219-.456zm3.867-.722 2.092 3.843.023-.012.022-.013zm1.424-1.277-3.525-2.59-.022.03-.022.032zm.832-1.857 4.262.99zm-.427-4.096 3.644-2.422zm-1.264-1.02-1.752 4.01.072.031.072.029zM71.77 56.439l-.381-4.359-6.277.549.382 4.359.382 4.358 6.276-.548zm-6.276.549 4.359.384 1.437-16.344-4.359-.384-4.359-.384-1.437 16.343zm1.437-16.344L67.312 45l5.895-.515-.381-4.358-.382-4.36-5.896.516zm5.896-.515.381 4.358c.74-.064 1.204.046 1.512.182l1.768-4.002 1.768-4.002c-1.854-.82-3.831-1.068-5.811-.895zm3.661.538-1.744 4.012c.364.159.604.361.804.65l3.591-2.5 3.592-2.498a10.53 10.53 0 0 0-4.499-3.676zm2.651 2.163-3.546 2.56c.166.23.333.585.389 1.217l4.359-.381 4.358-.381c-.175-2-.808-3.909-2.013-5.577zm1.201 3.396-4.358.38c.075.857-.008 1.566-.193 2.172l4.186 1.274 4.186 1.275c.54-1.776.702-3.618.538-5.482zm-.365 3.826-4.186-1.274a4.5 4.5 0 0 1-.855 1.614l3.352 2.812 3.352 2.813a13.2 13.2 0 0 0 2.523-4.69zm-1.689 3.152-3.352-2.812c-.367.437-.83.812-1.44 1.122l1.982 3.901 1.982 3.901a13.2 13.2 0 0 0 4.18-3.3zm-2.81 2.211-2-3.892c-.534.274-1.209.48-2.087.557l.381 4.359.382 4.359c1.871-.164 3.667-.64 5.323-1.491zM70.72 43.927l-4.357-.401-.833 9.063 4.357.4 4.357.402.833-9.063zm-.833 9.063.382 4.358 1.95-.17-.382-4.359-.381-4.359-1.95.17zm1.95-.17.382 4.358a9.2 9.2 0 0 0 3.627-1.067l-2.092-3.843-2.091-3.844c.01-.006.007-.002-.019.005a1 1 0 0 1-.188.031zm1.917-.552 2.137 3.818a8.66 8.66 0 0 0 2.858-2.565l-3.57-2.53-3.571-2.53.001-.001.011-.01.008-.008-.01.007zm1.424-1.277 3.527 2.591a9.4 9.4 0 0 0 1.567-3.459l-4.262-.989-4.263-.99c-.043.188-.09.25-.095.256zm.832-1.857 4.262.99c.285-1.228.338-2.478.23-3.71l-4.358.382-4.359.38c.041.473.006.782-.038.969zm.134-2.338 4.359-.381c-.11-1.252-.47-2.585-1.276-3.799l-3.644 2.422-3.643 2.421c-.183-.274-.168-.435-.155-.282zm-.56-1.758 3.643-2.422a7.03 7.03 0 0 0-3.3-2.666l-1.608 4.069-1.608 4.069a1.7 1.7 0 0 1-.424-.251 1.7 1.7 0 0 1-.347-.378zm-1.265-1.02 1.752-4.008c-1.348-.59-2.735-.704-3.984-.595l.381 4.359.382 4.359c.185-.017.032.032-.283-.105zm-1.85-.244-.382-4.359-1.749.153.382 4.359.382 4.358 1.748-.152zm15.98 4.86-.381-4.359-2.188.192-1.154 1.869zm6.098-.533 4.252-1.03-.886-3.656-3.748.328zm.778 3.207.382 4.36 5.07-.444-1.2-4.946zm-9.012.788-3.723-2.298-4.576 7.416 8.681-.76zm8.18 2.357-4.262.988.859 3.702 3.785-.331zm-2.649-11.424 4.262-.987-3.163-13.64-5.166 13.012zM87.05 55.103l.382 4.358 2.69-.235.995-2.509zm-4.371.382-4.022-1.724-2.88 6.719 7.284-.637zm7.22-16.85-.381-4.358-2.609.228-1.031 2.406zm4.484-.392 4.226-1.134-.952-3.544-3.656.32zM98.64 54.09l.381 4.358 5.198-.454-1.354-5.039zm-10.191-5.457.382 4.359 6.097-.533-.382-4.359-.382-4.358-6.097.532zm6.097-.533-4.252 1.03.778 3.208 4.252-1.03 4.252-1.031-.778-3.207zm.778 3.207-.382-4.358-9.011.787.381 4.36.382 4.358 9.012-.788zm-9.012.788 3.724 2.298 2.136-3.462-3.723-2.298-3.724-2.298-2.136 3.462zm8.18 2.357 4.263-.988-2.65-11.423-4.262.987-4.262.988 2.65 11.424zm-2.649-11.424-4.067-1.615-4.793 12.075 4.067 1.614 4.067 1.615 4.793-12.074zM87.05 55.103l-.382-4.36-4.37.383.38 4.359.383 4.358 4.37-.382zm-4.371.382 4.022 1.724 7.22-16.85-4.021-1.724-4.022-1.724-7.22 16.85zm7.22-16.85.382 4.36 4.484-.393-.382-4.358-.382-4.36-4.483.393zm4.484-.392-4.226 1.135 4.257 15.846 4.226-1.134 4.225-1.135-4.256-15.846zM98.64 54.09l-.382-4.36-4.147.363.382 4.36.381 4.358 4.147-.363zM30.882 80.088l-4.227 1.126.947 3.552 3.662-.32zm-2.489-9.338 4.228-1.126-8.586.73zm-.873 9.632.382 4.358 3.645-.318.33-3.645zm-3.721.325-4.359-.384-.457 5.197 5.197-.455zm1.437-16.344-.382-4.359-3.655.32-.322 3.655zm4.73-.413 4.224-1.14-.955-3.538-3.65.319zm2.942 10.9-4.224 1.14 3.308 12.255 4.946-11.689zm4.904-11.586-.382-4.359-2.622.23-1.026 2.423zm4.954-.433 4.359.384.457-5.197-5.198.454zm-1.437 16.344.381 4.358 3.656-.32.321-3.654zm-3.744.327-4.358-.397-.473 5.211 5.213-.456zm.886-9.745 4.357.397-8.387-2.103zm-4.248 10.039.381 4.358 2.622-.229 1.026-2.424zm-3.34.292 4.227-1.127-2.489-9.337-4.228 1.126-4.228 1.127 2.49 9.337zm-2.49-9.338-4.358-.395-.873 9.63 4.358.397 4.358.395.873-9.63zm-.873 9.632-.382-4.36-3.721.326.382 4.359.381 4.358 3.722-.325zm-3.721.325 4.358.384 1.438-16.344-4.359-.384-4.359-.384-1.437 16.344zm1.437-16.344.382 4.359 4.73-.414-.382-4.359-.382-4.358-4.73.413zm4.73-.413-4.224 1.139 2.942 10.901 4.224-1.14 4.225-1.139-2.943-10.9zm2.942 10.9 4.03 1.707 4.904-11.587-4.03-1.706-4.03-1.706-4.903 11.587zm4.904-11.586.382 4.359 4.954-.433-.382-4.36-.382-4.358-4.954.433zm4.954-.433-4.359-.384L36.97 78.79l4.359.384 4.358.384 1.438-16.344zm-1.437 16.344-.382-4.36-3.744.328.382 4.359.382 4.359 3.743-.328zm-3.744.327 4.358.397.885-9.745-4.357-.397-4.358-.397-.886 9.745zm.886-9.745-4.03-1.706-4.248 10.039 4.03 1.706 4.03 1.705L42.5 71.463zm-4.248 10.039-.382-4.36-3.34.293.381 4.359.382 4.358 3.34-.292zM47.7 72.27l-.381-4.36-2.189.192-1.153 1.87zm6.098-.533 4.252-1.03-.887-3.657-3.747.328zm.778 3.207.381 4.359 5.07-.443-1.2-4.946zm-9.012.788-3.724-2.299-4.576 7.416 8.682-.759zm8.18 2.357-4.262.987.858 3.702 3.786-.33zm-2.65-11.424 4.263-.988-3.163-13.64-5.166 13.013zM46.303 78.74l.382 4.359 2.689-.235.996-2.51zm-4.371.382-4.022-1.724-2.88 6.72 7.283-.637zm7.22-16.85-.381-4.358-2.609.228-1.031 2.407zm4.484-.391 4.225-1.134-.952-3.544-3.655.32zm4.256 15.846.382 4.359 5.197-.454-1.353-5.04zm-10.19-5.456.381 4.358 6.097-.533-.381-4.358-.382-4.36-6.097.534zm6.097-.533-4.253 1.03.778 3.207 4.253-1.03 4.252-1.03-.778-3.208zm.778 3.207-.382-4.359-9.012.788.382 4.359.382 4.358 9.011-.787zm-9.012.788 3.724 2.298 2.136-3.462L47.7 72.27l-3.723-2.299-2.137 3.462zm8.18 2.357 4.263-.988-2.65-11.424-4.262.988-4.263.987 2.65 11.424zm-2.65-11.424-4.066-1.615-4.793 12.074 4.067 1.615 4.067 1.615 4.793-12.074zM46.303 78.74l-.382-4.359-4.371.382.382 4.359.381 4.359 4.372-.382zm-4.371.382 4.021 1.724 7.221-16.85-4.022-1.723-4.021-1.724-7.221 16.849zm7.22-16.85.382 4.36 4.483-.392-.381-4.359-.382-4.359-4.483.392zm4.484-.391-4.226 1.134 4.257 15.846 4.225-1.134 4.226-1.134-4.257-15.846zm4.256 15.846-.381-4.359-4.148.363.382 4.359.382 4.358 4.147-.362zm6.62-.579.383 4.36 3.66-.32.317-3.66zm-4.101.359-4.36-.38-.45 5.193 5.191-.454zm1.09-12.564 4.36.38.45-5.192-5.191.453zm-4.774.418-4.36-.375-.445 5.186 5.186-.453zm.324-3.779-.382-4.358-3.663.32-.315 3.664zm13.63-1.19 4.36.349.413-5.159-5.156.45zm-.303 3.775.382 4.36 3.685-.323.295-3.687zm-4.774.418-.382-4.36-3.66.32-.318 3.66zm-1.091 12.564-.382-4.36-4.102.36.382 4.358.381 4.359 4.103-.359zm-4.102.358 4.359.38 1.09-12.565-4.359-.379-4.359-.379-1.09 12.564zm1.09-12.564-.381-4.359-4.775.418.382 4.358.381 4.36 4.775-.418zm-4.774.418 4.36.374.323-3.778-4.36-.374-4.359-.375-.324 3.778zm.324-3.779.382 4.36L71.06 64.75l-.382-4.359-.382-4.358-13.629 1.19zm13.63-1.19-4.362-.35-.302 3.776 4.361.35 4.362.349.302-3.776zm-.303 3.775-.381-4.358-4.775.417.382 4.359.381 4.358 4.775-.417zm-4.774.418-4.36-.38-1.09 12.564 4.359.38 4.359.379 1.09-12.564zm7.937 11.21-1.899 3.942.034.016.033.015zm-2.662-2.275-3.61 2.472.007.01.008.011zm-.88-7.467-4.202-1.22-.004.014-.004.014zm1.655-3.285-3.448-2.693zm2.713-2.292 2.08 3.85.013-.007.012-.007zM81.621 60l-1.856 3.962zm2.618 2.3-3.677 2.372.013.02.013.02zm1.206 3.713.382 4.359 4.359-.381-.382-4.36zm-4.057.354-4.34.552.53 4.173 4.191-.366zm-.617-1.888-3.728 2.29.013.021.013.021zm-1.205-1.115-1.952 3.916.046.023.048.022zm-3.495.328-2.408-3.653-.022.014-.02.014zm-1.302 1.38-3.716-2.311zm-.775 1.987 4.28.911zm.416 4.233-3.754 2.246.026.043.026.043zm1.207 1.136-2.043 3.87.072.037.073.036zm4.148-.86 3.09 3.1.019-.019.018-.019zm1.43-2.767-.382-4.359-3.142.275-.733 3.067zm4.034-.352 4.32.697.895-5.545-5.596.489zm-1.457 3.99 3.695 2.343zm-2.764 2.748 2.252 3.752.02-.012.019-.012zm-3.803 1.191-.382-4.359c-.677.06-1.123-.046-1.452-.198l-1.831 3.974-1.832 3.973c1.868.861 3.865 1.145 5.879.969zm-3.665-.583 1.898-3.942c-.4-.193-.704-.45-.965-.826l-3.595 2.493-3.595 2.493a11.13 11.13 0 0 0 4.358 3.724zm-2.662-2.275 3.61-2.471c-.222-.325-.405-.765-.464-1.44l-4.359.38-4.358.381c.176 2.015.802 3.929 1.96 5.621zm-1.213-3.53 4.36-.381c-.083-.936-.002-1.71.184-2.365l-4.21-1.191-4.211-1.192c-.505 1.785-.645 3.635-.481 5.51zm.333-3.937 4.203 1.22c.213-.736.52-1.324.9-1.811l-3.448-2.694-3.448-2.693a14 14 0 0 0-2.409 4.758zm1.655-3.285 3.449 2.694a4.2 4.2 0 0 1 1.345-1.137l-2.08-3.85-2.081-3.849a13 13 0 0 0-4.081 3.449zm2.713-2.292 2.105 3.836c.513-.282 1.11-.47 1.844-.535l-.382-4.358-.382-4.36c-1.866.164-3.648.68-5.29 1.58zm3.567-1.057.382 4.358c.726-.063 1.165.051 1.45.185L81.62 60l1.856-3.962c-1.883-.882-3.903-1.155-5.926-.978zm3.688.58-1.856 3.963c.323.151.571.36.797.71l3.677-2.371 3.677-2.372a10.57 10.57 0 0 0-4.44-3.891zm2.618 2.302-3.65 2.41c.207.316.422.824.497 1.683l4.36-.381 4.358-.381c-.179-2.04-.768-4.007-1.914-5.742zm1.206 3.712-.382-4.359-4.057.355.382 4.358.381 4.36 4.058-.355zm-4.057.354 4.34-.551c-.154-1.212-.515-2.495-1.256-3.67l-3.701 2.333-3.702 2.332c-.056-.09-.072-.14-.067-.127.005.015.026.088.045.235zm-.617-1.888 3.728-2.29c-.707-1.15-1.722-2.15-3.074-2.785l-1.859 3.96-1.858 3.961a1.8 1.8 0 0 1-.447-.3 1.3 1.3 0 0 1-.218-.256zm-1.205-1.115 1.952-3.915c-1.349-.673-2.76-.835-4.052-.722l.382 4.358.381 4.36c.023-.003-.242.02-.615-.165zm-1.718-.279-.382-4.358a8.14 8.14 0 0 0-3.803 1.312l2.408 3.653 2.409 3.654a.7.7 0 0 1-.25.098zm-1.777.607-2.45-3.625a8.9 8.9 0 0 0-2.568 2.694l3.716 2.31 3.716 2.31a.5.5 0 0 1 .058-.08l-.021.017zm-1.302 1.38-3.716-2.311a10.5 10.5 0 0 0-1.338 3.386l4.28.912 4.279.911c.069-.324.156-.5.21-.588zm-.775 1.987-4.28-.912a12.7 12.7 0 0 0-.203 3.743l4.359-.38 4.359-.382c-.045-.513-.012-.889.045-1.158zm-.124 2.45-4.359.381c.108 1.228.448 2.485 1.145 3.648l3.754-2.246 3.754-2.248a.7.7 0 0 1 .074.158c.006.022-.003.002-.01-.074zm.54 1.782-3.702 2.333a7.53 7.53 0 0 0 2.866 2.674l2.043-3.87 2.042-3.869c.103.055.203.126.29.207.085.08.137.152.163.193zm1.207 1.137-1.898 3.943c1.3.625 2.667.811 3.975.697l-.381-4.359-.382-4.358a1 1 0 0 1 .201.013c.117.019.249.058.381.122zm1.696.281.381 4.36a8.22 8.22 0 0 0 5.161-2.402l-3.09-3.098-3.09-3.099c-.001.002.04-.038.123-.076.081-.038.137-.044.133-.043zm2.452-1.14 3.127 3.061c1.344-1.373 2.14-3.06 2.558-4.812l-4.256-1.017-4.255-1.017c-.133.556-.29.713-.3.723zm1.43-2.768.381 4.359 4.035-.353-.382-4.358-.381-4.36-4.035.353zm4.034-.352-4.32-.698c-.16 1.001-.46 1.757-.833 2.344l3.696 2.344 3.695 2.343c1.083-1.708 1.755-3.613 2.082-5.636zm-1.457 3.99-3.696-2.344a4.2 4.2 0 0 1-1.358 1.364l2.29 3.728 2.291 3.728a12.9 12.9 0 0 0 4.168-4.133zm-2.764 2.748-2.252-3.751c-.494.296-1.111.511-1.933.583l.382 4.359.382 4.359c2.017-.176 3.936-.755 5.673-1.798zm8.806-.25.382 4.359 3.657-.32.32-3.656zm-4.102.359-4.359-.384-.457 5.197 5.198-.454zm1.437-16.344-.382-4.359-3.655.32-.322 3.655zm4.102-.358 4.358.39.466-5.204-5.205.455zm-.547 6.124-4.359-.391-.465 5.204 5.205-.455zm5.76-.504.382 4.359 3.65-.32.327-3.648zm.549-6.124-.382-4.359-3.65.32-.327 3.648zm4.102-.359 4.358.384.457-5.196-5.197.454zm-1.437 16.344.381 4.359 3.656-.32.321-3.655zm-4.103.359-4.359-.383-.454 5.195 5.195-.453zm.576-6.578 4.359.382.455-5.195-5.196.454zm-5.761.503L90.008 64l-3.657.32-.32 3.657zm-.576 6.578-.382-4.358-4.102.358.382 4.359.382 4.358 4.102-.358zm-4.102.359 4.358.384 1.438-16.344-4.359-.384-4.359-.384-1.437 16.344zm1.437-16.344.382 4.359 4.102-.359-.382-4.358-.381-4.36-4.103.36zm4.102-.358-4.358-.391-.548 6.124 4.359.39 4.358.391.547-6.124zm-.547 6.124.381 4.358 5.761-.503-.381-4.359-.382-4.359-5.761.504zm5.76-.504 4.359.39.548-6.123-4.358-.391-4.359-.39-.547 6.123zm.549-6.124.381 4.359 4.103-.359-.382-4.359-.382-4.358-4.102.358zm4.102-.359-4.359-.384-1.437 16.344 4.358.384 4.359.384 1.437-16.344zm-1.437 16.344-.382-4.359-4.103.359.382 4.359.382 4.359 4.102-.36zm-4.103.359 4.359.382.576-6.578-4.359-.382-4.359-.383-.576 6.578zm.576-6.578-.382-4.36-5.76.504.381 4.359.382 4.359 5.76-.504zm-5.761.503-4.359-.382-.576 6.578 4.36.382 4.358.383.576-6.579zm18.224-.283.382 4.36 3.341-.293.585-3.302zm-2.802.245-4.375-.013-.014 4.789 4.771-.417zm.03-11.003-.382-4.358-3.982.348-.011 3.998zm4.753-.415 4.308.764.996-5.62-5.686.497zm-1.482 15.06-3.873-2.036-.026.05-.025.05zm-.943 1.099-2.534-3.568-.027.02-.028.02zm-2.926.12-2.743 3.408.069.056.072.053zm-.419-2.719-3.873-2.037-.01.019-.009.018zm.965-1.1-2.481-3.605-.026.018-.026.019zm2.928-.099-2.812 3.352.034.029.035.028zm-.104-1.188-.382-4.358-2.802.244.382 4.36.382 4.358 2.802-.245zm-2.802.245 4.375.013.031-11.003-4.376-.013-4.375-.012-.03 11.002zm.03-11.003.382 4.359 4.752-.415-.381-4.359-.382-4.359-4.753.416zm4.753-.415-4.309-.764-1.98 11.173 4.308.764 4.308.765 1.981-11.174zm-1.197 13.68-4.358.38a1.93 1.93 0 0 1 .2-1.036l3.873 2.036L112.986 74a6.83 6.83 0 0 0 .771-3.798zm-.285 1.38-3.924-1.936a1.46 1.46 0 0 1 .447-.533l2.534 3.568 2.533 3.568a7.3 7.3 0 0 0 2.334-2.73zm-.943 1.099-2.589-3.528c.133-.098.284-.179.443-.237.157-.057.291-.081.385-.09l.382 4.36.382 4.358a7.05 7.05 0 0 0 3.585-1.335zm-1.379.505-.382-4.36c.101-.008.311-.012.59.057.289.072.584.206.847.401l-2.602 3.517-2.602 3.517c1.428 1.057 3.058 1.355 4.531 1.226zm-1.547-.385 2.743-3.408a2.6 2.6 0 0 1 .935 1.709l-4.358.38-4.359.382c.144 1.65.895 3.218 2.296 4.345zm-.68-1.318 4.358-.381a1.7 1.7 0 0 1-.025.453 2 2 0 0 1-.18.527l-3.892-2-3.892-2a6.9 6.9 0 0 0-.728 3.782zm.261-1.401 3.873 2.037a1.26 1.26 0 0 1-.374.43l-2.534-3.568-2.533-3.567a7.5 7.5 0 0 0-2.305 2.631zm.965-1.1 2.481 3.604a1.5 1.5 0 0 1-.698.248l-.381-4.36-.382-4.358a7.25 7.25 0 0 0-3.501 1.26zm1.402-.507.381 4.359a2 2 0 0 1-.66-.072 2.65 2.65 0 0 1-1.007-.527l2.812-3.352 2.812-3.351c-1.48-1.242-3.227-1.546-4.72-1.416zm1.526.408-2.743 3.409a2.6 2.6 0 0 1-.671-.829 2.4 2.4 0 0 1-.264-.88l4.358-.381 4.359-.381c-.144-1.65-.895-3.218-2.296-4.346z" mask="url(#a)"/></svg>