<svg width="127" height="98" viewBox="0 0 127 98" fill="none" xmlns="http://www.w3.org/2000/svg">
<mask id="path-1-outside-1_337_12894" maskUnits="userSpaceOnUse" x="12.0593" y="5.68384" width="107.247" height="84.5036" fill="black">
<rect fill="white" x="12.0593" y="5.68384" width="107.247" height="84.5036"/>
<path d="M38.6318 39.5967C37.2867 39.7142 36.065 39.5198 34.9665 39.0135C33.8817 38.4909 32.9946 37.7327 32.3052 36.7388C31.6145 35.73 31.2102 34.5531 31.0924 33.2081C30.9694 31.8034 31.0804 30.4911 31.4253 29.2713C31.7839 28.0353 32.3355 26.9405 33.0802 25.987C33.825 25.0334 34.7293 24.2692 35.7933 23.6944C36.871 23.1033 38.0599 22.7509 39.3601 22.6372C40.735 22.5171 41.9642 22.7108 43.0477 23.2185C44.1312 23.7261 45.004 24.4931 45.6662 25.5195C46.3432 26.5445 46.7453 27.7819 46.8722 29.2315L42.8148 29.5861C42.7181 28.8265 42.5124 28.197 42.1976 27.6974C41.8815 27.1829 41.48 26.8114 40.9932 26.5829C40.505 26.3395 39.9322 26.2465 39.2746 26.304C38.6171 26.3614 38.0249 26.5638 37.4981 26.911C36.9863 27.2569 36.5522 27.7165 36.1958 28.2897C35.8394 28.863 35.5812 29.5255 35.4212 30.2774C35.2612 31.0293 35.2198 31.846 35.297 32.7277C35.3572 33.4152 35.5372 34.0093 35.8371 34.5102C36.1519 35.0097 36.554 35.3887 37.0435 35.6471C37.5466 35.8892 38.112 35.9829 38.7396 35.928C39.6961 35.8444 40.5136 35.4643 41.1922 34.7876C41.8695 34.0959 42.3459 33.1733 42.6214 32.0199L46.6564 31.6672C46.4123 33.1794 45.9265 34.5093 45.1987 35.6572C44.471 36.805 43.5499 37.7212 42.4352 38.4059C41.3193 39.0757 40.0515 39.4726 38.6318 39.5967ZM50.7735 31.8495L56.8709 31.3166L57.6487 34.5239L48.6372 35.3115L50.7735 31.8495ZM56.8173 37.6685L54.1678 26.2447L49.3749 38.319L45.0037 38.701L52.2245 21.8518L56.7078 21.46L60.9644 37.3061L56.8173 37.6685ZM71.5144 36.3841L66.2703 26.5423L65.3723 36.9209L61.539 37.2559L62.9763 20.9121L67.37 20.5281L72.213 29.6596L73.0638 20.0305L76.8971 19.6955L75.4598 36.0393L71.5144 36.3841ZM82.4876 21.4431C82.5622 22.2949 82.4687 23.0335 82.2073 23.6587C81.9445 24.2689 81.5598 24.7769 81.0532 25.1826C80.5615 25.5869 80.0003 25.8844 79.3695 26.0751C78.7373 26.2508 78.0811 26.3232 77.4007 26.2923L77.6102 24.5574C78.4699 24.5726 79.1297 24.4547 79.5896 24.2037C80.0495 23.9526 80.2708 23.5568 80.2536 23.0162C80.1081 23.0741 79.9694 23.1239 79.8375 23.1655C79.7056 23.2072 79.5649 23.2345 79.4155 23.2476C78.9373 23.2894 78.5213 23.1827 78.1677 22.9275C77.814 22.6723 77.6189 22.3354 77.5822 21.917C77.5168 21.1698 77.7117 20.5579 78.1669 20.0815C78.637 19.6037 79.2158 19.3347 79.9033 19.2747C80.516 19.2211 81.0792 19.3752 81.5927 19.7369C82.1199 20.0823 82.4182 20.6511 82.4876 21.4431ZM90.5403 34.7213L86.438 35.0798L87.5287 22.5159L82.754 22.9332L83.0781 19.1553L96.7075 17.9642L96.4057 21.7401L91.631 22.1574L90.5403 34.7213ZM35.7423 59.5866L31.64 59.9451L33.0773 43.6014L43.6804 42.6747L43.363 46.2714L36.8621 46.8395L36.5581 50.0736L42.0053 49.5975L41.7103 53.1922L36.2406 53.6702L35.7423 59.5866ZM47.4936 58.5596L43.3913 58.9181L44.8286 42.5744L48.9309 42.2159L47.4936 58.5596ZM59.5138 57.5091L54.2697 47.6673L53.3716 58.0459L49.5384 58.3809L50.9757 42.0371L55.3694 41.6532L60.2124 50.7846L61.0632 41.1555L64.8965 40.8205L63.4592 57.1643L59.5138 57.5091ZM71.7695 56.438L65.4928 56.9866L66.9301 40.6428L72.8257 40.1276C74.1856 40.0087 75.4061 40.1882 76.487 40.6659C77.5828 41.1424 78.4667 41.8632 79.1385 42.8285C79.824 43.7775 80.2243 44.9096 80.3395 46.2247C80.4586 47.5846 80.3369 48.8602 79.9744 50.0514C79.6119 51.2426 79.0488 52.2932 78.2852 53.2032C77.5216 54.1132 76.5848 54.8501 75.4746 55.414C74.3794 55.9765 73.1444 56.3179 71.7695 56.438ZM70.7188 43.9258L69.8862 52.9885L71.8364 52.8181C72.5538 52.7554 73.1927 52.5716 73.7533 52.2666C74.3275 51.9453 74.8023 51.5198 75.1775 50.9901C75.5677 50.4591 75.8448 49.84 76.0088 49.133C76.1727 48.426 76.2174 47.6466 76.1428 46.7947C76.0813 46.0924 75.8944 45.5064 75.5822 45.0367C75.27 44.567 74.8488 44.2274 74.3184 44.0178C73.8017 43.7919 73.1846 43.7103 72.4673 43.773L70.7188 43.9258ZM88.4487 48.6331L94.5461 48.1002L95.3239 51.3075L86.3124 52.0951L88.4487 48.6331ZM94.4925 54.4521L91.843 43.0283L87.0501 55.1025L82.6789 55.4846L89.8997 38.6354L94.383 38.2435L98.6396 54.0897L94.4925 54.4521ZM30.8825 80.0876L28.3932 70.7504L27.5199 80.3815L23.7988 80.7067L25.2361 64.3629L29.966 63.9495L32.9085 74.8508L37.8119 63.2638L42.766 62.8309L41.3287 79.1746L37.5851 79.5018L38.4709 69.7568L34.2226 79.7957L30.8825 80.0876ZM47.7004 72.2706L53.7978 71.7377L54.5756 74.945L45.5641 75.7325L47.7004 72.2706ZM53.7442 78.0896L51.0947 66.6657L46.3018 78.74L41.9306 79.122L49.1514 62.2728L53.6347 61.881L57.8913 77.7271L53.7442 78.0896ZM64.5119 77.1485L60.4097 77.507L61.5004 64.9432L56.7256 65.3605L57.0498 61.5825L70.6792 60.3914L70.3774 64.1674L65.6026 64.5847L64.5119 77.1485ZM77.2047 76.378C75.8597 76.4956 74.638 76.3012 73.5395 75.7949C72.4547 75.2723 71.5676 74.514 70.8782 73.5202C70.1875 72.5114 69.7832 71.3345 69.6654 69.9895C69.5424 68.5848 69.6533 67.2725 69.9983 66.0527C70.3568 64.8167 70.9085 63.7219 71.6532 62.7683C72.3979 61.8148 73.3023 61.0506 74.3663 60.4757C75.444 59.8846 76.6329 59.5322 77.933 59.4186C79.3079 59.2985 80.5371 59.4922 81.6207 59.9998C82.7042 60.5075 83.577 61.2745 84.2391 62.3009C84.9162 63.3259 85.3182 64.5632 85.4452 66.0128L81.3878 66.3674C81.2911 65.6079 81.0854 64.9783 80.7706 64.4788C80.4545 63.9643 80.053 63.5928 79.5661 63.3643C79.078 63.1209 78.5051 63.0279 77.8476 63.0853C77.19 63.1428 76.5979 63.3451 76.0711 63.6923C75.5593 64.0382 75.1252 64.4978 74.7688 65.0711C74.4124 65.6443 74.1542 66.3069 73.9942 67.0588C73.8341 67.8106 73.7927 68.6274 73.8699 69.5091C73.9301 70.1965 74.1102 70.7907 74.4101 71.2915C74.7249 71.7911 75.127 72.17 75.6165 72.4284C76.1195 72.6706 76.6849 72.7642 77.3126 72.7094C78.269 72.6258 79.0866 72.2456 79.7652 71.5689C80.4425 70.8773 80.9189 69.9547 81.1943 68.8012L85.2293 68.4486C84.9853 69.9607 84.4994 71.2907 83.7717 72.4385C83.044 73.5863 82.1228 74.5026 81.0082 75.1873C79.8923 75.8571 78.6244 76.254 77.2047 76.378ZM89.8141 74.9372L85.7118 75.2957L87.1491 58.952L91.2514 58.5935L90.7035 64.7175L96.4646 64.214L97.0125 58.09L101.115 57.7315L99.6775 74.0752L95.5752 74.4337L96.1511 67.8555L90.39 68.359L89.8141 74.9372ZM108.614 68.0764L105.812 68.3213L105.842 57.3183L110.595 56.903L108.614 68.0764ZM109.398 70.5829C109.44 71.0611 109.345 71.5212 109.113 71.9631C108.895 72.4037 108.581 72.77 108.17 73.062C107.774 73.3526 107.314 73.5208 106.791 73.5665C106.178 73.62 105.663 73.4919 105.244 73.1822C104.839 72.8561 104.612 72.4167 104.564 71.8637C104.519 71.3556 104.606 70.8887 104.825 70.463C105.057 70.0211 105.379 69.6541 105.79 69.3622C106.216 69.069 106.683 68.9002 107.192 68.8558C107.819 68.8009 108.328 68.9371 108.718 69.2644C109.123 69.5905 109.35 70.0299 109.398 70.5829Z"/>
</mask>
<path d="M38.6318 39.5967C37.2867 39.7142 36.065 39.5198 34.9665 39.0135C33.8817 38.4909 32.9946 37.7327 32.3052 36.7388C31.6145 35.73 31.2102 34.5531 31.0924 33.2081C30.9694 31.8034 31.0804 30.4911 31.4253 29.2713C31.7839 28.0353 32.3355 26.9405 33.0802 25.987C33.825 25.0334 34.7293 24.2692 35.7933 23.6944C36.871 23.1033 38.0599 22.7509 39.3601 22.6372C40.735 22.5171 41.9642 22.7108 43.0477 23.2185C44.1312 23.7261 45.004 24.4931 45.6662 25.5195C46.3432 26.5445 46.7453 27.7819 46.8722 29.2315L42.8148 29.5861C42.7181 28.8265 42.5124 28.197 42.1976 27.6974C41.8815 27.1829 41.48 26.8114 40.9932 26.5829C40.505 26.3395 39.9322 26.2465 39.2746 26.304C38.6171 26.3614 38.0249 26.5638 37.4981 26.911C36.9863 27.2569 36.5522 27.7165 36.1958 28.2897C35.8394 28.863 35.5812 29.5255 35.4212 30.2774C35.2612 31.0293 35.2198 31.846 35.297 32.7277C35.3572 33.4152 35.5372 34.0093 35.8371 34.5102C36.1519 35.0097 36.554 35.3887 37.0435 35.6471C37.5466 35.8892 38.112 35.9829 38.7396 35.928C39.6961 35.8444 40.5136 35.4643 41.1922 34.7876C41.8695 34.0959 42.3459 33.1733 42.6214 32.0199L46.6564 31.6672C46.4123 33.1794 45.9265 34.5093 45.1987 35.6572C44.471 36.805 43.5499 37.7212 42.4352 38.4059C41.3193 39.0757 40.0515 39.4726 38.6318 39.5967ZM50.7735 31.8495L56.8709 31.3166L57.6487 34.5239L48.6372 35.3115L50.7735 31.8495ZM56.8173 37.6685L54.1678 26.2447L49.3749 38.319L45.0037 38.701L52.2245 21.8518L56.7078 21.46L60.9644 37.3061L56.8173 37.6685ZM71.5144 36.3841L66.2703 26.5423L65.3723 36.9209L61.539 37.2559L62.9763 20.9121L67.37 20.5281L72.213 29.6596L73.0638 20.0305L76.8971 19.6955L75.4598 36.0393L71.5144 36.3841ZM82.4876 21.4431C82.5622 22.2949 82.4687 23.0335 82.2073 23.6587C81.9445 24.2689 81.5598 24.7769 81.0532 25.1826C80.5615 25.5869 80.0003 25.8844 79.3695 26.0751C78.7373 26.2508 78.0811 26.3232 77.4007 26.2923L77.6102 24.5574C78.4699 24.5726 79.1297 24.4547 79.5896 24.2037C80.0495 23.9526 80.2708 23.5568 80.2536 23.0162C80.1081 23.0741 79.9694 23.1239 79.8375 23.1655C79.7056 23.2072 79.5649 23.2345 79.4155 23.2476C78.9373 23.2894 78.5213 23.1827 78.1677 22.9275C77.814 22.6723 77.6189 22.3354 77.5822 21.917C77.5168 21.1698 77.7117 20.5579 78.1669 20.0815C78.637 19.6037 79.2158 19.3347 79.9033 19.2747C80.516 19.2211 81.0792 19.3752 81.5927 19.7369C82.1199 20.0823 82.4182 20.6511 82.4876 21.4431ZM90.5403 34.7213L86.438 35.0798L87.5287 22.5159L82.754 22.9332L83.0781 19.1553L96.7075 17.9642L96.4057 21.7401L91.631 22.1574L90.5403 34.7213ZM35.7423 59.5866L31.64 59.9451L33.0773 43.6014L43.6804 42.6747L43.363 46.2714L36.8621 46.8395L36.5581 50.0736L42.0053 49.5975L41.7103 53.1922L36.2406 53.6702L35.7423 59.5866ZM47.4936 58.5596L43.3913 58.9181L44.8286 42.5744L48.9309 42.2159L47.4936 58.5596ZM59.5138 57.5091L54.2697 47.6673L53.3716 58.0459L49.5384 58.3809L50.9757 42.0371L55.3694 41.6532L60.2124 50.7846L61.0632 41.1555L64.8965 40.8205L63.4592 57.1643L59.5138 57.5091ZM71.7695 56.438L65.4928 56.9866L66.9301 40.6428L72.8257 40.1276C74.1856 40.0087 75.4061 40.1882 76.487 40.6659C77.5828 41.1424 78.4667 41.8632 79.1385 42.8285C79.824 43.7775 80.2243 44.9096 80.3395 46.2247C80.4586 47.5846 80.3369 48.8602 79.9744 50.0514C79.6119 51.2426 79.0488 52.2932 78.2852 53.2032C77.5216 54.1132 76.5848 54.8501 75.4746 55.414C74.3794 55.9765 73.1444 56.3179 71.7695 56.438ZM70.7188 43.9258L69.8862 52.9885L71.8364 52.8181C72.5538 52.7554 73.1927 52.5716 73.7533 52.2666C74.3275 51.9453 74.8023 51.5198 75.1775 50.9901C75.5677 50.4591 75.8448 49.84 76.0088 49.133C76.1727 48.426 76.2174 47.6466 76.1428 46.7947C76.0813 46.0924 75.8944 45.5064 75.5822 45.0367C75.27 44.567 74.8488 44.2274 74.3184 44.0178C73.8017 43.7919 73.1846 43.7103 72.4673 43.773L70.7188 43.9258ZM88.4487 48.6331L94.5461 48.1002L95.3239 51.3075L86.3124 52.0951L88.4487 48.6331ZM94.4925 54.4521L91.843 43.0283L87.0501 55.1025L82.6789 55.4846L89.8997 38.6354L94.383 38.2435L98.6396 54.0897L94.4925 54.4521ZM30.8825 80.0876L28.3932 70.7504L27.5199 80.3815L23.7988 80.7067L25.2361 64.3629L29.966 63.9495L32.9085 74.8508L37.8119 63.2638L42.766 62.8309L41.3287 79.1746L37.5851 79.5018L38.4709 69.7568L34.2226 79.7957L30.8825 80.0876ZM47.7004 72.2706L53.7978 71.7377L54.5756 74.945L45.5641 75.7325L47.7004 72.2706ZM53.7442 78.0896L51.0947 66.6657L46.3018 78.74L41.9306 79.122L49.1514 62.2728L53.6347 61.881L57.8913 77.7271L53.7442 78.0896ZM64.5119 77.1485L60.4097 77.507L61.5004 64.9432L56.7256 65.3605L57.0498 61.5825L70.6792 60.3914L70.3774 64.1674L65.6026 64.5847L64.5119 77.1485ZM77.2047 76.378C75.8597 76.4956 74.638 76.3012 73.5395 75.7949C72.4547 75.2723 71.5676 74.514 70.8782 73.5202C70.1875 72.5114 69.7832 71.3345 69.6654 69.9895C69.5424 68.5848 69.6533 67.2725 69.9983 66.0527C70.3568 64.8167 70.9085 63.7219 71.6532 62.7683C72.3979 61.8148 73.3023 61.0506 74.3663 60.4757C75.444 59.8846 76.6329 59.5322 77.933 59.4186C79.3079 59.2985 80.5371 59.4922 81.6207 59.9998C82.7042 60.5075 83.577 61.2745 84.2391 62.3009C84.9162 63.3259 85.3182 64.5632 85.4452 66.0128L81.3878 66.3674C81.2911 65.6079 81.0854 64.9783 80.7706 64.4788C80.4545 63.9643 80.053 63.5928 79.5661 63.3643C79.078 63.1209 78.5051 63.0279 77.8476 63.0853C77.19 63.1428 76.5979 63.3451 76.0711 63.6923C75.5593 64.0382 75.1252 64.4978 74.7688 65.0711C74.4124 65.6443 74.1542 66.3069 73.9942 67.0588C73.8341 67.8106 73.7927 68.6274 73.8699 69.5091C73.9301 70.1965 74.1102 70.7907 74.4101 71.2915C74.7249 71.7911 75.127 72.17 75.6165 72.4284C76.1195 72.6706 76.6849 72.7642 77.3126 72.7094C78.269 72.6258 79.0866 72.2456 79.7652 71.5689C80.4425 70.8773 80.9189 69.9547 81.1943 68.8012L85.2293 68.4486C84.9853 69.9607 84.4994 71.2907 83.7717 72.4385C83.044 73.5863 82.1228 74.5026 81.0082 75.1873C79.8923 75.8571 78.6244 76.254 77.2047 76.378ZM89.8141 74.9372L85.7118 75.2957L87.1491 58.952L91.2514 58.5935L90.7035 64.7175L96.4646 64.214L97.0125 58.09L101.115 57.7315L99.6775 74.0752L95.5752 74.4337L96.1511 67.8555L90.39 68.359L89.8141 74.9372ZM108.614 68.0764L105.812 68.3213L105.842 57.3183L110.595 56.903L108.614 68.0764ZM109.398 70.5829C109.44 71.0611 109.345 71.5212 109.113 71.9631C108.895 72.4037 108.581 72.77 108.17 73.062C107.774 73.3526 107.314 73.5208 106.791 73.5665C106.178 73.62 105.663 73.4919 105.244 73.1822C104.839 72.8561 104.612 72.4167 104.564 71.8637C104.519 71.3556 104.606 70.8887 104.825 70.463C105.057 70.0211 105.379 69.6541 105.79 69.3622C106.216 69.069 106.683 68.9002 107.192 68.8558C107.819 68.8009 108.328 68.9371 108.718 69.2644C109.123 69.5905 109.35 70.0299 109.398 70.5829Z" fill="#EF0000"/>
<path d="M34.9665 39.0135L33.0681 42.9552L33.1016 42.9714L33.1354 42.9869L34.9665 39.0135ZM32.3052 36.7388L28.695 39.2102L28.7025 39.2212L28.7101 39.2321L32.3052 36.7388ZM31.4253 29.2713L27.223 28.0516L27.2189 28.0658L27.2149 28.0801L31.4253 29.2713ZM33.0802 25.987L29.6316 23.2935L29.6316 23.2935L33.0802 25.987ZM35.7933 23.6944L37.8738 27.5439L37.886 27.5373L37.8982 27.5306L35.7933 23.6944ZM43.0477 23.2185L41.1919 27.1805L41.1919 27.1805L43.0477 23.2185ZM45.6662 25.5195L41.9895 27.8909L42.0023 27.9107L42.0153 27.9304L45.6662 25.5195ZM46.8722 29.2315L47.254 33.5902L51.6128 33.2092L51.231 28.8505L46.8722 29.2315ZM42.8148 29.5861L38.4743 30.1375L39.0053 34.3111L43.1965 33.9448L42.8148 29.5861ZM42.1976 27.6974L38.4697 29.9874L38.4827 30.0086L38.496 30.0297L42.1976 27.6974ZM40.9932 26.5829L39.0409 30.4983L39.0875 30.5215L39.1346 30.5436L40.9932 26.5829ZM37.4981 26.911L35.0896 23.2577L35.0685 23.2716L35.0476 23.2858L37.4981 26.911ZM36.1958 28.2897L32.4797 25.9792L32.4797 25.9792L36.1958 28.2897ZM35.4212 30.2774L39.7008 31.189L39.7008 31.189L35.4212 30.2774ZM35.8371 34.5102L32.0831 36.7572L32.1088 36.8001L32.1354 36.8424L35.8371 34.5102ZM37.0435 35.6471L35.0012 39.5162L35.0731 39.5542L35.1464 39.5894L37.0435 35.6471ZM41.1922 34.7876L44.2821 37.886L44.3005 37.8676L44.3187 37.849L41.1922 34.7876ZM42.6214 32.0199L42.2396 27.6611L39.098 27.9357L38.3655 31.0029L42.6214 32.0199ZM46.6564 31.6672L50.976 32.3651L51.871 26.8194L46.2746 27.3085L46.6564 31.6672ZM45.1987 35.6572L48.8943 38.0004L48.8943 38.0004L45.1987 35.6572ZM42.4352 38.4059L44.6875 42.1576L44.7068 42.1459L44.726 42.1341L42.4352 38.4059ZM38.6318 39.5967L38.25 35.2379C37.5734 35.2971 37.1268 35.1917 36.7977 35.04L34.9665 39.0135L33.1354 42.9869C35.0033 43.8479 37.0001 44.1314 39.0135 43.9554L38.6318 39.5967ZM34.9665 39.0135L36.865 35.0718C36.4645 34.8789 36.1608 34.621 35.9003 34.2455L32.3052 36.7388L28.7101 39.2321C29.8284 40.8443 31.2989 42.1029 33.0681 42.9552L34.9665 39.0135ZM32.3052 36.7388L35.9154 34.2675C35.6931 33.9427 35.5104 33.5028 35.4513 32.8272L31.0924 33.2081L26.7336 33.5891C26.9101 35.6035 27.5359 37.5173 28.695 39.2102L32.3052 36.7388ZM31.0924 33.2081L35.4513 32.8272C35.3693 31.892 35.4505 31.1175 35.6357 30.4626L31.4253 29.2713L27.2149 28.0801C26.7102 29.8648 26.5695 31.7148 26.7336 33.5891L31.0924 33.2081ZM31.4253 29.2713L35.6276 30.491C35.841 29.7553 36.1483 29.1678 36.5289 28.6805L33.0802 25.987L29.6316 23.2935C28.5228 24.7133 27.7267 26.3153 27.223 28.0516L31.4253 29.2713ZM33.0802 25.987L36.5289 28.6805C36.9023 28.2023 37.341 27.8317 37.8738 27.5439L35.7933 23.6944L33.7129 19.8449C32.1177 20.7067 30.7476 21.8646 29.6316 23.2935L33.0802 25.987ZM35.7933 23.6944L37.8982 27.5306C38.4115 27.249 39.0081 27.0601 39.7418 26.996L39.3601 22.6372L38.9783 18.2785C37.1117 18.4416 35.3305 18.9575 33.6885 19.8582L35.7933 23.6944ZM39.3601 22.6372L39.7418 26.996C40.4684 26.9325 40.9074 27.0472 41.1919 27.1805L43.0477 23.2185L44.9035 19.2565C43.0209 18.3745 41.0015 18.1017 38.9783 18.2785L39.3601 22.6372ZM43.0477 23.2185L41.1919 27.1805C41.515 27.3318 41.7631 27.54 41.9895 27.8909L45.6662 25.5195L49.3428 23.1481C48.2449 21.4463 46.7474 20.1204 44.9035 19.2565L43.0477 23.2185ZM45.6662 25.5195L42.0153 27.9304C42.2232 28.2452 42.4382 28.754 42.5134 29.6124L46.8722 29.2315L51.231 28.8505C51.0523 26.8097 50.4632 24.8439 49.317 23.1085L45.6662 25.5195ZM46.8722 29.2315L46.4905 24.8727L42.433 25.2273L42.8148 29.5861L43.1965 33.9448L47.254 33.5902L46.8722 29.2315ZM42.8148 29.5861L47.1553 29.0346C47.0011 27.8225 46.6396 26.5399 45.8993 25.3652L42.1976 27.6974L38.496 30.0297C38.4398 29.9405 38.4246 29.8892 38.429 29.9026C38.4339 29.9178 38.4556 29.9904 38.4743 30.1375L42.8148 29.5861ZM42.1976 27.6974L45.9255 25.4074C45.2193 24.258 44.2039 23.2569 42.8518 22.6223L40.9932 26.5829L39.1346 30.5436C38.9638 30.4634 38.8117 30.3586 38.688 30.2441C38.5671 30.1322 38.4991 30.0354 38.4697 29.9874L42.1976 27.6974ZM40.9932 26.5829L42.9454 22.6676C41.5965 21.9949 40.1848 21.8323 38.8929 21.9452L39.2746 26.304L39.6564 30.6627C39.6795 30.6607 39.4135 30.6841 39.0409 30.4983L40.9932 26.5829ZM39.2746 26.304L38.8929 21.9452C37.5462 22.0629 36.2512 22.4921 35.0896 23.2577L37.4981 26.911L39.9066 30.5642C39.8635 30.5927 39.8099 30.6196 39.7528 30.6392C39.6966 30.6584 39.6605 30.6623 39.6564 30.6627L39.2746 26.304ZM37.4981 26.911L35.0476 23.2858C33.9805 24.0069 33.1304 24.9325 32.4797 25.9792L36.1958 28.2897L39.9119 30.6002C39.9458 30.5456 39.9669 30.5228 39.9698 30.5198C39.972 30.5175 39.9644 30.5255 39.9487 30.5362L37.4981 26.911ZM36.1958 28.2897L32.4797 25.9792C31.8216 27.0379 31.3926 28.1864 31.1416 29.3658L35.4212 30.2774L39.7008 31.189C39.7699 30.8647 39.8573 30.6881 39.9119 30.6002L36.1958 28.2897ZM35.4212 30.2774L31.1416 29.3658C30.8787 30.6008 30.8287 31.8586 30.9382 33.1087L35.297 32.7278L39.6558 32.3468C39.6108 31.8335 39.6436 31.4577 39.7008 31.189L35.4212 30.2774ZM35.297 32.7278L30.9382 33.1087C31.0457 34.3366 31.3864 35.5936 32.0831 36.7572L35.8371 34.5102L39.5911 32.2632C39.6364 32.3389 39.6573 32.3968 39.6646 32.4208C39.6713 32.4428 39.6624 32.4226 39.6558 32.3468L35.297 32.7278ZM35.8371 34.5102L32.1354 36.8424C32.8308 37.9459 33.7881 38.8758 35.0012 39.5162L37.0435 35.6471L39.0857 31.7779C39.1893 31.8326 39.2889 31.9036 39.3754 31.9852C39.4607 32.0656 39.5127 32.1367 39.5387 32.1779L35.8371 34.5102ZM37.0435 35.6471L35.1464 39.5894C36.4456 40.2148 37.8134 40.4011 39.1214 40.2867L38.7396 35.928L38.3579 31.5693C38.3738 31.5679 38.4457 31.5636 38.5591 31.5824C38.6755 31.6017 38.8077 31.6408 38.9406 31.7047L37.0435 35.6471ZM38.7396 35.928L39.1214 40.2867C41.0986 40.1139 42.8753 39.2889 44.2821 37.886L41.1922 34.7876L38.1023 31.6891C38.1011 31.6904 38.1426 31.6509 38.2246 31.6128C38.3064 31.5747 38.3622 31.5689 38.3579 31.5693L38.7396 35.928ZM41.1922 34.7876L44.3187 37.849C45.6634 36.4759 46.4589 34.7884 46.8772 33.0368L42.6214 32.0199L38.3655 31.0029C38.2329 31.5583 38.0756 31.7159 38.0657 31.7261L41.1922 34.7876ZM42.6214 32.0199L43.0031 36.3786L47.0381 36.026L46.6564 31.6672L46.2746 27.3085L42.2396 27.6611L42.6214 32.0199ZM46.6564 31.6672L42.3368 30.9694C42.1752 31.9706 41.8757 32.7264 41.5032 33.3139L45.1987 35.6572L48.8943 38.0004C49.9772 36.2922 50.6495 34.3881 50.976 32.3651L46.6564 31.6672ZM45.1987 35.6572L41.5032 33.3139C41.1179 33.9217 40.6691 34.3554 40.1445 34.6777L42.4352 38.4059L44.726 42.1341C46.4306 41.087 47.8242 39.6882 48.8943 38.0004L45.1987 35.6572ZM42.4352 38.4059L40.183 34.6543C39.6888 34.9509 39.072 35.1661 38.25 35.2379L38.6318 39.5967L39.0135 43.9554C41.031 43.7791 42.9498 43.2005 44.6875 42.1576L42.4352 38.4059ZM50.7735 31.8495L50.3918 27.4908L48.2033 27.682L47.0498 29.5514L50.7735 31.8495ZM56.8709 31.3166L61.1231 30.2862L60.2365 26.6304L56.4891 26.9579L56.8709 31.3166ZM57.6487 34.5239L58.0305 38.8826L63.1005 38.4395L61.9009 33.4934L57.6487 34.5239ZM48.6372 35.3115L44.9134 33.0133L40.3374 40.4289L49.0189 39.6702L48.6372 35.3115ZM56.8173 37.6685L52.5549 38.6563L53.4135 42.3581L57.199 42.0273L56.8173 37.6685ZM54.1678 26.2447L58.4302 25.257L55.2666 11.6165L50.101 24.6298L54.1678 26.2447ZM49.3749 38.319L49.7567 42.6777L52.4459 42.4427L53.4418 39.9338L49.3749 38.319ZM45.0037 38.701L40.9819 36.9769L38.1023 43.6962L45.3854 43.0597L45.0037 38.701ZM52.2245 21.8518L51.8427 17.493L49.2341 17.721L48.2027 20.1277L52.2245 21.8518ZM56.7078 21.46L60.9335 20.3256L59.9816 16.7817L56.3261 17.1012L56.7078 21.46ZM60.9644 37.3061L61.3461 41.6648L66.5436 41.2106L65.1901 36.1718L60.9644 37.3061ZM50.7735 31.8495L51.1553 36.2083L57.2526 35.6754L56.8709 31.3166L56.4891 26.9579L50.3918 27.4908L50.7735 31.8495ZM56.8709 31.3166L52.6186 32.3471L53.3965 35.5544L57.6487 34.5239L61.9009 33.4934L61.1231 30.2862L56.8709 31.3166ZM57.6487 34.5239L57.267 30.1652L48.2554 30.9527L48.6372 35.3115L49.0189 39.6702L58.0305 38.8826L57.6487 34.5239ZM48.6372 35.3115L52.3609 37.6096L54.4973 34.1477L50.7735 31.8495L47.0498 29.5514L44.9134 33.0133L48.6372 35.3115ZM56.8173 37.6685L61.0797 36.6808L58.4302 25.257L54.1678 26.2447L49.9055 27.2324L52.5549 38.6563L56.8173 37.6685ZM54.1678 26.2447L50.101 24.6298L45.3081 36.7041L49.3749 38.319L53.4418 39.9338L58.2347 27.8596L54.1678 26.2447ZM49.3749 38.319L48.9932 33.9602L44.6219 34.3423L45.0037 38.701L45.3854 43.0597L49.7567 42.6777L49.3749 38.319ZM45.0037 38.701L49.0255 40.425L56.2463 23.5758L52.2245 21.8518L48.2027 20.1277L40.9819 36.9769L45.0037 38.701ZM52.2245 21.8518L52.6062 26.2105L57.0896 25.8187L56.7078 21.46L56.3261 17.1012L51.8427 17.493L52.2245 21.8518ZM56.7078 21.46L52.4821 22.5943L56.7387 38.4404L60.9644 37.3061L65.1901 36.1718L60.9335 20.3256L56.7078 21.46ZM60.9644 37.3061L60.5826 32.9474L56.4355 33.3098L56.8173 37.6685L57.199 42.0273L61.3461 41.6648L60.9644 37.3061ZM71.5144 36.3841L67.653 38.441L69.0137 40.9947L71.8962 40.7428L71.5144 36.3841ZM66.2703 26.5423L70.1318 24.4854L63.1846 11.4474L61.9111 26.1643L66.2703 26.5423ZM65.3723 36.9209L65.754 41.2796L69.4147 40.9597L69.7315 37.2988L65.3723 36.9209ZM61.539 37.2559L57.1803 36.8718L56.7233 42.0688L61.9207 41.6146L61.539 37.2559ZM62.9763 20.9121L62.5945 16.5534L58.9391 16.8729L58.6176 20.528L62.9763 20.9121ZM67.37 20.5281L71.2354 18.4787L69.8767 15.9169L66.9882 16.1694L67.37 20.5281ZM72.213 29.6596L68.3476 31.709L75.2711 44.7631L76.5715 30.0454L72.213 29.6596ZM73.0638 20.0305L72.6821 15.6718L69.0281 15.9911L68.7053 19.6446L73.0638 20.0305ZM76.8971 19.6955L81.2557 20.0796L81.7128 14.8825L76.5153 15.3368L76.8971 19.6955ZM75.4598 36.0393L75.8415 40.398L79.497 40.0785L79.8185 36.4233L75.4598 36.0393ZM71.5144 36.3841L75.3759 34.3272L70.1318 24.4854L66.2703 26.5423L62.4089 28.5992L67.653 38.441L71.5144 36.3841ZM66.2703 26.5423L61.9111 26.1643L61.013 36.5429L65.3723 36.9209L69.7315 37.2988L70.6295 26.9203L66.2703 26.5423ZM65.3723 36.9209L64.9905 32.5621L61.1572 32.8971L61.539 37.2559L61.9207 41.6146L65.754 41.2796L65.3723 36.9209ZM61.539 37.2559L65.8977 37.6399L67.335 21.2962L62.9763 20.9121L58.6176 20.528L57.1803 36.8718L61.539 37.2559ZM62.9763 20.9121L63.358 25.2709L67.7517 24.8869L67.37 20.5281L66.9882 16.1694L62.5945 16.5534L62.9763 20.9121ZM67.37 20.5281L63.5046 22.5776L68.3476 31.709L72.213 29.6596L76.0784 27.6101L71.2354 18.4787L67.37 20.5281ZM72.213 29.6596L76.5715 30.0454L77.4223 20.4164L73.0638 20.0305L68.7053 19.6446L67.8545 29.2737L72.213 29.6596ZM73.0638 20.0305L73.4456 24.3892L77.2788 24.0542L76.8971 19.6955L76.5153 15.3368L72.6821 15.6718L73.0638 20.0305ZM76.8971 19.6955L72.5384 19.3114L71.1011 35.6552L75.4598 36.0393L79.8185 36.4233L81.2557 20.0796L76.8971 19.6955ZM75.4598 36.0393L75.078 31.6805L71.1327 32.0253L71.5144 36.3841L71.8962 40.7428L75.8415 40.398L75.4598 36.0393ZM82.2072 23.6587L86.226 25.3897L86.2351 25.3686L86.244 25.3475L82.2072 23.6587ZM81.0532 25.1826L78.3177 21.7672L78.2954 21.785L78.2733 21.8032L81.0532 25.1826ZM79.3695 26.0751L80.542 30.2906L80.5892 30.2775L80.6361 30.2634L79.3695 26.0751ZM77.4007 26.2923L73.0568 25.7672L72.4915 30.4493L77.203 30.6632L77.4007 26.2923ZM77.6102 24.5574L77.6868 20.1827L73.7394 20.1128L73.2662 24.0322L77.6102 24.5574ZM79.5896 24.2037L81.6864 28.0443L79.5896 24.2037ZM80.2536 23.0162L84.6268 22.8777L84.4282 16.6461L78.6354 18.9508L80.2536 23.0162ZM79.8375 23.1655L78.5193 18.9932L78.5192 18.9932L79.8375 23.1655ZM78.1677 22.9275L80.7278 19.3797L80.7278 19.3797L78.1677 22.9275ZM78.1669 20.0815L75.0478 17.0124L75.0251 17.0354L75.0028 17.0588L78.1669 20.0815ZM81.5927 19.7369L79.0736 23.3139L79.1336 23.3562L79.195 23.3964L81.5927 19.7369ZM82.4876 21.4431L78.1288 21.8241C78.1428 21.9847 78.1349 22.067 78.1326 22.0859C78.1306 22.1017 78.1348 22.0552 78.1705 21.9699L82.2072 23.6587L86.244 25.3475C86.8411 23.9197 86.967 22.4393 86.8464 21.0622L82.4876 21.4431ZM82.2072 23.6587L78.1885 21.9276C78.1906 21.9227 78.2039 21.8944 78.2333 21.8555C78.2631 21.8162 78.2943 21.7859 78.3177 21.7672L81.0532 25.1826L83.7886 28.5979C84.8682 27.7335 85.6869 26.6418 86.226 25.3897L82.2072 23.6587ZM81.0532 25.1826L78.2733 21.8032C78.2435 21.8277 78.2007 21.8573 78.1029 21.8869L79.3695 26.0751L80.6361 30.2634C81.7999 29.9116 82.8796 29.3461 83.8331 28.5619L81.0532 25.1826ZM79.3695 26.0751L78.1969 21.8596C78.0272 21.9068 77.8344 21.9322 77.5984 21.9215L77.4007 26.2923L77.203 30.6632C78.3278 30.7143 79.4475 30.5949 80.542 30.2906L79.3695 26.0751ZM77.4007 26.2923L81.7447 26.8175L81.9541 25.0825L77.6102 24.5574L73.2662 24.0322L73.0568 25.7672L77.4007 26.2923ZM77.6102 24.5574L77.5335 28.932C78.7183 28.953 80.2623 28.8215 81.6864 28.0443L79.5896 24.2037L77.4927 20.3631C77.6367 20.2845 77.7565 20.2379 77.8372 20.2113C77.9177 20.1848 77.9681 20.1752 77.9793 20.1732C77.9908 20.1712 77.9734 20.1749 77.9217 20.1784C77.8703 20.1819 77.7931 20.1846 77.6868 20.1827L77.6102 24.5574ZM79.5896 24.2037L81.6864 28.0443C82.5249 27.5866 83.3475 26.8775 83.9196 25.8545C84.487 24.8397 84.6559 23.7884 84.6268 22.8777L80.2536 23.0162L75.8803 23.1548C75.8685 22.7847 75.9353 22.2016 76.2814 21.5826C76.6322 20.9554 77.1142 20.5697 77.4927 20.3631L79.5896 24.2037ZM80.2536 23.0162L78.6354 18.9508C78.5759 18.9745 78.5377 18.9874 78.5193 18.9932L79.8375 23.1655L81.1557 27.3378C81.401 27.2604 81.6402 27.1738 81.8717 27.0817L80.2536 23.0162ZM79.8375 23.1655L78.5192 18.9932C78.7162 18.931 78.8917 18.9013 79.0337 18.8889L79.4155 23.2476L79.7972 27.6063C80.2381 27.5678 80.695 27.4833 81.1557 27.3378L79.8375 23.1655ZM79.4155 23.2476L79.0337 18.8889C79.2297 18.8717 79.5073 18.8777 79.8315 18.9608C80.1619 19.0456 80.468 19.1922 80.7278 19.3797L78.1677 22.9275L75.6076 26.4753C76.9008 27.4085 78.3863 27.7296 79.7972 27.6063L79.4155 23.2476ZM78.1677 22.9275L80.7278 19.3797C80.9901 19.569 81.2956 19.8654 81.542 20.2906C81.7907 20.7199 81.9079 21.158 81.941 21.5361L77.5822 21.917L73.2234 22.2979C73.3758 24.0374 74.2677 25.5084 75.6076 26.4753L78.1677 22.9275ZM77.5822 21.917L81.941 21.5361C81.9505 21.6436 81.9537 21.8959 81.8485 22.2263C81.7386 22.5711 81.5504 22.8745 81.3309 23.1041L78.1669 20.0815L75.0028 17.0588C73.5533 18.576 73.065 20.4895 73.2234 22.2979L77.5822 21.917ZM78.1669 20.0815L81.286 23.1505C81.1721 23.2662 81.0075 23.392 80.798 23.4894C80.5902 23.5859 80.4067 23.6228 80.285 23.6334L79.9033 19.2747L79.5215 14.9159C77.8305 15.0637 76.271 15.7693 75.0478 17.0124L78.1669 20.0815ZM79.9033 19.2747L80.285 23.6334C80.1032 23.6493 79.8756 23.6372 79.6312 23.5703C79.388 23.5038 79.1996 23.4027 79.0736 23.3139L81.5927 19.7369L84.1118 16.1599C82.7734 15.2172 81.1867 14.7704 79.5215 14.9159L79.9033 19.2747ZM81.5927 19.7369L79.195 23.3964C78.8235 23.153 78.5268 22.8161 78.337 22.4541C78.1614 22.1193 78.1329 21.8717 78.1288 21.8241L82.4876 21.4431L86.8464 21.0622C86.6936 19.3175 85.9254 17.3453 83.9904 16.0774L81.5927 19.7369ZM90.5403 34.7213L90.922 39.08L94.5817 38.7602L94.8994 35.1005L90.5403 34.7213ZM86.438 35.0798L82.0789 34.7006L81.6282 39.8923L86.8198 39.4385L86.438 35.0798ZM87.5287 22.5159L91.8878 22.8951L92.3385 17.7035L87.147 18.1572L87.5287 22.5159ZM82.754 22.9332L78.3945 22.5584L77.9494 27.7452L83.1357 27.292L82.754 22.9332ZM83.0781 19.1553L82.6964 14.7966L79.033 15.1167L78.7187 18.7805L83.0781 19.1553ZM96.7075 17.9642L101.069 18.3135L101.481 13.1548L96.3258 13.6054L96.7075 17.9642ZM96.4057 21.7401L96.7875 26.0989L100.473 25.7768L100.767 22.0895L96.4057 21.7401ZM91.631 22.1574L91.2492 17.7987L87.5896 18.1185L87.2719 21.7782L91.631 22.1574ZM90.5403 34.7213L90.1585 30.3626L86.0563 30.7211L86.438 35.0798L86.8198 39.4385L90.922 39.08L90.5403 34.7213ZM86.438 35.0798L90.7971 35.459L91.8878 22.8951L87.5287 22.5159L83.1696 22.1368L82.0789 34.7006L86.438 35.0798ZM87.5287 22.5159L87.147 18.1572L82.3722 18.5745L82.754 22.9332L83.1357 27.292L87.9105 26.8747L87.5287 22.5159ZM82.754 22.9332L87.1134 23.3081L87.4376 19.5302L83.0781 19.1553L78.7187 18.7805L78.3945 22.5584L82.754 22.9332ZM83.0781 19.1553L83.4599 23.514L97.0893 22.3229L96.7075 17.9642L96.3258 13.6054L82.6964 14.7966L83.0781 19.1553ZM96.7075 17.9642L92.3459 17.6148L92.0442 21.3908L96.4057 21.7401L100.767 22.0895L101.069 18.3135L96.7075 17.9642ZM96.4057 21.7401L96.024 17.3814L91.2492 17.7987L91.631 22.1574L92.0127 26.5162L96.7875 26.0989L96.4057 21.7401ZM91.631 22.1574L87.2719 21.7782L86.1812 34.3421L90.5403 34.7213L94.8994 35.1005L95.9901 22.5366L91.631 22.1574ZM35.7423 59.5866L36.124 63.9454L39.7932 63.6247L40.1023 59.9546L35.7423 59.5866ZM31.64 59.9451L27.2814 59.5611L26.8243 64.7581L32.0218 64.3039L31.64 59.9451ZM33.0773 43.6014L32.6956 39.2426L29.0401 39.5621L28.7187 43.2173L33.0773 43.6014ZM43.6804 42.6747L48.039 43.0602L48.4979 37.8616L43.2987 38.316L43.6804 42.6747ZM43.363 46.2714L43.7447 50.6301L47.399 50.3107L47.7215 46.6568L43.363 46.2714ZM36.8621 46.8395L36.4804 42.4808L32.8472 42.7983L32.5058 46.4292L36.8621 46.8395ZM36.5581 50.0736L32.2018 49.6633L31.7104 54.8893L36.9398 54.4323L36.5581 50.0736ZM42.0053 49.5975L46.3662 49.9562L46.7904 44.7872L41.6236 45.2388L42.0053 49.5975ZM41.7103 53.1922L42.092 57.5509L45.7692 57.2296L46.0711 53.5509L41.7103 53.1922ZM36.2406 53.6702L35.8588 49.3115L32.1896 49.6321L31.8805 53.3022L36.2406 53.6702ZM35.7423 59.5866L35.3605 55.2279L31.2583 55.5864L31.64 59.9451L32.0218 64.3039L36.124 63.9454L35.7423 59.5866ZM31.64 59.9451L35.9987 60.3292L37.436 43.9855L33.0773 43.6014L28.7187 43.2173L27.2814 59.5611L31.64 59.9451ZM33.0773 43.6014L33.4591 47.9601L44.0622 47.0335L43.6804 42.6747L43.2987 38.316L32.6956 39.2426L33.0773 43.6014ZM43.6804 42.6747L39.3219 42.2892L39.0044 45.8859L43.363 46.2714L47.7215 46.6568L48.039 43.0602L43.6804 42.6747ZM43.363 46.2714L42.9812 41.9126L36.4804 42.4808L36.8621 46.8395L37.2439 51.1982L43.7447 50.6301L43.363 46.2714ZM36.8621 46.8395L32.5058 46.4292L32.2018 49.6633L36.5581 50.0736L40.9143 50.4839L41.2184 47.2498L36.8621 46.8395ZM36.5581 50.0736L36.9398 54.4323L42.3871 53.9562L42.0053 49.5975L41.6236 45.2388L36.1763 45.7148L36.5581 50.0736ZM42.0053 49.5975L37.6445 49.2388L37.3494 52.8335L41.7103 53.1922L46.0711 53.5509L46.3662 49.9562L42.0053 49.5975ZM41.7103 53.1922L41.3285 48.8334L35.8588 49.3115L36.2406 53.6702L36.6223 58.0289L42.092 57.5509L41.7103 53.1922ZM36.2406 53.6702L31.8805 53.3022L31.3822 59.2186L35.7423 59.5866L40.1023 59.9546L40.6006 54.0382L36.2406 53.6702ZM47.4936 58.5596L47.8753 62.9184L51.5308 62.5989L51.8522 58.9437L47.4936 58.5596ZM43.3913 58.9181L39.0326 58.5341L38.5756 63.7311L43.773 63.2769L43.3913 58.9181ZM44.8286 42.5744L44.4468 38.2156L40.7914 38.5351L40.4699 42.1903L44.8286 42.5744ZM48.9309 42.2159L53.2895 42.5999L53.7466 37.4029L48.5491 37.8571L48.9309 42.2159ZM47.4936 58.5596L47.1118 54.2009L43.0095 54.5594L43.3913 58.9181L43.773 63.2769L47.8753 62.9184L47.4936 58.5596ZM43.3913 58.9181L47.75 59.3022L49.1873 42.9585L44.8286 42.5744L40.4699 42.1903L39.0326 58.5341L43.3913 58.9181ZM44.8286 42.5744L45.2103 46.9331L49.3126 46.5746L48.9309 42.2159L48.5491 37.8571L44.4468 38.2156L44.8286 42.5744ZM48.9309 42.2159L44.5722 41.8318L43.1349 58.1755L47.4936 58.5596L51.8522 58.9437L53.2895 42.5999L48.9309 42.2159ZM59.5138 57.5091L55.6524 59.566L57.0131 62.1198L59.8956 61.8678L59.5138 57.5091ZM54.2697 47.6673L58.1312 45.6104L51.184 32.5724L49.9105 47.2893L54.2697 47.6673ZM53.3716 58.0459L53.7534 62.4046L57.4141 62.0847L57.7308 58.4239L53.3716 58.0459ZM49.5384 58.3809L45.1797 57.9968L44.7227 63.1939L49.9201 62.7396L49.5384 58.3809ZM50.9757 42.0372L50.5939 37.6784L46.9384 37.9979L46.617 41.6531L50.9757 42.0372ZM55.3694 41.6532L59.2348 39.6037L57.8761 37.042L54.9876 37.2944L55.3694 41.6532ZM60.2124 50.7846L56.347 52.8341L63.2705 65.8882L64.5709 51.1705L60.2124 50.7846ZM61.0632 41.1555L60.6815 36.7968L57.0275 37.1161L56.7047 40.7697L61.0632 41.1555ZM64.8965 40.8205L69.2551 41.2046L69.7122 36.0076L64.5147 36.4618L64.8965 40.8205ZM63.4592 57.1643L63.8409 61.523L67.4964 61.2036L67.8178 57.5484L63.4592 57.1643ZM59.5138 57.5091L63.3753 55.4522L58.1312 45.6104L54.2697 47.6673L50.4083 49.7242L55.6524 59.566L59.5138 57.5091ZM54.2697 47.6673L49.9105 47.2893L49.0124 57.6679L53.3716 58.0459L57.7308 58.4239L58.6289 48.0453L54.2697 47.6673ZM53.3716 58.0459L52.9899 53.6872L49.1566 54.0222L49.5384 58.3809L49.9201 62.7396L53.7534 62.4046L53.3716 58.0459ZM49.5384 58.3809L53.8971 58.765L55.3343 42.4212L50.9757 42.0372L46.617 41.6531L45.1797 57.9968L49.5384 58.3809ZM50.9757 42.0372L51.3574 46.3959L55.7511 46.0119L55.3694 41.6532L54.9876 37.2944L50.5939 37.6784L50.9757 42.0372ZM55.3694 41.6532L51.5039 43.7026L56.347 52.8341L60.2124 50.7846L64.0778 48.7351L59.2348 39.6037L55.3694 41.6532ZM60.2124 50.7846L64.5709 51.1705L65.4217 41.5414L61.0632 41.1555L56.7047 40.7697L55.8539 50.3987L60.2124 50.7846ZM61.0632 41.1555L61.445 45.5143L65.2782 45.1793L64.8965 40.8205L64.5147 36.4618L60.6815 36.7968L61.0632 41.1555ZM64.8965 40.8205L60.5378 40.4365L59.1005 56.7802L63.4592 57.1643L67.8178 57.5484L69.2551 41.2046L64.8965 40.8205ZM63.4592 57.1643L63.0774 52.8056L59.1321 53.1504L59.5138 57.5091L59.8956 61.8678L63.8409 61.523L63.4592 57.1643ZM65.4928 56.9866L61.1341 56.6025L60.6771 61.7995L65.8745 61.3453L65.4928 56.9866ZM66.9301 40.6428L66.5483 36.2841L62.8929 36.6035L62.5714 40.2587L66.9301 40.6428ZM76.487 40.6659L74.7186 44.6677L74.7308 44.6731L74.7429 44.6784L76.487 40.6659ZM79.1385 42.8285L75.5473 45.3275L75.5692 45.3589L75.5916 45.3899L79.1385 42.8285ZM79.9744 50.0514L75.7884 48.7769L79.9744 50.0514ZM78.2852 53.2032L74.9332 50.3905L78.2852 53.2032ZM75.4746 55.414L73.4926 51.5129L73.4837 51.5174L73.4749 51.5219L75.4746 55.414ZM70.7188 43.9258L70.3371 39.567L66.696 39.8852L66.3617 43.5247L70.7188 43.9258ZM69.8862 52.9885L65.529 52.5875L65.0498 57.8033L70.2679 57.3473L69.8862 52.9885ZM73.7533 52.2666L75.845 56.11L75.8676 56.0977L75.8901 56.0851L73.7533 52.2666ZM75.1775 50.9901L71.6513 48.399L71.6289 48.4296L71.6069 48.4606L75.1775 50.9901ZM76.0088 49.133L80.2712 50.1221L80.2712 50.1221L76.0088 49.133ZM75.5822 45.0367L79.226 42.6151L75.5822 45.0367ZM74.3184 44.0178L72.5663 48.0267L72.6379 48.058L72.7105 48.0867L74.3184 44.0178ZM71.7695 56.438L71.3877 52.0793L65.111 52.6278L65.4928 56.9866L65.8745 61.3453L72.1512 60.7967L71.7695 56.438ZM65.4928 56.9866L69.8515 57.3706L71.2888 41.0269L66.9301 40.6428L62.5714 40.2587L61.1341 56.6025L65.4928 56.9866ZM66.9301 40.6428L67.3118 45.0015L73.2074 44.4863L72.8257 40.1276L72.4439 35.7688L66.5483 36.2841L66.9301 40.6428ZM72.8257 40.1276L73.2074 44.4863C73.9472 44.4216 74.4112 44.5318 74.7186 44.6677L76.487 40.6659L78.2553 36.6641C76.4009 35.8445 74.424 35.5958 72.4439 35.7688L72.8257 40.1276ZM76.487 40.6659L74.7429 44.6784C75.1073 44.8368 75.3468 45.0394 75.5473 45.3275L79.1385 42.8285L82.7296 40.3295C81.5865 38.6871 80.0583 37.448 78.231 36.6535L76.487 40.6659ZM79.1385 42.8285L75.5916 45.3899C75.7577 45.6199 75.9254 45.9745 75.9807 46.6056L80.3395 46.2247L84.6983 45.8437C84.5232 43.8447 83.8902 41.9352 82.6854 40.2671L79.1385 42.8285ZM80.3395 46.2247L75.9807 46.6056C76.0556 47.4616 75.9728 48.1708 75.7884 48.7769L79.9744 50.0514L84.1604 51.3258C84.7009 49.5496 84.8615 47.7076 84.6983 45.8437L80.3395 46.2247ZM79.9744 50.0514L75.7884 48.7769C75.589 49.432 75.2999 49.9534 74.9332 50.3905L78.2852 53.2032L81.6373 56.0159C82.7978 54.6329 83.6347 53.0531 84.1604 51.3258L79.9744 50.0514ZM78.2852 53.2032L74.9332 50.3905C74.5664 50.8275 74.1032 51.2028 73.4926 51.5129L75.4746 55.414L77.4566 59.3151C79.0664 58.4975 80.4769 57.3989 81.6373 56.0159L78.2852 53.2032ZM75.4746 55.414L73.4749 51.5219C72.9411 51.7961 72.2662 52.0025 71.3877 52.0793L71.7695 56.438L72.1512 60.7967C74.0225 60.6332 75.8177 60.1569 77.4743 59.306L75.4746 55.414ZM70.7188 43.9258L66.3617 43.5247L65.529 52.5875L69.8862 52.9885L74.2433 53.3896L75.0759 44.3268L70.7188 43.9258ZM69.8862 52.9885L70.2679 57.3473L72.2182 57.1768L71.8364 52.8181L71.4547 48.4594L69.5044 48.6298L69.8862 52.9885ZM71.8364 52.8181L72.2182 57.1768C73.4581 57.0685 74.6922 56.7372 75.845 56.11L73.7533 52.2666L71.6616 48.4231C71.6725 48.4173 71.6694 48.4208 71.6431 48.4284C71.6155 48.4363 71.5557 48.4505 71.4547 48.4594L71.8364 52.8181ZM73.7533 52.2666L75.8901 56.0851C77.0243 55.4506 77.9915 54.5877 78.7481 53.5196L75.1775 50.9901L71.6069 48.4606C71.6051 48.4631 71.6056 48.4622 71.6084 48.459C71.6113 48.4558 71.6151 48.4519 71.6193 48.4481C71.6236 48.4443 71.6266 48.4421 71.6273 48.4415C71.628 48.441 71.6248 48.4434 71.6165 48.4481L73.7533 52.2666ZM75.1775 50.9901L78.7037 53.5812C79.4796 52.5252 79.9867 51.3487 80.2712 50.1221L76.0088 49.133L71.7464 48.1439C71.7029 48.3314 71.6558 48.3929 71.6513 48.399L75.1775 50.9901ZM76.0088 49.133L80.2712 50.1221C80.5558 48.8947 80.6094 47.645 80.5016 46.4138L76.1428 46.7947L71.784 47.1757C71.8254 47.6482 71.7896 47.9573 71.7464 48.1439L76.0088 49.133ZM76.1428 46.7947L80.5016 46.4138C80.3919 45.1616 80.0328 43.8287 79.226 42.6151L75.5822 45.0367L71.9385 47.4583C71.7561 47.184 71.7706 47.0231 71.784 47.1757L76.1428 46.7947ZM75.5822 45.0367L79.226 42.6151C78.4133 41.3925 77.2775 40.4829 75.9263 39.9488L74.3184 44.0178L72.7105 48.0867C72.5873 48.038 72.4374 47.9576 72.2862 47.8357C72.1346 47.7135 72.0191 47.5797 71.9385 47.4583L75.5822 45.0367ZM74.3184 44.0178L76.0705 40.0088C74.7223 39.4194 73.335 39.305 72.0856 39.4142L72.4673 43.7729L72.849 48.1317C73.0343 48.1155 72.881 48.1643 72.5663 48.0267L74.3184 44.0178ZM72.4673 43.7729L72.0856 39.4142L70.3371 39.567L70.7188 43.9258L71.1005 48.2845L72.849 48.1317L72.4673 43.7729ZM88.4487 48.6331L88.067 44.2744L85.8785 44.4656L84.725 46.335L88.4487 48.6331ZM94.5461 48.1002L98.7983 47.0698L97.9117 43.414L94.1643 43.7415L94.5461 48.1002ZM95.3239 51.3075L95.7057 55.6662L100.776 55.2231L99.5761 50.277L95.3239 51.3075ZM86.3124 52.0951L82.5886 49.7969L78.0126 57.2125L86.6941 56.4538L86.3124 52.0951ZM94.4925 54.4521L90.2301 55.4399L91.0887 59.1417L94.8742 58.8109L94.4925 54.4521ZM91.843 43.0283L96.1054 42.0405L92.9418 28.4001L87.7762 41.4134L91.843 43.0283ZM87.0501 55.1025L87.4319 59.4613L90.1211 59.2263L91.117 56.7174L87.0501 55.1025ZM82.6789 55.4846L78.6571 53.7605L75.7775 60.4798L83.0606 59.8433L82.6789 55.4846ZM89.8997 38.6354L89.5179 34.2766L86.9093 34.5046L85.8779 36.9113L89.8997 38.6354ZM94.383 38.2435L98.6087 37.1092L97.6568 33.5653L94.0013 33.8848L94.383 38.2435ZM98.6396 54.0897L99.0213 58.4484L104.219 57.9942L102.865 52.9554L98.6396 54.0897ZM88.4487 48.6331L88.8305 52.9918L94.9278 52.459L94.5461 48.1002L94.1643 43.7415L88.067 44.2744L88.4487 48.6331ZM94.5461 48.1002L90.2939 49.1307L91.0717 52.338L95.3239 51.3075L99.5761 50.277L98.7983 47.0698L94.5461 48.1002ZM95.3239 51.3075L94.9422 46.9488L85.9306 47.7363L86.3124 52.0951L86.6941 56.4538L95.7057 55.6662L95.3239 51.3075ZM86.3124 52.0951L90.0361 54.3932L92.1725 50.9313L88.4487 48.6331L84.725 46.335L82.5886 49.7969L86.3124 52.0951ZM94.4925 54.4521L98.7549 53.4644L96.1054 42.0405L91.843 43.0283L87.5807 44.016L90.2301 55.4399L94.4925 54.4521ZM91.843 43.0283L87.7762 41.4134L82.9833 53.4877L87.0501 55.1025L91.117 56.7174L95.9099 44.6432L91.843 43.0283ZM87.0501 55.1025L86.6684 50.7438L82.2971 51.1258L82.6789 55.4846L83.0606 59.8433L87.4319 59.4613L87.0501 55.1025ZM82.6789 55.4846L86.7007 57.2086L93.9215 40.3594L89.8997 38.6354L85.8779 36.9113L78.6571 53.7605L82.6789 55.4846ZM89.8997 38.6354L90.2814 42.9941L94.7648 42.6023L94.383 38.2435L94.0013 33.8848L89.5179 34.2766L89.8997 38.6354ZM94.383 38.2435L90.1574 39.3778L94.4139 55.224L98.6396 54.0897L102.865 52.9554L98.6087 37.1092L94.383 38.2435ZM98.6396 54.0897L98.2578 49.7309L94.1108 50.0934L94.4925 54.4521L94.8742 58.8109L99.0213 58.4484L98.6396 54.0897ZM30.8825 80.0876L26.6546 81.2139L27.6017 84.7664L31.2642 84.4463L30.8825 80.0876ZM28.3932 70.7504L32.621 69.6241L24.0355 70.3546L28.3932 70.7504ZM27.5199 80.3815L27.9017 84.7402L31.5472 84.4216L31.8776 80.7773L27.5199 80.3815ZM23.7988 80.7067L19.4401 80.3226L18.9831 85.5196L24.1805 85.0654L23.7988 80.7067ZM25.2361 64.3629L24.8543 60.0042L21.1988 60.3236L20.8774 63.9788L25.2361 64.3629ZM29.966 63.9495L34.1903 62.8101L33.2352 59.2717L29.5843 59.5908L29.966 63.9495ZM32.9085 74.8508L28.6842 75.9903L31.992 88.2447L36.9381 76.5565L32.9085 74.8508ZM37.8119 63.2638L37.4301 58.9051L34.808 59.1343L33.7822 61.5581L37.8119 63.2638ZM42.7659 62.8309L47.1246 63.2149L47.5817 58.0179L42.3842 58.4721L42.7659 62.8309ZM41.3287 79.1746L41.7104 83.5334L45.3659 83.2139L45.6873 79.5587L41.3287 79.1746ZM37.5851 79.5018L33.2275 79.105L32.7538 84.3161L37.9668 83.8605L37.5851 79.5018ZM38.4709 69.7568L42.8284 70.1536L34.4413 68.051L38.4709 69.7568ZM34.2226 79.7957L34.6043 84.1544L37.2264 83.9253L38.2521 81.5014L34.2226 79.7957ZM30.8825 80.0876L35.1103 78.9612L32.621 69.6241L28.3932 70.7504L24.1653 71.8768L26.6546 81.2139L30.8825 80.0876ZM28.3932 70.7504L24.0355 70.3546L23.1623 79.9856L27.5199 80.3815L31.8776 80.7773L32.7508 71.1463L28.3932 70.7504ZM27.5199 80.3815L27.1382 76.0227L23.417 76.3479L23.7988 80.7067L24.1805 85.0654L27.9017 84.7402L27.5199 80.3815ZM23.7988 80.7067L28.1574 81.0907L29.5947 64.747L25.2361 64.3629L20.8774 63.9788L19.4401 80.3226L23.7988 80.7067ZM25.2361 64.3629L25.6178 68.7216L30.3477 68.3083L29.966 63.9495L29.5843 59.5908L24.8543 60.0042L25.2361 64.3629ZM29.966 63.9495L25.7417 65.089L28.6842 75.9903L32.9085 74.8508L37.1328 73.7114L34.1903 62.8101L29.966 63.9495ZM32.9085 74.8508L36.9381 76.5565L41.8415 64.9696L37.8119 63.2638L33.7822 61.5581L28.8789 73.1451L32.9085 74.8508ZM37.8119 63.2638L38.1936 67.6226L43.1477 67.1896L42.7659 62.8309L42.3842 58.4721L37.4301 58.9051L37.8119 63.2638ZM42.7659 62.8309L38.4073 62.4468L36.97 78.7906L41.3287 79.1746L45.6873 79.5587L47.1246 63.2149L42.7659 62.8309ZM41.3287 79.1746L40.9469 74.8159L37.2033 75.1431L37.5851 79.5018L37.9668 83.8605L41.7104 83.5334L41.3287 79.1746ZM37.5851 79.5018L41.9426 79.8987L42.8284 70.1536L38.4709 69.7568L34.1133 69.3599L33.2275 79.105L37.5851 79.5018ZM38.4709 69.7568L34.4413 68.051L30.193 78.0899L34.2226 79.7957L38.2521 81.5014L42.5005 71.4625L38.4709 69.7568ZM34.2226 79.7957L33.8408 75.4369L30.5007 75.7288L30.8825 80.0876L31.2642 84.4463L34.6043 84.1544L34.2226 79.7957ZM47.7004 72.2706L47.3187 67.9118L45.1302 68.1031L43.9767 69.9724L47.7004 72.2706ZM53.7978 71.7377L58.05 70.7072L57.1634 67.0514L53.416 67.3789L53.7978 71.7377ZM54.5756 74.945L54.9574 79.3037L60.0274 78.8606L58.8278 73.9145L54.5756 74.945ZM45.5641 75.7325L41.8403 73.4344L37.2643 80.85L45.9458 80.0913L45.5641 75.7325ZM53.7442 78.0896L49.4818 79.0773L50.3404 82.7792L54.1259 82.4483L53.7442 78.0896ZM51.0947 66.6657L55.3571 65.678L52.1935 52.0375L47.0279 65.0509L51.0947 66.6657ZM46.3018 78.74L46.6836 83.0987L49.3728 82.8637L50.3687 80.3549L46.3018 78.74ZM41.9306 79.122L37.9088 77.398L35.0292 84.1173L42.3123 83.4808L41.9306 79.122ZM49.1514 62.2728L48.7696 57.9141L46.161 58.1421L45.1296 60.5488L49.1514 62.2728ZM53.6347 61.881L57.8604 60.7467L56.9085 57.2028L53.253 57.5223L53.6347 61.881ZM57.8913 77.7271L58.273 82.0859L63.4705 81.6316L62.117 76.5928L57.8913 77.7271ZM47.7004 72.2706L48.0822 76.6293L54.1795 76.0964L53.7978 71.7377L53.416 67.3789L47.3187 67.9118L47.7004 72.2706ZM53.7978 71.7377L49.5455 72.7682L50.3234 75.9754L54.5756 74.945L58.8278 73.9145L58.05 70.7072L53.7978 71.7377ZM54.5756 74.945L54.1939 70.5862L45.1823 71.3738L45.5641 75.7325L45.9458 80.0913L54.9574 79.3037L54.5756 74.945ZM45.5641 75.7325L49.2878 78.0307L51.4242 74.5687L47.7004 72.2706L43.9767 69.9724L41.8403 73.4344L45.5641 75.7325ZM53.7442 78.0896L58.0065 77.1018L55.3571 65.678L51.0947 66.6657L46.8324 67.6535L49.4818 79.0773L53.7442 78.0896ZM51.0947 66.6657L47.0279 65.0509L42.235 77.1251L46.3018 78.74L50.3687 80.3549L55.1616 68.2806L51.0947 66.6657ZM46.3018 78.74L45.9201 74.3813L41.5488 74.7633L41.9306 79.122L42.3123 83.4808L46.6836 83.0987L46.3018 78.74ZM41.9306 79.122L45.9524 80.8461L53.1732 63.9969L49.1514 62.2728L45.1296 60.5488L37.9088 77.398L41.9306 79.122ZM49.1514 62.2728L49.5331 66.6316L54.0165 66.2397L53.6347 61.881L53.253 57.5223L48.7696 57.9141L49.1514 62.2728ZM53.6347 61.881L49.409 63.0153L53.6656 78.8614L57.8913 77.7271L62.117 76.5928L57.8604 60.7467L53.6347 61.881ZM57.8913 77.7271L57.5095 73.3684L53.3624 73.7308L53.7442 78.0896L54.1259 82.4483L58.273 82.0859L57.8913 77.7271ZM64.5119 77.1485L64.8937 81.5073L68.5533 81.1874L68.871 77.5277L64.5119 77.1485ZM60.4097 77.507L56.0506 77.1279L55.5999 82.3195L60.7914 81.8658L60.4097 77.507ZM61.5004 64.9432L65.8595 65.3224L66.3102 60.1307L61.1186 60.5844L61.5004 64.9432ZM56.7256 65.3605L52.3661 64.9856L51.921 70.1725L57.1073 69.7192L56.7256 65.3605ZM57.0498 61.5825L56.668 57.2238L53.0047 57.544L52.6903 61.2077L57.0498 61.5825ZM70.6791 60.3914L75.0407 60.7407L75.453 55.5821L70.2974 56.0327L70.6791 60.3914ZM70.3774 64.1674L70.7591 68.5261L74.4443 68.204L74.739 64.5167L70.3774 64.1674ZM65.6026 64.5847L65.2209 60.2259L61.5612 60.5458L61.2435 64.2055L65.6026 64.5847ZM64.5119 77.1485L64.1302 72.7898L60.0279 73.1483L60.4097 77.507L60.7914 81.8658L64.8937 81.5073L64.5119 77.1485ZM60.4097 77.507L64.7688 77.8862L65.8595 65.3224L61.5004 64.9432L57.1413 64.564L56.0506 77.1279L60.4097 77.507ZM61.5004 64.9432L61.1186 60.5844L56.3439 61.0017L56.7256 65.3605L57.1073 69.7192L61.8821 69.3019L61.5004 64.9432ZM56.7256 65.3605L61.0851 65.7353L61.4093 61.9574L57.0498 61.5825L52.6903 61.2077L52.3661 64.9856L56.7256 65.3605ZM57.0498 61.5825L57.4315 65.9413L71.0609 64.7501L70.6791 60.3914L70.2974 56.0327L56.668 57.2238L57.0498 61.5825ZM70.6791 60.3914L66.3176 60.0421L66.0158 63.818L70.3774 64.1674L74.739 64.5167L75.0407 60.7407L70.6791 60.3914ZM70.3774 64.1674L69.9956 59.8086L65.2209 60.2259L65.6026 64.5847L65.9844 68.9434L70.7591 68.5261L70.3774 64.1674ZM65.6026 64.5847L61.2435 64.2055L60.1528 76.7693L64.5119 77.1485L68.871 77.5277L69.9617 64.9638L65.6026 64.5847ZM73.5395 75.7949L71.6411 79.7366L71.6746 79.7527L71.7084 79.7683L73.5395 75.7949ZM70.8782 73.5202L67.2679 75.9915L67.2755 76.0025L67.2831 76.0135L70.8782 73.5202ZM69.9983 66.0527L65.796 64.833L65.7919 64.8472L65.7879 64.8614L69.9983 66.0527ZM71.6532 62.7683L68.2046 60.0749L71.6532 62.7683ZM74.3663 60.4757L76.4468 64.3252L76.459 64.3186L76.4712 64.3119L74.3663 60.4757ZM81.6207 59.9998L79.7648 63.9618L79.7649 63.9618L81.6207 59.9998ZM84.2391 62.3009L80.5625 64.6722L80.5753 64.6921L80.5883 64.7118L84.2391 62.3009ZM85.4452 66.0128L85.8269 70.3716L90.1857 69.9906L89.804 65.6319L85.4452 66.0128ZM81.3878 66.3674L77.0473 66.9189L77.5783 71.0924L81.7695 70.7262L81.3878 66.3674ZM80.7706 64.4788L77.0427 66.7688L77.0557 66.79L77.0689 66.811L80.7706 64.4788ZM79.5661 63.3643L77.6139 67.2796L77.6604 67.3029L77.7076 67.325L79.5661 63.3643ZM76.0711 63.6923L73.6626 60.0391L73.6415 60.053L73.6206 60.0671L76.0711 63.6923ZM74.7688 65.0711L71.0527 62.7606L71.0527 62.7606L74.7688 65.0711ZM73.9942 67.0588L78.2738 67.9704L78.2738 67.9704L73.9942 67.0588ZM74.4101 71.2915L70.6561 73.5385L70.6817 73.5814L70.7084 73.6238L74.4101 71.2915ZM75.6165 72.4284L73.5742 76.2976L73.6461 76.3355L73.7194 76.3708L75.6165 72.4284ZM79.7652 71.5689L82.8551 74.6673L82.8735 74.649L82.8917 74.6304L79.7652 71.5689ZM81.1943 68.8012L80.8126 64.4425L77.6709 64.7171L76.9385 67.7843L81.1943 68.8012ZM85.2293 68.4486L89.5489 69.1464L90.4439 63.6008L84.8476 64.0899L85.2293 68.4486ZM83.7717 72.4385L87.4673 74.7817L83.7717 72.4385ZM81.0082 75.1873L83.2604 78.9389L83.2798 78.9273L83.299 78.9155L81.0082 75.1873ZM77.2047 76.378L76.823 72.0193C76.1464 72.0784 75.6997 71.9731 75.3706 71.8214L73.5395 75.7949L71.7084 79.7683C73.5762 80.6293 75.5731 80.9127 77.5865 80.7368L77.2047 76.378ZM73.5395 75.7949L75.4379 71.8531C75.0375 71.6602 74.7338 71.4024 74.4733 71.0269L70.8782 73.5202L67.2831 76.0135C68.4014 77.6257 69.8719 78.8843 71.6411 79.7366L73.5395 75.7949ZM70.8782 73.5202L74.4884 71.0488C74.266 70.7241 74.0834 70.2841 74.0242 69.6086L69.6654 69.9895L65.3066 70.3704C65.483 72.3849 66.1089 74.2987 67.2679 75.9915L70.8782 73.5202ZM69.6654 69.9895L74.0242 69.6086C73.9423 68.6734 74.0235 67.8988 74.2087 67.244L69.9983 66.0527L65.7879 64.8614C65.2832 66.6461 65.1425 68.4961 65.3066 70.3704L69.6654 69.9895ZM69.9983 66.0527L74.2005 67.2724C74.414 66.5367 74.7212 65.9491 75.1018 65.4618L71.6532 62.7683L68.2046 60.0749C67.0957 61.4946 66.2997 63.0967 65.796 64.833L69.9983 66.0527ZM71.6532 62.7683L75.1018 65.4618C75.4753 64.9836 75.9139 64.6131 76.4468 64.3252L74.3663 60.4757L72.2859 56.6262C70.6907 57.4881 69.3206 58.646 68.2046 60.0749L71.6532 62.7683ZM74.3663 60.4757L76.4712 64.3119C76.9845 64.0304 77.5811 63.8415 78.3148 63.7773L77.933 59.4186L77.5513 55.0599C75.6847 55.223 73.9034 55.7389 72.2614 56.6395L74.3663 60.4757ZM77.933 59.4186L78.3148 63.7773C79.0414 63.7138 79.4804 63.8285 79.7648 63.9618L81.6207 59.9998L83.4765 56.0379C81.5939 55.1559 79.5745 54.8831 77.5513 55.0599L77.933 59.4186ZM81.6207 59.9998L79.7649 63.9618C80.088 64.1132 80.3361 64.3214 80.5625 64.6722L84.2391 62.3009L87.9158 59.9295C86.8179 58.2276 85.3204 56.9018 83.4765 56.0379L81.6207 59.9998ZM84.2391 62.3009L80.5883 64.7118C80.7962 65.0266 81.0112 65.5354 81.0864 66.3938L85.4452 66.0128L89.804 65.6319C89.6253 63.5911 89.0362 61.6252 87.89 59.8899L84.2391 62.3009ZM85.4452 66.0128L85.0634 61.6541L81.006 62.0087L81.3878 66.3674L81.7695 70.7262L85.8269 70.3716L85.4452 66.0128ZM81.3878 66.3674L85.7283 65.816C85.574 64.6039 85.2125 63.3213 84.4722 62.1466L80.7706 64.4788L77.0689 66.811C77.0128 66.7219 76.9975 66.6705 77.0019 66.684C77.0069 66.6992 77.0285 66.7718 77.0473 66.9189L81.3878 66.3674ZM80.7706 64.4788L84.4985 62.1888C83.7923 61.0394 82.7768 60.0383 81.4247 59.4036L79.5661 63.3643L77.7076 67.325C77.5367 67.2448 77.3847 67.14 77.2609 67.0254C77.1401 66.9136 77.0721 66.8167 77.0427 66.7688L80.7706 64.4788ZM79.5661 63.3643L81.5184 59.449C80.1695 58.7762 78.7578 58.6137 77.4658 58.7266L77.8476 63.0853L78.2293 67.4441C78.2525 67.442 77.9865 67.4655 77.6139 67.2796L79.5661 63.3643ZM77.8476 63.0853L77.4658 58.7266C76.1191 58.8443 74.8242 59.2734 73.6626 60.0391L76.0711 63.6923L78.4796 67.3456C78.4365 67.374 78.3829 67.401 78.3258 67.4205C78.2696 67.4397 78.2335 67.4437 78.2293 67.4441L77.8476 63.0853ZM76.0711 63.6923L73.6206 60.0671C72.5535 60.7883 71.7034 61.7139 71.0527 62.7606L74.7688 65.0711L78.4849 67.3816C78.5188 67.327 78.5399 67.3042 78.5428 67.3011C78.5449 67.2989 78.5374 67.3069 78.5216 67.3176L76.0711 63.6923ZM74.7688 65.0711L71.0527 62.7606C70.3946 63.8192 69.9656 64.9678 69.7145 66.1472L73.9942 67.0588L78.2738 67.9704C78.3428 67.646 78.4302 67.4694 78.4849 67.3816L74.7688 65.0711ZM73.9942 67.0588L69.7145 66.1471C69.4517 67.3821 69.4017 68.64 69.5111 69.8901L73.8699 69.5091L78.2287 69.1282C78.1838 68.6148 78.2166 68.2391 78.2738 67.9704L73.9942 67.0588ZM73.8699 69.5091L69.5111 69.8901C69.6187 71.118 69.9594 72.3749 70.6561 73.5385L74.4101 71.2915L78.164 69.0445C78.2094 69.1203 78.2303 69.1781 78.2376 69.2022C78.2442 69.2241 78.2354 69.204 78.2287 69.1282L73.8699 69.5091ZM74.4101 71.2915L70.7084 73.6238C71.4038 74.7272 72.361 75.6571 73.5742 76.2976L75.6165 72.4284L77.6587 68.5593C77.7623 68.614 77.8618 68.685 77.9484 68.7665C78.0337 68.8469 78.0857 68.9181 78.1117 68.9593L74.4101 71.2915ZM75.6165 72.4284L73.7194 76.3708C75.0185 76.9961 76.3864 77.1824 77.6943 77.0681L77.3126 72.7094L76.9308 68.3506C76.9468 68.3492 77.0187 68.345 77.132 68.3637C77.2485 68.383 77.3807 68.4221 77.5135 68.4861L75.6165 72.4284ZM77.3126 72.7094L77.6943 77.0681C79.6715 76.8953 81.4483 76.0702 82.8551 74.6673L79.7652 71.5689L76.6753 68.4705C76.674 68.4717 76.7156 68.4322 76.7975 68.3941C76.8794 68.3561 76.9352 68.3503 76.9308 68.3506L77.3126 72.7094ZM79.7652 71.5689L82.8917 74.6304C84.2364 73.2572 85.0319 71.5698 85.4502 69.8182L81.1943 68.8012L76.9385 67.7843C76.8059 68.3396 76.6486 68.4973 76.6387 68.5074L79.7652 71.5689ZM81.1943 68.8012L81.5761 73.16L85.6111 72.8073L85.2293 68.4486L84.8476 64.0899L80.8126 64.4425L81.1943 68.8012ZM85.2293 68.4486L80.9097 67.7507C80.7481 68.752 80.4486 69.5078 80.0762 70.0953L83.7717 72.4385L87.4673 74.7817C88.5502 73.0736 89.2225 71.1694 89.5489 69.1464L85.2293 68.4486ZM83.7717 72.4385L80.0762 70.0953C79.6908 70.7031 79.2421 71.1368 78.7175 71.4591L81.0082 75.1873L83.299 78.9155C85.0036 77.8684 86.3972 76.4696 87.4673 74.7817L83.7717 72.4385ZM81.0082 75.1873L78.756 71.4357C78.2618 71.7323 77.6449 71.9475 76.823 72.0193L77.2047 76.378L77.5865 80.7368C79.604 80.5605 81.5227 79.9818 83.2604 78.9389L81.0082 75.1873ZM89.8141 74.9372L90.1959 79.296L93.8528 78.9764L94.1729 75.3196L89.8141 74.9372ZM85.7118 75.2957L81.3532 74.9117L80.8961 80.1087L86.0936 79.6545L85.7118 75.2957ZM87.1491 58.952L86.7674 54.5932L83.1119 54.9127L82.7905 58.5679L87.1491 58.952ZM91.2514 58.5935L95.6095 58.9841L96.0751 53.7798L90.8697 54.2347L91.2514 58.5935ZM90.7035 64.7175L86.3454 64.3269L85.8798 69.5312L91.0853 69.0762L90.7035 64.7175ZM96.4646 64.214L96.8464 68.5727L100.496 68.2538L100.823 64.6047L96.4646 64.214ZM97.0125 58.09L96.6307 53.7312L92.9809 54.0502L92.6544 57.6993L97.0125 58.09ZM101.115 57.7315L105.473 58.1155L105.93 52.9185L100.733 53.3727L101.115 57.7315ZM99.6775 74.0752L100.059 78.4339L103.715 78.1145L104.036 74.4593L99.6775 74.0752ZM95.5752 74.4337L91.2164 74.0514L90.7616 79.2465L95.9569 78.7925L95.5752 74.4337ZM96.1511 67.8555L100.51 68.2378L100.965 63.0427L95.7693 63.4967L96.1511 67.8555ZM90.39 68.359L90.0082 64.0002L86.3513 64.3198L86.0311 67.9766L90.39 68.359ZM89.8141 74.9372L89.4324 70.5785L85.3301 70.937L85.7118 75.2957L86.0936 79.6545L90.1959 79.296L89.8141 74.9372ZM85.7118 75.2957L90.0705 75.6798L91.5078 59.3361L87.1491 58.952L82.7905 58.5679L81.3532 74.9117L85.7118 75.2957ZM87.1491 58.952L87.5309 63.3107L91.6331 62.9522L91.2514 58.5935L90.8697 54.2347L86.7674 54.5932L87.1491 58.952ZM91.2514 58.5935L86.8933 58.2028L86.3454 64.3269L90.7035 64.7175L95.0616 65.1082L95.6095 58.9841L91.2514 58.5935ZM90.7035 64.7175L91.0853 69.0762L96.8464 68.5727L96.4646 64.214L96.0829 59.8553L90.3218 60.3588L90.7035 64.7175ZM96.4646 64.214L100.823 64.6047L101.371 58.4806L97.0125 58.09L92.6544 57.6993L92.1065 63.8234L96.4646 64.214ZM97.0125 58.09L97.3942 62.4487L101.497 62.0902L101.115 57.7315L100.733 53.3727L96.6307 53.7312L97.0125 58.09ZM101.115 57.7315L96.7561 57.3474L95.3188 73.6911L99.6775 74.0752L104.036 74.4593L105.473 58.1155L101.115 57.7315ZM99.6775 74.0752L99.2957 69.7165L95.1935 70.075L95.5752 74.4337L95.9569 78.7925L100.059 78.4339L99.6775 74.0752ZM95.5752 74.4337L99.934 74.8161L100.51 68.2378L96.1511 67.8555L91.7922 67.4731L91.2164 74.0514L95.5752 74.4337ZM96.1511 67.8555L95.7693 63.4967L90.0082 64.0002L90.39 68.359L90.7717 72.7177L96.5328 72.2142L96.1511 67.8555ZM90.39 68.359L86.0311 67.9766L85.4553 74.5549L89.8141 74.9372L94.1729 75.3196L94.7488 68.7413L90.39 68.359ZM108.614 68.0764L108.996 72.4351L112.337 72.1431L112.922 68.8407L108.614 68.0764ZM105.812 68.3213L101.437 68.3084L101.423 73.0969L106.194 72.68L105.812 68.3213ZM105.842 57.3183L105.46 52.9596L101.478 53.3076L101.467 57.3055L105.842 57.3183ZM110.595 56.903L114.903 57.6673L115.899 52.0473L110.213 52.5442L110.595 56.903ZM109.113 71.9631L105.24 69.9265L105.214 69.9763L105.189 70.0266L109.113 71.9631ZM108.17 73.062L105.636 69.4943L105.609 69.5139L105.581 69.5339L108.17 73.062ZM105.244 73.1821L102.501 76.5903L102.57 76.6462L102.642 76.6992L105.244 73.1821ZM104.825 70.463L100.952 68.4264L100.942 68.4447L100.933 68.463L104.825 70.463ZM105.79 69.3622L103.309 65.7578L103.283 65.776L103.257 65.7946L105.79 69.3622ZM108.718 69.2644L105.906 72.6159L105.94 72.6446L105.975 72.6726L108.718 69.2644ZM108.614 68.0764L108.232 63.7176L105.43 63.9625L105.812 68.3213L106.194 72.68L108.996 72.4351L108.614 68.0764ZM105.812 68.3213L110.187 68.3341L110.218 57.3311L105.842 57.3183L101.467 57.3055L101.437 68.3084L105.812 68.3213ZM105.842 57.3183L106.224 61.677L110.976 61.2617L110.595 56.903L110.213 52.5442L105.46 52.9596L105.842 57.3183ZM110.595 56.903L106.286 56.1386L104.306 67.312L108.614 68.0764L112.922 68.8407L114.903 57.6673L110.595 56.903ZM109.398 70.5829L105.04 70.9638C105.024 70.788 105.033 70.595 105.074 70.399C105.114 70.2043 105.178 70.0447 105.24 69.9265L109.113 71.9631L112.986 73.9997C113.592 72.8466 113.875 71.5506 113.757 70.2019L109.398 70.5829ZM109.113 71.9631L105.189 70.0266C105.239 69.9246 105.307 69.8187 105.393 69.7189C105.478 69.6196 105.564 69.5456 105.636 69.4943L108.17 73.062L110.703 76.6296C111.69 75.9291 112.49 75.0083 113.037 73.8996L109.113 71.9631ZM108.17 73.062L105.581 69.5339C105.714 69.4364 105.865 69.3552 106.024 69.2971C106.181 69.2397 106.315 69.216 106.409 69.2077L106.791 73.5665L107.173 77.9252C108.437 77.8147 109.672 77.3869 110.758 76.5901L108.17 73.062ZM106.791 73.5665L106.409 69.2077C106.51 69.1989 106.72 69.195 106.999 69.2643C107.288 69.3362 107.583 69.4703 107.846 69.6651L105.244 73.1821L102.642 76.6992C104.07 77.7561 105.7 78.054 107.173 77.9252L106.791 73.5665ZM105.244 73.1821L107.987 69.774C108.235 69.9736 108.478 70.2523 108.658 70.6026C108.836 70.947 108.903 71.2616 108.922 71.4828L104.564 71.8637L100.205 72.2447C100.349 73.8949 101.1 75.4626 102.501 76.5903L105.244 73.1821ZM104.564 71.8637L108.922 71.4828C108.932 71.5952 108.931 71.7512 108.897 71.9357C108.862 72.1221 108.8 72.3018 108.717 72.4631L104.825 70.463L100.933 68.463C100.312 69.6712 100.093 70.9711 100.205 72.2447L104.564 71.8637ZM104.825 70.463L108.698 72.4996C108.658 72.5763 108.602 72.6599 108.531 72.7413C108.46 72.8225 108.387 72.885 108.324 72.9298L105.79 69.3622L103.257 65.7946C102.291 66.4804 101.508 67.3698 100.952 68.4264L104.825 70.463ZM105.79 69.3622L108.271 72.9666C108.189 73.0231 108.08 73.0827 107.948 73.1305C107.816 73.1784 107.687 73.2046 107.573 73.2145L107.192 68.8557L106.81 64.497C105.537 64.6082 104.349 65.0423 103.309 65.7578L105.79 69.3622ZM107.192 68.8557L107.573 73.2145C107.476 73.223 107.237 73.2301 106.913 73.1433C106.572 73.0519 106.218 72.8776 105.906 72.6159L108.718 69.2644L111.53 65.913C110.05 64.6709 108.303 64.3666 106.81 64.497L107.192 68.8557ZM108.718 69.2644L105.975 72.6726C105.727 72.473 105.484 72.1943 105.304 71.844C105.126 71.4996 105.059 71.185 105.04 70.9638L109.398 70.5829L113.757 70.2019C113.613 68.5517 112.862 66.984 111.461 65.8563L108.718 69.2644Z" fill="#FEFFFA" mask="url(#path-1-outside-1_337_12894)"/>
</svg>
