<svg xmlns="http://www.w3.org/2000/svg" width="84" height="104" fill="none" viewBox="0 0 84 104"><path fill="#ee333f" d="M35.259 99.256a9 9 0 0 1-1.336-.101 5 5 0 0 1-1.108-.304c-2.914-1.167-5.023-4.04-5.943-6.144l-.277-.632-3.222-7.344q-.005-.015-.012-.028a75 75 0 0 0-.357-.818l-.167-.38-5.932-13.533-5.58-12.73q-.001-.006-.005-.013l-.45-1.027-.438-1.002c-.295-.67-.605-1.36-.906-2.027-.363-.808-.74-1.643-1.106-2.482a6 6 0 0 1-.087-.204c-1.639-3.923-3.316-8.648-3.397-13.99a28 28 0 0 1 .005-1.011l.002-.073a29 29 0 0 1 .077-1.339C5.943 22.99 13.542 13.367 24.379 9.56l.073-.025.065-.022a33 33 0 0 1 4.249-1.105c4.566-2.398 9.749-3.661 15.044-3.661.752 0 1.517.026 2.27.077q.033.001.065.004c6.012.484 11.84 2.462 16.851 5.721a36.1 36.1 0 0 1 9.722 9.26q.146.203.29.408l.032.048.242.355s.094.137.103.153a34 34 0 0 1 2 3.43 32.6 32.6 0 0 1 2.67 7.208q.027.106.05.215c1.163 5.067 1.02 10.265-.416 15.035l-.024.078c-.718 2.244-1.799 4.554-3.4 7.27l-.044.073q-.876 1.424-1.757 2.847l-.042.067-.316.498c-.44.695-.894 1.413-1.325 2.11l-1.718 2.786L54.46 86.068l-.05.085-.073.122-1.277 2.069q-.93 1.51-1.863 3.02-.098.16-.21.312l-.01.014q-.05.07-.104.138c-1.116 1.414-2.643 2.532-4.425 3.24l-7.46 3.338a5 5 0 0 1-.497.192 7.9 7.9 0 0 1-3.233.659z"/><path fill="#ee333f" d="M43.811 9.493q.957 0 1.924.065c5.189.418 10.269 2.171 14.503 4.925a31.4 31.4 0 0 1 8.992 8.842q.954 1.442 1.727 2.963a28 28 0 0 1 2.281 6.124l.05.21c.97 4.212.914 8.582-.332 12.719-.706 2.205-1.776 4.289-2.976 6.323q-.882 1.433-1.766 2.862c-.558.882-1.12 1.765-1.667 2.649l-16.349 26.51q-.038.066-.084.138-.01.015-.014.028l-3.142 5.09-.01.015c-.612.776-1.473 1.379-2.468 1.758l-7.57 3.387c.007-.01.121-.132.26-.281a2.77 2.77 0 0 1-1.779.687l-.135.002q-.29 0-.55-.04c-1.46-.585-2.779-2.425-3.294-3.604q-1.75-3.992-3.502-7.982-.264-.61-.534-1.22L15.864 55.395c-.295-.68-.595-1.358-.89-2.038-.666-1.512-1.365-3.02-2.026-4.54q-.011-.02-.019-.043c-1.668-3.986-3-8.031-3.066-12.347l-.001-.259q0-.288.006-.578.01-.285.027-.569.016-.285.038-.568c.755-9.062 6.957-17.212 16.136-20.436l.016-.005a27.4 27.4 0 0 1 4.38-1.08 28 28 0 0 1 4.512-.363q1.48 0 2.97.155a29 29 0 0 0-3.125-.17c-1.473 0-2.901.115-4.281.336 3.9-2.179 8.472-3.398 13.267-3.398m21.574 31.759v.003l-.002.01v.036c-.003.132.001.266.001.398v.006q0 .078-.002.153v.028q.002-.09.002-.181v-.006a11 11 0 0 0-.001-.398l.001-.046zM31.517 71.132l.021-.044-.01-.019-.02.044q.006.01.009.02m-2.92 5.876.268-.54-.001-.002zm8.574 16.81q.292-.25.53-.56c-.082.089-.332.35-.53.56M43.808 0c-5.864 0-11.613 1.343-16.735 3.898a38 38 0 0 0-4.164 1.129l-.078.026q-.072.023-.143.048C10.046 9.541 1.18 20.766.104 33.695q-.001.023-.004.045c-.022.277-.038.515-.05.745-.018.285-.028.54-.036.748l-.005.146a31 31 0 0 0-.007 1.196c.095 6.132 2.039 11.575 3.74 15.65q.066.163.138.327c.374.856.753 1.696 1.12 2.509.309.687.602 1.336.888 1.986l.439 1.005.442 1.01.011.024q2.739 6.247 5.475 12.493 3.017 6.888 6.037 13.775l.168.382q.173.393.342.785l.025.058 2.986 6.804.514 1.174c.645 1.473 1.616 3.012 2.735 4.332 1.7 2.007 3.67 3.468 5.852 4.342a10 10 0 0 0 2.213.606 14 14 0 0 0 2.58.156h.013c1.634-.054 3.2-.395 4.65-1.006q.348-.126.69-.279l7.371-3.298c2.545-1.032 4.738-2.656 6.361-4.711q.099-.127.195-.255l.01-.014q.23-.314.435-.645l1.878-3.044 1.261-2.044q.06-.096.118-.194l.026-.043 16.298-26.43c.416-.673.844-1.348 1.296-2.062l.32-.505.05-.08.013-.022c.58-.936 1.178-1.904 1.767-2.864l.089-.145c1.783-3.023 2.998-5.634 3.825-8.217l.047-.153c1.662-5.524 1.835-11.524.5-17.358l-.066-.288-.003-.013-.017-.071a37.2 37.2 0 0 0-3.027-8.139 39 39 0 0 0-2.332-3.986L77.387 18l-.235-.345-.073-.104q-.157-.225-.318-.448A41 41 0 0 0 65.747 6.615a41 41 0 0 0-9.116-4.417A41.6 41.6 0 0 0 46.423.091a39 39 0 0 0-2.62-.089z"/><path fill="#3a294b" stroke="#fff" stroke-miterlimit="10" stroke-width=".119" d="M31.278 78.872q-.113.25-.223.499l.221-.502zm2.217-4.981-.018.04-.008-.017.017-.04z"/><path stroke="#000" stroke-miterlimit="10" stroke-width=".03" d="m28.224 88.978-.015.076c0 .012-.005.024-.006.036m-3.16-2.249v-.002"/><path fill="#86d6f7" stroke="#fff" stroke-miterlimit="10" stroke-width=".119" d="M31.278 78.872q-.113.25-.223.499l.221-.502zm2.217-4.981-.018.04-.008-.017.017-.04z"/><path fill="#3a294b" stroke="#fff" stroke-miterlimit="10" stroke-width=".119" d="m33.495 73.891-.018.04-.008-.017.017-.04z"/><path fill="#86d6f7" stroke="#fff" stroke-miterlimit="10" stroke-width=".119" d="m33.495 73.891-.018.04-.008-.017.017-.04z"/><path fill="#86d6f7" stroke="#fff" stroke-miterlimit="10" stroke-width="1.661" d="M61.384 44.14c-.008.189.006.376-.003.565.003.078 0 .153 0 .229a25 25 0 0 1-.118 2.065c-.683 6.93-5.007 13-8.323 19.006q-3.861 6.99-7.72 13.982l-4.448 8.055-.041.077-1.242 2.249c-.323.586-.626 1.296-1.042 1.887-.01.018.043.402.045.843 0 .283-.652.887-.414.722l6.133-3.66c.761-.496 1.376-1.143 1.884-1.86l.01-.013q1.301-2.357 2.604-4.713l.012-.026.069-.127 13.56-24.538c.453-.819.92-1.635 1.383-2.452q.734-1.324 1.464-2.65c.995-1.884 1.884-3.811 2.468-5.853 1.032-3.83 1.08-7.875.275-11.773l-.041-.195a28 28 0 0 0-1.89-5.668 28 28 0 0 0-1.435-2.743q-.125-.207-.25-.41-.108-.173-.218-.342a27.6 27.6 0 0 0-6.99-7.433c-3.513-2.548-7.726-4.17-12.03-4.557a20.8 20.8 0 0 0-12.602 3.084 20.8 20.8 0 0 1 6.143-.153h.002q.18.021.36.046l.227.031.34.054q.117.018.23.039c.11.016.216.038.325.057q.396.074.789.163c5.383 1.193 10.028 4.213 13.53 8.231l.048.058q.347.4.674.81.107.13.21.263a28.7 28.7 0 0 1 3.528 5.725 28 28 0 0 1 1.724 4.983 26 26 0 0 1 .576 3.169q.016.116.028.23l.003.03a16 16 0 0 1 .073.76q.03.334.047.667.01.183.017.361a27 27 0 0 1 .022.723z"/><path fill="#86d6f7" stroke="#fff" stroke-miterlimit="10" stroke-width="1.661" d="M23.203 35.094v.07q-.001.165.008.33.004.149.014.296c.202 3.054 1.762 5.957 3.335 8.552a102 102 0 0 0 .97 1.57c.395.605.79 1.195 1.168 1.773.517.791 1.028 1.593 1.535 2.398.985 1.487 1.978 2.967 2.957 4.456.417.633.893 1.415 1.45 2.159l.004.003c.904 1.17 2.217 2.451 3.789 2.523 1.71.079 2.753-1.457 3.734-2.578l1.111-1.273c-2.2-1.642-3.969-5.14-5.077-7.042-3.227-4.644-7.688-10.222-7.803-15.84l-.003-.264v-.229q0-.023.002-.045l.011-.25.004-.063.005-.051q.01-.139.023-.275v-.03l.025-.18q.026-.218.068-.431l.04-.21.002-.01q.026-.127.056-.25l.06-.23a7.8 7.8 0 0 1 1.56-2.966 8.7 8.7 0 0 0-3.81.558 10 10 0 0 0-.693.303 8 8 0 0 0-.982.563 8 8 0 0 0-2.058 1.96 7 7 0 0 0-.614.992q-.043.082-.084.167-.056.115-.11.233a8 8 0 0 0-.275.704 8 8 0 0 0-.304 1.21 8 8 0 0 0-.118 1.39z"/><path fill="#ee3324" d="M61.341 43.885c-.454 0-.835-.343-.86-.785a23 23 0 0 0-.044-.642c-.04-.456.31-.857.782-.898l.078-.004a.85.85 0 0 1 .858.754c.02.21.037.44.049.704.022.457-.344.845-.818.869h-.045z"/><path fill="#fff" d="M61.298 40.727q-.078 0-.155.007c-.947.08-1.647.883-1.566 1.795.02.22.033.444.043.615.05.885.81 1.571 1.721 1.571q.045 0 .089-.002c.949-.047 1.68-.822 1.636-1.736-.013-.276-.03-.52-.051-.743-.084-.86-.835-1.506-1.716-1.506z"/><path fill="#ee3324" d="M61.285 43.112a.85.85 0 0 1-.859-.766 20 20 0 0 0-.061-.626c-.052-.455.288-.866.762-.917a.85.85 0 0 1 .953.734c.02.187.048.432.068.686.033.457-.322.853-.796.888l-.066.002z"/><path fill="#fff" d="M61.224 39.968q-.095 0-.192.01c-.946.101-1.629.922-1.525 1.833.023.207.043.404.059.602.071.87.826 1.53 1.717 1.53q.066 0 .131-.005c.948-.068 1.66-.86 1.592-1.773a20 20 0 0 0-.07-.718c-.099-.85-.845-1.477-1.713-1.477z"/><path fill="#e376ae" d="M36.396 94.27q-.32 0-.613-.05a1 1 0 0 1-.208-.064c-1.618-.723-2.785-2.799-3.177-3.796l-2.903-7.39-.419-1.07-.022-.058q-2.588-6.584-5.173-13.172l-4.376-11.143-.74-1.886a206 206 0 0 0-.778-1.941 209 209 0 0 1-.898-2.25q-.019-.044-.032-.086c-1.247-3.328-2.528-7.314-2.586-11.676l-.002-.252q0-.274.005-.55c.006-.19.013-.371.022-.552q.013-.27.033-.54c.662-8.866 6.12-16.568 13.91-19.625l.052-.02a22 22 0 0 1 3.78-1.036 22 22 0 0 1 6.459-.2q.195.02.387.05l.236.031.34.054.24.04h.005l.22.04.12.02c.266.05.542.107.82.17 5.3 1.192 10.13 4.127 13.97 8.488l.061.07c.227.26.459.533.703.836l.17.21.048.063a29.55 29.55 0 0 1 5.343 10.824q.03.116.058.235a27 27 0 0 1 .751 4.963q.011.188.019.373c.01.24.016.483.02.7a21 21 0 0 1-.001.866c-.087 4.296-1.333 8.393-4.038 13.288l-4.734 8.576-7.49 13.565-4.489 8.132-1.242 2.25q-.522.942-1.041 1.886l-.047.075c-.703 1.003-1.56 1.51-2.623 1.55zm-1.055-38.05c1.12 1.49 2.138 2.184 3.2 2.184h.056c1.514-.032 3.184-2.248 4.081-3.44l.03-.038.229-.306c.378-.504.736-.98 1.06-1.352.612-.698 1.258-1.406 1.881-2.09 2.029-2.226 4.127-4.529 5.594-7.041a9.73 9.73 0 0 0 1.31-5.109v-.02c0-1.266-.278-2.497-.847-3.769q-.007-.014-.012-.029a2 2 0 0 0-.06-.131l-.013-.029-.046-.096-.032-.066a10.7 10.7 0 0 0-1.95-2.803c-1.224-1.276-2.863-2.22-4.498-2.592l-.026-.005a8 8 0 0 0-.555-.121 6.3 6.3 0 0 0-1.1-.101c-1.516 0-2.823.596-3.884 1.772l-.111.125-.12.144a7 7 0 0 0-.233.297.88.88 0 0 1-.704.351l-.052-.001a.87.87 0 0 1-.707-.435 7.8 7.8 0 0 0-1.086-1.496 6.8 6.8 0 0 0-2.508-1.712 7.1 7.1 0 0 0-2.023-.468l-.035-.003a7.8 7.8 0 0 0-3.42.503 7 7 0 0 0-.607.266l-.016.007a7 7 0 0 0-.871.5 7.3 7.3 0 0 0-1.474 1.286 7 7 0 0 0-.817 1.158l-.007.013q-.052.09-.096.18l-.015.027a2 2 0 0 0-.072.14 6 6 0 0 0-.214.488 7 7 0 0 0-.398 1.426 7.5 7.5 0 0 0-.109 1.27v.063q0 .145.007.29v.014q.004.134.012.263c.203 3.405 2.158 6.659 4.15 9.702l.032.05a179 179 0 0 0 2.69 4.152c.004.004.309.486.309.486 1.228 1.942 2.499 3.95 3.86 5.81l.188.25q.016.018.028.037z"/><path fill="#fff" d="M36.162 17.595q1.227 0 2.464.143.182.021.36.046l.229.031.338.054.232.039q.163.027.324.057.397.075.789.163c5.348 1.202 10.003 4.232 13.515 8.227q.027.027.051.056.352.403.686.818.106.13.211.262a28.65 28.65 0 0 1 5.246 10.739 26 26 0 0 1 .609 3.37l.003.031a20 20 0 0 1 .073.76q.03.332.047.666.01.182.017.362a27 27 0 0 1 .021.74q.006.287 0 .573.001.104-.001.203c-.096 4.715-1.65 8.774-3.937 12.912l-4.504 8.159q-3.863 6.991-7.72 13.982l-4.449 8.055-.04.078c-.415.748-.829 1.5-1.243 2.248q-.522.944-1.041 1.887c-.454.648-1.041 1.15-1.94 1.183l-.108.002q-.242 0-.459-.038c-1.21-.54-2.304-2.244-2.733-3.334l-2.904-7.39-.443-1.128c-3.184-8.104-6.364-16.21-9.549-24.316l-.74-1.885c-.551-1.4-1.131-2.796-1.681-4.202l-.015-.04c-1.384-3.687-2.49-7.433-2.543-11.427q-.002-.12-.002-.241 0-.269.006-.534a24 24 0 0 1 .053-1.052c.625-8.388 5.77-15.932 13.383-18.916l.015-.005a21 21 0 0 1 3.634-1 21 21 0 0 1 3.742-.335m2.379 41.637h.076c1.836-.039 3.473-2.075 4.76-3.782l.03-.039c.466-.618.885-1.192 1.25-1.608 2.586-2.951 5.593-5.879 7.568-9.26a10.5 10.5 0 0 0 1.42-5.534v-.005c0-1.31-.28-2.67-.917-4.093a2 2 0 0 0-.084-.185q-.041-.09-.085-.18a11.6 11.6 0 0 0-2.103-3.023c-1.336-1.393-3.106-2.42-4.932-2.835a8 8 0 0 0-.619-.136 7 7 0 0 0-1.261-.115c-1.633 0-3.223.604-4.536 2.057q-.065.07-.127.143-.064.074-.128.153-.135.162-.263.337a9 9 0 0 0-.83-1.227 8 8 0 0 0-.763-.819 7.7 7.7 0 0 0-2.435-1.538 8 8 0 0 0-2.275-.526l-.036-.003a8.75 8.75 0 0 0-5.485 1.424 7.96 7.96 0 0 0-2.555 2.736q-.062.109-.116.216-.045.082-.084.166-.058.115-.111.234a8 8 0 0 0-.275.703 8 8 0 0 0-.303 1.21 8 8 0 0 0-.118 1.39v.07q-.001.166.007.33.005.149.015.296c.216 3.623 2.278 7.03 4.3 10.118l.004.004a182 182 0 0 0 2.703 4.171c1.354 2.138 2.702 4.295 4.19 6.327q.103.142.215.288l.004.004c.998 1.327 2.257 2.53 3.901 2.53m-2.378-43.298a22.8 22.8 0 0 0-7.98 1.44q-.04.013-.08.029c-8.085 3.178-13.753 11.155-14.437 20.329q-.02.288-.034.563-.015.281-.022.56v.016c-.004.192-.006.377-.006.566l.002.268c.062 4.475 1.362 8.537 2.631 11.925q.02.06.046.12c.294.754.6 1.514.898 2.248.256.636.522 1.294.776 1.938l.359.914.38.97q2.182 5.55 4.36 11.1l5.19 13.216q.223.561.44 1.123l.003.006q1.454 3.694 2.903 7.389c.467 1.187 1.754 3.42 3.62 4.254q.202.09.417.127.37.065.768.065l.17-.002c1.342-.049 2.454-.693 3.309-1.915q.051-.073.093-.15l1.04-1.885 1.243-2.248.028-.052.011-.021.026-.049 4.425-8.012 7.358-13.328.361-.655 2.233-4.044 2.271-4.114c2.77-5.014 4.047-9.227 4.138-13.655q.003-.103.002-.24.005-.273 0-.544 0-.07-.002-.138a31 31 0 0 0-.022-.703q-.008-.189-.019-.384a23 23 0 0 0-.06-.853 24 24 0 0 0-.062-.626l-.008-.08-.029-.242q-.029-.24-.065-.496a28 28 0 0 0-.61-3.059 30.4 30.4 0 0 0-5.487-11.115l-.008-.01-.047-.059q-.088-.112-.177-.22a28 28 0 0 0-.717-.854l-.072-.082a28.8 28.8 0 0 0-6.438-5.468 26 26 0 0 0-8.837-3.462l-.026-.005-.103-.019-.229-.039-.258-.044-.16-.025-.18-.028-.031-.005-.102-.014-.117-.016a14 14 0 0 0-.43-.054 23 23 0 0 0-2.644-.152zm-10.296 15.79q.12-.192.247-.365l.008-.012q.145-.201.328-.41l.005-.006q.162-.189.356-.378.423-.412.93-.748l.02-.013a4 4 0 0 1 .24-.153q.256-.155.518-.281l.03-.015c.082-.041.178-.084.251-.116l.011-.005q.124-.055.261-.107a7 7 0 0 1 .422-.147l.012-.003a6.9 6.9 0 0 1 2.59-.3l.041.005c.614.05 1.208.187 1.768.408l.007.002q.168.066.353.154a6 6 0 0 1 1.528 1.037l.006.006a6 6 0 0 1 .598.642c.102.126.192.245.277.368l.007.008q.207.297.388.617a1.73 1.73 0 0 0 1.52.874c.557 0 1.083-.26 1.408-.703a6 6 0 0 1 .411-.501c.891-.986 1.98-1.486 3.234-1.486a5.5 5.5 0 0 1 1.43.193l.052.013c1.473.334 2.953 1.19 4.062 2.345a9.9 9.9 0 0 1 1.804 2.591l.032.067q.018.035.034.072l.026.055q.03.061.037.08l.024.054c.522 1.166.776 2.29.776 3.434v.044a8.9 8.9 0 0 1-1.202 4.685c-1.423 2.436-3.49 4.704-5.488 6.896-.626.688-1.274 1.399-1.892 2.104-.346.395-.712.883-1.099 1.4l-.23.304-.004.006-.007.01-.005.007s-.009.01-.013.017c-.633.84-2.315 3.072-3.4 3.096h-.038c-.753 0-1.572-.603-2.504-1.844l-.005-.007-.033-.042-.171-.23c-1.342-1.834-2.605-3.83-3.826-5.76l-.297-.47-.02-.03a180 180 0 0 1-2.678-4.133q-.025-.04-.052-.078c-1.928-2.947-3.817-6.09-4.007-9.282l-.001-.022q-.007-.099-.011-.229v-.026a5 5 0 0 1-.005-.252v-.063a6.7 6.7 0 0 1 .164-1.465 6.3 6.3 0 0 1 .47-1.354l.02-.042.036-.073.02-.038q.048-.094.086-.162l.014-.024c.04-.072.086-.149.131-.222z"/></svg>