<svg width="84" height="104" viewBox="0 0 84 104" fill="none" xmlns="http://www.w3.org/2000/svg">
<path d="M35.2588 99.2558C34.8053 99.2558 34.3555 99.2214 33.923 99.1549C33.5422 99.0956 33.1701 98.9936 32.8152 98.8513C29.9008 97.6839 27.7924 94.8117 26.8719 92.7072L26.5946 92.0748C25.5213 89.6274 24.4467 87.1776 23.3734 84.7313C23.3697 84.7219 23.3648 84.7124 23.3611 84.7029C23.2441 84.43 23.1245 84.1583 23.0037 83.8855L22.8374 83.5058C20.8608 78.9965 18.883 74.4848 16.9052 69.972C15.0457 65.7284 13.1862 61.4848 11.3254 57.2413C11.3242 57.2377 11.3217 57.233 11.3205 57.2294C11.1714 56.8866 11.0211 56.5449 10.8707 56.202C10.7241 55.8675 10.5774 55.5341 10.432 55.1996C10.1375 54.5293 9.82698 53.84 9.52631 53.1733C9.16278 52.3654 8.78571 51.5302 8.41972 50.6915C8.38891 50.6227 8.36055 50.555 8.33344 50.4874C6.6945 46.5641 5.01739 41.8389 4.93606 36.4968C4.93483 36.39 4.93359 36.2809 4.93359 36.1694C4.93359 35.9404 4.93483 35.715 4.94099 35.486C4.94099 35.4611 4.94223 35.4374 4.94346 35.4125C4.95209 35.1906 4.96071 34.9723 4.97427 34.7529C4.98659 34.5334 5.00136 34.3151 5.01861 34.0956C5.01861 34.0885 5.01862 34.0814 5.01985 34.0743C5.94283 22.989 13.5423 13.3666 24.379 9.55959C24.4036 9.55128 24.427 9.54298 24.4517 9.53468C24.4739 9.52756 24.4948 9.52044 24.517 9.51332C25.9033 9.05064 27.3315 8.67932 28.7659 8.40765C33.3315 6.01004 38.5145 4.74658 43.8096 4.74658C44.5625 4.74658 45.3265 4.77268 46.0807 4.8237C46.1016 4.82488 46.1238 4.82725 46.1447 4.82843C52.157 5.31246 57.9845 7.29012 62.9962 10.549C66.8212 13.0344 70.0929 16.1498 72.7177 19.8096C72.8162 19.9449 72.9111 20.0801 73.0072 20.2166C73.0183 20.232 73.0294 20.2486 73.0405 20.2652C73.1218 20.3826 73.2007 20.5013 73.282 20.6199C73.282 20.6199 73.3757 20.7575 73.3855 20.7729C74.12 21.8822 74.794 23.0365 75.3855 24.2039C76.5488 26.4817 77.4434 28.8828 78.0374 31.3314C78.0411 31.3469 78.0559 31.4109 78.0559 31.4109C78.0731 31.4821 78.0904 31.5533 78.1052 31.6257C79.2685 36.6925 79.1243 41.8911 77.6887 46.6614C77.6813 46.6875 77.6726 46.7124 77.6653 46.7385C76.9468 48.9831 75.8661 51.2929 74.2654 54.0085C74.2506 54.0334 74.2358 54.0571 74.221 54.082C73.6369 55.0323 73.0504 55.9802 72.4638 56.9293C72.4638 56.9293 72.4305 56.9827 72.4219 56.9957L72.1064 57.494C71.6665 58.1892 71.2118 58.9069 70.7805 59.6045L69.0627 62.39C64.1952 70.2828 59.3277 78.1768 54.4602 86.0684C54.4441 86.0956 54.4269 86.1241 54.4097 86.1526C54.3862 86.1941 54.3616 86.2345 54.3369 86.2748L53.0603 88.3438C52.4392 89.351 51.8182 90.357 51.1971 91.3642C51.1318 91.471 51.0615 91.5742 50.9876 91.6762L50.9777 91.6905C50.9432 91.7367 50.9088 91.783 50.873 91.8281C49.7566 93.2422 48.2298 94.3597 46.4479 95.068L38.9876 98.4064C38.8238 98.4799 38.6587 98.544 38.4911 98.5985C37.5792 98.9972 36.5909 99.219 35.5582 99.2522C35.4523 99.2558 35.3549 99.257 35.2576 99.257L35.2588 99.2558Z" fill="#EE333F"/>
<path d="M43.8113 9.49316C44.4484 9.49316 45.0904 9.5145 45.7348 9.5584C50.924 9.97599 56.0035 11.7294 60.2376 14.4829C63.6128 16.6753 66.4507 19.4241 68.6651 22.5121C68.7539 22.6355 68.8401 22.7565 68.9276 22.8811C69.0287 23.0282 69.1285 23.1753 69.2295 23.3248C69.8654 24.2845 70.4433 25.2751 70.9572 26.2883C71.9615 28.2541 72.728 30.3124 73.2381 32.4122C73.2542 32.4822 73.2726 32.5522 73.2874 32.6222C74.2585 36.8337 74.2018 41.2042 72.9559 45.341C72.2498 47.5464 71.1802 49.6297 69.98 51.6643C69.3934 52.6193 68.8032 53.5731 68.2141 54.5257C67.6559 55.4084 67.094 56.291 66.5469 57.1748C61.0977 66.0119 55.6486 74.8491 50.1982 83.685C50.1723 83.7289 50.1452 83.7751 50.1144 83.8226C50.1094 83.8333 50.1021 83.8416 50.0996 83.8511C49.0522 85.5487 48.0047 87.2452 46.9585 88.9417L46.9487 88.9559C46.3362 89.7318 45.4748 90.3345 44.4804 90.7141L36.9093 94.1011C36.9167 94.0904 37.0312 93.9694 37.1705 93.8199C36.7096 94.215 36.1391 94.4831 35.3911 94.5068C35.3455 94.508 35.2999 94.5092 35.2556 94.5092C35.0621 94.5092 34.8797 94.4962 34.7059 94.4689C33.2469 93.884 31.9271 92.044 31.4121 90.8648C30.2463 88.205 29.0781 85.5416 27.9099 82.883C27.7349 82.4773 27.555 82.0704 27.3763 81.6634C23.5378 72.9082 19.7029 64.1517 15.8644 55.3953C15.5686 54.7155 15.2692 54.037 14.9734 53.3572C14.308 51.8446 13.6093 50.3379 12.9476 48.817C12.9414 48.804 12.934 48.7886 12.9291 48.7743C11.2606 44.7882 9.92849 40.7427 9.86318 36.4268C9.86195 36.3402 9.86195 36.2548 9.86195 36.1682C9.86195 35.9748 9.86318 35.7838 9.86811 35.5904C9.87551 35.3994 9.8829 35.2108 9.89522 35.021C9.90508 34.8312 9.91864 34.6425 9.93343 34.4527C10.6876 25.3914 16.8896 17.2412 26.0689 14.0167C26.0738 14.0155 26.0787 14.0131 26.0849 14.012C27.3283 13.5944 28.6123 13.2622 29.9235 13.0249C30.1046 12.9917 30.2845 12.9597 30.4657 12.9312C31.9432 12.6915 33.4527 12.5693 34.9771 12.5693C35.9629 12.5693 36.9549 12.6204 37.9468 12.7236C36.8858 12.6085 35.8434 12.5539 34.8218 12.5539C33.3492 12.5539 31.921 12.669 30.5409 12.8897C34.441 10.7115 39.0128 9.49197 43.8076 9.49197M20.7738 26.9194C20.8983 26.7415 21.0289 26.5659 21.1657 26.3986C21.0276 26.5647 20.897 26.7403 20.7738 26.9194ZM65.2653 39.2396C65.2455 39.0036 65.2172 38.7675 65.1876 38.5349C65.2172 38.7698 65.2443 39.0036 65.2653 39.2396ZM65.3318 40.0736C65.3183 39.834 65.3022 39.5932 65.2751 39.3535C65.2985 39.5932 65.317 39.834 65.3318 40.0736ZM65.3811 41.2505C65.3811 41.2505 65.3811 41.2529 65.3811 41.2541C65.3811 41.2576 65.3811 41.26 65.3799 41.2647V41.3003C65.3774 41.432 65.3811 41.5661 65.3811 41.6978V41.7037C65.3811 41.7559 65.3811 41.8069 65.3787 41.8567C65.3787 41.8662 65.3799 41.8757 65.3799 41.8852C65.3811 41.8247 65.3811 41.7642 65.3811 41.7037V41.6978C65.3836 41.5661 65.3823 41.432 65.3799 41.3003C65.3799 41.2849 65.3811 41.2695 65.3811 41.2541C65.3811 41.2529 65.3811 41.2517 65.3811 41.2505ZM31.518 71.1322C31.5254 71.118 31.5328 71.1026 31.539 71.0883C31.5365 71.0824 31.5316 71.0753 31.5291 71.0693C31.523 71.0836 31.5156 71.0978 31.5082 71.1133C31.5131 71.1192 31.5156 71.1263 31.518 71.1322ZM28.5975 77.0082C28.6863 76.8291 28.7762 76.6476 28.8662 76.4684C28.8662 76.4684 28.8658 76.4676 28.8649 76.466C28.7762 76.6464 28.6863 76.8279 28.5975 77.0082ZM37.1717 93.8176C37.3677 93.6515 37.5414 93.4629 37.7016 93.2576C37.6203 93.3466 37.3701 93.6088 37.1717 93.8176ZM43.8076 0C37.9444 0 32.1946 1.34294 27.0732 3.89834C25.6672 4.19374 24.271 4.57218 22.9093 5.02656C22.8834 5.03486 22.8576 5.04435 22.8305 5.05265C22.7824 5.06807 22.7356 5.08469 22.6875 5.1013C10.0456 9.5418 1.18054 20.7658 0.103522 33.6947C0.103522 33.7101 0.101054 33.7243 0.0998219 33.7397C0.0776409 34.0173 0.061602 34.2546 0.0492792 34.4848C0.0320273 34.7695 0.0221943 35.0257 0.0135683 35.2333C0.0111038 35.282 0.00986667 35.3306 0.00863439 35.3793C0.00247298 35.6248 0 35.8752 0 36.1682C0 36.3058 2.40685e-06 36.4387 0.00246697 36.5751C0.0973526 42.7073 2.04067 48.1503 3.74122 52.2242C3.78558 52.3334 3.83116 52.4425 3.88045 52.5516C4.25383 53.4082 4.63338 54.2481 4.99937 55.0608C5.30867 55.7477 5.60195 56.3966 5.88784 57.0467C6.03325 57.3813 6.1799 57.7158 6.32654 58.0516C6.47441 58.3885 6.62227 58.7254 6.76891 59.0623C6.77261 59.0706 6.77631 59.0789 6.78001 59.0861C8.60625 63.2501 10.4312 67.4154 12.255 71.5795C14.2673 76.1706 16.2784 80.763 18.292 85.3542L18.4596 85.7362C18.5742 85.9984 18.69 86.2593 18.8021 86.5215C18.8108 86.5405 18.8182 86.5595 18.8268 86.5785C19.8225 88.8456 20.8181 91.1151 21.8126 93.3834L22.3265 94.5567C22.9722 96.0301 23.9432 97.5688 25.0621 98.8892C26.7627 100.896 28.7318 102.357 30.9142 103.231C31.6252 103.516 32.3671 103.72 33.1274 103.837C33.82 103.945 34.5334 104 35.2519 104C35.4022 104 35.555 103.998 35.7078 103.993C35.7115 103.993 35.7164 103.993 35.7201 103.993C37.3541 103.939 38.9204 103.598 40.3695 102.987C40.6024 102.903 40.8316 102.81 41.0596 102.708L48.4311 99.41C50.9758 98.3779 53.1692 96.7538 54.7921 94.699C54.8587 94.6148 54.9227 94.5294 54.9868 94.444L54.9967 94.4297C55.1507 94.2209 55.2949 94.0062 55.4317 93.7855C56.0577 92.7712 56.6837 91.7557 57.3097 90.7414C57.7299 90.0604 58.1501 89.3794 58.5715 88.6973C58.611 88.6332 58.6504 88.568 58.6886 88.5027C58.6972 88.4885 58.7058 88.4743 58.7145 88.46C64.1476 79.6514 69.5807 70.8404 75.0126 62.0306C75.4291 61.3567 75.8567 60.6817 76.309 59.9675L76.6281 59.4633C76.6454 59.436 76.6614 59.4099 76.6787 59.3826L76.6922 59.3613C77.2714 58.4253 77.8703 57.4572 78.4593 56.4974C78.4889 56.4488 78.5184 56.4002 78.548 56.3515C80.3311 53.3287 81.5462 50.7176 82.373 48.1349C82.389 48.0839 82.4051 48.0328 82.4199 47.9818C84.0822 42.4582 84.2547 36.4577 82.9202 30.6244C82.8918 30.4974 82.8684 30.3966 82.8536 30.3361L82.8512 30.323C82.8462 30.2993 82.8401 30.2756 82.8339 30.2519C82.1561 27.458 81.1383 24.7199 79.8074 22.1135C79.1346 20.7884 78.3706 19.4786 77.5376 18.2211C77.5166 18.1891 77.4957 18.1582 77.4747 18.1274L77.3872 17.9993C77.3084 17.8842 77.2307 17.7691 77.1519 17.654C77.1272 17.6184 77.1038 17.5841 77.0791 17.5497C76.9732 17.399 76.8684 17.2519 76.7612 17.1024C73.7865 12.9597 70.081 9.43147 65.7471 6.61508C62.94 4.79047 59.8716 3.30398 56.6307 2.19831C53.3541 1.08077 49.9628 0.374883 46.5506 0.100837C46.5087 0.0972776 46.4656 0.0937238 46.4225 0.0913511C45.5537 0.0320337 44.6739 0.00237501 43.8039 0.00237501L43.8076 0Z" fill="#EE333F"/>
<path d="M31.2777 78.8715C31.2026 79.0376 31.1286 79.2049 31.0547 79.371C31.1286 79.2037 31.2026 79.0364 31.2765 78.8691C31.2765 78.8691 31.2769 78.8699 31.2777 78.8715Z" fill="#3A294B" stroke="white" stroke-width="0.118635" stroke-miterlimit="10"/>
<path d="M33.4946 73.8913C33.4897 73.9044 33.4835 73.9186 33.4774 73.9317C33.4749 73.9257 33.4724 73.9198 33.4688 73.9139C33.4749 73.8996 33.4811 73.8866 33.486 73.8735C33.4885 73.8795 33.4922 73.8854 33.4946 73.8913Z" fill="#3A294B" stroke="white" stroke-width="0.118635" stroke-miterlimit="10"/>
<path d="M28.2242 88.978C28.218 89.0041 28.213 89.0291 28.2093 89.054C28.2093 89.0658 28.2044 89.0777 28.2031 89.0896" stroke="black" stroke-width="0.0296587" stroke-miterlimit="10"/>
<path d="M25.043 86.8413V86.8394" stroke="black" stroke-width="0.0296587" stroke-miterlimit="10"/>
<path d="M31.2777 78.8715C31.2026 79.0376 31.1286 79.2049 31.0547 79.371C31.1286 79.2037 31.2026 79.0364 31.2765 78.8691C31.2765 78.8691 31.2769 78.8699 31.2777 78.8715Z" fill="#86D6F7" stroke="white" stroke-width="0.118635" stroke-miterlimit="10"/>
<path d="M33.4946 73.8913C33.4897 73.9044 33.4835 73.9186 33.4774 73.9317C33.4749 73.9257 33.4724 73.9198 33.4688 73.9139C33.4749 73.8996 33.4811 73.8866 33.486 73.8735C33.4885 73.8795 33.4922 73.8854 33.4946 73.8913Z" fill="#86D6F7" stroke="white" stroke-width="0.118635" stroke-miterlimit="10"/>
<path d="M33.4946 73.8913C33.4897 73.9044 33.4835 73.9186 33.4774 73.9317C33.4749 73.9257 33.4724 73.9198 33.4688 73.9139C33.4749 73.8996 33.4811 73.8866 33.486 73.8735C33.4885 73.8795 33.4922 73.8854 33.4946 73.8913Z" fill="#3A294B" stroke="white" stroke-width="0.118635" stroke-miterlimit="10"/>
<path d="M33.4946 73.8913C33.4897 73.9044 33.4835 73.9186 33.4774 73.9317C33.4749 73.9257 33.4724 73.9198 33.4688 73.9139C33.4749 73.8996 33.4811 73.8866 33.486 73.8735C33.4885 73.8795 33.4922 73.8854 33.4946 73.8913Z" fill="#86D6F7" stroke="white" stroke-width="0.118635" stroke-miterlimit="10"/>
<path d="M61.3838 44.1402C61.3764 44.3289 61.39 44.5163 61.3814 44.7049C61.3838 44.7832 61.3814 44.858 61.3814 44.9339C61.3703 45.6244 61.3308 46.3125 61.263 46.9993C60.5804 53.9288 56.2563 59.9993 52.9402 66.0046C50.366 70.6658 47.7917 75.3258 45.22 79.9869C43.7375 82.6728 42.2551 85.3563 40.7715 88.0422C40.7567 88.0695 40.7443 88.0932 40.7308 88.1193C40.3167 88.8679 39.9027 89.6189 39.4886 90.3675C39.1658 90.9535 38.8626 91.6642 38.4474 92.255C38.4375 92.2728 38.4905 92.6571 38.4917 93.0984C38.4917 93.3808 37.8399 93.9846 38.0777 93.8197L44.2107 90.1599C44.9723 89.664 45.5872 89.0174 46.0949 88.2997L46.1047 88.2866C46.9723 86.7147 47.841 85.1452 48.7086 83.5745C48.7123 83.5662 48.7172 83.5578 48.7209 83.5483C48.7456 83.5033 48.7689 83.4606 48.7899 83.4214C53.3099 75.2415 57.8299 67.0629 62.3499 58.883C62.8034 58.0644 63.2692 57.2482 63.7325 56.4308C64.2217 55.5482 64.7097 54.6655 65.1965 53.7805C66.1922 51.8966 67.0807 49.97 67.6648 47.9283C68.6974 44.0987 68.7455 40.0533 67.9396 36.1549C67.9272 36.0897 67.9124 36.0256 67.8989 35.9604C67.4762 34.0159 66.8416 32.1119 66.0085 30.292C65.5822 29.3548 65.1028 28.4377 64.5742 27.5492C64.4904 27.4115 64.4078 27.2739 64.324 27.1387C64.2513 27.0236 64.1799 26.9097 64.1059 26.797C62.2686 23.9379 59.9137 21.3944 57.1152 19.3645C53.6032 16.8163 49.39 15.1933 45.0857 14.8066C40.5312 14.4614 36.1504 15.6074 32.4844 17.8911C34.424 17.5459 36.4806 17.4794 38.6273 17.7381H38.6285C38.7493 17.7523 38.8688 17.7677 38.9883 17.7843C39.0647 17.795 39.1399 17.8045 39.2163 17.8152C39.3284 17.8318 39.443 17.8508 39.5552 17.8686C39.6341 17.8804 39.7105 17.8947 39.7869 17.9077C39.8953 17.9243 40.0025 17.9457 40.1109 17.9647C40.3747 18.0145 40.6384 18.0679 40.8996 18.1284C46.2834 19.3206 50.9279 22.3411 54.43 26.3593C54.4461 26.3794 54.4621 26.3984 54.4781 26.4174C54.7086 26.6831 54.9353 26.9536 55.1522 27.2277C55.2236 27.3131 55.2926 27.4032 55.3629 27.4898C56.7652 29.2599 57.9507 31.1924 58.8897 33.2152C59.5908 34.7574 60.1503 36.3542 60.5606 37.9855C60.5804 38.0578 60.5976 38.1278 60.6136 38.1978C60.8318 39.0876 61.0043 39.9868 61.1275 40.892C61.1509 41.0498 61.1719 41.2076 61.1903 41.3666C61.2014 41.4437 61.2101 41.5208 61.2175 41.5967C61.2187 41.6074 61.2212 41.6169 61.2212 41.6276C61.2458 41.8435 61.2692 42.0618 61.2852 42.2801C61.2902 42.3145 61.2938 42.35 61.2938 42.3868C61.3148 42.6087 61.3296 42.8317 61.3407 43.0536C61.3481 43.1757 61.353 43.2956 61.3579 43.4154C61.369 43.6526 61.374 43.8899 61.3789 44.126C61.3789 44.1307 61.3789 44.1343 61.3801 44.1379L61.3838 44.1402Z" fill="#86D6F7" stroke="white" stroke-width="1.66089" stroke-miterlimit="10"/>
<path d="M23.2031 35.0944V35.1644C23.2031 35.2747 23.2044 35.3839 23.2105 35.4942C23.2142 35.5939 23.2179 35.6911 23.2253 35.7896C23.4274 38.8445 24.9875 41.7474 26.5599 44.342C26.8778 44.8675 27.2006 45.3895 27.5272 45.908C27.5272 45.908 27.5284 45.9092 27.5309 45.9115C27.9252 46.5166 28.3195 47.1074 28.6978 47.6851C29.2154 48.4764 29.7256 49.2784 30.2333 50.0827C31.2179 51.5704 32.2111 53.0498 33.1895 54.5386C33.6073 55.1722 34.0829 55.954 34.6399 56.6978C34.6412 56.6978 34.6411 56.699 34.6436 56.7014C35.5481 57.8711 36.8605 59.1524 38.4329 59.2235C40.1433 59.303 41.1858 57.7667 42.1667 56.6456C42.5376 56.2209 42.9085 55.7974 43.2782 55.3727C41.0773 53.7307 39.309 50.2322 38.2012 48.3305C34.9739 43.6871 30.513 38.1089 30.3984 32.4916C30.3972 32.4038 30.3947 32.3148 30.3947 32.227V32.1926C30.3947 32.1285 30.3947 32.0633 30.3959 31.998C30.3959 31.9826 30.3959 31.9684 30.3972 31.953C30.4009 31.8711 30.4046 31.7881 30.4083 31.7038C30.4095 31.6837 30.4095 31.6611 30.412 31.6398L30.4169 31.5888C30.4218 31.4962 30.4317 31.4049 30.4403 31.3135V31.2839C30.4489 31.2233 30.4563 31.164 30.4649 31.1035C30.4822 30.9576 30.5056 30.8153 30.5327 30.6729C30.5451 30.6029 30.5598 30.5317 30.5734 30.4629C30.5746 30.4593 30.5746 30.4558 30.5746 30.4522C30.5919 30.368 30.6116 30.2861 30.6313 30.2031C30.651 30.126 30.6707 30.0489 30.6917 29.9729C31.0059 28.8329 31.5481 27.8399 32.2505 27.0071C31.1476 26.9181 30.0299 27.0498 28.9751 27.3796C28.7964 27.4365 28.6178 27.4982 28.4416 27.5647C28.3245 27.6097 28.2062 27.6572 28.0903 27.7094C27.9757 27.7592 27.8624 27.8126 27.749 27.8672C27.521 27.9775 27.2992 28.0973 27.0836 28.2278C26.9751 28.2931 26.8691 28.3595 26.7656 28.4307C26.3442 28.7095 25.9487 29.0251 25.5851 29.3798C25.4262 29.534 25.2733 29.6953 25.1267 29.8662C24.9801 30.0346 24.8396 30.2102 24.7077 30.3917C24.5956 30.546 24.4859 30.7073 24.3824 30.8722C24.3233 30.9683 24.2653 31.0668 24.2099 31.1676C24.1692 31.24 24.131 31.3123 24.0941 31.3835C24.0657 31.4381 24.0374 31.4938 24.0103 31.5496C23.9733 31.6267 23.9351 31.7038 23.8994 31.7833C23.8513 31.8901 23.8069 31.998 23.7638 32.106C23.7133 32.2317 23.6677 32.3587 23.6246 32.4868C23.5395 32.7431 23.4644 33.0088 23.404 33.2817C23.3732 33.4169 23.3448 33.5569 23.3214 33.6969C23.2734 33.9769 23.2388 34.2651 23.2204 34.5605C23.2093 34.7361 23.2044 34.9129 23.2031 35.0873V35.0944Z" fill="#86D6F7" stroke="white" stroke-width="1.66089" stroke-miterlimit="10"/>
<path d="M61.3413 43.885C60.8866 43.885 60.5058 43.5421 60.4812 43.0996C60.4701 42.9086 60.4565 42.6844 60.4368 42.4578C60.3961 42.0022 60.7461 41.6012 61.2193 41.5597C61.2452 41.5573 61.2711 41.5562 61.2969 41.5562C61.7381 41.5562 62.1127 41.8788 62.1546 42.3095C62.1755 42.5207 62.1916 42.7508 62.2039 43.0142C62.2261 43.4709 61.8601 43.8589 61.3857 43.8826C61.3709 43.8826 61.3561 43.8826 61.3413 43.8826V43.885Z" fill="#EE3324"/>
<path d="M61.2956 42.3874C61.3165 42.6093 61.3313 42.8323 61.3424 43.0542C61.3301 42.8323 61.3153 42.6093 61.2956 42.3874ZM61.298 40.7266C61.2463 40.7266 61.1945 40.7289 61.1428 40.7337C60.1964 40.8143 59.4965 41.6175 59.5766 42.5286C59.5963 42.7481 59.6098 42.9735 59.6197 43.1443C59.6702 44.0294 60.4305 44.7151 61.3412 44.7151C61.3708 44.7151 61.4003 44.7151 61.4299 44.7127C62.3788 44.6664 63.1107 43.8905 63.0664 42.9771C63.0528 42.7006 63.0356 42.4574 63.0146 42.2344C62.9308 41.3743 62.1804 40.7277 61.2993 40.7277L61.298 40.7266Z" fill="white"/>
<path d="M61.2851 43.1117C60.839 43.1117 60.4619 42.7807 60.4262 42.3465C60.4089 42.1389 60.3892 41.9337 60.3646 41.7201C60.3128 41.2646 60.6529 40.8541 61.1274 40.8031C61.1594 40.7995 61.1914 40.7983 61.2235 40.7983C61.6572 40.7983 62.0306 41.1127 62.0799 41.5374C62.1009 41.7237 62.128 41.9693 62.1477 42.2231C62.181 42.6799 61.8261 43.0761 61.3516 43.1105C61.3295 43.1117 61.3085 43.1129 61.2863 43.1129L61.2851 43.1117Z" fill="#EE3324"/>
<path d="M61.2218 41.6287C61.2465 41.8446 61.2699 42.0629 61.2859 42.2812C61.2687 42.0629 61.2465 41.8469 61.2218 41.6287ZM61.2243 39.9678C61.1602 39.9678 61.0974 39.9713 61.032 39.9784C60.0857 40.0793 59.403 40.9002 59.5065 41.8113C59.5299 42.0178 59.5496 42.2147 59.5656 42.4128C59.6371 43.2824 60.3925 43.9432 61.2834 43.9432C61.3266 43.9432 61.3709 43.942 61.414 43.9385C62.3617 43.8697 63.0739 43.0772 63.0062 42.1649C62.9864 41.9003 62.9581 41.6417 62.9359 41.4471C62.8373 40.5977 62.0906 39.9701 61.2231 39.9701L61.2243 39.9678Z" fill="white"/>
<path d="M36.396 94.2706C36.184 94.2706 35.9782 94.2529 35.7835 94.2196C35.712 94.2066 35.6418 94.1852 35.5753 94.1556C33.9573 93.4331 32.7903 91.357 32.3984 90.3604C31.4323 87.8976 30.4638 85.4335 29.4952 82.9707C29.356 82.6124 29.2155 82.2565 29.0762 81.9006L29.054 81.8425C27.3288 77.4518 25.6049 73.0611 23.8809 68.6704C22.4231 64.956 20.9641 61.2415 19.5051 57.5271C19.3782 57.202 18.7645 55.6408 18.7645 55.6408C18.5106 54.9954 18.2445 54.337 17.9869 53.6999C17.6899 52.9644 17.3831 52.2039 17.0886 51.4494C17.0763 51.421 17.0664 51.3925 17.0565 51.364C15.8095 48.0363 14.5291 44.0502 14.4712 39.688C14.47 39.6085 14.4688 39.5231 14.4688 39.4365C14.4688 39.2526 14.47 39.0699 14.4737 38.886C14.4798 38.6962 14.4872 38.5147 14.4959 38.3343C14.5045 38.154 14.5156 37.9737 14.5291 37.7934C15.1909 28.9278 20.6499 21.226 28.4391 18.1688C28.4588 18.1605 28.4761 18.1546 28.4909 18.1498C29.5691 17.7465 30.6794 17.4285 31.7946 17.2031C31.9696 17.1675 32.1261 17.1367 32.2703 17.113C33.542 16.8828 34.8544 16.7642 36.1643 16.7642C37.0109 16.7642 37.8685 16.814 38.7139 16.9113C38.7188 16.9113 38.725 16.9113 38.7299 16.9125C38.8605 16.9267 38.9887 16.9433 39.1168 16.9623C39.1168 16.9623 39.3485 16.9931 39.3534 16.9943L39.6923 17.0477C39.7737 17.0607 39.8525 17.0738 39.9326 17.088H39.9375C40.0115 17.1011 40.0854 17.1141 40.1581 17.1272C40.1581 17.1272 40.2752 17.1486 40.2789 17.1486C40.5438 17.1984 40.8199 17.2553 41.0971 17.3182C46.3984 18.5105 51.2289 21.4455 55.0675 25.8065C55.0884 25.8302 55.1094 25.8528 55.1291 25.8765C55.3558 26.1351 55.5875 26.4092 55.8315 26.7117C55.8894 26.7805 55.9449 26.8517 56.0015 26.9229L56.0496 26.9845C58.5548 30.1829 60.402 33.9247 61.3928 37.8088C61.4137 37.8871 61.4334 37.9642 61.4507 38.0437C61.675 38.9429 61.8536 39.8635 61.983 40.7818C62.0065 40.9419 62.0274 41.1057 62.0471 41.2694C62.057 41.3394 62.0668 41.4189 62.0742 41.4972C62.0767 41.5161 62.0792 41.5375 62.0816 41.56C62.1063 41.7747 62.126 41.9824 62.1432 42.1912C62.1506 42.2445 62.1543 42.2944 62.1568 42.3442C62.1777 42.5815 62.1913 42.8116 62.2024 43.0074C62.2098 43.1319 62.2147 43.2565 62.2209 43.3799C62.2319 43.6195 62.2369 43.8627 62.2418 44.0798C62.2443 44.113 62.2443 44.1451 62.2431 44.1783C62.2455 44.361 62.2455 44.5449 62.2431 44.7276C62.2443 44.8011 62.2431 44.8735 62.2406 44.9459C62.1531 49.2416 60.9073 53.3393 58.2024 58.2341L53.468 66.8103C50.9714 71.3314 48.4736 75.8538 45.9782 80.3749C44.5007 83.0513 43.0244 85.7254 41.5457 88.4018C41.5407 88.4113 41.489 88.5074 41.489 88.5074L40.2469 90.7567C39.8993 91.3854 39.5518 92.0142 39.2056 92.643C39.1908 92.6691 39.176 92.694 39.1587 92.7177C38.4563 93.7214 37.5987 94.2279 36.5364 94.2671C36.4872 94.2683 36.4403 94.2695 36.3947 94.2695L36.396 94.2706ZM35.3411 56.2185C36.4613 57.7086 37.4791 58.4026 38.5414 58.4026C38.5598 58.4026 38.5783 58.4026 38.5968 58.4026C40.1113 58.3706 41.781 56.1545 42.6781 54.9634L42.7077 54.9254L42.9369 54.6193C43.3152 54.1151 43.6726 53.6382 43.9979 53.2669C44.6091 52.5693 45.2548 51.8611 45.8784 51.1766C47.9067 48.951 50.0053 46.6483 51.4717 44.1356C52.3712 42.5803 52.8247 40.8138 52.7816 39.0272C52.7816 39.0201 52.7816 39.0141 52.7816 39.007C52.7816 37.7412 52.5043 36.5097 51.935 35.238C51.9313 35.2285 51.9264 35.219 51.9227 35.2095C51.9055 35.1656 51.8845 35.1217 51.8635 35.0778C51.8586 35.0683 51.8549 35.0588 51.85 35.0493C51.8352 35.0173 51.8204 34.9853 51.8044 34.9533L51.7723 34.8868C51.2819 33.863 50.6251 32.9187 49.8217 32.0835C48.598 30.8081 46.9591 29.8638 45.3238 29.4925C45.3152 29.4901 45.3066 29.4878 45.298 29.4866C45.1242 29.4415 44.9381 29.4011 44.7434 29.3656C44.3713 29.2991 44.0004 29.2647 43.643 29.2647C42.1273 29.2647 40.8198 29.8614 39.7588 31.0371C39.7169 31.0822 39.6812 31.1225 39.648 31.1617C39.6073 31.2103 39.5666 31.2578 39.5272 31.3064C39.4459 31.4049 39.3694 31.5022 39.2955 31.603C39.1328 31.8237 38.8704 31.9542 38.5906 31.9542C38.5734 31.9542 38.5562 31.9542 38.5389 31.953C38.2407 31.9352 37.9733 31.7703 37.8316 31.5176C37.6985 31.2791 37.5518 31.0466 37.3978 30.8283C37.2992 30.686 37.1957 30.5507 37.0823 30.4095C36.9813 30.285 36.8716 30.1592 36.7459 30.0216C36.6338 29.9018 36.5167 29.7843 36.4009 29.6776C35.8784 29.19 35.2918 28.7914 34.6535 28.49C34.5093 28.4212 34.3701 28.3607 34.2383 28.3097C33.595 28.057 32.9148 27.8992 32.2148 27.8423C32.205 27.8423 32.1815 27.8387 32.1803 27.8387C31.9819 27.8221 31.7786 27.8138 31.5765 27.8138C30.7903 27.8138 30.0054 27.9348 29.2438 28.1733C29.1009 28.2172 28.9542 28.2682 28.7595 28.3417C28.6548 28.3809 28.5513 28.4236 28.4539 28.4675C28.3652 28.5066 28.2555 28.5553 28.152 28.6075C28.1471 28.6099 28.1422 28.6122 28.1372 28.6146C27.9376 28.7107 27.738 28.8187 27.5445 28.9361C27.4447 28.9954 27.3547 29.0535 27.266 29.1141C26.8741 29.3739 26.5192 29.6586 26.2013 29.9682C26.051 30.1141 25.9179 30.2553 25.7922 30.4012C25.6529 30.5614 25.5272 30.7192 25.4163 30.8722C25.3128 31.0122 25.2167 31.1546 25.1255 31.3017C25.0762 31.3823 25.022 31.4713 24.9752 31.5591C24.9727 31.5639 24.9703 31.5686 24.9678 31.5722C24.9333 31.6315 24.9025 31.692 24.8717 31.7513C24.8692 31.7572 24.8606 31.7727 24.8569 31.7786C24.8347 31.8189 24.815 31.8593 24.7953 31.9008C24.7928 31.9067 24.7891 31.9138 24.7854 31.9198C24.7521 31.9862 24.7213 32.0526 24.6905 32.1214C24.6536 32.2045 24.6141 32.2958 24.571 32.4074C24.5254 32.5201 24.4847 32.6339 24.4465 32.7466C24.3664 32.9851 24.2999 33.2247 24.2469 33.462C24.2149 33.6079 24.1914 33.7254 24.173 33.8333C24.1286 34.0908 24.0978 34.3541 24.0805 34.6211C24.0719 34.767 24.0658 34.9307 24.0645 35.1027V35.1656C24.0645 35.2629 24.0658 35.359 24.0707 35.4563C24.0707 35.4598 24.0707 35.4669 24.0707 35.4705C24.0744 35.5595 24.0768 35.6461 24.083 35.7327C24.2863 39.1375 26.2408 42.3917 28.2321 45.4346C28.2444 45.4512 28.2555 45.4679 28.2654 45.4845C29.0183 46.6886 29.8488 47.9699 30.9554 49.6367C30.9591 49.6414 31.2635 50.1231 31.2635 50.1231C32.4921 52.0651 33.7626 54.0724 35.1243 55.9326C35.1834 56.0133 35.2463 56.0975 35.3116 56.1829C35.3214 56.1948 35.3313 56.2067 35.3399 56.2197L35.3411 56.2185Z" fill="#E376AE"/>
<path d="M36.1622 17.5945C36.9792 17.5945 37.8023 17.642 38.6255 17.7381H38.6267C38.7475 17.7523 38.867 17.7678 38.9865 17.7844C39.0629 17.7951 39.1381 17.8045 39.2145 17.8152C39.3267 17.8318 39.4413 17.8508 39.5534 17.8686C39.6323 17.8805 39.7087 17.8947 39.7851 17.9077C39.8935 17.9255 40.0007 17.9457 40.1092 17.9647C40.3729 18.0145 40.6366 18.0691 40.8978 18.1284C46.2459 19.3302 50.9015 22.3601 54.4135 26.3546C54.4307 26.3735 54.448 26.3925 54.464 26.4115C54.6994 26.6796 54.9273 26.9525 55.1504 27.2289C55.2219 27.3143 55.2909 27.4045 55.3611 27.4911C57.7998 30.604 59.5866 34.2248 60.5539 38.0152C60.5736 38.0875 60.5909 38.1575 60.6069 38.2299C60.8263 39.1113 60.9988 39.9999 61.1257 40.8956C61.1491 41.0534 61.1688 41.2112 61.1886 41.3701C61.1997 41.4473 61.2083 41.5244 61.2157 41.6003C61.2169 41.611 61.2194 41.6205 61.2194 41.6312C61.244 41.8494 61.2662 42.0654 61.2835 42.2836C61.2884 42.3181 61.2921 42.3536 61.2921 42.3904C61.3118 42.6123 61.3266 42.8353 61.3389 43.0571C61.3463 43.1793 61.3512 43.2992 61.3561 43.419C61.3672 43.6562 61.3722 43.8935 61.3771 44.1296C61.3783 44.1403 61.3783 44.1486 61.3771 44.1593C61.3808 44.3503 61.3808 44.5424 61.3771 44.7323C61.3783 44.8011 61.3771 44.8675 61.3759 44.9351C61.2798 49.6497 59.7258 53.7094 57.4387 57.8473C55.9366 60.5676 54.4369 63.2856 52.9348 66.0059C50.3605 70.667 47.7863 75.327 45.2145 79.9882C43.7321 82.6741 42.2496 85.3576 40.766 88.0435C40.7512 88.0707 40.7389 88.0945 40.7253 88.1206C40.3113 88.8691 39.8972 89.6201 39.4832 90.3687C39.1357 90.9975 38.7869 91.6274 38.4419 92.2562C37.9884 92.9039 37.4006 93.4069 36.5023 93.439C36.4653 93.4401 36.4296 93.4413 36.3939 93.4413C36.2324 93.4413 36.0796 93.4283 35.9354 93.4034C34.7241 92.8624 33.6311 91.1588 33.2022 90.0686C32.2349 87.6057 31.2663 85.1416 30.2977 82.6788C30.1511 82.3027 30.0032 81.9266 29.8554 81.5506C26.6711 73.4466 23.4906 65.3415 20.3064 57.2352C20.06 56.6064 19.8123 55.9776 19.5658 55.3501C19.015 53.9502 18.4346 52.5539 17.885 51.148C17.88 51.1362 17.8739 51.1219 17.8702 51.1089C16.4863 47.4205 15.3797 43.6752 15.3268 39.6808C15.3255 39.6001 15.3255 39.5206 15.3255 39.44C15.3255 39.2608 15.3268 39.0841 15.3305 38.9061C15.3354 38.7293 15.3428 38.5538 15.3514 38.3794C15.3601 38.2038 15.3711 38.0294 15.3835 37.8538C16.0095 29.4663 21.1542 21.9224 28.7672 18.9375C28.7709 18.9363 28.7759 18.9339 28.7821 18.9328C29.8135 18.546 30.8781 18.2387 31.9662 18.0193C32.1166 17.9884 32.2657 17.9588 32.416 17.9339C33.6409 17.712 34.8941 17.5981 36.1585 17.5981M38.5368 59.2354C38.5627 59.2354 38.5873 59.2354 38.6132 59.2354C40.4493 59.1962 42.0857 57.1604 43.3722 55.4533C43.3833 55.4391 43.3932 55.426 43.403 55.4141C43.8689 54.7961 44.2878 54.2219 44.6538 53.8055C47.2391 50.855 50.2459 47.9271 52.2213 44.546C53.2293 42.8044 53.6877 40.898 53.6408 39.0117V39.007C53.6408 37.6972 53.3611 36.3365 52.724 34.9141C52.6994 34.8524 52.671 34.7907 52.6402 34.729C52.6131 34.6685 52.5835 34.6092 52.5552 34.5486C52.0339 33.462 51.3303 32.4381 50.4517 31.5258C49.1159 30.1331 47.3463 29.1057 45.5201 28.6905C45.3155 28.6371 45.1085 28.592 44.9015 28.5552C44.4813 28.4793 44.0586 28.4401 43.6396 28.4401C42.0069 28.4401 40.4172 29.044 39.1036 30.4973C39.0605 30.5435 39.0186 30.5922 38.9767 30.6396C38.9336 30.6895 38.8917 30.7405 38.8485 30.7927C38.7598 30.9006 38.6723 31.0122 38.5861 31.1296C38.4357 30.8615 38.2755 30.6076 38.1067 30.3668C37.9946 30.2054 37.8787 30.0524 37.7567 29.9029C37.6372 29.7558 37.5127 29.6123 37.3858 29.4758C37.2589 29.3406 37.127 29.2077 36.994 29.0843C36.3951 28.5244 35.7309 28.0819 35.0285 27.7497C34.8732 27.6761 34.7167 27.6073 34.5577 27.5456C33.8245 27.2574 33.0581 27.0842 32.2829 27.0201C32.2706 27.0189 32.2595 27.0165 32.2472 27.0165C32.0229 26.9987 31.7974 26.9892 31.5719 26.9892C30.6921 26.9892 29.8122 27.1269 28.9718 27.389C28.7919 27.4436 28.6145 27.5077 28.4382 27.5741C28.3212 27.6192 28.2029 27.6667 28.087 27.7189C27.9724 27.7687 27.8591 27.8197 27.7457 27.8766C27.5177 27.987 27.2959 28.1068 27.0803 28.2373C26.9718 28.3025 26.8658 28.369 26.7623 28.4401C26.3409 28.7178 25.9453 29.0345 25.5818 29.3892C25.4229 29.5434 25.27 29.7048 25.1234 29.8756C24.9767 30.0441 24.8363 30.2197 24.7044 30.4012C24.5898 30.5554 24.4814 30.7167 24.3791 30.8816C24.32 30.9777 24.262 31.0762 24.2066 31.1771C24.1659 31.2494 24.1277 31.3218 24.0907 31.393C24.0599 31.4475 24.0341 31.5033 24.007 31.5591C23.9675 31.6362 23.9318 31.7133 23.896 31.7928C23.848 31.8995 23.8036 32.0075 23.7605 32.1154C23.71 32.2412 23.6644 32.3682 23.6212 32.4963C23.5362 32.7525 23.461 33.0183 23.4007 33.2911C23.3699 33.4264 23.3415 33.5664 23.3181 33.7063C23.27 33.9863 23.2355 34.2746 23.2171 34.57C23.206 34.7456 23.201 34.9223 23.1998 35.0967V35.1667C23.1998 35.2771 23.2011 35.3862 23.2072 35.4965C23.2109 35.5962 23.2146 35.6935 23.222 35.7919C23.4376 39.415 25.5005 42.8211 27.5227 45.9103C27.5227 45.9103 27.5239 45.9115 27.5263 45.9139C28.4037 47.3173 29.3119 48.7042 30.2287 50.0851C31.583 52.2229 32.9311 54.3796 34.4185 56.4119C34.4875 56.5068 34.559 56.6029 34.6341 56.7001C34.6354 56.7001 34.6354 56.7013 34.6379 56.7037C35.636 58.0312 36.8954 59.2342 38.5392 59.2342M36.1609 15.936C34.8005 15.936 33.4376 16.0582 32.1067 16.2991C31.9552 16.3252 31.7925 16.356 31.6077 16.394C30.4506 16.6277 29.2984 16.9587 28.1807 17.3751C28.1536 17.3846 28.1277 17.3941 28.1018 17.4047C20.0156 20.583 14.3483 28.56 13.6644 37.734C13.6509 37.9262 13.6398 38.1148 13.6299 38.2975C13.6201 38.4838 13.6127 38.6724 13.6077 38.8575C13.6077 38.8622 13.6077 38.8682 13.6077 38.8729C13.604 39.0651 13.6016 39.2501 13.6016 39.4388C13.6016 39.5289 13.6016 39.6167 13.604 39.7069C13.6656 44.1818 14.9657 48.2439 16.235 51.6321C16.2485 51.6724 16.2633 51.7127 16.2805 51.7519C16.5751 52.5064 16.8819 53.2657 17.1789 54C17.4352 54.6359 17.7014 55.2943 17.9552 55.9385C18.0735 56.241 18.1943 56.5471 18.3138 56.852C18.4407 57.1747 18.5677 57.4986 18.6946 57.8212C20.1487 61.5226 21.6016 65.2229 23.0544 68.9219C24.7845 73.328 26.5134 77.7329 28.2448 82.1378C28.3926 82.5127 28.5393 82.8864 28.6847 83.2613L28.6872 83.2672C29.6557 85.7289 30.6243 88.1929 31.5904 90.6558C32.0575 91.8433 33.3439 94.076 35.2108 94.91C35.3439 94.9693 35.4844 95.0121 35.6273 95.037C35.8726 95.0797 36.1314 95.1022 36.3951 95.1022C36.4505 95.1022 36.5072 95.1022 36.5651 95.0998C37.9071 95.0512 39.0186 94.407 39.8738 93.1851C39.9083 93.1365 39.9391 93.0866 39.9675 93.0344C40.3125 92.4069 40.66 91.7781 41.0075 91.1505C41.2133 90.778 41.4191 90.4055 41.6249 90.033C41.8331 89.6557 42.0414 89.2784 42.2497 88.9024L42.278 88.8502L42.2891 88.8288C42.2977 88.8122 42.3063 88.7968 42.3149 88.7802C43.7912 86.1085 45.265 83.4392 46.7401 80.7676C49.1923 76.3247 51.6458 71.883 54.098 67.4402L54.4591 66.7853L56.692 62.741L58.9631 58.6268C61.7332 53.6133 63.0099 49.4005 63.1011 44.9719C63.1023 44.9043 63.1048 44.8224 63.1035 44.7311C63.106 44.5508 63.1072 44.3681 63.1035 44.1877C63.1035 44.1415 63.1035 44.0952 63.1011 44.0501C63.0961 43.833 63.09 43.5898 63.0789 43.3466C63.0727 43.2209 63.0678 43.0927 63.0604 42.9634C63.0505 42.7831 63.0357 42.5458 63.0148 42.2979C63.0123 42.2362 63.0074 42.1733 62.9988 42.1104C62.9815 41.9028 62.9606 41.6976 62.9372 41.484C62.9347 41.4544 62.931 41.4283 62.9285 41.4046C62.9199 41.3227 62.91 41.242 62.9002 41.1625C62.8805 41.0012 62.8595 40.8363 62.8349 40.6655C62.7018 39.7259 62.5182 38.7815 62.289 37.8609C62.2705 37.7791 62.2495 37.6948 62.2249 37.6071C61.2058 33.6174 59.3081 29.7748 56.7376 26.4922C56.7351 26.4886 56.7326 26.4862 56.7302 26.4827L56.6833 26.4234C56.6242 26.3486 56.5663 26.2751 56.5059 26.2027C56.2582 25.8966 56.0241 25.6166 55.7887 25.3485C55.7641 25.3201 55.7406 25.294 55.7172 25.2667C53.8158 23.1063 51.6495 21.2675 49.2786 19.7988C46.7709 18.2459 44.0845 17.1402 41.2909 16.5126C41.0013 16.4473 40.7154 16.3892 40.4419 16.337C40.4332 16.3358 40.4246 16.3335 40.416 16.3323C40.3815 16.3264 40.347 16.3204 40.3125 16.3133C40.2361 16.2991 40.1609 16.286 40.0845 16.2742C39.9983 16.2587 39.912 16.2433 39.8257 16.2302C39.7727 16.2219 39.7198 16.2136 39.6668 16.2053C39.6064 16.1958 39.546 16.1864 39.4869 16.1769C39.4758 16.1757 39.4659 16.1733 39.4548 16.1721L39.3526 16.1579L39.2355 16.1425C39.0962 16.1223 38.9632 16.1057 38.8288 16.0903C38.8214 16.0903 38.8128 16.0891 38.8054 16.0879C37.9293 15.9871 37.0408 15.936 36.1622 15.936H36.1609ZM25.8652 31.7252C25.9441 31.5982 26.0267 31.476 26.1117 31.3609C26.1141 31.3574 26.1178 31.3526 26.1203 31.3491C26.2164 31.2162 26.3273 31.0774 26.4481 30.9386C26.4493 30.9362 26.4518 30.935 26.453 30.9327C26.5602 30.8081 26.681 30.68 26.8092 30.5554C27.0901 30.2814 27.4019 30.0299 27.7395 29.8068C27.7457 29.8021 27.7531 29.7985 27.7593 29.7938C27.8332 29.7428 27.9096 29.6941 27.9934 29.6443C27.9946 29.6443 27.9971 29.6419 27.9983 29.6407C28.1684 29.5375 28.3433 29.4438 28.5171 29.3596C28.527 29.3548 28.5368 29.3501 28.5467 29.3453C28.6292 29.3038 28.7254 29.2611 28.7981 29.2291C28.8018 29.2279 28.8055 29.2255 28.8092 29.2243C28.8917 29.1875 28.9792 29.1519 29.0704 29.1175C29.2441 29.0511 29.3748 29.006 29.4918 28.9704C29.4955 28.9693 29.4992 28.9681 29.5042 28.9669C30.1807 28.7557 30.8757 28.6478 31.5707 28.6478C31.7457 28.6478 31.9207 28.6549 32.0932 28.6679C32.1067 28.6691 32.1215 28.6703 32.1351 28.6715C32.7488 28.7213 33.3427 28.8589 33.9034 29.0796C33.9059 29.0796 33.9071 29.0808 33.9096 29.082C34.0217 29.1259 34.14 29.1769 34.2632 29.2362C34.8252 29.5007 35.3378 29.8495 35.7912 30.2731C35.7937 30.2754 35.7962 30.2766 35.7974 30.279C35.896 30.3703 35.997 30.4712 36.0981 30.5791C36.2102 30.7001 36.3064 30.8128 36.3951 30.9208C36.4974 31.0466 36.5873 31.1664 36.6723 31.2886C36.6748 31.2909 36.676 31.2945 36.6785 31.2969C36.8165 31.4938 36.9471 31.7014 37.0667 31.9138C37.3501 32.4203 37.8849 32.749 38.4813 32.7845C38.5158 32.7869 38.5515 32.7881 38.5861 32.7881C39.1443 32.7881 39.6705 32.5271 39.9946 32.0846C40.0586 31.998 40.1252 31.9114 40.1991 31.8224C40.2324 31.7821 40.2694 31.7382 40.3063 31.6955C40.3371 31.6599 40.3655 31.6279 40.3938 31.597C40.3975 31.5923 40.4012 31.5887 40.4061 31.584C41.2971 30.5981 42.3852 30.0975 43.6396 30.0975C43.9452 30.0975 44.2632 30.1271 44.5848 30.1841C44.7524 30.2149 44.9175 30.2505 45.0703 30.2908C45.0876 30.2956 45.1048 30.2991 45.1221 30.3039C46.5947 30.6384 48.0746 31.4938 49.1837 32.6493C49.928 33.4216 50.5343 34.2936 50.9877 35.2403L51.0198 35.3067C51.0321 35.3305 51.0432 35.3554 51.0543 35.3791C51.0629 35.3981 51.0715 35.4159 51.0802 35.4337C51.1011 35.4764 51.111 35.5001 51.1171 35.5132C51.1245 35.5321 51.1319 35.5499 51.1405 35.5677C51.663 36.7339 51.9169 37.8574 51.9169 39.0022C51.9169 39.0153 51.9169 39.033 51.9169 39.0461C51.9576 40.6833 51.5423 42.3026 50.7154 43.731C49.2921 46.1666 47.2256 48.4349 45.2268 50.6272C44.6008 51.3153 43.9526 52.0259 43.3353 52.7306C42.989 53.1257 42.623 53.6145 42.2361 54.1305C42.1609 54.2302 42.0845 54.3322 42.0069 54.4354C42.0056 54.4378 42.0032 54.4402 42.002 54.4413L41.9946 54.4508L41.9896 54.4579C41.9896 54.4579 41.981 54.4686 41.9773 54.4746C41.3439 55.3145 39.6619 57.5472 38.5762 57.5709C38.5627 57.5709 38.5503 57.5709 38.5392 57.5709C37.7863 57.5709 36.9668 56.9683 36.0352 55.7273C36.034 55.725 36.0315 55.7226 36.0303 55.7202C36.0192 55.706 36.0081 55.6917 35.997 55.6775C35.9379 55.5992 35.8812 55.5233 35.8258 55.4474C34.4838 53.6144 33.2207 51.6178 31.9995 49.6876L31.7025 49.2178C31.6964 49.2084 31.6902 49.1977 31.6828 49.1882C30.5812 47.5285 29.7555 46.2544 29.0051 45.055C28.9878 45.0289 28.9706 45.0016 28.9533 44.9767C27.0248 42.0298 25.1357 38.8871 24.9459 35.6947C24.9459 35.6875 24.9459 35.6804 24.9447 35.6733C24.9398 35.6069 24.9373 35.531 24.9336 35.4443V35.436C24.9336 35.4301 24.9336 35.4242 24.9336 35.4183C24.9299 35.3459 24.9287 35.2628 24.9287 35.1656V35.1027C24.9299 34.9437 24.9349 34.8013 24.9435 34.6673C24.9595 34.43 24.9866 34.1963 25.0248 33.9756C25.0248 33.9721 25.0261 33.9673 25.0273 33.9638C25.0433 33.8689 25.063 33.7657 25.0926 33.6375C25.1394 33.4252 25.1986 33.2128 25.2688 33.0028C25.3033 32.9008 25.339 32.8023 25.376 32.7074C25.4179 32.6019 25.4512 32.5224 25.4832 32.4524C25.5091 32.3954 25.5362 32.3361 25.5621 32.2839C25.5695 32.2697 25.5757 32.2566 25.5831 32.2424C25.5904 32.227 25.6089 32.1878 25.6188 32.1688C25.6262 32.1558 25.6323 32.1439 25.6385 32.1309C25.6718 32.068 25.6989 32.0146 25.7248 31.9695C25.7297 31.9612 25.7346 31.9529 25.7395 31.9446C25.779 31.8734 25.8246 31.7963 25.8702 31.7228L25.8652 31.7252Z" fill="white"/>
</svg>
