<svg xmlns="http://www.w3.org/2000/svg" width="140" height="62" fill="none" viewBox="0 0 140 62"><path fill="#090909" d="M98.458 18.929c4.007-.419 7.16 1.666 8.856 4.632a12.7 12.7 0 0 0-1.9 2.904c-.907-2.894-3.447-4.96-6.652-4.625-4.66.486-7.785 5.486-7.176 9.989l.024.166c.547 3.48 3.305 6.1 6.92 5.723h.001c2.597-.27 4.725-1.954 5.988-4.173a8.9 8.9 0 0 0 1.386 3.147c-1.701 2.105-4.116 3.63-7.07 3.937-5.569.582-9.5-3.62-10.15-8.406-.778-5.752 3.106-12.598 9.773-13.294"/><path fill="#090909" d="M115.446 20.938c4.644 0 7.504 3.734 7.504 7.793 0 5.019-4.295 10.363-9.959 10.363-4.645 0-7.51-3.68-7.51-7.769 0-5.025 4.271-10.393 9.965-10.393m0-2.413c-7.293 0-12.377 6.75-12.377 12.806s4.264 10.182 9.922 10.182c7.292 0 12.371-6.732 12.371-12.776s-4.258-10.206-9.916-10.206z"/><path fill="#090909" d="M114.216 28.447c1.821 0 3.378 1.394 3.378 3.21 0 1.815-1.557 3.209-3.378 3.209a3.45 3.45 0 0 1-2.701-1.28c-2.849 1.358-6.105 2.051-9.324 1.367h-.001c-1.98-.423-4.078-1.527-5.092-3.501l1.266-.651c.746 1.452 2.376 2.387 4.124 2.76 2.837.603 5.776-.002 8.417-1.262a3 3 0 0 1-.067-.643c0-1.815 1.557-3.209 3.378-3.209m-11.823-1.761-2.588.79-.247-.573 2.358-1.327zm9.964-.068-.271.627-2.576-.814.471-1.11zm-85.162-.871c0-1.792-1.874-2.729-4.317-2.729-2.158 0-3.991 1.262-3.991 2.729h-3.502c0-3.136 3.42-5.742 7.493-5.742 3.746 0 7.819 1.67 7.819 5.742v15.76h-3.502v-2.932c-1.1 2.158-3.218 3.42-5.702 3.42-5.212 0-7.493-3.176-7.493-6.556 0-4.276 3.502-6.516 7.9-6.516h.978c2.85 0 4.317-1.1 4.317-3.176m-9.693 9.692c0 2.158 1.588 3.543 4.399 3.543 2.89 0 5.294-1.833 5.294-3.95v-4.643c-1.018.937-2.444 1.385-4.317 1.385H21.9c-2.81 0-4.399 1.466-4.399 3.665m15.962-14.946h3.502v2.484c1.304-1.791 3.34-2.972 5.661-2.972 2.2 0 4.561 1.18 5.824 3.583 1.303-2.158 3.543-3.584 6.23-3.584 4.724 0 7.209 2.648 7.209 7.779v13.724h-3.503V27.783c0-2.647-1.14-4.928-4.439-4.928-2.728 0-4.52 1.67-4.52 4.928v13.724h-3.502V27.783c0-2.647-1.14-4.928-4.44-4.928-2.728 0-4.52 1.67-4.52 4.928v13.724h-3.502zm31.172 21.014V20.493h3.502v21.014zm-.652-26.308c0-1.262 1.059-2.199 2.403-2.199 1.303 0 2.362.937 2.362 2.2 0 1.22-1.06 2.158-2.362 2.158-1.344 0-2.403-.937-2.403-2.159m9.357 30.787c2.077 0 3.054-1.018 4.358-4.48l-8.145-21.013h3.787l6.027 16.534 6.19-16.534h3.788L81.2 41.507C79 47.29 77.168 49 73.34 49z"/></svg>