<svg width="140" height="62" viewBox="0 0 140 62" fill="none" xmlns="http://www.w3.org/2000/svg">
<mask id="path-1-outside-1_337_9643" maskUnits="userSpaceOnUse" x="8" y="7" width="123" height="48" fill="black">
<rect fill="white" x="8" y="7" width="123" height="48"/>
<path d="M98.4583 18.9287C102.465 18.5104 105.618 20.5949 107.314 23.5613C106.546 24.4414 105.905 25.426 105.414 26.4645C104.507 23.5706 101.967 21.5052 98.7622 21.8399C94.1023 22.3264 90.977 27.3265 91.5856 31.829L91.6097 31.9955C92.1566 35.4752 94.9154 38.0958 98.5305 37.7183H98.5314C101.128 37.4485 103.256 35.7639 104.519 33.5448C104.785 34.7093 105.26 35.7716 105.905 36.692C104.204 38.797 101.789 40.3223 98.8341 40.6294C93.2661 41.2107 89.3352 37.0088 88.685 32.2228C87.907 26.4712 91.7909 19.6247 98.4583 18.9287Z"/>
<path d="M115.446 20.9378C120.09 20.9378 122.95 24.6717 122.95 28.7313C122.95 33.7499 118.655 39.0944 112.991 39.0944C108.346 39.0944 105.481 35.4148 105.481 31.3251C105.481 26.3003 109.752 20.9318 115.446 20.9318M115.446 18.519C108.153 18.519 103.069 25.2689 103.069 31.3251C103.069 37.3812 107.333 41.5072 112.991 41.5072C120.283 41.5072 125.362 34.7754 125.362 28.7313C125.362 22.6871 121.104 18.525 115.446 18.525V18.519Z"/>
<path d="M114.216 28.4474C116.037 28.4475 117.594 29.8409 117.594 31.6563C117.594 33.4718 116.037 34.8657 114.216 34.8658C113.131 34.8658 112.139 34.3701 111.515 33.5854C108.666 34.9435 105.41 35.6373 102.191 34.9534H102.19C100.21 34.5304 98.1124 33.4256 97.0977 31.4518L98.3636 30.8009C99.1102 32.2533 100.74 33.1876 102.488 33.5609C105.325 34.1637 108.264 33.5587 110.905 32.2989C110.861 32.0922 110.838 31.8774 110.838 31.6563C110.838 29.8409 112.395 28.4474 114.216 28.4474Z"/>
<path d="M102.393 26.6856L99.8051 27.4758L99.5576 26.9029L101.916 25.5761L102.393 26.6856Z"/>
<path d="M112.357 26.6177L112.086 27.245L109.51 26.4307L109.981 25.3208L112.357 26.6177Z"/>
<path d="M27.1946 25.7466C27.1946 23.9548 25.3213 23.0181 22.8778 23.0181C20.7195 23.0181 18.8869 24.2805 18.8869 25.7466H15.3846C15.3846 22.6109 18.8054 20.0045 22.8778 20.0045C26.6244 20.0045 30.6968 21.6742 30.6968 25.7466V41.5068H27.1946V38.5747C26.095 40.733 23.9774 41.9955 21.4932 41.9955C16.2805 41.9955 14 38.819 14 35.4389C14 31.1629 17.5023 28.9231 21.9005 28.9231H22.8778C25.7285 28.9231 27.1946 27.8235 27.1946 25.7466ZM17.5023 35.4389C17.5023 37.5973 19.0905 38.9819 21.9005 38.9819C24.7919 38.9819 27.1946 37.1493 27.1946 35.0317V30.3891C26.1765 31.3258 24.7511 31.7738 22.8778 31.7738H21.9005C19.0905 31.7738 17.5023 33.2398 17.5023 35.4389Z"/>
<path d="M33.4632 20.4932H36.9655V22.9774C38.2686 21.1855 40.3048 20.0045 42.6261 20.0045C44.8252 20.0045 47.1872 21.1855 48.4496 23.5882C49.7528 21.4299 51.9926 20.0045 54.6804 20.0045C59.4044 20.0045 61.8885 22.6516 61.8885 27.7828V41.5068H58.3863V27.7828C58.3863 25.1357 57.246 22.8552 53.9474 22.8552C51.2189 22.8552 49.427 24.5249 49.427 27.7828V41.5068H45.9247V27.7828C45.9247 25.1357 44.7845 22.8552 41.4858 22.8552C38.7573 22.8552 36.9655 24.5249 36.9655 27.7828V41.5068H33.4632V20.4932Z"/>
<path d="M64.6345 41.5068V20.4932H68.1368V41.5068H64.6345ZM63.983 15.1991C63.983 13.9367 65.0418 13 66.3857 13C67.6888 13 68.7477 13.9367 68.7477 15.1991C68.7477 16.4208 67.6888 17.3575 66.3857 17.3575C65.0418 17.3575 63.983 16.4208 63.983 15.1991Z"/>
<path d="M73.3402 45.9864C75.4172 45.9864 76.3945 44.9683 77.6977 41.5068L69.5529 20.4932H73.3402L79.3674 37.0271L85.5574 20.4932H89.3448L81.2 41.5068C79.0009 47.2896 77.1683 49 73.3402 49V45.9864Z"/>
</mask>
<path d="M98.4583 18.9287C102.465 18.5104 105.618 20.5949 107.314 23.5613C106.546 24.4414 105.905 25.426 105.414 26.4645C104.507 23.5706 101.967 21.5052 98.7622 21.8399C94.1023 22.3264 90.977 27.3265 91.5856 31.829L91.6097 31.9955C92.1566 35.4752 94.9154 38.0958 98.5305 37.7183H98.5314C101.128 37.4485 103.256 35.7639 104.519 33.5448C104.785 34.7093 105.26 35.7716 105.905 36.692C104.204 38.797 101.789 40.3223 98.8341 40.6294C93.2661 41.2107 89.3352 37.0088 88.685 32.2228C87.907 26.4712 91.7909 19.6247 98.4583 18.9287Z" fill="white"/>
<path d="M115.446 20.9378C120.09 20.9378 122.95 24.6717 122.95 28.7313C122.95 33.7499 118.655 39.0944 112.991 39.0944C108.346 39.0944 105.481 35.4148 105.481 31.3251C105.481 26.3003 109.752 20.9318 115.446 20.9318M115.446 18.519C108.153 18.519 103.069 25.2689 103.069 31.3251C103.069 37.3812 107.333 41.5072 112.991 41.5072C120.283 41.5072 125.362 34.7754 125.362 28.7313C125.362 22.6871 121.104 18.525 115.446 18.525V18.519Z" fill="white"/>
<path d="M114.216 28.4474C116.037 28.4475 117.594 29.8409 117.594 31.6563C117.594 33.4718 116.037 34.8657 114.216 34.8658C113.131 34.8658 112.139 34.3701 111.515 33.5854C108.666 34.9435 105.41 35.6373 102.191 34.9534H102.19C100.21 34.5304 98.1124 33.4256 97.0977 31.4518L98.3636 30.8009C99.1102 32.2533 100.74 33.1876 102.488 33.5609C105.325 34.1637 108.264 33.5587 110.905 32.2989C110.861 32.0922 110.838 31.8774 110.838 31.6563C110.838 29.8409 112.395 28.4474 114.216 28.4474Z" fill="white"/>
<path d="M102.393 26.6856L99.8051 27.4758L99.5576 26.9029L101.916 25.5761L102.393 26.6856Z" fill="white"/>
<path d="M112.357 26.6177L112.086 27.245L109.51 26.4307L109.981 25.3208L112.357 26.6177Z" fill="white"/>
<path d="M27.1946 25.7466C27.1946 23.9548 25.3213 23.0181 22.8778 23.0181C20.7195 23.0181 18.8869 24.2805 18.8869 25.7466H15.3846C15.3846 22.6109 18.8054 20.0045 22.8778 20.0045C26.6244 20.0045 30.6968 21.6742 30.6968 25.7466V41.5068H27.1946V38.5747C26.095 40.733 23.9774 41.9955 21.4932 41.9955C16.2805 41.9955 14 38.819 14 35.4389C14 31.1629 17.5023 28.9231 21.9005 28.9231H22.8778C25.7285 28.9231 27.1946 27.8235 27.1946 25.7466ZM17.5023 35.4389C17.5023 37.5973 19.0905 38.9819 21.9005 38.9819C24.7919 38.9819 27.1946 37.1493 27.1946 35.0317V30.3891C26.1765 31.3258 24.7511 31.7738 22.8778 31.7738H21.9005C19.0905 31.7738 17.5023 33.2398 17.5023 35.4389Z" fill="white"/>
<path d="M33.4632 20.4932H36.9655V22.9774C38.2686 21.1855 40.3048 20.0045 42.6261 20.0045C44.8252 20.0045 47.1872 21.1855 48.4496 23.5882C49.7528 21.4299 51.9926 20.0045 54.6804 20.0045C59.4044 20.0045 61.8885 22.6516 61.8885 27.7828V41.5068H58.3863V27.7828C58.3863 25.1357 57.246 22.8552 53.9474 22.8552C51.2189 22.8552 49.427 24.5249 49.427 27.7828V41.5068H45.9247V27.7828C45.9247 25.1357 44.7845 22.8552 41.4858 22.8552C38.7573 22.8552 36.9655 24.5249 36.9655 27.7828V41.5068H33.4632V20.4932Z" fill="white"/>
<path d="M64.6345 41.5068V20.4932H68.1368V41.5068H64.6345ZM63.983 15.1991C63.983 13.9367 65.0418 13 66.3857 13C67.6888 13 68.7477 13.9367 68.7477 15.1991C68.7477 16.4208 67.6888 17.3575 66.3857 17.3575C65.0418 17.3575 63.983 16.4208 63.983 15.1991Z" fill="white"/>
<path d="M73.3402 45.9864C75.4172 45.9864 76.3945 44.9683 77.6977 41.5068L69.5529 20.4932H73.3402L79.3674 37.0271L85.5574 20.4932H89.3448L81.2 41.5068C79.0009 47.2896 77.1683 49 73.3402 49V45.9864Z" fill="white"/>
<path d="M98.4583 18.9287L99.017 24.2821L99.0173 24.2821L98.4583 18.9287ZM107.314 23.5613L111.369 27.1013L113.889 24.2152L111.987 20.8893L107.314 23.5613ZM105.414 26.4645L100.278 28.074L104.394 41.2081L110.28 28.7662L105.414 26.4645ZM98.7622 21.8399L99.3212 27.1932L99.3213 27.1932L98.7622 21.8399ZM91.5856 31.829L86.2517 32.55L86.2551 32.575L86.2587 32.6L91.5856 31.829ZM91.6097 31.9955L86.2828 32.7665L86.2875 32.7988L86.2926 32.8311L91.6097 31.9955ZM98.5305 37.7183V32.3358H98.2502L97.9715 32.3649L98.5305 37.7183ZM98.5314 37.7183V43.1007H98.8102L99.0875 43.0719L98.5314 37.7183ZM104.519 33.5448L109.766 32.3454L106.684 18.8586L99.8412 30.8826L104.519 33.5448ZM105.905 36.692L110.091 40.0748L112.637 36.9236L110.314 33.6049L105.905 36.692ZM98.8341 40.6294L98.2778 35.2757L98.2752 35.276L98.8341 40.6294ZM88.685 32.2228L83.3512 32.9443L83.3516 32.9473L88.685 32.2228ZM115.446 15.5554C112.473 15.5554 110.064 17.9652 110.064 20.9378C110.064 23.9105 112.473 26.3203 115.446 26.3203V20.9378V15.5554ZM115.446 26.3143C118.419 26.3143 120.828 23.9045 120.828 20.9318C120.828 17.9592 118.419 15.5494 115.446 15.5494V20.9318V26.3143ZM115.446 18.519H120.828V13.1365H115.446V18.519ZM115.446 18.525H110.064V23.9075H115.446V18.525ZM114.216 28.4474L114.216 23.0649H114.216V28.4474ZM117.594 31.6563H122.977V31.6562L117.594 31.6563ZM114.216 34.8658V40.2482H114.216L114.216 34.8658ZM111.515 33.5854L115.728 30.2355L113.063 26.8846L109.199 28.7267L111.515 33.5854ZM102.191 34.9534L103.31 29.6884L102.757 29.5709H102.191V34.9534ZM102.19 34.9534L101.066 40.2171L101.622 40.3358H102.19V34.9534ZM97.0977 31.4518L94.6364 26.665L89.8501 29.1261L92.3107 33.9126L97.0977 31.4518ZM98.3636 30.8009L103.151 28.3401L100.69 23.5526L95.9023 26.0141L98.3636 30.8009ZM102.488 33.5609L101.363 38.8246L101.369 38.8258L102.488 33.5609ZM110.905 32.2989L113.223 37.1569L117.05 35.3311L116.171 31.1831L110.905 32.2989ZM110.838 31.6563L105.456 31.6562V31.6563H110.838ZM102.393 26.6856L103.965 31.8334L109.708 30.0793L107.338 24.5614L102.393 26.6856ZM99.8051 27.4758L94.864 29.6102L96.773 34.0297L101.377 32.6236L99.8051 27.4758ZM99.5576 26.9029L96.9185 22.2119L92.6947 24.5882L94.6165 29.0373L99.5576 26.9029ZM101.916 25.5761L106.862 23.4519L104.497 17.948L99.2768 20.8851L101.916 25.5761ZM112.357 26.6177L117.298 28.7534L119.246 24.2459L114.936 21.8932L112.357 26.6177ZM112.086 27.245L110.464 32.3771L115.098 33.8423L117.027 29.3806L112.086 27.245ZM109.51 26.4307L104.555 24.3303L102.245 29.7789L107.888 31.5628L109.51 26.4307ZM109.981 25.3208L112.56 20.5962L107.344 17.7495L105.025 23.2203L109.981 25.3208ZM18.8869 25.7466V31.1291H24.2693V25.7466H18.8869ZM15.3846 25.7466H10.0022V31.1291H15.3846V25.7466ZM30.6968 41.5068V46.8892H36.0793V41.5068H30.6968ZM27.1946 41.5068H21.8121V46.8892H27.1946V41.5068ZM27.1946 38.5747H32.577L22.3986 36.1314L27.1946 38.5747ZM27.1946 30.3891H32.577V18.1235L23.5503 26.428L27.1946 30.3891ZM33.4632 20.4932V15.1108H28.0807V20.4932H33.4632ZM36.9655 20.4932H42.3479V15.1108H36.9655V20.4932ZM36.9655 22.9774H31.583V39.5294L41.3184 26.1432L36.9655 22.9774ZM48.4496 23.5882L43.6848 26.0918L48.1242 34.5408L53.0573 26.3703L48.4496 23.5882ZM61.8885 41.5068V46.8892H67.271V41.5068H61.8885ZM58.3863 41.5068H53.0038V46.8892H58.3863V41.5068ZM49.427 41.5068V46.8892H54.8094V41.5068H49.427ZM45.9247 41.5068H40.5423V46.8892H45.9247V41.5068ZM36.9655 41.5068V46.8892H42.3479V41.5068H36.9655ZM33.4632 41.5068H28.0807V46.8892H33.4632V41.5068ZM64.6345 41.5068H59.2521V46.8892H64.6345V41.5068ZM64.6345 20.4932V15.1108H59.2521V20.4932H64.6345ZM68.1368 20.4932H73.5192V15.1108H68.1368V20.4932ZM68.1368 41.5068V46.8892H73.5192V41.5068H68.1368ZM73.3402 45.9864V40.604H67.9578V45.9864H73.3402ZM77.6977 41.5068L82.735 43.4032L83.4595 41.4788L82.7164 39.5616L77.6977 41.5068ZM69.5529 20.4932V15.1108H61.6941L64.5343 22.4384L69.5529 20.4932ZM73.3402 20.4932L78.3972 18.6498L77.1071 15.1108H73.3402V20.4932ZM79.3674 37.0271L74.3105 38.8706L79.3001 52.5583L84.4081 38.9143L79.3674 37.0271ZM85.5574 20.4932V15.1108H81.8252L80.5167 18.606L85.5574 20.4932ZM89.3448 20.4932L94.3634 22.4384L97.2036 15.1108H89.3448V20.4932ZM81.2 41.5068L76.1813 39.5616L76.1751 39.5776L76.169 39.5936L81.2 41.5068ZM73.3402 49H67.9578V54.3825H73.3402V49ZM98.4583 18.9287L99.0173 24.2821C100.602 24.1166 101.845 24.8403 102.642 26.2333L107.314 23.5613L111.987 20.8893C109.39 16.3495 104.328 12.9041 97.8992 13.5754L98.4583 18.9287ZM107.314 23.5613L103.26 20.0213C102.161 21.2803 101.249 22.6827 100.549 24.1628L105.414 26.4645L110.28 28.7662C110.562 28.1693 110.931 27.6025 111.369 27.1013L107.314 23.5613ZM105.414 26.4645L110.55 24.855C109.013 19.9502 104.381 15.8414 98.2032 16.4865L98.7622 21.8399L99.3213 27.1932C99.4717 27.1775 99.5609 27.1938 99.6092 27.207C99.6604 27.221 99.7169 27.2456 99.7825 27.2934C99.92 27.3934 100.14 27.6327 100.278 28.074L105.414 26.4645ZM98.7622 21.8399L98.2033 16.4865C94.0195 16.9233 90.7656 19.3652 88.7624 22.2798C86.7775 25.1679 85.7547 28.8732 86.2517 32.55L91.5856 31.829L96.9196 31.108C96.808 30.2823 97.0435 29.2364 97.6341 28.3771C98.2064 27.5444 98.8451 27.2429 99.3212 27.1932L98.7622 21.8399ZM91.5856 31.829L86.2587 32.6L86.2828 32.7665L91.6097 31.9955L96.9367 31.2245L96.9126 31.058L91.5856 31.829ZM91.6097 31.9955L86.2926 32.8311C87.1956 38.5775 92.0914 43.8024 99.0896 43.0716L98.5305 37.7183L97.9715 32.3649C97.7895 32.3839 97.6864 32.3606 97.6341 32.344C97.5776 32.326 97.5113 32.2933 97.4337 32.2264C97.2711 32.0862 97.0197 31.75 96.9269 31.1598L91.6097 31.9955ZM98.5305 37.7183V43.1007H98.5314V37.7183V32.3358H98.5305V37.7183ZM98.5314 37.7183L99.0875 43.0719C103.77 42.5855 107.27 39.5931 109.197 36.2069L104.519 33.5448L99.8412 30.8826C99.2425 31.9346 98.4863 32.3115 97.9753 32.3646L98.5314 37.7183ZM104.519 33.5448L99.2721 34.7441C99.6904 36.5744 100.446 38.2797 101.496 39.779L105.905 36.692L110.314 33.6049C110.075 33.2635 109.88 32.8442 109.766 32.3454L104.519 33.5448ZM105.905 36.692L101.718 33.3091C100.79 34.4573 99.6203 35.1363 98.2778 35.2757L98.8341 40.6294L99.3903 45.983C103.958 45.5084 107.617 43.1367 110.091 40.0748L105.905 36.692ZM98.8341 40.6294L98.2752 35.276C97.0669 35.4022 96.1839 35.0362 95.506 34.4291C94.7582 33.7594 94.1825 32.7052 94.0185 31.4983L88.685 32.2228L83.3516 32.9473C84.3036 39.9557 90.3141 46.9305 99.393 45.9827L98.8341 40.6294ZM88.685 32.2228L94.0189 31.5013C93.5476 28.0172 96.0657 24.5902 99.017 24.2821L98.4583 18.9287L97.8995 13.5754C87.5162 14.6592 82.2664 24.9252 83.3512 32.9443L88.685 32.2228ZM115.446 20.9378V26.3203C116.221 26.3203 116.648 26.5898 116.937 26.9106C117.284 27.2966 117.567 27.9375 117.567 28.7313H122.95H128.332C128.332 22.2526 123.588 15.5554 115.446 15.5554V20.9378ZM122.95 28.7313H117.567C117.567 31.2813 115.202 33.7119 112.991 33.7119V39.0944V44.4768C122.108 44.4768 128.332 36.2186 128.332 28.7313H122.95ZM112.991 39.0944V33.7119C112.19 33.7119 111.761 33.4355 111.483 33.1291C111.149 32.7609 110.864 32.1357 110.864 31.3251H105.481H100.099C100.099 37.8763 104.887 44.4768 112.991 44.4768V39.0944ZM105.481 31.3251H110.864C110.864 28.744 113.227 26.3143 115.446 26.3143V20.9318V15.5494C106.277 15.5494 100.099 23.8567 100.099 31.3251H105.481ZM115.446 18.519V13.1365C104.624 13.1365 97.6861 22.8855 97.6861 31.3251H103.069H108.451C108.451 27.6522 111.683 23.9014 115.446 23.9014V18.519ZM103.069 31.3251H97.6861C97.6861 40.3107 104.317 46.8896 112.991 46.8896V41.5072V36.1247C110.349 36.1247 108.451 34.4518 108.451 31.3251H103.069ZM112.991 41.5072V46.8896C123.805 46.8896 130.745 37.1682 130.745 28.7313H125.362H119.98C119.98 32.3826 116.762 36.1247 112.991 36.1247V41.5072ZM125.362 28.7313H130.745C130.745 19.7835 124.145 13.1426 115.446 13.1426V18.525V23.9075C118.063 23.9075 119.98 25.5907 119.98 28.7313H125.362ZM115.446 18.525H120.828V18.519H115.446H110.064V18.525H115.446ZM114.216 28.4474L114.216 33.8298C113.424 33.8298 112.212 33.1612 112.212 31.6565L117.594 31.6563L122.977 31.6562C122.976 26.5206 118.65 23.0651 114.216 23.0649L114.216 28.4474ZM117.594 31.6563H112.212C112.212 30.1523 113.424 29.4833 114.216 29.4833L114.216 34.8658L114.216 40.2482C118.651 40.248 122.977 36.7914 122.977 31.6563H117.594ZM114.216 34.8658V29.4833C114.761 29.4833 115.324 29.7282 115.728 30.2355L111.515 33.5854L107.302 36.9354C108.953 39.0121 111.5 40.2482 114.216 40.2482V34.8658ZM111.515 33.5854L109.199 28.7267C107.093 29.7306 105.061 30.0605 103.31 29.6884L102.191 34.9534L101.072 40.2183C105.759 41.2141 110.239 40.1564 113.831 38.4441L111.515 33.5854ZM102.191 34.9534V29.5709H102.19V34.9534V40.3358H102.191V34.9534ZM102.19 34.9534L103.315 29.6897C102.853 29.5911 102.457 29.4262 102.185 29.252C102.057 29.1699 101.979 29.1001 101.936 29.0548C101.914 29.0326 101.902 29.0164 101.895 29.0068C101.888 28.9975 101.885 28.9924 101.885 28.991L97.0977 31.4518L92.3107 33.9126C94.3398 37.8597 98.2104 39.6071 101.066 40.2171L102.19 34.9534ZM97.0977 31.4518L99.559 36.2385L100.825 35.5876L98.3636 30.8009L95.9023 26.0141L94.6364 26.665L97.0977 31.4518ZM98.3636 30.8009L93.5766 33.2617C95.3347 36.6816 98.7313 38.2624 101.363 38.8246L102.488 33.5609L103.612 28.2972C103.454 28.2634 103.313 28.2199 103.196 28.1734C103.078 28.1267 103.001 28.0834 102.958 28.0563C102.863 27.9953 103.005 28.0575 103.151 28.3401L98.3636 30.8009ZM102.488 33.5609L101.369 38.8258C105.677 39.741 109.841 38.7702 113.223 37.1569L110.905 32.2989L108.588 27.441C106.688 28.3473 104.973 28.5864 103.606 28.2959L102.488 33.5609ZM110.905 32.2989L116.171 31.1831C116.204 31.3402 116.221 31.4993 116.221 31.6563H110.838H105.456C105.456 32.2555 105.519 32.8442 105.64 33.4148L110.905 32.2989ZM110.838 31.6563L116.221 31.6565C116.221 33.161 115.008 33.8298 114.216 33.8298V28.4474V23.0649C109.782 23.0649 105.456 26.5207 105.456 31.6562L110.838 31.6563ZM102.393 26.6856L100.82 21.5379L98.233 22.3281L99.8051 27.4758L101.377 32.6236L103.965 31.8334L102.393 26.6856ZM99.8051 27.4758L104.746 25.3415L104.499 24.7685L99.5576 26.9029L94.6165 29.0373L94.864 29.6102L99.8051 27.4758ZM99.5576 26.9029L102.197 31.5939L104.555 30.2671L101.916 25.5761L99.2768 20.8851L96.9185 22.2119L99.5576 26.9029ZM101.916 25.5761L96.9704 27.7004L97.447 28.8099L102.393 26.6856L107.338 24.5614L106.862 23.4519L101.916 25.5761ZM112.357 26.6177L107.417 24.4821L107.145 25.1094L112.086 27.245L117.027 29.3806L117.298 28.7534L112.357 26.6177ZM112.086 27.245L113.709 22.1129L111.133 21.2986L109.51 26.4307L107.888 31.5628L110.464 32.3771L112.086 27.245ZM109.51 26.4307L114.466 28.5311L114.937 27.4212L109.981 25.3208L105.025 23.2203L104.555 24.3303L109.51 26.4307ZM109.981 25.3208L107.402 30.0453L109.778 31.3423L112.357 26.6177L114.936 21.8932L112.56 20.5962L109.981 25.3208ZM27.1946 25.7466H32.577C32.577 22.6032 30.784 20.3159 28.6948 19.0789C26.8113 17.9637 24.6774 17.6357 22.8778 17.6357V23.0181V28.4005C23.5217 28.4005 23.5462 28.5408 23.2102 28.3419C23.0037 28.2196 22.6306 27.9435 22.308 27.4308C21.9658 26.887 21.8121 26.2828 21.8121 25.7466H27.1946ZM22.8778 23.0181V17.6357C20.8007 17.6357 18.7242 18.2318 17.0302 19.3927C15.41 20.5031 13.5044 22.6422 13.5044 25.7466H18.8869H24.2693C24.2693 27.3849 23.28 28.1598 23.1157 28.2725C22.8776 28.4356 22.7966 28.4005 22.8778 28.4005V23.0181ZM18.8869 25.7466V20.3642H15.3846V25.7466V31.1291H18.8869V25.7466ZM15.3846 25.7466H20.7671C20.7671 26.2506 20.4921 26.2671 20.8742 25.9748C21.2448 25.6914 21.9528 25.387 22.8778 25.387V20.0045V14.6221C19.7305 14.6221 16.6919 15.6209 14.3339 17.4245C11.9876 19.2193 10.0022 22.1069 10.0022 25.7466H15.3846ZM22.8778 20.0045V25.387C23.4264 25.387 23.9552 25.4493 24.4127 25.5601C24.8768 25.6726 25.1803 25.8134 25.3452 25.9162C25.4999 26.0126 25.4654 26.0311 25.3944 25.9136C25.3067 25.7685 25.3144 25.6677 25.3144 25.7466H30.6968H36.0793C36.0793 21.5624 33.84 18.5262 31.0394 16.7806C28.4579 15.1716 25.43 14.6221 22.8778 14.6221V20.0045ZM30.6968 25.7466H25.3144V41.5068H30.6968H36.0793V25.7466H30.6968ZM30.6968 41.5068V36.1243H27.1946V41.5068V46.8892H30.6968V41.5068ZM27.1946 41.5068H32.577V38.5747H27.1946H21.8121V41.5068H27.1946ZM27.1946 38.5747L22.3986 36.1314C22.2994 36.3261 22.1913 36.4207 22.0974 36.4769C21.9993 36.5357 21.8133 36.613 21.4932 36.613V41.9955V47.3779C25.9153 47.3779 29.9337 45.0554 31.9905 41.0179L27.1946 38.5747ZM21.4932 41.9955V36.613C20.0103 36.613 19.6084 36.1892 19.5899 36.1708C19.5362 36.1174 19.3824 35.9303 19.3824 35.4389H14H8.61755C8.61755 38.3276 9.60405 41.4188 11.9938 43.7986C14.4188 46.2135 17.7635 47.3779 21.4932 47.3779V41.9955ZM14 35.4389H19.3824C19.3824 35.1202 19.4434 34.9973 19.4505 34.9829C19.4578 34.9679 19.479 34.9233 19.579 34.8466C19.822 34.66 20.5404 34.3055 21.9005 34.3055V28.9231V23.5406C18.8623 23.5406 15.6305 24.3061 13.0229 26.3084C10.2528 28.4354 8.61755 31.651 8.61755 35.4389H14ZM21.9005 28.9231V34.3055H22.8778V28.9231V23.5406H21.9005V28.9231ZM22.8778 28.9231V34.3055C24.855 34.3055 27.2682 33.9478 29.3053 32.4415C31.6218 30.7286 32.577 28.1972 32.577 25.7466H27.1946H21.8121C21.8121 25.6331 21.8334 25.299 22.0321 24.8676C22.2417 24.4124 22.5621 24.0395 22.9051 23.7859C23.0628 23.6692 23.1996 23.5968 23.2941 23.5544C23.3412 23.5332 23.3781 23.5195 23.4027 23.5111C23.4272 23.5027 23.4405 23.4993 23.4408 23.4993C23.4411 23.4992 23.4299 23.502 23.4058 23.5062C23.3817 23.5105 23.3462 23.5158 23.2983 23.521C23.2013 23.5316 23.0629 23.5406 22.8778 23.5406V28.9231ZM17.5023 35.4389H12.1198C12.1198 37.9447 13.1024 40.4267 15.227 42.1755C17.2243 43.8196 19.6756 44.3643 21.9005 44.3643V38.9819V33.5995C21.3154 33.5995 21.5675 33.4519 22.0683 33.8641C22.3283 34.0782 22.5596 34.3726 22.712 34.715C22.8598 35.0473 22.8847 35.3136 22.8847 35.4389H17.5023ZM21.9005 38.9819V44.3643C24.4464 44.3643 26.9191 43.5661 28.8649 42.1041C30.7777 40.667 32.577 38.23 32.577 35.0317H27.1946H21.8121C21.8121 34.5181 21.9623 34.1122 22.1097 33.8562C22.2493 33.6138 22.3789 33.5126 22.3987 33.4977C22.4203 33.4815 22.2459 33.5995 21.9005 33.5995V38.9819ZM27.1946 35.0317H32.577V30.3891H27.1946H21.8121V35.0317H27.1946ZM27.1946 30.3891L23.5503 26.428C23.6024 26.3802 23.6548 26.3437 23.6972 26.3196C23.7381 26.2964 23.751 26.2953 23.7204 26.3051C23.6502 26.3275 23.3989 26.3913 22.8778 26.3913V31.7738V37.1562C25.5774 37.1562 28.4994 36.5025 30.8388 34.3503L27.1946 30.3891ZM22.8778 31.7738V26.3913H21.9005V31.7738V37.1562H22.8778V31.7738ZM21.9005 31.7738V26.3913C19.6053 26.3913 17.1315 26.9921 15.1448 28.695C13.0655 30.4773 12.1198 32.9594 12.1198 35.4389H17.5023H22.8847C22.8847 35.5406 22.8649 35.7731 22.7361 36.0715C22.6032 36.3793 22.3965 36.6574 22.1505 36.8683C21.6604 37.2884 21.3856 37.1562 21.9005 37.1562V31.7738ZM33.4632 20.4932V25.8757H36.9655V20.4932V15.1108H33.4632V20.4932ZM36.9655 20.4932H31.583V22.9774H36.9655H42.3479V20.4932H36.9655ZM36.9655 22.9774L41.3184 26.1432C41.7245 25.5848 42.2147 25.387 42.6261 25.387V20.0045V14.6221C38.3949 14.6221 34.8127 16.7863 32.6125 19.8116L36.9655 22.9774ZM42.6261 20.0045V25.387C42.9645 25.387 43.4155 25.5791 43.6848 26.0918L48.4496 23.5882L53.2144 21.0847C50.9589 16.7919 46.6859 14.6221 42.6261 14.6221V20.0045ZM48.4496 23.5882L53.0573 26.3703C53.4737 25.6806 54.0416 25.387 54.6804 25.387V20.0045V14.6221C49.9436 14.6221 46.0318 17.1791 43.8419 20.8062L48.4496 23.5882ZM54.6804 20.0045V25.387C55.3703 25.387 55.7637 25.4848 55.9498 25.5529C56.0395 25.5857 56.0833 25.6122 56.0973 25.6214C56.1101 25.6297 56.1126 25.6329 56.1139 25.6343C56.1158 25.6363 56.1343 25.6561 56.1643 25.7093C56.1952 25.7642 56.2435 25.8641 56.2947 26.0258C56.4 26.3588 56.5061 26.9198 56.5061 27.7828H61.8885H67.271C67.271 24.4283 66.4619 20.9549 63.998 18.3046C61.4701 15.5855 58.0354 14.6221 54.6804 14.6221V20.0045ZM61.8885 27.7828H56.5061V41.5068H61.8885H67.271V27.7828H61.8885ZM61.8885 41.5068V36.1243H58.3863V41.5068V46.8892H61.8885V41.5068ZM58.3863 41.5068H63.7687V27.7828H58.3863H53.0038V41.5068H58.3863ZM58.3863 27.7828H63.7687C63.7687 25.8089 63.3615 23.2299 61.6602 21.0319C59.7754 18.5967 56.9668 17.4728 53.9474 17.4728V22.8552V28.2377C54.152 28.2377 54.0712 28.2719 53.8359 28.1667C53.5789 28.0518 53.329 27.8555 53.1474 27.6209C52.9837 27.4094 52.9514 27.2667 52.9607 27.3009C52.9712 27.34 53.0038 27.4935 53.0038 27.7828H58.3863ZM53.9474 22.8552V17.4728C51.476 17.4728 48.8048 18.2547 46.7749 20.3763C44.7697 22.4721 44.0445 25.1915 44.0445 27.7828H49.427H54.8094C54.8094 27.454 54.8554 27.3425 54.8414 27.3831C54.8228 27.4376 54.7462 27.6164 54.553 27.8183C54.3575 28.0226 54.1429 28.1454 53.9843 28.2051C53.8408 28.259 53.809 28.2377 53.9474 28.2377V22.8552ZM49.427 27.7828H44.0445V41.5068H49.427H54.8094V27.7828H49.427ZM49.427 41.5068V36.1243H45.9247V41.5068V46.8892H49.427V41.5068ZM45.9247 41.5068H51.3072V27.7828H45.9247H40.5423V41.5068H45.9247ZM45.9247 27.7828H51.3072C51.3072 25.8089 50.9 23.2299 49.1987 21.0319C47.3138 18.5967 44.5052 17.4728 41.4858 17.4728V22.8552V28.2377C41.6905 28.2377 41.6097 28.2719 41.3743 28.1667C41.1174 28.0518 40.8675 27.8555 40.6859 27.6209C40.5222 27.4094 40.4899 27.2667 40.4991 27.3009C40.5097 27.34 40.5423 27.4935 40.5423 27.7828H45.9247ZM41.4858 22.8552V17.4728C39.0145 17.4728 36.3433 18.2547 34.3134 20.3763C32.3082 22.4721 31.583 25.1915 31.583 27.7828H36.9655H42.3479C42.3479 27.454 42.3938 27.3425 42.3799 27.3831C42.3612 27.4376 42.2847 27.6164 42.0915 27.8183C41.896 28.0226 41.6814 28.1454 41.5228 28.2051C41.3792 28.259 41.3475 28.2377 41.4858 28.2377V22.8552ZM36.9655 27.7828H31.583V41.5068H36.9655H42.3479V27.7828H36.9655ZM36.9655 41.5068V36.1243H33.4632V41.5068V46.8892H36.9655V41.5068ZM33.4632 41.5068H38.8456V20.4932H33.4632H28.0807V41.5068H33.4632ZM64.6345 41.5068H70.017V20.4932H64.6345H59.2521V41.5068H64.6345ZM64.6345 20.4932V25.8757H68.1368V20.4932V15.1108H64.6345V20.4932ZM68.1368 20.4932H62.7543V41.5068H68.1368H73.5192V20.4932H68.1368ZM68.1368 41.5068V36.1243H64.6345V41.5068V46.8892H68.1368V41.5068ZM63.983 15.1991H69.3654C69.3654 16.1512 68.9396 17.0303 68.294 17.6152C67.6752 18.1757 66.964 18.3824 66.3857 18.3824V13V7.61755C62.5821 7.61755 58.6005 10.4758 58.6005 15.1991H63.983ZM66.3857 13V18.3824C65.1666 18.3824 63.3652 17.3406 63.3652 15.1991H68.7477H74.1301C74.1301 10.5327 70.211 7.61755 66.3857 7.61755V13ZM68.7477 15.1991H63.3652C63.3652 12.954 65.2357 11.975 66.3857 11.975V17.3575V22.7399C70.142 22.7399 74.1301 19.8876 74.1301 15.1991H68.7477ZM66.3857 17.3575V11.975C66.9624 11.975 67.6594 12.1798 68.268 12.724C68.8989 13.2881 69.3654 14.1759 69.3654 15.1991H63.983H58.6005C58.6005 19.9441 62.6514 22.7399 66.3857 22.7399V17.3575ZM73.3402 45.9864V51.3689C75.4585 51.3689 77.7565 50.7668 79.6719 48.793C81.1812 47.2376 82.0675 45.1762 82.735 43.4032L77.6977 41.5068L72.6604 39.6104C72.3739 40.3715 72.1588 40.8519 71.9992 41.1544C71.838 41.4597 71.8076 41.4393 71.9464 41.2964C72.024 41.2164 72.145 41.1078 72.312 40.9969C72.4812 40.8846 72.6632 40.793 72.8459 40.7254C73.2085 40.5912 73.4306 40.604 73.3402 40.604V45.9864ZM77.6977 41.5068L82.7164 39.5616L74.5716 18.548L69.5529 20.4932L64.5343 22.4384L72.6791 43.452L77.6977 41.5068ZM69.5529 20.4932V25.8757H73.3402V20.4932V15.1108H69.5529V20.4932ZM73.3402 20.4932L68.2833 22.3366L74.3105 38.8706L79.3674 37.0271L84.4243 35.1837L78.3972 18.6498L73.3402 20.4932ZM79.3674 37.0271L84.4081 38.9143L90.5982 22.3804L85.5574 20.4932L80.5167 18.606L74.3266 35.14L79.3674 37.0271ZM85.5574 20.4932V25.8757H89.3448V20.4932V15.1108H85.5574V20.4932ZM89.3448 20.4932L84.3261 18.548L76.1813 39.5616L81.2 41.5068L86.2186 43.452L94.3634 22.4384L89.3448 20.4932ZM81.2 41.5068L76.169 39.5936C75.1097 42.3793 74.4487 43.2586 74.1747 43.5189C74.1338 43.5576 74.1227 43.5611 74.139 43.5513C74.156 43.541 74.167 43.5378 74.1563 43.5414C74.1261 43.5516 73.9112 43.6176 73.3402 43.6176V49V54.3825C76.18 54.3825 79.0889 53.6974 81.5873 51.325C83.7363 49.2844 85.0912 46.4171 86.2309 43.42L81.2 41.5068ZM73.3402 49H78.7227V45.9864H73.3402H67.9578V49H73.3402Z" fill="#FA3E00" mask="url(#path-1-outside-1_337_9643)"/>
</svg>
