<svg width="126" height="56" viewBox="0 0 126 56" fill="none" xmlns="http://www.w3.org/2000/svg">
<mask id="path-1-outside-1_2169_19772" maskUnits="userSpaceOnUse" x="1" y="6" width="123" height="48" fill="black">
<rect fill="white" x="1" y="6" width="123" height="48"/>
<path d="M91.4583 17.9287C95.4649 17.5104 98.6178 19.5949 100.314 22.5613C99.5458 23.4414 98.9054 24.426 98.4141 25.4645C97.5072 22.5706 94.9667 20.5052 91.7622 20.8399C87.1023 21.3264 83.977 26.3265 84.5856 30.829L84.6097 30.9955C85.1566 34.4752 87.9154 37.0958 91.5305 36.7183H91.5314C94.1282 36.4485 96.2564 34.7639 97.5192 32.5448C97.7854 33.7093 98.2603 34.7716 98.9047 35.692C97.2038 37.797 94.7893 39.3223 91.8341 39.6294C86.2661 40.2107 82.3352 36.0088 81.685 31.2228C80.907 25.4712 84.7909 18.6247 91.4583 17.9287Z"/>
<path d="M108.446 19.9378C113.09 19.9378 115.95 23.6717 115.95 27.7313C115.95 32.7499 111.655 38.0944 105.991 38.0944C101.346 38.0944 98.4813 34.4148 98.4813 30.3251C98.4813 25.3003 102.752 19.9318 108.446 19.9318M108.446 17.519C101.153 17.519 96.0686 24.2689 96.0686 30.3251C96.0686 36.3812 100.333 40.5072 105.991 40.5072C113.283 40.5072 118.362 33.7754 118.362 27.7313C118.362 21.6871 114.104 17.525 108.446 17.525V17.519Z"/>
<path d="M107.216 27.4474C109.037 27.4475 110.594 28.8409 110.594 30.6563C110.594 32.4718 109.037 33.8657 107.216 33.8658C106.131 33.8658 105.139 33.3701 104.515 32.5854C101.666 33.9435 98.41 34.6373 95.1911 33.9534H95.1902C93.2101 33.5304 91.1124 32.4256 90.0977 30.4518L91.3636 29.8009C92.1102 31.2533 93.7401 32.1876 95.4876 32.5609C98.3252 33.1637 101.264 32.5587 103.905 31.2989C103.861 31.0922 103.838 30.8774 103.838 30.6563C103.838 28.8409 105.395 27.4474 107.216 27.4474Z"/>
<path d="M95.3925 25.6856L92.8051 26.4758L92.5576 25.9029L94.916 24.5761L95.3925 25.6856Z"/>
<path d="M105.357 25.6177L105.086 26.245L102.51 25.4307L102.981 24.3208L105.357 25.6177Z"/>
<path d="M20.1946 24.7466C20.1946 22.9548 18.3213 22.0181 15.8778 22.0181C13.7195 22.0181 11.8869 23.2805 11.8869 24.7466H8.38462C8.38462 21.6109 11.8054 19.0045 15.8778 19.0045C19.6244 19.0045 23.6968 20.6742 23.6968 24.7466V40.5068H20.1946V37.5747C19.095 39.733 16.9774 40.9955 14.4932 40.9955C9.28054 40.9955 7 37.819 7 34.4389C7 30.1629 10.5023 27.9231 14.9005 27.9231H15.8778C18.7285 27.9231 20.1946 26.8235 20.1946 24.7466ZM10.5023 34.4389C10.5023 36.5973 12.0905 37.9819 14.9005 37.9819C17.7919 37.9819 20.1946 36.1493 20.1946 34.0317V29.3891C19.1765 30.3258 17.7511 30.7738 15.8778 30.7738H14.9005C12.0905 30.7738 10.5023 32.2398 10.5023 34.4389Z"/>
<path d="M26.4632 19.4932H29.9655V21.9774C31.2686 20.1855 33.3048 19.0045 35.6261 19.0045C37.8252 19.0045 40.1872 20.1855 41.4496 22.5882C42.7528 20.4299 44.9926 19.0045 47.6804 19.0045C52.4044 19.0045 54.8885 21.6516 54.8885 26.7828V40.5068H51.3863V26.7828C51.3863 24.1357 50.246 21.8552 46.9474 21.8552C44.2189 21.8552 42.427 23.5249 42.427 26.7828V40.5068H38.9247V26.7828C38.9247 24.1357 37.7845 21.8552 34.4858 21.8552C31.7573 21.8552 29.9655 23.5249 29.9655 26.7828V40.5068H26.4632V19.4932Z"/>
<path d="M57.6345 40.5068V19.4932H61.1368V40.5068H57.6345ZM56.983 14.1991C56.983 12.9367 58.0418 12 59.3857 12C60.6888 12 61.7477 12.9367 61.7477 14.1991C61.7477 15.4208 60.6888 16.3575 59.3857 16.3575C58.0418 16.3575 56.983 15.4208 56.983 14.1991Z"/>
<path d="M66.3402 44.9864C68.4172 44.9864 69.3945 43.9683 70.6977 40.5068L62.5529 19.4932H66.3402L72.3674 36.0271L78.5574 19.4932H82.3448L74.2 40.5068C72.0009 46.2896 70.1683 48 66.3402 48V44.9864Z"/>
</mask>
<path d="M91.4583 17.9287C95.4649 17.5104 98.6178 19.5949 100.314 22.5613C99.5458 23.4414 98.9054 24.426 98.4141 25.4645C97.5072 22.5706 94.9667 20.5052 91.7622 20.8399C87.1023 21.3264 83.977 26.3265 84.5856 30.829L84.6097 30.9955C85.1566 34.4752 87.9154 37.0958 91.5305 36.7183H91.5314C94.1282 36.4485 96.2564 34.7639 97.5192 32.5448C97.7854 33.7093 98.2603 34.7716 98.9047 35.692C97.2038 37.797 94.7893 39.3223 91.8341 39.6294C86.2661 40.2107 82.3352 36.0088 81.685 31.2228C80.907 25.4712 84.7909 18.6247 91.4583 17.9287Z" fill="#9B36F1"/>
<path d="M108.446 19.9378C113.09 19.9378 115.95 23.6717 115.95 27.7313C115.95 32.7499 111.655 38.0944 105.991 38.0944C101.346 38.0944 98.4813 34.4148 98.4813 30.3251C98.4813 25.3003 102.752 19.9318 108.446 19.9318M108.446 17.519C101.153 17.519 96.0686 24.2689 96.0686 30.3251C96.0686 36.3812 100.333 40.5072 105.991 40.5072C113.283 40.5072 118.362 33.7754 118.362 27.7313C118.362 21.6871 114.104 17.525 108.446 17.525V17.519Z" fill="#9B36F1"/>
<path d="M107.216 27.4474C109.037 27.4475 110.594 28.8409 110.594 30.6563C110.594 32.4718 109.037 33.8657 107.216 33.8658C106.131 33.8658 105.139 33.3701 104.515 32.5854C101.666 33.9435 98.41 34.6373 95.1911 33.9534H95.1902C93.2101 33.5304 91.1124 32.4256 90.0977 30.4518L91.3636 29.8009C92.1102 31.2533 93.7401 32.1876 95.4876 32.5609C98.3252 33.1637 101.264 32.5587 103.905 31.2989C103.861 31.0922 103.838 30.8774 103.838 30.6563C103.838 28.8409 105.395 27.4474 107.216 27.4474Z" fill="#9B36F1"/>
<path d="M95.3925 25.6856L92.8051 26.4758L92.5576 25.9029L94.916 24.5761L95.3925 25.6856Z" fill="#9B36F1"/>
<path d="M105.357 25.6177L105.086 26.245L102.51 25.4307L102.981 24.3208L105.357 25.6177Z" fill="#9B36F1"/>
<path d="M20.1946 24.7466C20.1946 22.9548 18.3213 22.0181 15.8778 22.0181C13.7195 22.0181 11.8869 23.2805 11.8869 24.7466H8.38462C8.38462 21.6109 11.8054 19.0045 15.8778 19.0045C19.6244 19.0045 23.6968 20.6742 23.6968 24.7466V40.5068H20.1946V37.5747C19.095 39.733 16.9774 40.9955 14.4932 40.9955C9.28054 40.9955 7 37.819 7 34.4389C7 30.1629 10.5023 27.9231 14.9005 27.9231H15.8778C18.7285 27.9231 20.1946 26.8235 20.1946 24.7466ZM10.5023 34.4389C10.5023 36.5973 12.0905 37.9819 14.9005 37.9819C17.7919 37.9819 20.1946 36.1493 20.1946 34.0317V29.3891C19.1765 30.3258 17.7511 30.7738 15.8778 30.7738H14.9005C12.0905 30.7738 10.5023 32.2398 10.5023 34.4389Z" fill="#9B36F1"/>
<path d="M26.4632 19.4932H29.9655V21.9774C31.2686 20.1855 33.3048 19.0045 35.6261 19.0045C37.8252 19.0045 40.1872 20.1855 41.4496 22.5882C42.7528 20.4299 44.9926 19.0045 47.6804 19.0045C52.4044 19.0045 54.8885 21.6516 54.8885 26.7828V40.5068H51.3863V26.7828C51.3863 24.1357 50.246 21.8552 46.9474 21.8552C44.2189 21.8552 42.427 23.5249 42.427 26.7828V40.5068H38.9247V26.7828C38.9247 24.1357 37.7845 21.8552 34.4858 21.8552C31.7573 21.8552 29.9655 23.5249 29.9655 26.7828V40.5068H26.4632V19.4932Z" fill="#9B36F1"/>
<path d="M57.6345 40.5068V19.4932H61.1368V40.5068H57.6345ZM56.983 14.1991C56.983 12.9367 58.0418 12 59.3857 12C60.6888 12 61.7477 12.9367 61.7477 14.1991C61.7477 15.4208 60.6888 16.3575 59.3857 16.3575C58.0418 16.3575 56.983 15.4208 56.983 14.1991Z" fill="#9B36F1"/>
<path d="M66.3402 44.9864C68.4172 44.9864 69.3945 43.9683 70.6977 40.5068L62.5529 19.4932H66.3402L72.3674 36.0271L78.5574 19.4932H82.3448L74.2 40.5068C72.0009 46.2896 70.1683 48 66.3402 48V44.9864Z" fill="#9B36F1"/>
<path d="M91.4583 17.9287L92.017 23.2821L92.0173 23.2821L91.4583 17.9287ZM100.314 22.5613L104.369 26.1013L106.889 23.2152L104.987 19.8893L100.314 22.5613ZM98.4141 25.4645L93.2779 27.074L97.3938 40.2081L103.28 27.7662L98.4141 25.4645ZM91.7622 20.8399L92.3212 26.1932L92.3213 26.1932L91.7622 20.8399ZM84.5856 30.829L79.2517 31.55L79.2551 31.575L79.2587 31.6L84.5856 30.829ZM84.6097 30.9955L79.2828 31.7665L79.2875 31.7988L79.2926 31.8311L84.6097 30.9955ZM91.5305 36.7183V31.3358H91.2502L90.9715 31.3649L91.5305 36.7183ZM91.5314 36.7183V42.1007H91.8102L92.0875 42.0719L91.5314 36.7183ZM97.5192 32.5448L102.766 31.3454L99.6837 17.8586L92.8412 29.8826L97.5192 32.5448ZM98.9047 35.692L103.091 39.0748L105.637 35.9236L103.314 32.6049L98.9047 35.692ZM91.8341 39.6294L91.2778 34.2757L91.2752 34.276L91.8341 39.6294ZM81.685 31.2228L76.3512 31.9443L76.3516 31.9473L81.685 31.2228ZM108.446 14.5554C105.473 14.5554 103.064 16.9652 103.064 19.9378C103.064 22.9105 105.473 25.3203 108.446 25.3203V19.9378V14.5554ZM108.446 25.3143C111.419 25.3143 113.828 22.9045 113.828 19.9318C113.828 16.9592 111.419 14.5494 108.446 14.5494V19.9318V25.3143ZM108.446 17.519H113.828V12.1365H108.446V17.519ZM108.446 17.525H103.064V22.9075H108.446V17.525ZM107.216 27.4474L107.216 22.0649H107.216V27.4474ZM110.594 30.6563H115.977V30.6562L110.594 30.6563ZM107.216 33.8658V39.2482H107.216L107.216 33.8658ZM104.515 32.5854L108.728 29.2355L106.063 25.8846L102.199 27.7267L104.515 32.5854ZM95.1911 33.9534L96.3097 28.6884L95.7565 28.5709H95.1911V33.9534ZM95.1902 33.9534L94.0658 39.2171L94.6217 39.3358H95.1902V33.9534ZM90.0977 30.4518L87.6364 25.665L82.8501 28.1261L85.3107 32.9126L90.0977 30.4518ZM91.3636 29.8009L96.1506 27.3401L93.6895 22.5526L88.9023 25.0141L91.3636 29.8009ZM95.4876 32.5609L94.3632 37.8246L94.3691 37.8258L95.4876 32.5609ZM103.905 31.2989L106.223 36.1569L110.05 34.3311L109.171 30.1831L103.905 31.2989ZM103.838 30.6563L98.4557 30.6562V30.6563H103.838ZM95.3925 25.6856L96.9647 30.8334L102.708 29.0793L100.338 23.5614L95.3925 25.6856ZM92.8051 26.4758L87.864 28.6102L89.773 33.0297L94.3773 31.6236L92.8051 26.4758ZM92.5576 25.9029L89.9185 21.2119L85.6947 23.5882L87.6165 28.0373L92.5576 25.9029ZM94.916 24.5761L99.8615 22.4519L97.4974 16.948L92.2768 19.8851L94.916 24.5761ZM105.357 25.6177L110.298 27.7534L112.246 23.2459L107.936 20.8932L105.357 25.6177ZM105.086 26.245L103.464 31.3771L108.098 32.8423L110.027 28.3806L105.086 26.245ZM102.51 25.4307L97.5547 23.3303L95.2454 28.7789L100.888 30.5628L102.51 25.4307ZM102.981 24.3208L105.56 19.5962L100.344 16.7495L98.0252 22.2203L102.981 24.3208ZM11.8869 24.7466V30.1291H17.2693V24.7466H11.8869ZM8.38462 24.7466H3.00217V30.1291H8.38462V24.7466ZM23.6968 40.5068V45.8892H29.0793V40.5068H23.6968ZM20.1946 40.5068H14.8121V45.8892H20.1946V40.5068ZM20.1946 37.5747H25.577L15.3986 35.1314L20.1946 37.5747ZM20.1946 29.3891H25.577V17.1235L16.5503 25.428L20.1946 29.3891ZM26.4632 19.4932V14.1108H21.0807V19.4932H26.4632ZM29.9655 19.4932H35.3479V14.1108H29.9655V19.4932ZM29.9655 21.9774H24.583V38.5294L34.3184 25.1432L29.9655 21.9774ZM41.4496 22.5882L36.6848 25.0918L41.1242 33.5408L46.0573 25.3703L41.4496 22.5882ZM54.8885 40.5068V45.8892H60.271V40.5068H54.8885ZM51.3863 40.5068H46.0038V45.8892H51.3863V40.5068ZM42.427 40.5068V45.8892H47.8094V40.5068H42.427ZM38.9247 40.5068H33.5423V45.8892H38.9247V40.5068ZM29.9655 40.5068V45.8892H35.3479V40.5068H29.9655ZM26.4632 40.5068H21.0807V45.8892H26.4632V40.5068ZM57.6345 40.5068H52.2521V45.8892H57.6345V40.5068ZM57.6345 19.4932V14.1108H52.2521V19.4932H57.6345ZM61.1368 19.4932H66.5192V14.1108H61.1368V19.4932ZM61.1368 40.5068V45.8892H66.5192V40.5068H61.1368ZM66.3402 44.9864V39.604H60.9578V44.9864H66.3402ZM70.6977 40.5068L75.735 42.4032L76.4595 40.4788L75.7164 38.5616L70.6977 40.5068ZM62.5529 19.4932V14.1108H54.6941L57.5343 21.4384L62.5529 19.4932ZM66.3402 19.4932L71.3972 17.6498L70.1071 14.1108H66.3402V19.4932ZM72.3674 36.0271L67.3105 37.8706L72.3001 51.5583L77.4081 37.9143L72.3674 36.0271ZM78.5574 19.4932V14.1108H74.8252L73.5167 17.606L78.5574 19.4932ZM82.3448 19.4932L87.3634 21.4384L90.2036 14.1108H82.3448V19.4932ZM74.2 40.5068L69.1813 38.5616L69.1751 38.5776L69.169 38.5936L74.2 40.5068ZM66.3402 48H60.9578V53.3825H66.3402V48ZM91.4583 17.9287L92.0173 23.2821C93.6019 23.1166 94.8452 23.8403 95.6419 25.2333L100.314 22.5613L104.987 19.8893C102.39 15.3495 97.3279 11.9041 90.8992 12.5754L91.4583 17.9287ZM100.314 22.5613L96.2597 19.0213C95.1605 20.2803 94.2488 21.6827 93.5486 23.1628L98.4141 25.4645L103.28 27.7662C103.562 27.1693 103.931 26.6025 104.369 26.1013L100.314 22.5613ZM98.4141 25.4645L103.55 23.855C102.013 18.9502 97.381 14.8414 91.2032 15.4865L91.7622 20.8399L92.3213 26.1932C92.4717 26.1775 92.5609 26.1938 92.6092 26.207C92.6604 26.221 92.7169 26.2456 92.7825 26.2934C92.92 26.3934 93.1396 26.6327 93.2779 27.074L98.4141 25.4645ZM91.7622 20.8399L91.2033 15.4865C87.0195 15.9233 83.7656 18.3652 81.7624 21.2798C79.7775 24.1679 78.7547 27.8732 79.2517 31.55L84.5856 30.829L89.9196 30.108C89.808 29.2823 90.0435 28.2364 90.6341 27.3771C91.2064 26.5444 91.8451 26.2429 92.3212 26.1932L91.7622 20.8399ZM84.5856 30.829L79.2587 31.6L79.2828 31.7665L84.6097 30.9955L89.9367 30.2245L89.9126 30.058L84.5856 30.829ZM84.6097 30.9955L79.2926 31.8311C80.1956 37.5775 85.0914 42.8024 92.0896 42.0716L91.5305 36.7183L90.9715 31.3649C90.7895 31.3839 90.6864 31.3606 90.6341 31.344C90.5776 31.326 90.5113 31.2933 90.4337 31.2264C90.2711 31.0862 90.0197 30.75 89.9269 30.1598L84.6097 30.9955ZM91.5305 36.7183V42.1007H91.5314V36.7183V31.3358H91.5305V36.7183ZM91.5314 36.7183L92.0875 42.0719C96.7701 41.5855 100.27 38.5931 102.197 35.2069L97.5192 32.5448L92.8412 29.8826C92.2425 30.9346 91.4863 31.3115 90.9753 31.3646L91.5314 36.7183ZM97.5192 32.5448L92.2721 33.7441C92.6904 35.5744 93.4457 37.2797 94.4955 38.779L98.9047 35.692L103.314 32.6049C103.075 32.2635 102.88 31.8442 102.766 31.3454L97.5192 32.5448ZM98.9047 35.692L94.7181 32.3091C93.7904 33.4573 92.6203 34.1363 91.2778 34.2757L91.8341 39.6294L92.3903 44.983C96.9583 44.5084 100.617 42.1367 103.091 39.0748L98.9047 35.692ZM91.8341 39.6294L91.2752 34.276C90.0669 34.4022 89.1839 34.0362 88.506 33.4291C87.7582 32.7594 87.1825 31.7052 87.0185 30.4983L81.685 31.2228L76.3516 31.9473C77.3036 38.9557 83.3141 45.9305 92.393 44.9827L91.8341 39.6294ZM81.685 31.2228L87.0189 30.5013C86.5476 27.0172 89.0657 23.5902 92.017 23.2821L91.4583 17.9287L90.8995 12.5754C80.5162 13.6592 75.2664 23.9252 76.3512 31.9443L81.685 31.2228ZM108.446 19.9378V25.3203C109.221 25.3203 109.648 25.5898 109.937 25.9106C110.284 26.2966 110.567 26.9375 110.567 27.7313H115.95H121.332C121.332 21.2526 116.588 14.5554 108.446 14.5554V19.9378ZM115.95 27.7313H110.567C110.567 30.2813 108.202 32.7119 105.991 32.7119V38.0944V43.4768C115.108 43.4768 121.332 35.2186 121.332 27.7313H115.95ZM105.991 38.0944V32.7119C105.19 32.7119 104.761 32.4355 104.483 32.1291C104.149 31.7609 103.864 31.1357 103.864 30.3251H98.4813H93.0989C93.0989 36.8763 97.8872 43.4768 105.991 43.4768V38.0944ZM98.4813 30.3251H103.864C103.864 27.744 106.227 25.3143 108.446 25.3143V19.9318V14.5494C99.2765 14.5494 93.0989 22.8567 93.0989 30.3251H98.4813ZM108.446 17.519V12.1365C97.6239 12.1365 90.6861 21.8855 90.6861 30.3251H96.0686H101.451C101.451 26.6522 104.683 22.9014 108.446 22.9014V17.519ZM96.0686 30.3251H90.6861C90.6861 39.3107 97.3174 45.8896 105.991 45.8896V40.5072V35.1247C103.349 35.1247 101.451 33.4518 101.451 30.3251H96.0686ZM105.991 40.5072V45.8896C116.805 45.8896 123.745 36.1682 123.745 27.7313H118.362H112.98C112.98 31.3826 109.762 35.1247 105.991 35.1247V40.5072ZM118.362 27.7313H123.745C123.745 18.7835 117.145 12.1426 108.446 12.1426V17.525V22.9075C111.063 22.9075 112.98 24.5907 112.98 27.7313H118.362ZM108.446 17.525H113.828V17.519H108.446H103.064V17.525H108.446ZM107.216 27.4474L107.216 32.8298C106.424 32.8298 105.212 32.1612 105.212 30.6565L110.594 30.6563L115.977 30.6562C115.976 25.5206 111.65 22.0651 107.216 22.0649L107.216 27.4474ZM110.594 30.6563H105.212C105.212 29.1523 106.424 28.4833 107.216 28.4833L107.216 33.8658L107.216 39.2482C111.651 39.248 115.977 35.7914 115.977 30.6563H110.594ZM107.216 33.8658V28.4833C107.761 28.4833 108.324 28.7282 108.728 29.2355L104.515 32.5854L100.302 35.9354C101.953 38.0121 104.5 39.2482 107.216 39.2482V33.8658ZM104.515 32.5854L102.199 27.7267C100.093 28.7306 98.0607 29.0605 96.3097 28.6884L95.1911 33.9534L94.0724 39.2183C98.7593 40.2141 103.239 39.1564 106.831 37.4441L104.515 32.5854ZM95.1911 33.9534V28.5709H95.1902V33.9534V39.3358H95.1911V33.9534ZM95.1902 33.9534L96.3146 28.6897C95.8531 28.5911 95.4573 28.4262 95.1854 28.252C95.0572 28.1699 94.9789 28.1001 94.9356 28.0548C94.9144 28.0326 94.9017 28.0164 94.8948 28.0068C94.8881 27.9975 94.8854 27.9924 94.8847 27.991L90.0977 30.4518L85.3107 32.9126C87.3398 36.8597 91.2104 38.6071 94.0658 39.2171L95.1902 33.9534ZM90.0977 30.4518L92.559 35.2385L93.8249 34.5876L91.3636 29.8009L88.9023 25.0141L87.6364 25.665L90.0977 30.4518ZM91.3636 29.8009L86.5766 32.2617C88.3347 35.6816 91.7313 37.2624 94.3632 37.8246L95.4876 32.5609L96.612 27.2972C96.4539 27.2634 96.3134 27.2199 96.1962 27.1734C96.0784 27.1267 96.0005 27.0834 95.9583 27.0563C95.8634 26.9953 96.0053 27.0575 96.1506 27.3401L91.3636 29.8009ZM95.4876 32.5609L94.3691 37.8258C98.6772 38.741 102.841 37.7702 106.223 36.1569L103.905 31.2989L101.588 26.441C99.6879 27.3473 97.9732 27.5864 96.6061 27.2959L95.4876 32.5609ZM103.905 31.2989L109.171 30.1831C109.204 30.3402 109.221 30.4993 109.221 30.6563H103.838H98.4557C98.4557 31.2555 98.5187 31.8442 98.6396 32.4148L103.905 31.2989ZM103.838 30.6563L109.221 30.6565C109.221 32.161 108.008 32.8298 107.216 32.8298V27.4474V22.0649C102.782 22.0649 98.4558 25.5207 98.4557 30.6562L103.838 30.6563ZM95.3925 25.6856L93.8204 20.5379L91.233 21.3281L92.8051 26.4758L94.3773 31.6236L96.9647 30.8334L95.3925 25.6856ZM92.8051 26.4758L97.7463 24.3415L97.4988 23.7685L92.5576 25.9029L87.6165 28.0373L87.864 28.6102L92.8051 26.4758ZM92.5576 25.9029L95.1968 30.5939L97.5551 29.2671L94.916 24.5761L92.2768 19.8851L89.9185 21.2119L92.5576 25.9029ZM94.916 24.5761L89.9704 26.7004L90.447 27.8099L95.3925 25.6856L100.338 23.5614L99.8615 22.4519L94.916 24.5761ZM105.357 25.6177L100.417 23.4821L100.145 24.1094L105.086 26.245L110.027 28.3806L110.298 27.7534L105.357 25.6177ZM105.086 26.245L106.709 21.1129L104.133 20.2986L102.51 25.4307L100.888 30.5628L103.464 31.3771L105.086 26.245ZM102.51 25.4307L107.466 27.5311L107.937 26.4212L102.981 24.3208L98.0252 22.2203L97.5547 23.3303L102.51 25.4307ZM102.981 24.3208L100.402 29.0453L102.778 30.3423L105.357 25.6177L107.936 20.8932L105.56 19.5962L102.981 24.3208ZM20.1946 24.7466H25.577C25.577 21.6032 23.784 19.3159 21.6948 18.0789C19.8113 16.9637 17.6774 16.6357 15.8778 16.6357V22.0181V27.4005C16.5217 27.4005 16.5462 27.5408 16.2102 27.3419C16.0037 27.2196 15.6306 26.9435 15.308 26.4308C14.9658 25.887 14.8121 25.2828 14.8121 24.7466H20.1946ZM15.8778 22.0181V16.6357C13.8007 16.6357 11.7242 17.2318 10.0302 18.3927C8.41001 19.5031 6.50443 21.6422 6.50443 24.7466H11.8869H17.2693C17.2693 26.3849 16.28 27.1598 16.1157 27.2725C15.8776 27.4356 15.7966 27.4005 15.8778 27.4005V22.0181ZM11.8869 24.7466V19.3642H8.38462V24.7466V30.1291H11.8869V24.7466ZM8.38462 24.7466H13.7671C13.7671 25.2506 13.4921 25.2671 13.8742 24.9748C14.2448 24.6914 14.9528 24.387 15.8778 24.387V19.0045V13.6221C12.7305 13.6221 9.69188 14.6209 7.33391 16.4245C4.98758 18.2193 3.00217 21.1069 3.00217 24.7466H8.38462ZM15.8778 19.0045V24.387C16.4264 24.387 16.9552 24.4493 17.4127 24.5601C17.8768 24.6726 18.1803 24.8134 18.3452 24.9162C18.4999 25.0126 18.4654 25.0311 18.3944 24.9136C18.3067 24.7685 18.3144 24.6677 18.3144 24.7466H23.6968H29.0793C29.0793 20.5624 26.84 17.5262 24.0394 15.7806C21.4579 14.1716 18.43 13.6221 15.8778 13.6221V19.0045ZM23.6968 24.7466H18.3144V40.5068H23.6968H29.0793V24.7466H23.6968ZM23.6968 40.5068V35.1243H20.1946V40.5068V45.8892H23.6968V40.5068ZM20.1946 40.5068H25.577V37.5747H20.1946H14.8121V40.5068H20.1946ZM20.1946 37.5747L15.3986 35.1314C15.2994 35.3261 15.1913 35.4207 15.0974 35.4769C14.9993 35.5357 14.8133 35.613 14.4932 35.613V40.9955V46.3779C18.9153 46.3779 22.9337 44.0554 24.9905 40.0179L20.1946 37.5747ZM14.4932 40.9955V35.613C13.0103 35.613 12.6084 35.1892 12.5899 35.1708C12.5362 35.1174 12.3824 34.9303 12.3824 34.4389H7H1.61755C1.61755 37.3276 2.60405 40.4188 4.99384 42.7986C7.41879 45.2135 10.7635 46.3779 14.4932 46.3779V40.9955ZM7 34.4389H12.3824C12.3824 34.1202 12.4434 33.9973 12.4505 33.9829C12.4578 33.9679 12.479 33.9233 12.579 33.8466C12.822 33.66 13.5404 33.3055 14.9005 33.3055V27.9231V22.5406C11.8623 22.5406 8.63052 23.3061 6.02285 25.3084C3.25282 27.4354 1.61755 30.651 1.61755 34.4389H7ZM14.9005 27.9231V33.3055H15.8778V27.9231V22.5406H14.9005V27.9231ZM15.8778 27.9231V33.3055C17.855 33.3055 20.2682 32.9478 22.3053 31.4415C24.6218 29.7286 25.577 27.1972 25.577 24.7466H20.1946H14.8121C14.8121 24.6331 14.8334 24.299 15.0321 23.8676C15.2417 23.4124 15.5621 23.0395 15.9051 22.7859C16.0628 22.6692 16.1996 22.5968 16.2941 22.5544C16.3412 22.5332 16.3781 22.5195 16.4027 22.5111C16.4272 22.5027 16.4405 22.4993 16.4408 22.4993C16.4411 22.4992 16.4299 22.502 16.4058 22.5062C16.3817 22.5105 16.3462 22.5158 16.2983 22.521C16.2013 22.5316 16.0629 22.5406 15.8778 22.5406V27.9231ZM10.5023 34.4389H5.11981C5.11981 36.9447 6.10241 39.4267 8.22695 41.1755C10.2243 42.8196 12.6756 43.3643 14.9005 43.3643V37.9819V32.5995C14.3154 32.5995 14.5675 32.4519 15.0683 32.8641C15.3283 33.0782 15.5596 33.3726 15.712 33.715C15.8598 34.0473 15.8847 34.3136 15.8847 34.4389H10.5023ZM14.9005 37.9819V43.3643C17.4464 43.3643 19.9191 42.5661 21.8649 41.1041C23.7777 39.667 25.577 37.23 25.577 34.0317H20.1946H14.8121C14.8121 33.5181 14.9623 33.1122 15.1097 32.8562C15.2493 32.6138 15.3789 32.5126 15.3987 32.4977C15.4203 32.4815 15.2459 32.5995 14.9005 32.5995V37.9819ZM20.1946 34.0317H25.577V29.3891H20.1946H14.8121V34.0317H20.1946ZM20.1946 29.3891L16.5503 25.428C16.6024 25.3802 16.6548 25.3437 16.6972 25.3196C16.7381 25.2964 16.751 25.2953 16.7204 25.3051C16.6502 25.3275 16.3989 25.3913 15.8778 25.3913V30.7738V36.1562C18.5774 36.1562 21.4994 35.5025 23.8388 33.3503L20.1946 29.3891ZM15.8778 30.7738V25.3913H14.9005V30.7738V36.1562H15.8778V30.7738ZM14.9005 30.7738V25.3913C12.6053 25.3913 10.1315 25.9921 8.14477 27.695C6.06548 29.4773 5.11981 31.9594 5.11981 34.4389H10.5023H15.8847C15.8847 34.5406 15.8649 34.7731 15.7361 35.0715C15.6032 35.3793 15.3965 35.6574 15.1505 35.8683C14.6604 36.2884 14.3856 36.1562 14.9005 36.1562V30.7738ZM26.4632 19.4932V24.8757H29.9655V19.4932V14.1108H26.4632V19.4932ZM29.9655 19.4932H24.583V21.9774H29.9655H35.3479V19.4932H29.9655ZM29.9655 21.9774L34.3184 25.1432C34.7245 24.5848 35.2147 24.387 35.6261 24.387V19.0045V13.6221C31.3949 13.6221 27.8127 15.7863 25.6125 18.8116L29.9655 21.9774ZM35.6261 19.0045V24.387C35.9645 24.387 36.4155 24.5791 36.6848 25.0918L41.4496 22.5882L46.2144 20.0847C43.9589 15.7919 39.6859 13.6221 35.6261 13.6221V19.0045ZM41.4496 22.5882L46.0573 25.3703C46.4737 24.6806 47.0416 24.387 47.6804 24.387V19.0045V13.6221C42.9436 13.6221 39.0318 16.1791 36.8419 19.8062L41.4496 22.5882ZM47.6804 19.0045V24.387C48.3703 24.387 48.7637 24.4848 48.9498 24.5529C49.0395 24.5857 49.0833 24.6122 49.0973 24.6214C49.1101 24.6297 49.1126 24.6329 49.1139 24.6343C49.1158 24.6363 49.1343 24.6561 49.1643 24.7093C49.1952 24.7642 49.2435 24.8641 49.2947 25.0258C49.4 25.3588 49.5061 25.9198 49.5061 26.7828H54.8885H60.271C60.271 23.4283 59.4619 19.9549 56.998 17.3046C54.4701 14.5855 51.0354 13.6221 47.6804 13.6221V19.0045ZM54.8885 26.7828H49.5061V40.5068H54.8885H60.271V26.7828H54.8885ZM54.8885 40.5068V35.1243H51.3863V40.5068V45.8892H54.8885V40.5068ZM51.3863 40.5068H56.7687V26.7828H51.3863H46.0038V40.5068H51.3863ZM51.3863 26.7828H56.7687C56.7687 24.8089 56.3615 22.2299 54.6602 20.0319C52.7754 17.5967 49.9668 16.4728 46.9474 16.4728V21.8552V27.2377C47.152 27.2377 47.0712 27.2719 46.8359 27.1667C46.5789 27.0518 46.329 26.8555 46.1474 26.6209C45.9837 26.4094 45.9514 26.2667 45.9607 26.3009C45.9712 26.34 46.0038 26.4935 46.0038 26.7828H51.3863ZM46.9474 21.8552V16.4728C44.476 16.4728 41.8048 17.2547 39.7749 19.3763C37.7697 21.4721 37.0445 24.1915 37.0445 26.7828H42.427H47.8094C47.8094 26.454 47.8554 26.3425 47.8414 26.3831C47.8228 26.4376 47.7462 26.6164 47.553 26.8183C47.3575 27.0226 47.1429 27.1454 46.9843 27.2051C46.8408 27.259 46.809 27.2377 46.9474 27.2377V21.8552ZM42.427 26.7828H37.0445V40.5068H42.427H47.8094V26.7828H42.427ZM42.427 40.5068V35.1243H38.9247V40.5068V45.8892H42.427V40.5068ZM38.9247 40.5068H44.3072V26.7828H38.9247H33.5423V40.5068H38.9247ZM38.9247 26.7828H44.3072C44.3072 24.8089 43.9 22.2299 42.1987 20.0319C40.3138 17.5967 37.5052 16.4728 34.4858 16.4728V21.8552V27.2377C34.6905 27.2377 34.6097 27.2719 34.3743 27.1667C34.1174 27.0518 33.8675 26.8555 33.6859 26.6209C33.5222 26.4094 33.4899 26.2667 33.4991 26.3009C33.5097 26.34 33.5423 26.4935 33.5423 26.7828H38.9247ZM34.4858 21.8552V16.4728C32.0145 16.4728 29.3433 17.2547 27.3134 19.3763C25.3082 21.4721 24.583 24.1915 24.583 26.7828H29.9655H35.3479C35.3479 26.454 35.3938 26.3425 35.3799 26.3831C35.3612 26.4376 35.2847 26.6164 35.0915 26.8183C34.896 27.0226 34.6814 27.1454 34.5228 27.2051C34.3792 27.259 34.3475 27.2377 34.4858 27.2377V21.8552ZM29.9655 26.7828H24.583V40.5068H29.9655H35.3479V26.7828H29.9655ZM29.9655 40.5068V35.1243H26.4632V40.5068V45.8892H29.9655V40.5068ZM26.4632 40.5068H31.8456V19.4932H26.4632H21.0807V40.5068H26.4632ZM57.6345 40.5068H63.017V19.4932H57.6345H52.2521V40.5068H57.6345ZM57.6345 19.4932V24.8757H61.1368V19.4932V14.1108H57.6345V19.4932ZM61.1368 19.4932H55.7543V40.5068H61.1368H66.5192V19.4932H61.1368ZM61.1368 40.5068V35.1243H57.6345V40.5068V45.8892H61.1368V40.5068ZM56.983 14.1991H62.3654C62.3654 15.1512 61.9396 16.0303 61.294 16.6152C60.6752 17.1757 59.964 17.3824 59.3857 17.3824V12V6.61755C55.5821 6.61755 51.6005 9.47578 51.6005 14.1991H56.983ZM59.3857 12V17.3824C58.1666 17.3824 56.3652 16.3406 56.3652 14.1991H61.7477H67.1301C67.1301 9.53273 63.211 6.61755 59.3857 6.61755V12ZM61.7477 14.1991H56.3652C56.3652 11.954 58.2357 10.975 59.3857 10.975V16.3575V21.7399C63.142 21.7399 67.1301 18.8876 67.1301 14.1991H61.7477ZM59.3857 16.3575V10.975C59.9624 10.975 60.6594 11.1798 61.268 11.724C61.8989 12.2881 62.3654 13.1759 62.3654 14.1991H56.983H51.6005C51.6005 18.9441 55.6514 21.7399 59.3857 21.7399V16.3575ZM66.3402 44.9864V50.3689C68.4585 50.3689 70.7565 49.7668 72.6719 47.793C74.1812 46.2376 75.0675 44.1762 75.735 42.4032L70.6977 40.5068L65.6604 38.6104C65.3739 39.3715 65.1588 39.8519 64.9992 40.1544C64.838 40.4597 64.8076 40.4393 64.9464 40.2964C65.024 40.2164 65.145 40.1078 65.312 39.9969C65.4812 39.8846 65.6632 39.793 65.8459 39.7254C66.2085 39.5912 66.4306 39.604 66.3402 39.604V44.9864ZM70.6977 40.5068L75.7164 38.5616L67.5716 17.548L62.5529 19.4932L57.5343 21.4384L65.6791 42.452L70.6977 40.5068ZM62.5529 19.4932V24.8757H66.3402V19.4932V14.1108H62.5529V19.4932ZM66.3402 19.4932L61.2833 21.3366L67.3105 37.8706L72.3674 36.0271L77.4243 34.1837L71.3972 17.6498L66.3402 19.4932ZM72.3674 36.0271L77.4081 37.9143L83.5982 21.3804L78.5574 19.4932L73.5167 17.606L67.3266 34.14L72.3674 36.0271ZM78.5574 19.4932V24.8757H82.3448V19.4932V14.1108H78.5574V19.4932ZM82.3448 19.4932L77.3261 17.548L69.1813 38.5616L74.2 40.5068L79.2186 42.452L87.3634 21.4384L82.3448 19.4932ZM74.2 40.5068L69.169 38.5936C68.1097 41.3793 67.4487 42.2586 67.1747 42.5189C67.1338 42.5576 67.1227 42.5611 67.139 42.5513C67.156 42.541 67.167 42.5378 67.1563 42.5414C67.1261 42.5516 66.9112 42.6176 66.3402 42.6176V48V53.3825C69.18 53.3825 72.0889 52.6974 74.5873 50.325C76.7363 48.2844 78.0912 45.4171 79.2309 42.42L74.2 40.5068ZM66.3402 48H71.7227V44.9864H66.3402H60.9578V48H66.3402Z" fill="white" mask="url(#path-1-outside-1_2169_19772)"/>
</svg>
