<svg xmlns="http://www.w3.org/2000/svg" width="126" height="56" fill="none" viewBox="0 0 126 56"><mask id="a" width="123" height="48" x="1" y="6" fill="#000" maskUnits="userSpaceOnUse"><path fill="#fff" d="M1 6h123v48H1z"/><path d="M91.458 17.929c4.007-.419 7.16 1.666 8.856 4.632a12.7 12.7 0 0 0-1.9 2.904c-.907-2.894-3.447-4.96-6.652-4.625-4.66.486-7.785 5.486-7.176 9.989l.024.166c.547 3.48 3.305 6.1 6.92 5.723h.001c2.597-.27 4.725-1.954 5.988-4.173a9 9 0 0 0 1.386 3.147c-1.701 2.105-4.116 3.63-7.07 3.937-5.569.582-9.5-3.62-10.15-8.406-.778-5.752 3.106-12.598 9.773-13.294"/><path d="M108.446 19.938c4.644 0 7.504 3.734 7.504 7.793 0 5.019-4.295 10.363-9.959 10.363-4.645 0-7.51-3.68-7.51-7.769 0-5.025 4.271-10.393 9.965-10.393m0-2.413c-7.293 0-12.377 6.75-12.377 12.806s4.264 10.182 9.922 10.182c7.292 0 12.371-6.732 12.371-12.776s-4.258-10.206-9.916-10.206z"/><path d="M107.216 27.447c1.821 0 3.378 1.394 3.378 3.21 0 1.815-1.557 3.209-3.378 3.209a3.45 3.45 0 0 1-2.701-1.28c-2.849 1.358-6.105 2.051-9.324 1.367-1.98-.423-4.079-1.527-5.093-3.501l1.266-.651c.746 1.452 2.376 2.387 4.124 2.76 2.837.603 5.776-.002 8.417-1.262a3 3 0 0 1-.067-.643c0-1.815 1.557-3.209 3.378-3.209m-11.823-1.761-2.588.79-.247-.573 2.358-1.327zm9.964-.068-.271.627-2.576-.814.471-1.11zm-85.162-.871c0-1.792-1.874-2.729-4.317-2.729-2.158 0-3.991 1.262-3.991 2.729H8.385c0-3.136 3.42-5.742 7.493-5.742 3.746 0 7.819 1.67 7.819 5.742v15.76h-3.502v-2.932c-1.1 2.158-3.218 3.42-5.702 3.42C9.281 40.996 7 37.82 7 34.44c0-4.276 3.502-6.516 7.9-6.516h.978c2.85 0 4.317-1.1 4.317-3.176m-9.693 9.692c0 2.158 1.588 3.543 4.398 3.543 2.892 0 5.295-1.833 5.295-3.95V29.39c-1.018.937-2.444 1.385-4.317 1.385H14.9c-2.81 0-4.398 1.466-4.398 3.665m15.961-14.947h3.502v2.484c1.304-1.791 3.34-2.972 5.661-2.972 2.2 0 4.561 1.18 5.824 3.583 1.303-2.158 3.543-3.584 6.23-3.584 4.724 0 7.209 2.648 7.209 7.779v13.724h-3.503V26.783c0-2.647-1.14-4.928-4.439-4.928-2.728 0-4.52 1.67-4.52 4.928v13.724h-3.502V26.783c0-2.647-1.14-4.928-4.44-4.928-2.728 0-4.52 1.67-4.52 4.928v13.724h-3.502zm31.172 21.014V19.493h3.502v21.014zm-.652-26.308c0-1.262 1.059-2.199 2.403-2.199 1.303 0 2.362.937 2.362 2.2 0 1.22-1.06 2.158-2.362 2.158-1.344 0-2.403-.937-2.403-2.159m9.357 30.787c2.077 0 3.054-1.018 4.358-4.48l-8.145-21.013h3.787l6.027 16.534 6.19-16.534h3.788L74.2 40.507C72 46.29 70.168 48 66.34 48z"/></mask><path fill="#9b36f1" d="M91.458 17.929c4.007-.419 7.16 1.666 8.856 4.632a12.7 12.7 0 0 0-1.9 2.904c-.907-2.894-3.447-4.96-6.652-4.625-4.66.486-7.785 5.486-7.176 9.989l.024.166c.547 3.48 3.305 6.1 6.92 5.723h.001c2.597-.27 4.725-1.954 5.988-4.173a9 9 0 0 0 1.386 3.147c-1.701 2.105-4.116 3.63-7.07 3.937-5.569.582-9.5-3.62-10.15-8.406-.778-5.752 3.106-12.598 9.773-13.294"/><path fill="#9b36f1" d="M108.446 19.938c4.644 0 7.504 3.734 7.504 7.793 0 5.019-4.295 10.363-9.959 10.363-4.645 0-7.51-3.68-7.51-7.769 0-5.025 4.271-10.393 9.965-10.393m0-2.413c-7.293 0-12.377 6.75-12.377 12.806s4.264 10.182 9.922 10.182c7.292 0 12.371-6.732 12.371-12.776s-4.258-10.206-9.916-10.206z"/><path fill="#9b36f1" d="M107.216 27.447c1.821 0 3.378 1.394 3.378 3.21 0 1.815-1.557 3.209-3.378 3.209a3.45 3.45 0 0 1-2.701-1.28c-2.849 1.358-6.105 2.051-9.324 1.367-1.98-.423-4.079-1.527-5.093-3.501l1.266-.651c.746 1.452 2.376 2.387 4.124 2.76 2.837.603 5.776-.002 8.417-1.262a3 3 0 0 1-.067-.643c0-1.815 1.557-3.209 3.378-3.209m-11.823-1.761-2.588.79-.247-.573 2.358-1.327zm9.964-.068-.271.627-2.576-.814.471-1.11zm-85.162-.871c0-1.792-1.874-2.729-4.317-2.729-2.158 0-3.991 1.262-3.991 2.729H8.385c0-3.136 3.42-5.742 7.493-5.742 3.746 0 7.819 1.67 7.819 5.742v15.76h-3.502v-2.932c-1.1 2.158-3.218 3.42-5.702 3.42C9.281 40.996 7 37.82 7 34.44c0-4.276 3.502-6.516 7.9-6.516h.978c2.85 0 4.317-1.1 4.317-3.176m-9.693 9.692c0 2.158 1.588 3.543 4.398 3.543 2.892 0 5.295-1.833 5.295-3.95V29.39c-1.018.937-2.444 1.385-4.317 1.385H14.9c-2.81 0-4.398 1.466-4.398 3.665m15.961-14.947h3.502v2.484c1.304-1.791 3.34-2.972 5.661-2.972 2.2 0 4.561 1.18 5.824 3.583 1.303-2.158 3.543-3.584 6.23-3.584 4.724 0 7.209 2.648 7.209 7.779v13.724h-3.503V26.783c0-2.647-1.14-4.928-4.439-4.928-2.728 0-4.52 1.67-4.52 4.928v13.724h-3.502V26.783c0-2.647-1.14-4.928-4.44-4.928-2.728 0-4.52 1.67-4.52 4.928v13.724h-3.502zm31.172 21.014V19.493h3.502v21.014zm-.652-26.308c0-1.262 1.059-2.199 2.403-2.199 1.303 0 2.362.937 2.362 2.2 0 1.22-1.06 2.158-2.362 2.158-1.344 0-2.403-.937-2.403-2.159m9.357 30.787c2.077 0 3.054-1.018 4.358-4.48l-8.145-21.013h3.787l6.027 16.534 6.19-16.534h3.788L74.2 40.507C72 46.29 70.168 48 66.34 48z"/><path fill="#fff" d="m91.458 17.929.559 5.353zm8.856 4.632 4.055 3.54 2.52-2.886-1.902-3.326zm-1.9 2.904-5.136 1.609 4.116 13.134 5.886-12.442zm-6.652-4.625.56 5.353zm-7.176 9.989-5.334.721.003.025.004.025zm.024.166-5.327.771.004.033.006.032zm6.92 5.723v-5.382h-.28l-.278.029zm.001 0v5.383h.28l.276-.03zm5.988-4.173 5.247-1.2-3.082-13.486-6.843 12.024zm1.386 3.147 4.186 3.383 2.546-3.151-2.323-3.32zm-7.07 3.937-.557-5.353h-.003zm-10.15-8.406-5.334.721v.003zm26.761-16.668a5.38 5.38 0 0 0-5.382 5.383 5.38 5.38 0 0 0 5.382 5.382zm0 10.76a5.38 5.38 0 0 0 5.382-5.383 5.38 5.38 0 0 0-5.382-5.383v10.765m0-7.796h5.382v-5.382h-5.382zm0 .006h-5.382v5.383h5.382zm-1.23 9.922v-5.382zm3.378 3.21h5.383zm-3.378 3.209v5.382zm-2.701-1.28 4.213-3.35-2.665-3.351-3.864 1.842zm-9.324 1.367 1.119-5.265-.553-.117h-.566zm0 0-1.125 5.264.556.119h.568zm-5.093-3.501-2.462-4.787-4.786 2.461 2.46 4.787zm1.266-.651 4.787-2.46-2.462-4.788-4.787 2.461zm4.124 2.76-1.125 5.264h.006zm8.417-1.262 2.318 4.858 3.827-1.826-.879-4.148zm-.067-.643h-5.382zm-8.445-4.97 1.572 5.147 5.743-1.754-2.37-5.518zm-2.588.79-4.941 2.134 1.909 4.42 4.604-1.406zm-.247-.573-2.64-4.691-4.223 2.376 1.922 4.45zm2.358-1.327 4.946-2.124-2.365-5.504-5.22 2.937zm10.441 1.042 4.941 2.135 1.948-4.507-4.31-2.353zm-.271.627-1.622 5.132 4.634 1.465 1.929-4.461zm-2.576-.814-4.955-2.1-2.31 5.448 5.643 1.784zm.471-1.11 2.579-4.725-5.216-2.846-2.319 5.47zm-91.094.426v5.382h5.382v-5.382zm-3.502 0H3.002v5.382h5.383zm15.312 15.76v5.382h5.382v-5.382zm-3.502 0h-5.383v5.382h5.383zm0-2.932h5.382L15.399 35.13zm0-8.186h5.382V17.124l-9.027 8.304zm6.268-9.896V14.11h-5.382v5.382zm3.502 0h5.383V14.11h-5.382zm0 2.484h-5.382V38.53l9.735-13.386zm11.485.611-4.765 2.504 4.44 8.449 4.932-8.17zm13.438 17.919v5.382h5.383v-5.382zm-3.502 0h-5.382v5.382h5.382zm-8.959 0v5.382h5.382v-5.382zm-3.502 0h-5.383v5.382h5.383zm-8.96 0v5.382h5.383v-5.382zm-3.502 0h-5.382v5.382h5.382zm31.172 0h-5.383v5.382h5.383zm0-21.014V14.11h-5.383v5.382zm3.502 0h5.382V14.11h-5.382zm0 21.014v5.382h5.382v-5.382zm5.203 4.48v-5.383h-5.382v5.382zm4.358-4.48 5.037 1.896.725-1.924-.744-1.917zm-8.145-21.014V14.11h-7.859l2.84 7.327zm3.787 0 5.057-1.843-1.29-3.54H66.34zm6.027 16.534-5.056 1.844 4.99 13.687 5.107-13.644zm6.19-16.534V14.11h-3.732l-1.308 3.495zm3.788 0 5.018 1.945 2.84-7.327h-7.858zM74.2 40.507l-5.019-1.945-.006.016-.006.016zM66.34 48h-5.382v5.383h5.382zm25.118-30.071.56 5.353c1.584-.165 2.827.558 3.624 1.951l4.672-2.672 4.673-2.672c-2.597-4.54-7.66-7.985-14.088-7.314zm8.856 4.632-4.054-3.54a18 18 0 0 0-2.711 4.142l4.865 2.302 4.866 2.301a7.3 7.3 0 0 1 1.089-1.665zm-1.9 2.904 5.136-1.61c-1.537-4.905-6.169-9.014-12.347-8.369l.56 5.354.558 5.353c.15-.016.24 0 .288.014a.5.5 0 0 1 .174.086c.137.1.357.34.495.781zm-6.652-4.625-.559-5.353c-4.184.436-7.437 2.878-9.44 5.793-1.986 2.888-3.008 6.593-2.511 10.27l5.334-.721 5.334-.721c-.112-.826.123-1.872.714-2.73.572-.834 1.211-1.135 1.687-1.185zm-7.176 9.989-5.327.771.024.166 5.327-.77 5.327-.771-.024-.167zm.024.166-5.317.836c.903 5.747 5.798 10.971 12.797 10.24l-.56-5.353-.558-5.353a.8.8 0 0 1-.338-.021.6.6 0 0 1-.2-.118c-.163-.14-.414-.476-.507-1.066zm6.92 5.723v5.383h.001V31.336zm.001 0 .556 5.354c4.683-.486 8.183-3.479 10.11-6.865l-4.678-2.662-4.678-2.662c-.598 1.052-1.355 1.428-1.866 1.482zm5.988-4.173-5.247 1.2a14.3 14.3 0 0 0 2.224 5.034l4.409-3.087 4.409-3.087a3.6 3.6 0 0 1-.548-1.26zm1.386 3.147-4.187-3.383c-.928 1.148-2.098 1.827-3.44 1.967l.556 5.353.556 5.354c4.568-.475 8.227-2.846 10.701-5.908zm-7.07 3.937-.56-5.353c-1.208.126-2.091-.24-2.769-.847-.748-.67-1.323-1.724-1.487-2.93l-5.334.724-5.333.724c.952 7.009 6.962 13.984 16.041 13.036zm-10.15-8.406 5.334-.722c-.471-3.484 2.047-6.91 4.998-7.219l-.559-5.353-.558-5.354c-10.384 1.084-15.634 11.35-14.549 19.37zm26.761-11.285v5.382c.775 0 1.202.27 1.491.59.347.387.63 1.027.63 1.821h10.765c0-6.478-4.744-13.176-12.886-13.176zm7.504 7.793h-5.383c0 2.55-2.365 4.98-4.576 4.98v10.766c9.117 0 15.341-8.258 15.341-15.746zm-9.959 10.363v-5.382c-.801 0-1.23-.277-1.508-.583-.334-.368-.619-.993-.619-1.804H93.099c0 6.551 4.788 13.152 12.892 13.152zm-7.51-7.769h5.383c0-2.581 2.363-5.01 4.582-5.01V14.548c-9.17 0-15.347 8.308-15.347 15.776zm9.965-12.806v-5.382c-10.822 0-17.76 9.749-17.76 18.188h10.765c0-3.673 3.232-7.424 6.995-7.424zM96.069 30.325h-5.383c0 8.986 6.631 15.565 15.305 15.565V35.125c-2.642 0-4.54-1.673-4.54-4.8zm9.922 10.182v5.383c10.814 0 17.754-9.722 17.754-18.159H112.98c0 3.652-3.218 7.394-6.989 7.394zm12.371-12.776h5.383c0-8.948-6.6-15.588-15.299-15.588v10.765c2.617 0 4.534 1.683 4.534 4.823zm-9.916-10.206h5.382v-.006h-10.764v.006zm-1.23 9.922v5.383c-.792 0-2.004-.669-2.004-2.173h10.765c-.001-5.136-4.327-8.592-8.761-8.592zm3.378 3.21h-5.382c0-1.505 1.212-2.174 2.004-2.174v10.765c4.435 0 8.761-3.457 8.761-8.592zm-3.378 3.209v-5.383c.545 0 1.108.245 1.512.752l-4.213 3.35-4.213 3.35a8.84 8.84 0 0 0 6.914 3.313zm-2.701-1.28-2.316-4.86c-2.106 1.005-4.138 1.335-5.89.962l-1.118 5.265-1.119 5.265c4.687.996 9.167-.062 12.759-1.774zm-9.324 1.367v-5.382zv5.383zm0 0 1.124-5.263a3.5 3.5 0 0 1-1.13-.438 1.4 1.4 0 0 1-.25-.197l-.05-.064-4.787 2.46-4.787 2.462c2.029 3.947 5.9 5.694 8.755 6.304zm-5.093-3.501 2.461 4.787 1.266-.651-2.461-4.787-2.462-4.787-1.266.651zm1.266-.651-4.787 2.46c1.758 3.42 5.154 5.001 7.786 5.564l1.125-5.264 1.124-5.264a2.6 2.6 0 0 1-.416-.124 1.4 1.4 0 0 1-.238-.117c-.095-.06.047.002.193.284zm4.124 2.76-1.119 5.265c4.308.915 8.472-.056 11.854-1.67l-2.318-4.857-2.317-4.858c-1.9.906-3.615 1.145-4.982.855zm8.417-1.262 5.266-1.116q.05.236.05.473H98.456q.001.901.184 1.759zm-.067-.643h5.383c0 1.505-1.213 2.174-2.005 2.174V22.065c-4.434 0-8.76 3.456-8.76 8.591zm-8.445-4.97-1.573-5.148-2.587.79 1.572 5.148 1.572 5.148 2.588-.79zm-2.588.79 4.941-2.134-.247-.573-4.941 2.134-4.942 2.134.248.573zm-.247-.573 2.639 4.69 2.358-1.326-2.639-4.69-2.64-4.692-2.358 1.327zm2.358-1.327L89.97 26.7l.477 1.11 4.945-2.124 4.946-2.125-.476-1.11zm10.441 1.042-4.94-2.136-.272.627 4.941 2.136 4.941 2.136.271-.628zm-.271.627 1.623-5.132-2.576-.814-1.623 5.132-1.622 5.132 2.576.814zm-2.576-.814 4.956 2.1.471-1.11-4.956-2.1-4.956-2.1-.47 1.11zm.471-1.11-2.579 4.724 2.376 1.297 2.579-4.724 2.579-4.725-2.376-1.297zm-82.786.426h5.382c0-3.144-1.793-5.431-3.882-6.668-1.884-1.115-4.018-1.443-5.817-1.443V27.4c.644 0 .668.14.332-.06a2.8 2.8 0 0 1-.902-.91 3.2 3.2 0 0 1-.496-1.684zm-4.317-2.729v-5.382c-2.077 0-4.154.596-5.848 1.757-1.62 1.11-3.526 3.25-3.526 6.354H17.27c0 1.638-.989 2.413-1.153 2.526-.238.163-.32.128-.238.128zm-3.991 2.729v-5.383H8.385V30.13h3.502zm-3.502 0h5.382c0 .504-.275.52.107.228.37-.284 1.079-.588 2.004-.588V13.622c-3.148 0-6.186.999-8.544 2.802-2.346 1.795-4.332 4.683-4.332 8.323zm7.493-5.742v5.382a6.6 6.6 0 0 1 1.535.173c.464.113.767.253.932.356.155.097.12.115.05-.002-.088-.146-.08-.246-.08-.167h10.764c0-4.185-2.239-7.22-5.04-8.966-2.581-1.61-5.609-2.159-8.161-2.159zm7.819 5.742h-5.383v15.76H29.08v-15.76zm0 15.76v-5.383h-3.502V45.89h3.502zm-3.502 0h5.382v-2.932H14.812v2.932zm0-2.932-4.796-2.444a.8.8 0 0 1-.302.346c-.098.059-.284.136-.604.136v10.765c4.422 0 8.44-2.323 10.498-6.36zm-5.702 3.42v-5.382c-1.483 0-1.885-.424-1.903-.442-.054-.054-.208-.24-.208-.732H1.618c0 2.889.986 5.98 3.376 8.36 2.425 2.415 5.77 3.579 9.5 3.579zM7 34.44h5.382c0-.319.061-.442.069-.456.007-.015.028-.06.128-.136.243-.187.961-.541 2.321-.541V22.54c-3.038 0-6.27.765-8.877 2.767-2.77 2.127-4.405 5.343-4.405 9.13zm7.9-6.516v5.383h.978V22.54H14.9zm.978 0v5.383c1.977 0 4.39-.358 6.427-1.864 2.317-1.713 3.272-4.245 3.272-6.695H14.812c0-.114.021-.448.22-.88.21-.455.53-.828.873-1.081.158-.117.295-.19.39-.232a1 1 0 0 1 .146-.055l-.035.007q-.036.008-.108.015a4 4 0 0 1-.42.02zm-5.376 6.516H5.12c0 2.506.982 4.988 3.107 6.736 1.997 1.645 4.449 2.19 6.673 2.19V32.6c-.585 0-.332-.148.168.264.26.214.492.509.644.851.148.332.173.599.173.724zm4.398 3.543v5.382c2.546 0 5.02-.798 6.965-2.26 1.913-1.437 3.712-3.874 3.712-7.072H14.812c0-.514.15-.92.298-1.176a1.2 1.2 0 0 1 .289-.358c.021-.017-.153.102-.498.102zm5.295-3.95h5.382V29.39H14.812v4.643zm0-4.643-3.645-3.961a1 1 0 0 1 .147-.108c.041-.024.054-.025.023-.015-.07.023-.321.086-.842.086v10.765c2.7 0 5.621-.654 7.96-2.806zm-4.317 1.385V25.39H14.9v10.765h.978zm-.978 0V25.39c-2.295 0-4.768.601-6.755 2.304-2.08 1.782-3.025 4.264-3.025 6.744h10.765c0 .102-.02.334-.149.633a2.2 2.2 0 0 1-.586.796c-.49.42-.764.288-.25.288zm11.563-11.28v5.382h3.502V14.11h-3.502zm3.502 0h-5.382v2.483h10.765v-2.484zm0 2.483 4.353 3.166c.407-.558.897-.756 1.308-.756V13.622c-4.231 0-7.813 2.164-10.013 5.19zm5.661-2.972v5.382c.339 0 .79.192 1.059.705l4.765-2.504 4.764-2.503a11.99 11.99 0 0 0-10.588-6.463zm5.824 3.583 4.607 2.782c.417-.69.985-.983 1.623-.983V13.622c-4.736 0-8.648 2.557-10.838 6.184zm6.23-3.584v5.383c.69 0 1.084.098 1.27.166.09.033.133.06.147.068l.017.013a.4.4 0 0 1 .05.075c.031.055.08.155.13.317.106.333.212.894.212 1.757h10.765c0-3.355-.81-6.828-3.273-9.478-2.528-2.72-5.963-3.683-9.318-3.683zm7.209 7.779h-5.383v13.724h10.765V26.783zm0 13.724v-5.383h-3.503V45.89h3.502zm-3.503 0h5.383V26.783H46.004v13.724zm0-13.724h5.383c0-1.974-.407-4.553-2.109-6.751-1.885-2.435-4.693-3.56-7.713-3.56v10.766c.205 0 .124.034-.111-.071a1.86 1.86 0 0 1-.689-.546c-.163-.212-.196-.354-.186-.32.01.039.043.193.043.482zm-4.439-4.928v-5.382c-2.471 0-5.142.782-7.172 2.903-2.005 2.096-2.73 4.816-2.73 7.407h10.764c0-.329.046-.44.032-.4a1.3 1.3 0 0 1-.288.435 1.6 1.6 0 0 1-.569.387c-.143.054-.175.033-.037.033zm-4.52 4.928h-5.382v13.724h10.764V26.783zm0 13.724v-5.383h-3.502V45.89h3.502zm-3.502 0h5.382V26.783H33.542v13.724zm0-13.724h5.382c0-1.974-.407-4.553-2.108-6.751-1.885-2.435-4.694-3.56-7.713-3.56v10.766c.205 0 .124.034-.112-.071a1.86 1.86 0 0 1-.688-.546c-.164-.212-.196-.354-.187-.32.01.039.043.193.043.482zm-4.44-4.928v-5.382c-2.47 0-5.142.782-7.172 2.903-2.005 2.096-2.73 4.816-2.73 7.407h10.765c0-.329.046-.44.032-.4a1.3 1.3 0 0 1-.288.435c-.196.205-.41.327-.57.387-.143.054-.175.033-.036.033zm-4.52 4.928h-5.382v13.724h10.765V26.783zm0 13.724v-5.383h-3.502V45.89h3.502zm-3.502 0h5.383V19.493H21.08v21.014zm31.172 0h5.382V19.493H52.252v21.014zm0-21.014v5.383h3.502V14.11h-3.502zm3.502 0h-5.383v21.014H66.52V19.493zm0 21.014v-5.383h-3.502V45.89h3.502zM56.983 14.2h5.382c0 .952-.425 1.831-1.071 2.416-.619.56-1.33.767-1.908.767V6.618c-3.804 0-7.786 2.858-7.786 7.581zm2.403-2.2v5.382c-1.22 0-3.02-1.041-3.02-3.183H67.13c0-4.666-3.919-7.581-7.744-7.581zm2.362 2.2h-5.383a3.144 3.144 0 0 1 3.02-3.225V21.74c3.757 0 7.745-2.852 7.745-7.54zm-2.362 2.158v-5.383c.576 0 1.273.205 1.882.749a3.34 3.34 0 0 1 1.097 2.475H51.601c0 4.745 4.05 7.54 7.785 7.54zm6.954 28.628v5.383c2.118 0 4.416-.602 6.332-2.576 1.51-1.555 2.395-3.617 3.063-5.39l-5.037-1.896-5.038-1.897c-.286.761-.501 1.242-.66 1.544-.162.306-.192.285-.054.142.078-.08.199-.188.366-.3a2.6 2.6 0 0 1 .534-.27c.362-.135.585-.122.494-.122zm4.358-4.48 5.018-1.944-8.144-21.014-5.02 1.945-5.018 1.945 8.145 21.014zm-8.145-21.013v5.383h3.787V14.11h-3.787zm3.787 0-5.057 1.844 6.028 16.534 5.056-1.844 5.057-1.843-6.027-16.534zm6.027 16.534 5.041 1.887 6.19-16.534-5.04-1.887-5.041-1.887-6.19 16.534zm6.19-16.534v5.383h3.788V14.11h-3.788zm3.788 0-5.019-1.945-8.145 21.014 5.019 1.945 5.019 1.945 8.144-21.014zM74.2 40.507l-5.031-1.913c-1.06 2.785-1.72 3.665-1.994 3.925-.041.039-.052.042-.036.032.017-.01.028-.013.017-.01-.03.01-.245.077-.816.077v10.765c2.84 0 5.749-.686 8.247-3.058 2.15-2.04 3.504-4.908 4.644-7.905zM66.34 48h5.383v-3.014H60.958V48z" mask="url(#a)"/></svg>