<svg xmlns="http://www.w3.org/2000/svg" width="1512" height="40" fill="none" viewBox="0 0 1512 40"><g fill-rule="evenodd" clip-path="url(#a)" clip-rule="evenodd"><path fill="#282828" d="M1564.98-1.019h-76.31v33.07h80.13c16.16 0 29.25-13.098 29.25-29.254v-48.492h112.89c16.15 0 29.25-13.097 29.25-29.254v-48.492h113.36c16.16 0 29.25-13.097 29.25-29.254v-19.238h92.53v-33.069h-96.34c-16.16 0-29.26 13.097-29.26 29.254v19.237h-113.36c-16.15 0-29.25 13.098-29.25 29.254v48.492h-112.88c-16.16 0-29.26 13.098-29.26 29.254z"/><path fill="#4e4e4e" d="M1564.98 6.93h-76.31V40h80.13c16.16 0 29.25-13.097 29.25-29.254v-48.492h112.89c16.15 0 29.25-13.097 29.25-29.254v-48.492h113.36c16.16 0 29.25-13.097 29.25-29.254v-19.237h92.53v-33.07h-96.34c-16.16 0-29.26 13.097-29.26 29.254v19.238h-113.36c-16.15 0-29.25 13.097-29.25 29.254v48.492h-112.88c-16.16 0-29.26 13.097-29.26 29.253z"/><path fill="#fefffa" d="M1488.67 22.511v1.908h6.52v-1.908zm13.51 1.908h13.04v-1.908h-13.04zm20.03 0h13.04v-1.908h-13.04zm20.04 0h13.03v-1.908h-13.03zm20.03 0h6.52c2.06 0 4.02-.458 5.78-1.279l.86-.403-.8-1.729-.87.404c-1.51.705-3.19 1.1-4.97 1.1h-6.52zm18.51-7.028.4-.865a13.6 13.6 0 0 0 1.28-5.78V2.527h-1.91v8.219c0 1.78-.39 3.464-1.1 4.973l-.4.864zm1.68-24.58v-16.438h-1.91v16.438zm0-26.154v-8.219c0-1.779.4-3.463 1.1-4.973l.4-.864-1.72-.807-.41.864a13.6 13.6 0 0 0-1.28 5.78v8.22zm5.93-18.48.86-.404c1.51-.706 3.2-1.1 4.98-1.1h7.43v-1.908h-7.43c-2.07 0-4.03.458-5.78 1.279l-.87.404zm21.74-1.504h14.87v-1.908h-14.87zm23.34 0h14.87v-1.908h-14.87zm23.34 0h14.87v-1.908h-14.87zm23.34 0h14.87v-1.908h-14.87zm23.34 0h7.44c2.06 0 4.02-.458 5.78-1.278l.86-.404-.81-1.729-.86.404c-1.51.705-3.2 1.1-4.97 1.1h-7.44zm19.43-7.028.4-.864a13.6 13.6 0 0 0 1.28-5.78v-8.22h-1.91v8.22c0 1.778-.39 3.463-1.1 4.972l-.4.864zm1.68-24.58v-16.437h-1.91v16.437zm0-26.154v-8.218c0-1.78.39-3.464 1.1-4.973l.4-.865-1.73-.807-.4.864a13.6 13.6 0 0 0-1.28 5.781v8.218zm5.93-18.481.86-.403c1.51-.705 3.19-1.1 4.97-1.1h7.47v-1.907h-7.47c-2.06 0-4.02.457-5.78 1.278l-.86.404zm21.8-1.503h14.93v-1.907h-14.93zm23.44 0h14.93v-1.907h-14.93zm23.43 0h14.93v-1.907h-14.93zm23.44 0h14.93v-1.907h-14.93zm23.43 0h7.47c2.06 0 4.02-.458 5.78-1.278l.86-.404-.8-1.728-.87.403c-1.51.705-3.19 1.1-4.97 1.1h-7.47zm19.46-7.028.4-.864a13.6 13.6 0 0 0 1.28-5.781v-7.357h-1.91v7.357c0 1.779-.39 3.464-1.1 4.973l-.4.865zm1.68-22.34v-7.358c0-1.779.4-3.464 1.1-4.973l.4-.864-1.72-.808-.41.864a13.6 13.6 0 0 0-1.28 5.781v7.358zm5.93-17.62.86-.404c1.51-.705 3.2-1.099 4.98-1.099h7.64v-1.908h-7.64c-2.07 0-4.03.458-5.78 1.278l-.87.404zm22.28-1.503h15.29v-1.908h-15.29zm24.09 0h15.29v-1.908h-15.29zm24.08 0h15.29v-1.908h-15.29zm24.09 0h7.64v-1.908h-7.64z"/></g><g fill-rule="evenodd" clip-path="url(#b)" clip-rule="evenodd"><path fill="#282828" d="M1491.65-1.019h-76.32v33.07h80.13c16.16 0 29.26-13.098 29.26-29.254v-48.492h112.88c16.16 0 29.25-13.097 29.25-29.254v-48.492h113.36c16.16 0 29.26-13.097 29.26-29.254v-19.238H1902v-33.069h-96.35c-16.16 0-29.25 13.097-29.25 29.254v19.237h-113.36c-16.16 0-29.26 13.098-29.26 29.254v48.492H1520.9c-16.16 0-29.25 13.098-29.25 29.254z"/><path fill="#4e4e4e" d="M1491.65 6.93h-76.32V40h80.13c16.16 0 29.26-13.097 29.26-29.254v-48.492h112.88c16.16 0 29.25-13.097 29.25-29.254v-48.492h113.36c16.16 0 29.26-13.097 29.26-29.254v-19.237H1902v-33.07h-96.35c-16.16 0-29.25 13.097-29.25 29.254v19.238h-113.36c-16.16 0-29.26 13.097-29.26 29.254v48.492H1520.9c-16.16 0-29.25 13.097-29.25 29.253z"/><path fill="#fefffa" d="M1415.33 22.511v1.908h6.52v-1.908zm13.52 1.908h13.03v-1.908h-13.03zm20.03 0h13.04v-1.908h-13.04zm20.03 0h13.04v-1.908h-13.04zm20.03 0h6.52c2.07 0 4.03-.458 5.78-1.279l.87-.403-.81-1.729-.86.404c-1.51.705-3.2 1.1-4.98 1.1h-6.52zm18.51-7.028.41-.865a13.6 13.6 0 0 0 1.28-5.78V2.527h-1.91v8.219c0 1.78-.4 3.464-1.1 4.973l-.41.864zm1.69-24.58v-16.438h-1.91v16.438zm0-26.154v-8.219c0-1.779.39-3.463 1.1-4.973l.4-.864-1.73-.807-.4.864a13.6 13.6 0 0 0-1.28 5.78v8.22zm5.92-18.48.87-.404a11.7 11.7 0 0 1 4.97-1.1h7.44v-1.908h-7.44c-2.06 0-4.02.458-5.78 1.279l-.86.404zm21.74-1.504h14.88v-1.908h-14.88zm23.34 0h14.88v-1.908h-14.88zm23.34 0h14.88v-1.908h-14.88zm23.34 0h14.88v-1.908h-14.88zm23.34 0h7.44c2.06 0 4.02-.458 5.78-1.278l.86-.404-.8-1.729-.87.404c-1.51.705-3.19 1.1-4.97 1.1h-7.44zm19.43-7.028.4-.864a13.6 13.6 0 0 0 1.28-5.78v-8.22h-1.91v8.22c0 1.778-.39 3.463-1.09 4.972l-.41.864zm1.68-24.58v-16.437h-1.91v16.437zm0-26.154v-8.218c0-1.78.4-3.464 1.1-4.973l.41-.865-1.73-.807-.41.864a13.6 13.6 0 0 0-1.28 5.781v8.218zm5.93-18.481.86-.403c1.51-.705 3.2-1.1 4.98-1.1h7.46v-1.907h-7.46c-2.07 0-4.03.457-5.78 1.278l-.87.404zm21.81-1.503h14.93v-1.907h-14.93zm23.43 0h14.93v-1.907h-14.93zm23.44 0h14.93v-1.907h-14.93zm23.43 0h14.93v-1.907h-14.93zm23.44 0h7.46c2.07 0 4.03-.458 5.78-1.278l.87-.404-.81-1.728-.86.403c-1.51.705-3.2 1.1-4.98 1.1h-7.46zm19.45-7.028.41-.864a13.6 13.6 0 0 0 1.28-5.781v-7.357h-1.91v7.357c0 1.779-.4 3.464-1.1 4.973l-.41.865zm1.69-22.34v-7.358c0-1.779.39-3.464 1.1-4.973l.4-.864-1.73-.808-.4.864a13.6 13.6 0 0 0-1.28 5.781v7.358zm5.92-17.62.87-.404a11.7 11.7 0 0 1 4.97-1.099h7.65v-1.908h-7.65c-2.06 0-4.02.458-5.78 1.278l-.86.404zm22.28-1.503h15.29v-1.908h-15.29zm24.09 0h15.29v-1.908h-15.29zm24.09 0h15.29v-1.908h-15.29zm24.08 0h7.65v-1.908h-7.65z"/></g><g fill-rule="evenodd" clip-path="url(#c)" clip-rule="evenodd"><path fill="#282828" d="M1418.31-1.019H1342v33.07h80.13c16.16 0 29.25-13.098 29.25-29.254v-48.492h112.89c16.15 0 29.25-13.097 29.25-29.254v-48.492h113.36c16.16 0 29.25-13.097 29.25-29.254v-19.238h92.54v-33.069h-96.35c-16.16 0-29.26 13.097-29.26 29.254v19.237h-113.35c-16.16 0-29.26 13.098-29.26 29.254v48.492h-112.88c-16.16 0-29.26 13.098-29.26 29.254z"/><path fill="#4e4e4e" d="M1418.31 6.93H1342V40h80.13c16.16 0 29.25-13.097 29.25-29.254v-48.492h112.89c16.15 0 29.25-13.097 29.25-29.254v-48.492h113.36c16.16 0 29.25-13.097 29.25-29.254v-19.237h92.54v-33.07h-96.35c-16.16 0-29.26 13.097-29.26 29.254v19.238h-113.35c-16.16 0-29.26 13.097-29.26 29.254v48.492h-112.88c-16.16 0-29.26 13.097-29.26 29.253z"/><path fill="#fefffa" d="M1342 22.511v1.908h6.52v-1.908zm13.51 1.908h13.04v-1.908h-13.04zm20.04 0h13.03v-1.908h-13.03zm20.03 0h13.04v-1.908h-13.04zm20.03 0h6.52c2.06 0 4.02-.458 5.78-1.279l.87-.403-.81-1.729-.87.404c-1.51.705-3.19 1.1-4.97 1.1h-6.52zm18.51-7.028.41-.865a13.6 13.6 0 0 0 1.27-5.78V2.527h-1.9v8.219c0 1.78-.4 3.464-1.1 4.973l-.41.864zm1.68-24.58v-16.438h-1.9v16.438zm0-26.154v-8.219c0-1.779.4-3.463 1.1-4.973l.41-.864-1.73-.807-.41.864a13.6 13.6 0 0 0-1.27 5.78v8.22zm5.93-18.48.87-.404a11.7 11.7 0 0 1 4.97-1.1h7.44v-1.908h-7.44c-2.06 0-4.02.458-5.78 1.279l-.87.404zm21.74-1.504h14.88v-1.908h-14.88zm23.34 0h14.88v-1.908h-14.88zm23.34 0h14.88v-1.908h-14.88zm23.34 0h14.87v-1.908h-14.87zm23.34 0h7.44c2.06 0 4.02-.458 5.78-1.278l.86-.404-.81-1.729-.86.404c-1.51.705-3.19 1.1-4.97 1.1h-7.44zm19.43-7.028.4-.864a13.6 13.6 0 0 0 1.28-5.78v-8.22h-1.91v8.22c0 1.778-.39 3.463-1.1 4.972l-.4.864zm1.68-24.58v-16.437h-1.91v16.437zm0-26.154v-8.218c0-1.78.39-3.464 1.1-4.973l.4-.865-1.73-.807-.4.864a13.6 13.6 0 0 0-1.28 5.781v8.218zm5.93-18.481.86-.403c1.51-.705 3.2-1.1 4.98-1.1h7.46v-1.907h-7.46c-2.07 0-4.03.457-5.78 1.278l-.87.404zm21.81-1.503h14.92v-1.907h-14.92zm23.43 0h14.93v-1.907h-14.93zm23.44 0h14.92v-1.907h-14.92zm23.43 0h14.93v-1.907h-14.93zm23.44 0h7.46c2.06 0 4.02-.458 5.78-1.278l.87-.404-.81-1.728-.87.403c-1.51.705-3.19 1.1-4.97 1.1h-7.46zm19.45-7.028.41-.864a13.6 13.6 0 0 0 1.27-5.781v-7.357h-1.9v7.357c0 1.779-.4 3.464-1.1 4.973l-.41.865zm1.68-22.34v-7.358c0-1.779.4-3.464 1.1-4.973l.41-.864-1.73-.808-.41.864a13.6 13.6 0 0 0-1.27 5.781v7.358zm5.93-17.62.87-.404a11.7 11.7 0 0 1 4.97-1.099h7.64v-1.908h-7.64c-2.06 0-4.02.458-5.78 1.278l-.87.404zm22.28-1.503h15.29v-1.908h-15.29zm24.09 0h15.29v-1.908h-15.29zm24.08 0h15.29v-1.908h-15.29zm24.09 0h7.65v-1.908h-7.65z"/></g><g fill-rule="evenodd" clip-path="url(#d)" clip-rule="evenodd"><path fill="#282828" d="M1344.98-1.019h-76.31v33.07h80.13c16.16 0 29.25-13.098 29.25-29.254v-48.492h112.89c16.15 0 29.25-13.097 29.25-29.254v-48.492h113.36c16.16 0 29.25-13.097 29.25-29.254v-19.238h92.53v-33.069h-96.34c-16.16 0-29.26 13.097-29.26 29.254v19.237h-113.36c-16.15 0-29.25 13.098-29.25 29.254v48.492h-112.88c-16.16 0-29.26 13.098-29.26 29.254z"/><path fill="#4e4e4e" d="M1344.98 6.93h-76.31V40h80.13c16.16 0 29.25-13.097 29.25-29.254v-48.492h112.89c16.15 0 29.25-13.097 29.25-29.254v-48.492h113.36c16.16 0 29.25-13.097 29.25-29.254v-19.237h92.53v-33.07h-96.34c-16.16 0-29.26 13.097-29.26 29.254v19.238h-113.36c-16.15 0-29.25 13.097-29.25 29.254v48.492h-112.88c-16.16 0-29.26 13.097-29.26 29.253z"/><path fill="#fefffa" d="M1268.67 22.511v1.908h6.52v-1.908zm13.51 1.908h13.04v-1.908h-13.04zm20.03 0h13.04v-1.908h-13.04zm20.04 0h13.03v-1.908h-13.03zm20.03 0h6.52c2.06 0 4.02-.458 5.78-1.279l.86-.403-.8-1.729-.87.404c-1.51.705-3.19 1.1-4.97 1.1h-6.52zm18.51-7.028.4-.865a13.6 13.6 0 0 0 1.28-5.78V2.527h-1.91v8.219c0 1.78-.39 3.464-1.1 4.973l-.4.864zm1.68-24.58v-16.438h-1.91v16.438zm0-26.154v-8.219c0-1.779.4-3.463 1.1-4.973l.4-.864-1.72-.807-.41.864a13.6 13.6 0 0 0-1.28 5.78v8.22zm5.93-18.48.86-.404c1.51-.706 3.2-1.1 4.98-1.1h7.43v-1.908h-7.43c-2.07 0-4.03.458-5.78 1.279l-.87.404zm21.74-1.504h14.87v-1.908h-14.87zm23.34 0h14.87v-1.908h-14.87zm23.34 0h14.87v-1.908h-14.87zm23.34 0h14.87v-1.908h-14.87zm23.34 0h7.44c2.06 0 4.02-.458 5.78-1.278l.86-.404-.81-1.729-.86.404c-1.51.705-3.2 1.1-4.97 1.1h-7.44zm19.43-7.028.4-.864a13.6 13.6 0 0 0 1.28-5.78v-8.22h-1.91v8.22c0 1.778-.39 3.463-1.1 4.972l-.4.864zm1.68-24.58v-16.437h-1.91v16.437zm0-26.154v-8.218c0-1.78.39-3.464 1.1-4.973l.4-.865-1.73-.807-.4.864a13.6 13.6 0 0 0-1.28 5.781v8.218zm5.93-18.481.86-.403c1.51-.705 3.19-1.1 4.97-1.1h7.47v-1.907h-7.47c-2.06 0-4.02.457-5.78 1.278l-.86.404zm21.8-1.503h14.93v-1.907h-14.93zm23.44 0h14.93v-1.907h-14.93zm23.43 0h14.93v-1.907h-14.93zm23.44 0h14.93v-1.907h-14.93zm23.43 0h7.47c2.06 0 4.02-.458 5.78-1.278l.86-.404-.8-1.728-.87.403c-1.51.705-3.19 1.1-4.97 1.1h-7.47zm19.46-7.028.4-.864a13.6 13.6 0 0 0 1.28-5.781v-7.357h-1.91v7.357c0 1.779-.39 3.464-1.1 4.973l-.4.865zm1.68-22.34v-7.358c0-1.779.4-3.464 1.1-4.973l.4-.864-1.72-.808-.41.864a13.6 13.6 0 0 0-1.28 5.781v7.358zm5.93-17.62.86-.404c1.51-.705 3.2-1.099 4.98-1.099h7.64v-1.908h-7.64c-2.07 0-4.03.458-5.78 1.278l-.87.404zm22.28-1.503h15.29v-1.908h-15.29zm24.09 0h15.29v-1.908h-15.29zm24.08 0h15.29v-1.908h-15.29zm24.09 0h7.64v-1.908h-7.64z"/></g><g fill-rule="evenodd" clip-path="url(#e)" clip-rule="evenodd"><path fill="#282828" d="M1271.65-1.019h-76.32v33.07h80.13c16.16 0 29.26-13.098 29.26-29.254v-48.492h112.88c16.16 0 29.25-13.097 29.25-29.254v-48.492h113.36c16.16 0 29.26-13.097 29.26-29.254v-19.238H1682v-33.069h-96.35c-16.16 0-29.25 13.097-29.25 29.254v19.237h-113.36c-16.16 0-29.26 13.098-29.26 29.254v48.492H1300.9c-16.16 0-29.25 13.098-29.25 29.254z"/><path fill="#4e4e4e" d="M1271.65 6.93h-76.32V40h80.13c16.16 0 29.26-13.097 29.26-29.254v-48.492h112.88c16.16 0 29.25-13.097 29.25-29.254v-48.492h113.36c16.16 0 29.26-13.097 29.26-29.254v-19.237H1682v-33.07h-96.35c-16.16 0-29.25 13.097-29.25 29.254v19.238h-113.36c-16.16 0-29.26 13.097-29.26 29.254v48.492H1300.9c-16.16 0-29.25 13.097-29.25 29.253z"/><path fill="#fefffa" d="M1195.33 22.511v1.908h6.52v-1.908zm13.52 1.908h13.03v-1.908h-13.03zm20.03 0h13.04v-1.908h-13.04zm20.03 0h13.04v-1.908h-13.04zm20.03 0h6.52c2.07 0 4.03-.458 5.78-1.279l.87-.403-.81-1.729-.86.404c-1.51.705-3.2 1.1-4.98 1.1h-6.52zm18.51-7.028.41-.865a13.6 13.6 0 0 0 1.28-5.78V2.527h-1.91v8.219c0 1.78-.4 3.464-1.1 4.973l-.41.864zm1.69-24.58v-16.438h-1.91v16.438zm0-26.154v-8.219c0-1.779.39-3.463 1.1-4.973l.4-.864-1.73-.807-.4.864a13.6 13.6 0 0 0-1.28 5.78v8.22zm5.92-18.48.87-.404a11.7 11.7 0 0 1 4.97-1.1h7.44v-1.908h-7.44c-2.06 0-4.02.458-5.78 1.279l-.86.404zm21.74-1.504h14.88v-1.908h-14.88zm23.34 0h14.88v-1.908h-14.88zm23.34 0h14.88v-1.908h-14.88zm23.34 0h14.88v-1.908h-14.88zm23.34 0h7.44c2.06 0 4.02-.458 5.78-1.278l.86-.404-.8-1.729-.87.404c-1.51.705-3.19 1.1-4.97 1.1h-7.44zm19.43-7.028.4-.864a13.6 13.6 0 0 0 1.28-5.78v-8.22h-1.91v8.22c0 1.778-.39 3.463-1.09 4.972l-.41.864zm1.68-24.58v-16.437h-1.91v16.437zm0-26.154v-8.218c0-1.78.4-3.464 1.1-4.973l.41-.865-1.73-.807-.41.864a13.6 13.6 0 0 0-1.28 5.781v8.218zm5.93-18.481.86-.403c1.51-.705 3.2-1.1 4.98-1.1h7.46v-1.907h-7.46c-2.07 0-4.03.457-5.78 1.278l-.87.404zm21.81-1.503h14.93v-1.907h-14.93zm23.43 0h14.93v-1.907h-14.93zm23.44 0h14.93v-1.907h-14.93zm23.43 0h14.93v-1.907h-14.93zm23.44 0h7.46c2.07 0 4.03-.458 5.78-1.278l.87-.404-.81-1.728-.86.403c-1.51.705-3.2 1.1-4.98 1.1h-7.46zm19.45-7.028.41-.864a13.6 13.6 0 0 0 1.28-5.781v-7.357h-1.91v7.357c0 1.779-.4 3.464-1.1 4.973l-.41.865zm1.69-22.34v-7.358c0-1.779.39-3.464 1.1-4.973l.4-.864-1.73-.808-.4.864a13.6 13.6 0 0 0-1.28 5.781v7.358zm5.92-17.62.87-.404a11.7 11.7 0 0 1 4.97-1.099h7.65v-1.908h-7.65c-2.06 0-4.02.458-5.78 1.278l-.86.404zm22.28-1.503h15.29v-1.908h-15.29zm24.09 0h15.29v-1.908h-15.29zm24.09 0h15.29v-1.908h-15.29zm24.08 0h7.65v-1.908h-7.65z"/></g><g fill-rule="evenodd" clip-path="url(#f)" clip-rule="evenodd"><path fill="#282828" d="M1198.31-1.019H1122v33.07h80.13c16.16 0 29.25-13.098 29.25-29.254v-48.492h112.89c16.15 0 29.25-13.097 29.25-29.254v-48.492h113.36c16.16 0 29.25-13.097 29.25-29.254v-19.238h92.54v-33.069h-96.35c-16.16 0-29.26 13.097-29.26 29.254v19.237h-113.35c-16.16 0-29.26 13.098-29.26 29.254v48.492h-112.88c-16.16 0-29.26 13.098-29.26 29.254z"/><path fill="#4e4e4e" d="M1198.31 6.93H1122V40h80.13c16.16 0 29.25-13.097 29.25-29.254v-48.492h112.89c16.15 0 29.25-13.097 29.25-29.254v-48.492h113.36c16.16 0 29.25-13.097 29.25-29.254v-19.237h92.54v-33.07h-96.35c-16.16 0-29.26 13.097-29.26 29.254v19.238h-113.35c-16.16 0-29.26 13.097-29.26 29.254v48.492h-112.88c-16.16 0-29.26 13.097-29.26 29.253z"/><path fill="#fefffa" d="M1122 22.511v1.908h6.52v-1.908zm13.51 1.908h13.04v-1.908h-13.04zm20.04 0h13.03v-1.908h-13.03zm20.03 0h13.04v-1.908h-13.04zm20.03 0h6.52c2.06 0 4.02-.458 5.78-1.279l.87-.403-.81-1.729-.87.404c-1.51.705-3.19 1.1-4.97 1.1h-6.52zm18.51-7.028.41-.865a13.6 13.6 0 0 0 1.27-5.78V2.527h-1.9v8.219c0 1.78-.4 3.464-1.1 4.973l-.41.864zm1.68-24.58v-16.438h-1.9v16.438zm0-26.154v-8.219c0-1.779.4-3.463 1.1-4.973l.41-.864-1.73-.807-.41.864a13.6 13.6 0 0 0-1.27 5.78v8.22zm5.93-18.48.87-.404a11.7 11.7 0 0 1 4.97-1.1h7.44v-1.908h-7.44c-2.06 0-4.02.458-5.78 1.279l-.87.404zm21.74-1.504h14.88v-1.908h-14.88zm23.34 0h14.88v-1.908h-14.88zm23.34 0h14.88v-1.908h-14.88zm23.34 0h14.87v-1.908h-14.87zm23.34 0h7.44c2.06 0 4.02-.458 5.78-1.278l.86-.404-.81-1.729-.86.404c-1.51.705-3.19 1.1-4.97 1.1h-7.44zm19.43-7.028.4-.864a13.6 13.6 0 0 0 1.28-5.78v-8.22h-1.91v8.22c0 1.778-.39 3.463-1.1 4.972l-.4.864zm1.68-24.58v-16.437h-1.91v16.437zm0-26.154v-8.218c0-1.78.39-3.464 1.1-4.973l.4-.865-1.73-.807-.4.864a13.6 13.6 0 0 0-1.28 5.781v8.218zm5.93-18.481.86-.403c1.51-.705 3.2-1.1 4.98-1.1h7.46v-1.907h-7.46c-2.07 0-4.03.457-5.78 1.278l-.87.404zm21.81-1.503h14.92v-1.907h-14.92zm23.43 0h14.93v-1.907h-14.93zm23.44 0h14.92v-1.907h-14.92zm23.43 0h14.93v-1.907h-14.93zm23.44 0h7.46c2.06 0 4.02-.458 5.78-1.278l.87-.404-.81-1.728-.87.403c-1.51.705-3.19 1.1-4.97 1.1h-7.46zm19.45-7.028.41-.864a13.6 13.6 0 0 0 1.27-5.781v-7.357h-1.9v7.357c0 1.779-.4 3.464-1.1 4.973l-.41.865zm1.68-22.34v-7.358c0-1.779.4-3.464 1.1-4.973l.41-.864-1.73-.808-.41.864a13.6 13.6 0 0 0-1.27 5.781v7.358zm5.93-17.62.87-.404a11.7 11.7 0 0 1 4.97-1.099h7.64v-1.908h-7.64c-2.06 0-4.02.458-5.78 1.278l-.87.404zm22.28-1.503h15.29v-1.908h-15.29zm24.09 0h15.29v-1.908h-15.29zm24.08 0h15.29v-1.908h-15.29zm24.09 0h7.65v-1.908h-7.65z"/></g><g fill-rule="evenodd" clip-path="url(#g)" clip-rule="evenodd"><path fill="#282828" d="M1124.98-1.019h-76.31v33.07h80.13c16.15 0 29.25-13.098 29.25-29.254v-48.492h112.88c16.16 0 29.26-13.097 29.26-29.254v-48.492h113.36c16.15 0 29.25-13.097 29.25-29.254v-19.238h92.53v-33.069h-96.34c-16.16 0-29.26 13.097-29.26 29.254v19.237h-113.36c-16.16 0-29.25 13.098-29.25 29.254v48.492h-112.89c-16.15 0-29.25 13.098-29.25 29.254z"/><path fill="#4e4e4e" d="M1124.98 6.93h-76.31V40h80.13c16.15 0 29.25-13.097 29.25-29.254v-48.492h112.88c16.16 0 29.26-13.097 29.26-29.254v-48.492h113.36c16.15 0 29.25-13.097 29.25-29.254v-19.237h92.53v-33.07h-96.34c-16.16 0-29.26 13.097-29.26 29.254v19.238h-113.36c-16.16 0-29.25 13.097-29.25 29.254v48.492h-112.89c-16.15 0-29.25 13.097-29.25 29.253z"/><path fill="#fefffa" d="M1048.67 22.511v1.908h6.51v-1.908zm13.51 1.908h13.04v-1.908h-13.04zm20.03 0h13.04v-1.908h-13.04zm20.04 0h13.03v-1.908h-13.03zm20.03 0h6.52c2.06 0 4.02-.458 5.78-1.279l.86-.403-.81-1.729-.86.404c-1.51.705-3.19 1.1-4.97 1.1h-6.52zm18.51-7.028.4-.865a13.6 13.6 0 0 0 1.28-5.78V2.527h-1.91v8.219c0 1.78-.39 3.464-1.1 4.973l-.4.864zm1.68-24.58v-16.438h-1.91v16.438zm0-26.154v-8.219c0-1.779.39-3.463 1.1-4.973l.4-.864-1.73-.807-.4.864a13.6 13.6 0 0 0-1.28 5.78v8.22zm5.93-18.48.86-.404c1.51-.706 3.2-1.1 4.97-1.1h7.44v-1.908h-7.44c-2.06 0-4.02.458-5.78 1.279l-.86.404zm21.74-1.504h14.87v-1.908h-14.87zm23.34 0h14.87v-1.908h-14.87zm23.34 0h14.87v-1.908h-14.87zm23.34 0h14.87v-1.908h-14.87zm23.34 0h7.43c2.07 0 4.03-.458 5.78-1.278l.87-.404-.81-1.729-.86.404c-1.51.705-3.2 1.1-4.98 1.1h-7.43zm19.42-7.028.41-.864a13.6 13.6 0 0 0 1.28-5.78v-8.22h-1.91v8.22c0 1.778-.4 3.463-1.1 4.972l-.4.864zm1.69-24.58v-16.437h-1.91v16.437zm0-26.154v-8.218c0-1.78.39-3.464 1.1-4.973l.4-.865-1.73-.807-.4.864a13.6 13.6 0 0 0-1.28 5.781v8.218zm5.92-18.481.87-.403c1.51-.705 3.19-1.1 4.97-1.1h7.47v-1.907h-7.47c-2.06 0-4.02.457-5.78 1.278l-.86.404zm21.81-1.503h14.93v-1.907h-14.93zm23.44 0h14.93v-1.907h-14.93zm23.43 0h14.93v-1.907h-14.93zm23.44 0h14.93v-1.907h-14.93zm23.43 0h7.47c2.06 0 4.02-.458 5.78-1.278l.86-.404-.81-1.728-.86.403c-1.51.705-3.19 1.1-4.97 1.1h-7.47zm19.46-7.028.4-.864a13.6 13.6 0 0 0 1.28-5.781v-7.357h-1.91v7.357c0 1.779-.39 3.464-1.1 4.973l-.4.865zm1.68-22.34v-7.358c0-1.779.39-3.464 1.1-4.973l.4-.864-1.73-.808-.4.864a13.6 13.6 0 0 0-1.28 5.781v7.358zm5.93-17.62.86-.404c1.51-.705 3.2-1.099 4.98-1.099h7.64v-1.908h-7.64c-2.07 0-4.03.458-5.79 1.278l-.86.404zm22.28-1.503h15.29v-1.908h-15.29zm24.08 0h15.29v-1.908h-15.29zm24.09 0h15.29v-1.908h-15.29zm24.09 0h7.64v-1.908h-7.64z"/></g><g fill-rule="evenodd" clip-path="url(#h)" clip-rule="evenodd"><path fill="#282828" d="M1051.65-1.019h-76.316v33.07h80.126c16.16 0 29.26-13.098 29.26-29.254v-48.492h112.88c16.16 0 29.26-13.097 29.26-29.254v-48.492h113.35c16.16 0 29.26-13.097 29.26-29.254v-19.238H1462v-33.069h-96.35c-16.15 0-29.25 13.097-29.25 29.254v19.237h-113.36c-16.16 0-29.25 13.098-29.25 29.254v48.492H1080.9c-16.15 0-29.25 13.098-29.25 29.254z"/><path fill="#4e4e4e" d="M1051.65 6.93h-76.316V40h80.126c16.16 0 29.26-13.097 29.26-29.254v-48.492h112.88c16.16 0 29.26-13.097 29.26-29.254v-48.492h113.35c16.16 0 29.26-13.097 29.26-29.254v-19.237H1462v-33.07h-96.35c-16.15 0-29.25 13.097-29.25 29.254v19.238h-113.36c-16.16 0-29.25 13.097-29.25 29.254v48.492H1080.9c-16.15 0-29.25 13.097-29.25 29.253z"/><path fill="#fefffa" d="M975.334 22.511v1.908h6.519v-1.908zm13.514 1.908h13.042v-1.908h-13.042zm20.032 0h13.04v-1.908h-13.04zm20.03 0h13.04v-1.908h-13.04zm20.04 0h6.51c2.07 0 4.03-.458 5.79-1.279l.86-.403-.81-1.729-.86.404c-1.51.705-3.2 1.1-4.98 1.1h-6.51zm18.51-7.028.4-.865a13.6 13.6 0 0 0 1.28-5.78V2.527h-1.91v8.219c0 1.78-.39 3.464-1.1 4.973l-.4.864zm1.68-24.58v-16.438h-1.91v16.438zm0-26.154v-8.219c0-1.779.39-3.463 1.1-4.973l.4-.864-1.73-.807-.4.864a13.6 13.6 0 0 0-1.28 5.78v8.22zm5.93-18.48.86-.404a11.7 11.7 0 0 1 4.97-1.1h7.44v-1.908h-7.44c-2.06 0-4.02.458-5.78 1.279l-.86.404zm21.74-1.504h14.87v-1.908h-14.87zm23.34 0h14.87v-1.908h-14.87zm23.33 0h14.88v-1.908h-14.88zm23.34 0h14.88v-1.908h-14.88zm23.34 0h7.44c2.07 0 4.02-.458 5.78-1.278l.87-.404-.81-1.729-.87.404c-1.51.705-3.19 1.1-4.97 1.1h-7.44zm19.43-7.028.41-.864a13.6 13.6 0 0 0 1.27-5.78v-8.22h-1.9v8.22c0 1.778-.4 3.463-1.1 4.972l-.41.864zm1.68-24.58v-16.437h-1.9v16.437zm0-26.154v-8.218c0-1.78.4-3.464 1.1-4.973l.41-.865-1.73-.807-.41.864a13.6 13.6 0 0 0-1.27 5.781v8.218zm5.93-18.481.87-.403c1.51-.705 3.19-1.1 4.97-1.1h7.46v-1.907h-7.46c-2.06 0-4.02.457-5.78 1.278l-.87.404zm21.81-1.503h14.93v-1.907h-14.93zm23.44 0h14.92v-1.907h-14.92zm23.43 0h14.93v-1.907h-14.93zm23.44 0h14.92v-1.907h-14.92zm23.43 0h7.46c2.07 0 4.03-.458 5.79-1.278l.86-.404-.81-1.728-.86.403c-1.51.705-3.2 1.1-4.98 1.1h-7.46zm19.46-7.028.4-.864a13.6 13.6 0 0 0 1.28-5.781v-7.357h-1.91v7.357c0 1.779-.39 3.464-1.1 4.973l-.4.865zm1.68-22.34v-7.358c0-1.779.39-3.464 1.1-4.973l.4-.864-1.73-.808-.4.864a13.6 13.6 0 0 0-1.28 5.781v7.358zm5.93-17.62.86-.404a11.7 11.7 0 0 1 4.97-1.099h7.65v-1.908h-7.65c-2.06 0-4.02.458-5.78 1.278l-.86.404zm22.28-1.503h15.28v-1.908h-15.28zm24.08 0h15.29v-1.908h-15.29zm24.09 0h15.29v-1.908h-15.29zm24.09 0h7.64v-1.908h-7.64z"/></g><g fill-rule="evenodd" clip-path="url(#i)" clip-rule="evenodd"><path fill="#282828" d="M978.315-1.019H902v33.07h80.131c16.156 0 29.249-13.098 29.249-29.254v-48.492h112.89c16.15 0 29.25-13.097 29.25-29.254v-48.492h113.36c16.16 0 29.25-13.097 29.25-29.254v-19.238h92.54v-33.069h-96.35c-16.16 0-29.26 13.097-29.26 29.254v19.237h-113.35c-16.16 0-29.26 13.098-29.26 29.254v48.492h-112.88c-16.158 0-29.255 13.098-29.255 29.254z"/><path fill="#4e4e4e" d="M978.315 6.93H902V40h80.131c16.156 0 29.249-13.097 29.249-29.254v-48.492h112.89c16.15 0 29.25-13.097 29.25-29.254v-48.492h113.36c16.16 0 29.25-13.097 29.25-29.254v-19.237h92.54v-33.07h-96.35c-16.16 0-29.26 13.097-29.26 29.254v19.238h-113.35c-16.16 0-29.26 13.097-29.26 29.254v48.492h-112.88c-16.158 0-29.255 13.097-29.255 29.253z"/><path fill="#fefffa" d="M902 22.511v1.908h6.519v-1.908zm13.514 1.908h13.037v-1.908h-13.037zm20.033 0h13.037v-1.908h-13.037zm20.032 0h13.038v-1.908h-13.038zm20.033 0h6.519c2.064 0 4.023-.458 5.78-1.279l.864-.403-.807-1.729-.864.404a11.7 11.7 0 0 1-4.973 1.1h-6.519zm18.509-7.028.404-.865a13.6 13.6 0 0 0 1.279-5.78V2.527h-1.908v8.219c0 1.78-.394 3.464-1.099 4.973l-.404.864zm1.683-24.58v-16.438h-1.908v16.438zm0-26.154v-8.219c0-1.779.394-3.463 1.099-4.973l.404-.864-1.729-.807-.404.864a13.6 13.6 0 0 0-1.278 5.78v8.22zm5.926-18.48.87-.404a11.7 11.7 0 0 1 4.97-1.1h7.44v-1.908h-7.44c-2.06 0-4.02.458-5.78 1.279l-.87.404zm21.74-1.504h14.88v-1.908h-14.88zm23.34 0h14.88v-1.908h-14.88zm23.34 0h14.88v-1.908h-14.88zm23.34 0h14.87v-1.908h-14.87zm23.34 0h7.44c2.06 0 4.02-.458 5.78-1.278l.86-.404-.81-1.729-.86.404c-1.51.705-3.19 1.1-4.97 1.1h-7.44zm19.43-7.028.4-.864a13.6 13.6 0 0 0 1.28-5.78v-8.22h-1.91v8.22c0 1.778-.39 3.463-1.1 4.972l-.4.864zm1.68-24.58v-16.437h-1.91v16.437zm0-26.154v-8.218c0-1.78.39-3.464 1.1-4.973l.4-.865-1.73-.807-.4.864a13.6 13.6 0 0 0-1.28 5.781v8.218zm5.93-18.481.86-.403c1.51-.705 3.2-1.1 4.98-1.1h7.46v-1.907h-7.46c-2.07 0-4.03.457-5.78 1.278l-.87.404zm21.81-1.503h14.92v-1.907h-14.92zm23.43 0h14.93v-1.907h-14.93zm23.44 0h14.92v-1.907h-14.92zm23.43 0h14.93v-1.907h-14.93zm23.44 0h7.46c2.06 0 4.02-.458 5.78-1.278l.87-.404-.81-1.728-.87.403c-1.51.705-3.19 1.1-4.97 1.1h-7.46zm19.45-7.028.41-.864a13.6 13.6 0 0 0 1.27-5.781v-7.357h-1.9v7.357c0 1.779-.4 3.464-1.1 4.973l-.41.865zm1.68-22.34v-7.358c0-1.779.4-3.464 1.1-4.973l.41-.864-1.73-.808-.41.864a13.6 13.6 0 0 0-1.27 5.781v7.358zm5.93-17.62.87-.404a11.7 11.7 0 0 1 4.97-1.099h7.64v-1.908h-7.64c-2.06 0-4.02.458-5.78 1.278l-.87.404zm22.28-1.503h15.29v-1.908h-15.29zm24.09 0h15.29v-1.908h-15.29zm24.08 0h15.29v-1.908h-15.29zm24.09 0h7.65v-1.908h-7.65z"/></g><g fill-rule="evenodd" clip-path="url(#j)" clip-rule="evenodd"><path fill="#282828" d="M904.981-1.019h-76.315v33.07h80.131c16.156 0 29.254-13.098 29.254-29.254v-48.492h112.879c16.16 0 29.26-13.097 29.26-29.254v-48.492h113.36c16.15 0 29.25-13.097 29.25-29.254v-19.238h92.53v-33.069h-96.34c-16.16 0-29.26 13.097-29.26 29.254v19.237h-113.36c-16.16 0-29.25 13.098-29.25 29.254v48.492H934.235c-16.157 0-29.254 13.098-29.254 29.254z"/><path fill="#4e4e4e" d="M904.981 6.93h-76.315V40h80.131c16.156 0 29.254-13.097 29.254-29.254v-48.492h112.879c16.16 0 29.26-13.097 29.26-29.254v-48.492h113.36c16.15 0 29.25-13.097 29.25-29.254v-19.237h92.53v-33.07h-96.34c-16.16 0-29.26 13.097-29.26 29.254v19.238h-113.36c-16.16 0-29.25 13.097-29.25 29.254v48.492H934.235c-16.157 0-29.254 13.097-29.254 29.253z"/><path fill="#fefffa" d="M828.666 22.511v1.908h6.519v-1.908zm13.514 1.908h13.037v-1.908H842.18zm20.033 0h13.037v-1.908h-13.037zm20.032 0h13.038v-1.908h-13.038zm20.033 0h6.519c2.064 0 4.023-.458 5.78-1.279l.864-.403-.807-1.729-.864.404a11.7 11.7 0 0 1-4.973 1.1h-6.519zm18.509-7.028.404-.865a13.6 13.6 0 0 0 1.279-5.78V2.527h-1.908v8.219c0 1.78-.394 3.464-1.099 4.973l-.404.864zm1.683-24.58v-16.438h-1.908v16.438zm0-26.154v-8.219c0-1.779.394-3.463 1.099-4.973l.404-.864-1.729-.807-.404.864a13.6 13.6 0 0 0-1.278 5.78v8.22zm5.928-18.48.864-.404a11.7 11.7 0 0 1 4.973-1.1h7.437v-1.908h-7.437c-2.064 0-4.023.458-5.78 1.279l-.865.404zm21.739-1.504h14.875v-1.908h-14.875zm23.34 0h14.874v-1.908h-14.874zm23.34 0h14.873v-1.908h-14.873zm23.343 0h14.87v-1.908h-14.87zm23.34 0h7.43c2.07 0 4.03-.458 5.78-1.278l.87-.404-.81-1.729-.86.404c-1.51.705-3.2 1.1-4.98 1.1h-7.43zm19.42-7.028.41-.864a13.6 13.6 0 0 0 1.28-5.78v-8.22h-1.91v8.22c0 1.778-.4 3.463-1.1 4.972l-.4.864zm1.69-24.58v-16.437h-1.91v16.437zm0-26.154v-8.218c0-1.78.39-3.464 1.1-4.973l.4-.865-1.73-.807-.4.864a13.6 13.6 0 0 0-1.28 5.781v8.218zm5.92-18.481.87-.403c1.51-.705 3.19-1.1 4.97-1.1h7.47v-1.907h-7.47c-2.06 0-4.02.457-5.78 1.278l-.86.404zm21.81-1.503h14.93v-1.907h-14.93zm23.44 0h14.93v-1.907h-14.93zm23.43 0h14.93v-1.907h-14.93zm23.44 0h14.93v-1.907h-14.93zm23.43 0h7.47c2.06 0 4.02-.458 5.78-1.278l.86-.404-.81-1.728-.86.403c-1.51.705-3.19 1.1-4.97 1.1h-7.47zm19.46-7.028.4-.864a13.6 13.6 0 0 0 1.28-5.781v-7.357h-1.91v7.357c0 1.779-.39 3.464-1.1 4.973l-.4.865zm1.68-22.34v-7.358c0-1.779.39-3.464 1.1-4.973l.4-.864-1.73-.808-.4.864a13.6 13.6 0 0 0-1.28 5.781v7.358zm5.93-17.62.86-.404c1.51-.705 3.2-1.099 4.98-1.099h7.64v-1.908h-7.64c-2.07 0-4.03.458-5.79 1.278l-.86.404zm22.28-1.503h15.29v-1.908h-15.29zm24.08 0h15.29v-1.908h-15.29zm24.09 0h15.29v-1.908h-15.29zm24.09 0h7.64v-1.908h-7.64z"/></g><g fill-rule="evenodd" clip-path="url(#k)" clip-rule="evenodd"><path fill="#282828" d="M831.649-1.019h-76.315v33.07h80.131c16.156 0 29.254-13.098 29.254-29.254v-48.492h112.882c16.157 0 29.259-13.097 29.259-29.254v-48.492h113.35c16.16 0 29.26-13.097 29.26-29.254v-19.238H1242v-33.069h-96.35c-16.15 0-29.25 13.097-29.25 29.254v19.237h-113.36c-16.157 0-29.255 13.098-29.255 29.254v48.492H860.903c-16.157 0-29.254 13.098-29.254 29.254z"/><path fill="#4e4e4e" d="M831.649 6.93h-76.315V40h80.131c16.156 0 29.254-13.097 29.254-29.254v-48.492h112.882c16.157 0 29.259-13.097 29.259-29.254v-48.492h113.35c16.16 0 29.26-13.097 29.26-29.254v-19.237H1242v-33.07h-96.35c-16.15 0-29.25 13.097-29.25 29.254v19.238h-113.36c-16.157 0-29.255 13.097-29.255 29.254v48.492H860.903c-16.157 0-29.254 13.097-29.254 29.253z"/><path fill="#fefffa" d="M755.334 22.511v1.908h6.519v-1.908zm13.514 1.908h13.037v-1.908h-13.037zm20.033 0h13.037v-1.908h-13.037zm20.032 0h13.038v-1.908h-13.038zm20.033 0h6.519c2.064 0 4.023-.458 5.78-1.279l.864-.403-.807-1.729-.864.404a11.7 11.7 0 0 1-4.973 1.1h-6.519zm18.509-7.028.404-.865a13.6 13.6 0 0 0 1.279-5.78V2.527h-1.908v8.219c0 1.78-.394 3.464-1.099 4.973l-.404.864zm1.683-24.58v-16.438h-1.908v16.438zm0-26.154v-8.219c0-1.779.394-3.463 1.099-4.973l.404-.864-1.729-.807-.404.864a13.6 13.6 0 0 0-1.278 5.78v8.22zm5.928-18.48.864-.404a11.7 11.7 0 0 1 4.973-1.1h7.437v-1.908h-7.437a13.6 13.6 0 0 0-5.78 1.279l-.865.404zm21.739-1.504h14.875v-1.908h-14.875zm23.34 0h14.874v-1.908h-14.874zm23.34 0h14.874v-1.908h-14.874zm23.339 0h14.875v-1.908h-14.875zm23.34 0h7.437c2.064 0 4.024-.458 5.781-1.278l.864-.404-.808-1.729-.864.404a11.7 11.7 0 0 1-4.973 1.1h-7.437zm19.428-7.028.404-.864a13.6 13.6 0 0 0 1.278-5.78v-8.22h-1.908v8.22c0 1.778-.394 3.463-1.099 4.972l-.404.864zm1.682-24.58v-16.437h-1.908v16.437zm0-26.154v-8.218c0-1.78.395-3.464 1.1-4.973l.403-.865-1.728-.807-.404.864a13.6 13.6 0 0 0-1.279 5.781v8.218zm5.928-18.481.865-.403a11.7 11.7 0 0 1 4.973-1.1h7.46v-1.907h-7.46c-2.06 0-4.024.457-5.781 1.278l-.864.404zm21.808-1.503h14.93v-1.907h-14.93zm23.44 0h14.92v-1.907h-14.92zm23.43 0h14.93v-1.907h-14.93zm23.44 0h14.92v-1.907h-14.92zm23.43 0h7.46c2.07 0 4.03-.458 5.79-1.278l.86-.404-.81-1.728-.86.403c-1.51.705-3.2 1.1-4.98 1.1h-7.46zm19.46-7.028.4-.864a13.6 13.6 0 0 0 1.28-5.781v-7.357h-1.91v7.357c0 1.779-.39 3.464-1.1 4.973l-.4.865zm1.68-22.34v-7.358c0-1.779.39-3.464 1.1-4.973l.4-.864-1.73-.808-.4.864a13.6 13.6 0 0 0-1.28 5.781v7.358zm5.93-17.62.86-.404a11.7 11.7 0 0 1 4.97-1.099h7.65v-1.908h-7.65c-2.06 0-4.02.458-5.78 1.278l-.86.404zm22.28-1.503h15.28v-1.908h-15.28zm24.08 0h15.29v-1.908h-15.29zm24.09 0h15.29v-1.908h-15.29zm24.09 0h7.64v-1.908h-7.64z"/></g><g fill-rule="evenodd" clip-path="url(#l)" clip-rule="evenodd"><path fill="#282828" d="M758.315-1.019H682v33.07h80.131c16.156 0 29.254-13.098 29.254-29.254v-48.492h112.882c16.157 0 29.254-13.097 29.254-29.254v-48.492h113.359c16.16 0 29.25-13.097 29.25-29.254v-19.238h92.54v-33.069h-96.35c-16.16 0-29.26 13.097-29.26 29.254v19.237H929.706c-16.157 0-29.255 13.098-29.255 29.254v48.492H787.569c-16.157 0-29.254 13.098-29.254 29.254z"/><path fill="#4e4e4e" d="M758.315 6.93H682V40h80.131c16.156 0 29.254-13.097 29.254-29.254v-48.492h112.882c16.157 0 29.254-13.097 29.254-29.254v-48.492h113.359c16.16 0 29.25-13.097 29.25-29.254v-19.237h92.54v-33.07h-96.35c-16.16 0-29.26 13.097-29.26 29.254v19.238H929.706c-16.157 0-29.255 13.097-29.255 29.254v48.492H787.569c-16.157 0-29.254 13.097-29.254 29.253z"/><path fill="#fefffa" d="M682 22.511v1.908h6.519v-1.908zm13.514 1.908h13.037v-1.908h-13.037zm20.033 0h13.037v-1.908h-13.037zm20.032 0h13.038v-1.908h-13.038zm20.033 0h6.519c2.064 0 4.023-.458 5.78-1.279l.864-.403-.807-1.729-.864.404a11.7 11.7 0 0 1-4.973 1.1h-6.519zm18.509-7.028.404-.865a13.6 13.6 0 0 0 1.279-5.78V2.527h-1.908v8.219c0 1.78-.394 3.464-1.099 4.973l-.404.864zm1.683-24.58v-16.438h-1.908v16.438zm0-26.154v-8.219c0-1.779.394-3.463 1.099-4.973l.404-.864-1.729-.807-.404.864a13.6 13.6 0 0 0-1.278 5.78v8.22zm5.928-18.48.864-.404a11.7 11.7 0 0 1 4.973-1.1h7.437v-1.908h-7.437c-2.064 0-4.023.458-5.78 1.279l-.865.404zm21.739-1.504h14.875v-1.908h-14.875zm23.34 0h14.874v-1.908h-14.874zm23.34 0h14.874v-1.908h-14.874zm23.339 0h14.875v-1.908H873.49zm23.34 0h7.437c2.064 0 4.024-.458 5.781-1.278l.864-.404-.808-1.729-.864.404a11.7 11.7 0 0 1-4.973 1.1h-7.437zm19.428-7.028.404-.864A13.6 13.6 0 0 0 917.94-67v-8.22h-1.908V-67c0 1.778-.394 3.463-1.099 4.972l-.404.864zm1.682-24.58v-16.437h-1.908v16.437zm0-26.154v-8.218c0-1.78.395-3.464 1.1-4.973l.403-.865-1.728-.807-.404.864a13.6 13.6 0 0 0-1.279 5.781v8.218zm5.928-18.481.865-.403a11.7 11.7 0 0 1 4.973-1.1h7.463v-1.907h-7.463c-2.064 0-4.024.457-5.781 1.278l-.864.404zm21.809-1.503h14.927v-1.907h-14.927zm23.435 0h14.927v-1.907h-14.927zm23.435 0h14.923v-1.907h-14.923zm23.433 0h14.93v-1.907h-14.93zm23.44 0h7.46c2.06 0 4.02-.458 5.78-1.278l.87-.404-.81-1.728-.87.403c-1.51.705-3.19 1.1-4.97 1.1h-7.46zm19.45-7.028.41-.864a13.6 13.6 0 0 0 1.27-5.781v-7.357h-1.9v7.357c0 1.779-.4 3.464-1.1 4.973l-.41.865zm1.68-22.34v-7.358c0-1.779.4-3.464 1.1-4.973l.41-.864-1.73-.808-.41.864a13.6 13.6 0 0 0-1.27 5.781v7.358zm5.93-17.62.87-.404a11.7 11.7 0 0 1 4.97-1.099h7.64v-1.908h-7.64c-2.06 0-4.02.458-5.78 1.278l-.87.404zm22.28-1.503h15.29v-1.908h-15.29zm24.09 0h15.29v-1.908h-15.29zm24.08 0h15.29v-1.908h-15.29zm24.09 0h7.65v-1.908h-7.65z"/></g><g fill-rule="evenodd" clip-path="url(#m)" clip-rule="evenodd"><path fill="#282828" d="M684.981-1.019h-76.315v33.07h80.131c16.156 0 29.254-13.098 29.254-29.254v-48.492h112.882c16.157 0 29.254-13.097 29.254-29.254v-48.492h113.36c16.156 0 29.253-13.097 29.253-29.254v-19.238h92.53v-33.069h-96.345c-16.157 0-29.254 13.097-29.254 29.254v19.237H856.372c-16.157 0-29.255 13.098-29.255 29.254v48.492H714.235c-16.157 0-29.254 13.098-29.254 29.254z"/><path fill="#4e4e4e" d="M684.981 6.93h-76.315V40h80.131c16.156 0 29.254-13.097 29.254-29.254v-48.492h112.882c16.157 0 29.254-13.097 29.254-29.254v-48.492h113.36c16.156 0 29.253-13.097 29.253-29.254v-19.237h92.53v-33.07h-96.345c-16.157 0-29.254 13.097-29.254 29.254v19.238H856.372c-16.157 0-29.255 13.097-29.255 29.254v48.492H714.235c-16.157 0-29.254 13.097-29.254 29.253z"/><path fill="#fefffa" d="M608.666 22.511v1.908h6.519v-1.908zm13.514 1.908h13.037v-1.908H622.18zm20.033 0h13.037v-1.908h-13.037zm20.032 0h13.038v-1.908h-13.038zm20.033 0h6.519c2.064 0 4.023-.458 5.78-1.279l.864-.403-.807-1.729-.864.404a11.7 11.7 0 0 1-4.973 1.1h-6.519zm18.509-7.028.404-.865a13.6 13.6 0 0 0 1.279-5.78V2.527h-1.908v8.219c0 1.78-.394 3.464-1.099 4.973l-.404.864zm1.683-24.58v-16.438h-1.908v16.438zm0-26.154v-8.219c0-1.779.394-3.463 1.099-4.973l.404-.864-1.729-.807-.404.864a13.6 13.6 0 0 0-1.278 5.78v8.22zm5.928-18.48.864-.404a11.7 11.7 0 0 1 4.973-1.1h7.437v-1.908h-7.437c-2.064 0-4.023.458-5.78 1.279l-.865.404zm21.739-1.504h14.875v-1.908h-14.875zm23.34 0h14.874v-1.908h-14.874zm23.34 0h14.874v-1.908h-14.874zm23.339 0h14.875v-1.908h-14.875zm23.34 0h7.437c2.064 0 4.024-.458 5.781-1.278l.864-.404-.808-1.729-.864.404a11.7 11.7 0 0 1-4.973 1.1h-7.437zm19.428-7.028.404-.864a13.6 13.6 0 0 0 1.278-5.78v-8.22h-1.908v8.22c0 1.778-.394 3.463-1.099 4.972l-.404.864zm1.682-24.58v-16.437h-1.908v16.437zm0-26.154v-8.218c0-1.78.395-3.464 1.1-4.973l.403-.865-1.728-.807-.404.864a13.6 13.6 0 0 0-1.279 5.781v8.218zm5.928-18.481.865-.403a11.7 11.7 0 0 1 4.973-1.1h7.463v-1.907h-7.463c-2.064 0-4.024.457-5.781 1.278l-.864.404zm21.809-1.503h14.927v-1.907h-14.927zm23.435 0h14.927v-1.907h-14.927zm23.435 0h14.927v-1.907h-14.927zm23.435 0h14.927v-1.907h-14.927zm23.435 0h7.464c2.064 0 4.023-.458 5.78-1.278l.864-.404-.807-1.728-.864.403a11.7 11.7 0 0 1-4.973 1.1h-7.464zm19.454-7.028.404-.864a13.6 13.6 0 0 0 1.279-5.781v-7.357h-1.908v7.357c0 1.779-.394 3.464-1.099 4.973l-.404.865zm1.683-22.34v-7.358c0-1.779.394-3.464 1.099-4.973l.404-.864-1.729-.808-.403.864a13.6 13.6 0 0 0-1.279 5.781v7.358zm5.928-17.62.864-.404a11.7 11.7 0 0 1 4.973-1.099h7.645v-1.908h-7.645c-2.064 0-4.023.458-5.78 1.278l-.865.404zm22.282-1.503h15.29v-1.908h-15.29zm24.08 0h15.29v-1.908h-15.29zm24.09 0h15.29v-1.908h-15.29zm24.09 0h7.64v-1.908h-7.64z"/></g><g fill-rule="evenodd" clip-path="url(#n)" clip-rule="evenodd"><path fill="#282828" d="M611.649-1.019h-76.315v33.07h80.131c16.156 0 29.254-13.098 29.254-29.254v-48.492h112.882c16.157 0 29.254-13.097 29.254-29.254v-48.492h113.36c16.156 0 29.254-13.097 29.254-29.254v-19.238H1022v-33.069h-96.347c-16.157 0-29.254 13.097-29.254 29.254v19.237h-113.36c-16.156 0-29.254 13.098-29.254 29.254v48.492H640.903c-16.157 0-29.254 13.098-29.254 29.254z"/><path fill="#4e4e4e" d="M611.649 6.93h-76.315V40h80.131c16.156 0 29.254-13.097 29.254-29.254v-48.492h112.882c16.157 0 29.254-13.097 29.254-29.254v-48.492h113.36c16.156 0 29.254-13.097 29.254-29.254v-19.237H1022v-33.07h-96.347c-16.157 0-29.254 13.097-29.254 29.254v19.238H783.04c-16.157 0-29.255 13.097-29.255 29.254v48.492H640.903c-16.157 0-29.254 13.097-29.254 29.253z"/><path fill="#fefffa" d="M535.334 22.511v1.908h6.519v-1.908zm13.514 1.908h13.037v-1.908h-13.037zm20.033 0h13.037v-1.908h-13.037zm20.032 0h13.038v-1.908h-13.038zm20.033 0h6.519c2.064 0 4.023-.458 5.78-1.279l.864-.403-.807-1.729-.864.404a11.7 11.7 0 0 1-4.973 1.1h-6.519zm18.509-7.028.404-.865a13.6 13.6 0 0 0 1.279-5.78V2.527h-1.908v8.219c0 1.78-.394 3.464-1.099 4.973l-.404.864zm1.683-24.58v-16.438h-1.908v16.438zm0-26.154v-8.219c0-1.779.394-3.463 1.099-4.973l.404-.864-1.729-.807-.404.864a13.6 13.6 0 0 0-1.278 5.78v8.22zm5.928-18.48.864-.404a11.7 11.7 0 0 1 4.973-1.1h7.437v-1.908h-7.437a13.6 13.6 0 0 0-5.78 1.279l-.865.404zm21.739-1.504h14.875v-1.908h-14.875zm23.34 0h14.874v-1.908h-14.874zm23.34 0h14.874v-1.908h-14.874zm23.339 0h14.875v-1.908h-14.875zm23.34 0h7.437c2.064 0 4.024-.458 5.781-1.278l.864-.404-.808-1.729-.864.404a11.7 11.7 0 0 1-4.973 1.1h-7.437zm19.428-7.028.404-.864a13.6 13.6 0 0 0 1.278-5.78v-8.22h-1.908v8.22c0 1.778-.394 3.463-1.099 4.972l-.404.864zm1.682-24.58v-16.437h-1.908v16.437zm0-26.154v-8.218c0-1.78.395-3.464 1.1-4.973l.403-.865-1.728-.807-.404.864a13.6 13.6 0 0 0-1.279 5.781v8.218zm5.928-18.481.865-.403a11.7 11.7 0 0 1 4.972-1.1h7.464v-1.907h-7.464c-2.063 0-4.023.457-5.78 1.278l-.864.404zm21.809-1.503h14.927v-1.907h-14.927zm23.435 0h14.927v-1.907h-14.927zm23.435 0h14.927v-1.907h-14.927zm23.435 0h14.927v-1.907h-14.927zm23.435 0h7.464c2.064 0 4.023-.458 5.78-1.278l.864-.404-.807-1.728-.864.403a11.7 11.7 0 0 1-4.973 1.1h-7.464zm19.454-7.028.404-.864a13.6 13.6 0 0 0 1.279-5.781v-7.357h-1.908v7.357c0 1.779-.394 3.464-1.099 4.973l-.404.865zm1.683-22.34v-7.358c0-1.779.394-3.464 1.099-4.973l.404-.864-1.729-.808-.404.864a13.6 13.6 0 0 0-1.278 5.781v7.358zm5.928-17.62.864-.404a11.7 11.7 0 0 1 4.973-1.099h7.645v-1.908h-7.645c-2.064 0-4.023.458-5.78 1.278l-.865.404zm22.279-1.503h15.29v-1.908h-15.29zm24.087 0h15.289v-1.908h-15.289zm24.087 0h15.291v-1.908h-15.291zm24.091 0h7.64v-1.908h-7.64z"/></g><g fill-rule="evenodd" clip-path="url(#o)" clip-rule="evenodd"><path fill="#282828" d="M538.315-1.019H462v33.07h80.131c16.156 0 29.254-13.098 29.254-29.254v-48.492h112.882c16.157 0 29.254-13.097 29.254-29.254v-48.492h113.36c16.156 0 29.254-13.097 29.254-29.254v-19.238h92.532v-33.069h-96.348c-16.157 0-29.254 13.097-29.254 29.254v19.237H709.706c-16.157 0-29.255 13.098-29.255 29.254v48.492H567.569c-16.157 0-29.254 13.098-29.254 29.254z"/><path fill="#4e4e4e" d="M538.315 6.93H462V40h80.131c16.156 0 29.254-13.097 29.254-29.254v-48.492h112.882c16.157 0 29.254-13.097 29.254-29.254v-48.492h113.36c16.156 0 29.254-13.097 29.254-29.254v-19.237h92.532v-33.07h-96.348c-16.157 0-29.254 13.097-29.254 29.254v19.238H709.706c-16.157 0-29.255 13.097-29.255 29.254v48.492H567.569c-16.157 0-29.254 13.097-29.254 29.253z"/><path fill="#fefffa" d="M462 22.511v1.908h6.519v-1.908zm13.514 1.908h13.037v-1.908h-13.037zm20.033 0h13.037v-1.908h-13.037zm20.032 0h13.038v-1.908h-13.038zm20.033 0h6.519c2.064 0 4.023-.458 5.78-1.279l.864-.403-.807-1.729-.864.404a11.7 11.7 0 0 1-4.973 1.1h-6.519zm18.509-7.028.404-.865a13.6 13.6 0 0 0 1.279-5.78V2.527h-1.908v8.219c0 1.78-.394 3.464-1.099 4.973l-.404.864zm1.683-24.58v-16.438h-1.908v16.438zm0-26.154v-8.219c0-1.779.394-3.463 1.099-4.973l.404-.864-1.729-.807-.404.864a13.6 13.6 0 0 0-1.278 5.78v8.22zm5.928-18.48.864-.404a11.7 11.7 0 0 1 4.973-1.1h7.437v-1.908h-7.437c-2.064 0-4.023.458-5.78 1.279l-.865.404zm21.739-1.504h14.875v-1.908h-14.875zm23.34 0h14.874v-1.908h-14.874zm23.34 0h14.874v-1.908h-14.874zm23.339 0h14.875v-1.908H653.49zm23.34 0h7.437c2.064 0 4.024-.458 5.781-1.278l.864-.404-.808-1.729-.864.404a11.7 11.7 0 0 1-4.973 1.1h-7.437zm19.428-7.028.404-.864A13.6 13.6 0 0 0 697.94-67v-8.22h-1.908V-67c0 1.778-.394 3.463-1.099 4.972l-.404.864zm1.682-24.58v-16.437h-1.908v16.437zm0-26.154v-8.218c0-1.78.395-3.464 1.1-4.973l.403-.865-1.728-.807-.404.864a13.6 13.6 0 0 0-1.279 5.781v8.218zm5.928-18.481.865-.403a11.7 11.7 0 0 1 4.973-1.1h7.463v-1.907h-7.463c-2.064 0-4.024.457-5.781 1.278l-.864.404zm21.809-1.503h14.927v-1.907h-14.927zm23.435 0h14.927v-1.907h-14.927zm23.435 0h14.927v-1.907h-14.927zm23.435 0h14.927v-1.907h-14.927zm23.435 0h7.464c2.064 0 4.023-.458 5.78-1.278l.864-.404-.807-1.728-.864.403a11.7 11.7 0 0 1-4.973 1.1h-7.464zm19.454-7.028.404-.864a13.6 13.6 0 0 0 1.279-5.781v-7.357h-1.908v7.357c0 1.779-.394 3.464-1.099 4.973l-.404.865zm1.683-22.34v-7.358c0-1.779.394-3.464 1.099-4.973l.404-.864-1.729-.808-.404.864a13.6 13.6 0 0 0-1.278 5.781v7.358zm5.928-17.62.864-.404a11.7 11.7 0 0 1 4.973-1.099h7.645v-1.908h-7.645c-2.064 0-4.023.458-5.78 1.278l-.865.404zm22.279-1.503h15.29v-1.908h-15.29zm24.087 0h15.289v-1.908h-15.289zm24.087 0h15.289v-1.908h-15.289zm24.087 0h7.645v-1.908h-7.645z"/></g><g fill-rule="evenodd" clip-path="url(#p)" clip-rule="evenodd"><path fill="#282828" d="M464.981-1.019h-76.315v33.07h80.131c16.156 0 29.254-13.098 29.254-29.254v-48.492h112.882c16.157 0 29.254-13.097 29.254-29.254v-48.492h113.36c16.156 0 29.254-13.097 29.254-29.254v-19.238h92.532v-33.069h-96.348c-16.157 0-29.254 13.097-29.254 29.254v19.237H636.372c-16.157 0-29.255 13.098-29.255 29.254v48.492H494.235c-16.157 0-29.254 13.098-29.254 29.254z"/><path fill="#4e4e4e" d="M464.981 6.93h-76.315V40h80.131c16.156 0 29.254-13.097 29.254-29.254v-48.492h112.882c16.157 0 29.254-13.097 29.254-29.254v-48.492h113.36c16.156 0 29.254-13.097 29.254-29.254v-19.237h92.532v-33.07h-96.348c-16.157 0-29.254 13.097-29.254 29.254v19.238H636.372c-16.157 0-29.255 13.097-29.255 29.254v48.492H494.235c-16.157 0-29.254 13.097-29.254 29.253z"/><path fill="#fefffa" d="M388.666 22.511v1.908h6.519v-1.908zm13.514 1.908h13.037v-1.908H402.18zm20.033 0h13.037v-1.908h-13.037zm20.032 0h13.038v-1.908h-13.038zm20.033 0h6.519c2.064 0 4.023-.458 5.78-1.279l.864-.403-.807-1.729-.864.404a11.7 11.7 0 0 1-4.973 1.1h-6.519zm18.509-7.028.404-.865a13.6 13.6 0 0 0 1.279-5.78V2.527h-1.908v8.219c0 1.78-.394 3.464-1.099 4.973l-.404.864zm1.683-24.58v-16.438h-1.908v16.438zm0-26.154v-8.219c0-1.779.394-3.463 1.099-4.973l.404-.864-1.729-.807-.404.864a13.6 13.6 0 0 0-1.278 5.78v8.22zm5.928-18.48.864-.404a11.7 11.7 0 0 1 4.973-1.1h7.437v-1.908h-7.437c-2.064 0-4.023.458-5.78 1.279l-.865.404zm21.739-1.504h14.875v-1.908h-14.875zm23.34 0h14.874v-1.908h-14.874zm23.34 0h14.874v-1.908h-14.874zm23.339 0h14.875v-1.908h-14.875zm23.34 0h7.437c2.064 0 4.024-.458 5.781-1.278l.864-.404-.808-1.729-.864.404a11.7 11.7 0 0 1-4.973 1.1h-7.437zm19.428-7.028.404-.864a13.6 13.6 0 0 0 1.278-5.78v-8.22h-1.908v8.22c0 1.778-.394 3.463-1.099 4.972l-.404.864zm1.682-24.58v-16.437h-1.908v16.437zm0-26.154v-8.218c0-1.78.395-3.464 1.1-4.973l.403-.865-1.728-.807-.404.864a13.6 13.6 0 0 0-1.279 5.781v8.218zm5.928-18.481.865-.403a11.7 11.7 0 0 1 4.973-1.1h7.463v-1.907h-7.463c-2.064 0-4.024.457-5.781 1.278l-.864.404zm21.809-1.503h14.927v-1.907h-14.927zm23.435 0h14.927v-1.907h-14.927zm23.435 0h14.927v-1.907h-14.927zm23.435 0h14.927v-1.907h-14.927zm23.435 0h7.464c2.064 0 4.023-.458 5.78-1.278l.864-.404-.807-1.728-.864.403a11.7 11.7 0 0 1-4.973 1.1h-7.464zm19.454-7.028.404-.864a13.6 13.6 0 0 0 1.279-5.781v-7.357h-1.908v7.357c0 1.779-.394 3.464-1.099 4.973l-.404.865zm1.683-22.34v-7.358c0-1.779.394-3.464 1.099-4.973l.404-.864-1.729-.808-.403.864a13.6 13.6 0 0 0-1.279 5.781v7.358zm5.928-17.62.864-.404a11.7 11.7 0 0 1 4.973-1.099h7.645v-1.908h-7.645c-2.064 0-4.023.458-5.78 1.278l-.865.404zm22.279-1.503h15.29v-1.908h-15.29zm24.087 0h15.29v-1.908h-15.29zm24.087 0h15.289v-1.908h-15.289zm24.087 0h7.645v-1.908h-7.645z"/></g><g fill-rule="evenodd" clip-path="url(#q)" clip-rule="evenodd"><path fill="#282828" d="M391.649-1.019h-76.315v33.07h80.131c16.156 0 29.254-13.098 29.254-29.254v-48.492h112.882c16.157 0 29.254-13.097 29.254-29.254v-48.492h113.36c16.156 0 29.254-13.097 29.254-29.254v-19.238h92.532v-33.069h-96.348c-16.157 0-29.254 13.097-29.254 29.254v19.237h-113.36c-16.156 0-29.254 13.098-29.254 29.254v48.492H420.903c-16.157 0-29.254 13.098-29.254 29.254z"/><path fill="#4e4e4e" d="M391.649 6.93h-76.315V40h80.131c16.156 0 29.254-13.097 29.254-29.254v-48.492h112.882c16.157 0 29.254-13.097 29.254-29.254v-48.492h113.36c16.156 0 29.254-13.097 29.254-29.254v-19.237h92.532v-33.07h-96.348c-16.157 0-29.254 13.097-29.254 29.254v19.238H563.04c-16.157 0-29.255 13.097-29.255 29.254v48.492H420.903c-16.157 0-29.254 13.097-29.254 29.253z"/><path fill="#fefffa" d="M315.334 22.511v1.908h6.519v-1.908zm13.514 1.908h13.037v-1.908h-13.037zm20.033 0h13.037v-1.908h-13.037zm20.032 0h13.038v-1.908h-13.038zm20.033 0h6.519c2.064 0 4.023-.458 5.78-1.279l.864-.403-.807-1.729-.864.404a11.7 11.7 0 0 1-4.973 1.1h-6.519zm18.509-7.028.404-.865a13.6 13.6 0 0 0 1.279-5.78V2.527h-1.908v8.219c0 1.78-.394 3.464-1.099 4.973l-.404.864zm1.683-24.58v-16.438h-1.908v16.438zm0-26.154v-8.219c0-1.779.394-3.463 1.099-4.973l.404-.864-1.729-.807-.404.864a13.6 13.6 0 0 0-1.278 5.78v8.22zm5.928-18.48.864-.404a11.7 11.7 0 0 1 4.973-1.1h7.437v-1.908h-7.437a13.6 13.6 0 0 0-5.78 1.279l-.865.404zm21.739-1.504h14.875v-1.908h-14.875zm23.34 0h14.874v-1.908h-14.874zm23.34 0h14.874v-1.908h-14.874zm23.339 0h14.875v-1.908h-14.875zm23.34 0h7.437c2.064 0 4.024-.458 5.781-1.278l.864-.404-.808-1.729-.864.404a11.7 11.7 0 0 1-4.973 1.1h-7.437zm19.428-7.028.404-.864a13.6 13.6 0 0 0 1.278-5.78v-8.22h-1.908v8.22c0 1.778-.394 3.463-1.099 4.972l-.404.864zm1.682-24.58v-16.437h-1.908v16.437zm0-26.154v-8.218c0-1.78.395-3.464 1.1-4.973l.403-.865-1.728-.807-.404.864a13.6 13.6 0 0 0-1.279 5.781v8.218zm5.928-18.481.865-.403a11.7 11.7 0 0 1 4.972-1.1h7.464v-1.907h-7.464c-2.063 0-4.023.457-5.78 1.278l-.864.404zm21.809-1.503h14.927v-1.907h-14.927zm23.435 0h14.927v-1.907h-14.927zm23.435 0h14.927v-1.907h-14.927zm23.435 0h14.927v-1.907h-14.927zm23.435 0h7.464c2.064 0 4.023-.458 5.78-1.278l.864-.404-.807-1.728-.864.403a11.7 11.7 0 0 1-4.973 1.1h-7.464zm19.454-7.028.404-.864a13.6 13.6 0 0 0 1.279-5.781v-7.357h-1.908v7.357c0 1.779-.394 3.464-1.099 4.973l-.404.865zm1.683-22.34v-7.358c0-1.779.394-3.464 1.099-4.973l.404-.864-1.729-.808-.404.864a13.6 13.6 0 0 0-1.278 5.781v7.358zm5.928-17.62.864-.404a11.7 11.7 0 0 1 4.973-1.099h7.645v-1.908h-7.645c-2.064 0-4.023.458-5.78 1.278l-.865.404zm22.279-1.503h15.29v-1.908h-15.29zm24.087 0h15.289v-1.908h-15.289zm24.087 0h15.289v-1.908h-15.289zm24.087 0h7.645v-1.908h-7.645z"/></g><g fill-rule="evenodd" clip-path="url(#r)" clip-rule="evenodd"><path fill="#282828" d="M318.315-1.019H242v33.07h80.131c16.156 0 29.254-13.098 29.254-29.254v-48.492h112.882c16.157 0 29.254-13.097 29.254-29.254v-48.492h113.36c16.156 0 29.254-13.097 29.254-29.254v-19.238h92.532v-33.069h-96.348c-16.157 0-29.254 13.097-29.254 29.254v19.237H489.706c-16.157 0-29.255 13.098-29.255 29.254v48.492H347.569c-16.157 0-29.254 13.098-29.254 29.254z"/><path fill="#4e4e4e" d="M318.315 6.93H242V40h80.131c16.156 0 29.254-13.097 29.254-29.254v-48.492h112.882c16.157 0 29.254-13.097 29.254-29.254v-48.492h113.36c16.156 0 29.254-13.097 29.254-29.254v-19.237h92.532v-33.07h-96.348c-16.157 0-29.254 13.097-29.254 29.254v19.238H489.706c-16.157 0-29.255 13.097-29.255 29.254v48.492H347.569c-16.157 0-29.254 13.097-29.254 29.253z"/><path fill="#fefffa" d="M242 22.511v1.908h6.519v-1.908zm13.514 1.908h13.037v-1.908h-13.037zm20.033 0h13.037v-1.908h-13.037zm20.032 0h13.038v-1.908h-13.038zm20.033 0h6.519c2.064 0 4.023-.458 5.78-1.279l.864-.403-.807-1.729-.864.404a11.7 11.7 0 0 1-4.973 1.1h-6.519zm18.509-7.028.404-.865a13.6 13.6 0 0 0 1.279-5.78V2.527h-1.908v8.219c0 1.78-.394 3.464-1.099 4.973l-.404.864zm1.683-24.58v-16.438h-1.908v16.438zm0-26.154v-8.219c0-1.779.394-3.463 1.099-4.973l.404-.864-1.729-.807-.404.864a13.6 13.6 0 0 0-1.278 5.78v8.22zm5.928-18.48.864-.404a11.7 11.7 0 0 1 4.973-1.1h7.437v-1.908h-7.437c-2.064 0-4.023.458-5.78 1.279l-.865.404zm21.739-1.504h14.875v-1.908h-14.875zm23.34 0h14.874v-1.908h-14.874zm23.34 0h14.874v-1.908h-14.874zm23.339 0h14.875v-1.908H433.49zm23.34 0h7.437c2.064 0 4.024-.458 5.781-1.278l.864-.404-.808-1.729-.864.404a11.7 11.7 0 0 1-4.973 1.1h-7.437zm19.428-7.028.404-.864A13.6 13.6 0 0 0 477.94-67v-8.22h-1.908V-67c0 1.778-.394 3.463-1.099 4.972l-.404.864zm1.682-24.58v-16.437h-1.908v16.437zm0-26.154v-8.218c0-1.78.395-3.464 1.1-4.973l.403-.865-1.728-.807-.404.864a13.6 13.6 0 0 0-1.279 5.781v8.218zm5.928-18.481.865-.403a11.7 11.7 0 0 1 4.973-1.1h7.463v-1.907h-7.463c-2.064 0-4.024.457-5.781 1.278l-.864.404zm21.809-1.503h14.927v-1.907h-14.927zm23.435 0h14.927v-1.907h-14.927zm23.435 0h14.927v-1.907h-14.927zm23.435 0h14.927v-1.907h-14.927zm23.435 0h7.464c2.064 0 4.023-.458 5.78-1.278l.864-.404-.807-1.728-.864.403a11.7 11.7 0 0 1-4.973 1.1h-7.464zm19.454-7.028.404-.864a13.6 13.6 0 0 0 1.279-5.781v-7.357h-1.908v7.357c0 1.779-.394 3.464-1.099 4.973l-.404.865zm1.683-22.34v-7.358c0-1.779.394-3.464 1.099-4.973l.404-.864-1.729-.808-.404.864a13.6 13.6 0 0 0-1.278 5.781v7.358zm5.928-17.62.864-.404a11.7 11.7 0 0 1 4.973-1.099h7.645v-1.908h-7.645c-2.064 0-4.023.458-5.78 1.278l-.865.404zm22.279-1.503h15.29v-1.908h-15.29zm24.087 0h15.289v-1.908h-15.289zm24.087 0h15.289v-1.908h-15.289zm24.087 0h7.645v-1.908h-7.645z"/></g><g fill-rule="evenodd" clip-path="url(#s)" clip-rule="evenodd"><path fill="#282828" d="M244.983-1.019h-76.315v33.07h80.131c16.156 0 29.254-13.098 29.254-29.254v-48.492h112.882c16.157 0 29.254-13.097 29.254-29.254v-48.492h113.36c16.156 0 29.254-13.097 29.254-29.254v-19.238h92.532v-33.069h-96.348c-16.157 0-29.254 13.097-29.254 29.254v19.237h-113.36c-16.156 0-29.254 13.098-29.254 29.254v48.492H274.237c-16.157 0-29.254 13.098-29.254 29.254z"/><path fill="#4e4e4e" d="M244.983 6.93h-76.315V40h80.131c16.156 0 29.254-13.097 29.254-29.254v-48.492h112.882c16.157 0 29.254-13.097 29.254-29.254v-48.492h113.36c16.156 0 29.254-13.097 29.254-29.254v-19.237h92.532v-33.07h-96.348c-16.157 0-29.254 13.097-29.254 29.254v19.238h-113.36c-16.156 0-29.254 13.097-29.254 29.254v48.492H274.237c-16.157 0-29.254 13.097-29.254 29.253z"/><path fill="#fefffa" d="M168.668 22.511v1.908h6.519v-1.908zm13.514 1.908h13.037v-1.908h-13.037zm20.033 0h13.037v-1.908h-13.037zm20.032 0h13.038v-1.908h-13.038zm20.033 0h6.519c2.064 0 4.023-.458 5.78-1.279l.864-.403-.807-1.729-.864.404a11.7 11.7 0 0 1-4.973 1.1h-6.519zm18.509-7.028.404-.865a13.6 13.6 0 0 0 1.279-5.78V2.527h-1.908v8.219c0 1.78-.394 3.464-1.099 4.973l-.404.864zm1.683-24.58v-16.438h-1.908v16.438zm0-26.154v-8.219c0-1.779.394-3.463 1.099-4.973l.404-.864-1.729-.807-.404.864a13.6 13.6 0 0 0-1.278 5.78v8.22zm5.928-18.48.864-.404a11.7 11.7 0 0 1 4.973-1.1h7.437v-1.908h-7.437a13.6 13.6 0 0 0-5.78 1.279l-.865.404zm21.739-1.504h14.875v-1.908h-14.875zm23.34 0h14.874v-1.908h-14.874zm23.34 0h14.874v-1.908h-14.874zm23.339 0h14.875v-1.908h-14.875zm23.34 0h7.437c2.064 0 4.024-.458 5.781-1.278l.864-.404-.808-1.729-.864.404a11.7 11.7 0 0 1-4.973 1.1h-7.437zm19.428-7.028.404-.864a13.6 13.6 0 0 0 1.278-5.78v-8.22H402.7v8.22c0 1.778-.394 3.463-1.099 4.972l-.404.864zm1.682-24.58v-16.437H402.7v16.437zm0-26.154v-8.218c0-1.78.395-3.464 1.1-4.973l.403-.865-1.728-.807-.404.864a13.6 13.6 0 0 0-1.279 5.781v8.218zm5.928-18.481.865-.403a11.7 11.7 0 0 1 4.972-1.1h7.464v-1.907h-7.464c-2.063 0-4.023.457-5.78 1.278l-.864.404zm21.809-1.503h14.927v-1.907h-14.927zm23.435 0h14.927v-1.907H455.78zm23.435 0h14.927v-1.907h-14.927zm23.435 0h14.927v-1.907H502.65zm23.435 0h7.464c2.064 0 4.023-.458 5.78-1.278l.864-.404-.807-1.728-.864.403a11.7 11.7 0 0 1-4.973 1.1h-7.464zm19.454-7.028.404-.864a13.6 13.6 0 0 0 1.279-5.781v-7.357h-1.908v7.357c0 1.779-.394 3.464-1.099 4.973l-.404.865zm1.683-22.34v-7.358c0-1.779.394-3.464 1.099-4.973l.404-.864-1.729-.808-.404.864a13.6 13.6 0 0 0-1.278 5.781v7.358zm5.928-17.62.864-.404a11.7 11.7 0 0 1 4.973-1.099h7.645v-1.908h-7.645c-2.064 0-4.023.458-5.78 1.278l-.865.404zm22.279-1.503h15.29v-1.908h-15.29zm24.087 0h15.289v-1.908h-15.289zm24.087 0h15.289v-1.908h-15.289zm24.087 0h7.645v-1.908h-7.645z"/></g><g fill-rule="evenodd" clip-path="url(#t)" clip-rule="evenodd"><path fill="#282828" d="M171.649-1.019H95.334v33.07h80.131c16.156 0 29.254-13.098 29.254-29.254v-48.492h112.882c16.157 0 29.254-13.097 29.254-29.254v-48.492h113.36c16.156 0 29.254-13.097 29.254-29.254v-19.238h92.532v-33.069h-96.348c-16.157 0-29.254 13.097-29.254 29.254v19.237h-113.36c-16.156 0-29.254 13.098-29.254 29.254v48.492H200.903c-16.157 0-29.254 13.098-29.254 29.254z"/><path fill="#4e4e4e" d="M171.649 6.93H95.334V40h80.131c16.156 0 29.254-13.097 29.254-29.254v-48.492h112.882c16.157 0 29.254-13.097 29.254-29.254v-48.492h113.36c16.156 0 29.254-13.097 29.254-29.254v-19.237h92.532v-33.07h-96.348c-16.157 0-29.254 13.097-29.254 29.254v19.238H343.04c-16.157 0-29.255 13.097-29.255 29.254v48.492H200.903c-16.157 0-29.254 13.097-29.254 29.253z"/><path fill="#fefffa" d="M95.334 22.511v1.908h6.519v-1.908zm13.514 1.908h13.037v-1.908h-13.037zm20.033 0h13.037v-1.908h-13.037zm20.032 0h13.038v-1.908h-13.038zm20.033 0h6.519c2.064 0 4.023-.458 5.78-1.279l.864-.403-.807-1.729-.864.404a11.7 11.7 0 0 1-4.973 1.1h-6.519zm18.509-7.028.404-.865a13.6 13.6 0 0 0 1.279-5.78V2.527h-1.908v8.219c0 1.78-.394 3.464-1.099 4.973l-.404.864zm1.683-24.58v-16.438h-1.908v16.438zm0-26.154v-8.219c0-1.779.394-3.463 1.099-4.973l.404-.864-1.729-.807-.404.864a13.6 13.6 0 0 0-1.278 5.78v8.22zm5.928-18.48.864-.404a11.7 11.7 0 0 1 4.973-1.1h7.437v-1.908h-7.437a13.6 13.6 0 0 0-5.78 1.279l-.865.404zm21.739-1.504h14.875v-1.908h-14.875zm23.34 0h14.874v-1.908h-14.874zm23.34 0h14.874v-1.908h-14.874zm23.339 0h14.875v-1.908h-14.875zm23.34 0h7.437c2.064 0 4.024-.458 5.781-1.278l.864-.404-.808-1.729-.864.404a11.7 11.7 0 0 1-4.973 1.1h-7.437zm19.428-7.028.404-.864a13.6 13.6 0 0 0 1.278-5.78v-8.22h-1.908v8.22c0 1.778-.394 3.463-1.099 4.972l-.404.864zm1.682-24.58v-16.437h-1.908v16.437zm0-26.154v-8.218c0-1.78.395-3.464 1.1-4.973l.403-.865-1.728-.807-.404.864a13.6 13.6 0 0 0-1.279 5.781v8.218zm5.928-18.481.865-.403a11.7 11.7 0 0 1 4.972-1.1h7.464v-1.907h-7.464c-2.063 0-4.023.457-5.78 1.278l-.864.404zm21.809-1.503h14.927v-1.907h-14.927zm23.435 0h14.927v-1.907h-14.927zm23.435 0h14.927v-1.907h-14.927zm23.435 0h14.927v-1.907h-14.927zm23.435 0h7.464c2.064 0 4.023-.458 5.78-1.278l.864-.404-.807-1.728-.864.403a11.7 11.7 0 0 1-4.973 1.1h-7.464zm19.454-7.028.404-.864a13.6 13.6 0 0 0 1.279-5.781v-7.357h-1.908v7.357c0 1.779-.394 3.464-1.099 4.973l-.404.865zm1.683-22.34v-7.358c0-1.779.394-3.464 1.099-4.973l.404-.864-1.729-.808-.404.864a13.6 13.6 0 0 0-1.278 5.781v7.358zm5.928-17.62.864-.404a11.7 11.7 0 0 1 4.973-1.099h7.645v-1.908h-7.645c-2.064 0-4.023.458-5.78 1.278l-.865.404zm22.279-1.503h15.29v-1.908h-15.29zm24.087 0h15.289v-1.908h-15.289zm24.087 0h15.289v-1.908h-15.289zm24.087 0h7.645v-1.908h-7.645z"/></g><g fill-rule="evenodd" clip-path="url(#u)" clip-rule="evenodd"><path fill="#282828" d="M98.315-1.019H22v33.07h80.131c16.156 0 29.254-13.098 29.254-29.254v-48.492h112.882c16.157 0 29.254-13.097 29.254-29.254v-48.492h113.36c16.156 0 29.254-13.097 29.254-29.254v-19.238h92.532v-33.069h-96.348c-16.157 0-29.254 13.097-29.254 29.254v19.237H269.706c-16.157 0-29.255 13.098-29.255 29.254v48.492H127.569c-16.157 0-29.254 13.098-29.254 29.254z"/><path fill="#4e4e4e" d="M98.315 6.93H22V40h80.131c16.156 0 29.254-13.097 29.254-29.254v-48.492h112.882c16.157 0 29.254-13.097 29.254-29.254v-48.492h113.36c16.156 0 29.254-13.097 29.254-29.254v-19.237h92.532v-33.07h-96.348c-16.157 0-29.254 13.097-29.254 29.254v19.238H269.706c-16.157 0-29.255 13.097-29.255 29.254v48.492H127.569c-16.157 0-29.254 13.097-29.254 29.253z"/><path fill="#fefffa" d="M22 22.511v1.908h6.519v-1.908zm13.514 1.908h13.037v-1.908H35.514zm20.033 0h13.037v-1.908H55.547zm20.032 0h13.038v-1.908H75.579zm20.033 0h6.519c2.064 0 4.023-.458 5.78-1.279l.864-.403-.807-1.729-.864.404a11.7 11.7 0 0 1-4.973 1.1h-6.519zm18.509-7.028.404-.865a13.6 13.6 0 0 0 1.279-5.78V2.527h-1.908v8.219c0 1.78-.394 3.464-1.099 4.973l-.404.864zm1.683-24.58v-16.438h-1.908v16.438zm0-26.154v-8.219c0-1.779.394-3.463 1.099-4.973l.404-.864-1.729-.807-.404.864a13.6 13.6 0 0 0-1.278 5.78v8.22zm5.928-18.48.864-.404a11.7 11.7 0 0 1 4.973-1.1h7.437v-1.908h-7.437c-2.064 0-4.023.458-5.78 1.279l-.865.404zm21.739-1.504h14.875v-1.908h-14.875zm23.34 0h14.874v-1.908h-14.874zm23.34 0h14.874v-1.908h-14.874zm23.339 0h14.875v-1.908H213.49zm23.34 0h7.437c2.064 0 4.024-.458 5.781-1.278l.864-.404-.808-1.729-.864.404a11.7 11.7 0 0 1-4.973 1.1h-7.437zm19.428-7.028.404-.864A13.6 13.6 0 0 0 257.94-67v-8.22h-1.908V-67c0 1.778-.394 3.463-1.099 4.972l-.404.864zm1.682-24.58v-16.437h-1.908v16.437zm0-26.154v-8.218c0-1.78.395-3.464 1.1-4.973l.403-.865-1.728-.807-.404.864a13.6 13.6 0 0 0-1.279 5.781v8.218zm5.928-18.481.865-.403a11.7 11.7 0 0 1 4.973-1.1h7.463v-1.907h-7.463c-2.064 0-4.024.457-5.781 1.278l-.864.404zm21.809-1.503h14.927v-1.907h-14.927zm23.435 0h14.927v-1.907h-14.927zm23.435 0h14.927v-1.907h-14.927zm23.435 0h14.927v-1.907h-14.927zm23.435 0h7.464c2.064 0 4.023-.458 5.78-1.278l.864-.404-.807-1.728-.864.403a11.7 11.7 0 0 1-4.973 1.1h-7.464zm19.454-7.028.404-.864a13.6 13.6 0 0 0 1.279-5.781v-7.357h-1.908v7.357c0 1.779-.394 3.464-1.099 4.973l-.404.865zm1.683-22.34v-7.358c0-1.779.394-3.464 1.099-4.973l.404-.864-1.729-.808-.404.864a13.6 13.6 0 0 0-1.278 5.781v7.358zm5.928-17.62.864-.404a11.7 11.7 0 0 1 4.973-1.099h7.645v-1.908h-7.645c-2.064 0-4.023.458-5.78 1.278l-.865.404zm22.279-1.503h15.29v-1.908h-15.29zm24.087 0h15.289v-1.908h-15.289zm24.087 0h15.289v-1.908h-15.289zm24.087 0h7.645v-1.908h-7.645z"/></g><g fill-rule="evenodd" clip-path="url(#v)" clip-rule="evenodd"><path fill="#282828" d="M24.983-1.019h-76.315v33.07h80.13c16.157 0 29.255-13.098 29.255-29.254v-48.492h112.882c16.157 0 29.254-13.097 29.254-29.254v-48.492h113.36c16.156 0 29.254-13.097 29.254-29.254v-19.238h92.532v-33.069h-96.348c-16.157 0-29.254 13.097-29.254 29.254v19.237h-113.36c-16.156 0-29.254 13.098-29.254 29.254v48.492H54.237c-16.157 0-29.254 13.098-29.254 29.254z"/><path fill="#4e4e4e" d="M24.983 6.93h-76.315V40h80.13c16.157 0 29.255-13.097 29.255-29.254v-48.492h112.882c16.157 0 29.254-13.097 29.254-29.254v-48.492h113.36c16.156 0 29.254-13.097 29.254-29.254v-19.237h92.532v-33.07h-96.348c-16.157 0-29.254 13.097-29.254 29.254v19.238h-113.36c-16.156 0-29.254 13.097-29.254 29.254v48.492H54.237c-16.157 0-29.254 13.097-29.254 29.253z"/><path fill="#fefffa" d="M-51.332 22.511v1.908h6.519v-1.908zm13.514 1.908h13.037v-1.908h-13.037zm20.033 0h13.037v-1.908h-13.037zm20.032 0h13.038v-1.908H2.246zm20.033 0h6.52c2.064 0 4.023-.458 5.78-1.279l.864-.403-.807-1.729-.864.404a11.7 11.7 0 0 1-4.973 1.1h-6.52zm18.51-7.028.403-.865a13.6 13.6 0 0 0 1.279-5.78V2.527h-1.908v8.219a11.7 11.7 0 0 1-1.1 4.973l-.403.864zm1.682-24.58v-16.438h-1.908v16.438zm0-26.154v-8.219c0-1.779.394-3.463 1.099-4.973l.404-.864-1.729-.807-.404.864a13.6 13.6 0 0 0-1.278 5.78v8.22zm5.928-18.48.864-.404c1.51-.706 3.194-1.1 4.973-1.1h7.437v-1.908h-7.437c-2.064 0-4.023.458-5.78 1.279l-.865.404zm21.74-1.504h14.874v-1.908H70.139zm23.34 0h14.873v-1.908H93.479zm23.339 0h14.874v-1.908h-14.874zm23.339 0h14.875v-1.908h-14.875zm23.34 0h7.437c2.064 0 4.024-.458 5.781-1.278l.864-.404-.808-1.729-.864.404a11.7 11.7 0 0 1-4.973 1.1h-7.437zm19.428-7.028.404-.864a13.6 13.6 0 0 0 1.278-5.78v-8.22H182.7v8.22c0 1.778-.394 3.463-1.099 4.972l-.404.864zm1.682-24.58v-16.437H182.7v16.437zm0-26.154v-8.218c0-1.78.395-3.464 1.1-4.973l.403-.865-1.728-.807-.404.864a13.6 13.6 0 0 0-1.279 5.781v8.218zm5.928-18.481.865-.403a11.7 11.7 0 0 1 4.972-1.1h7.464v-1.907h-7.464c-2.063 0-4.023.457-5.78 1.278l-.864.404zm21.809-1.503h14.927v-1.907h-14.927zm23.435 0h14.927v-1.907H235.78zm23.435 0h14.927v-1.907h-14.927zm23.435 0h14.927v-1.907H282.65zm23.435 0h7.464c2.064 0 4.023-.458 5.78-1.278l.864-.404-.807-1.728-.864.403a11.7 11.7 0 0 1-4.973 1.1h-7.464zm19.454-7.028.404-.864a13.6 13.6 0 0 0 1.279-5.781v-7.357h-1.908v7.357c0 1.779-.394 3.464-1.099 4.973l-.404.865zm1.683-22.34v-7.358c0-1.779.394-3.464 1.099-4.973l.404-.864-1.729-.808-.404.864a13.6 13.6 0 0 0-1.278 5.781v7.358zm5.928-17.62.864-.404a11.7 11.7 0 0 1 4.973-1.099h7.645v-1.908h-7.645c-2.064 0-4.023.458-5.78 1.278l-.865.404zm22.279-1.503h15.29v-1.908h-15.29zm24.087 0h15.289v-1.908h-15.289zm24.087 0h15.289v-1.908h-15.289zm24.087 0h7.645v-1.908h-7.645z"/></g><defs><clipPath id="a"><path fill="#fff" d="M1488.67 40h73.333V0h-73.333z"/></clipPath><clipPath id="b"><path fill="#fff" d="M1415.33 40h73.333V0h-73.333z"/></clipPath><clipPath id="c"><path fill="#fff" d="M1342 40h73.333V0H1342z"/></clipPath><clipPath id="d"><path fill="#fff" d="M1268.67 40h73.333V0h-73.333z"/></clipPath><clipPath id="e"><path fill="#fff" d="M1195.33 40h73.333V0h-73.333z"/></clipPath><clipPath id="f"><path fill="#fff" d="M1122 40h73.333V0H1122z"/></clipPath><clipPath id="g"><path fill="#fff" d="M1048.67 40h73.333V0h-73.333z"/></clipPath><clipPath id="h"><path fill="#fff" d="M975.334 40h73.333V0h-73.333z"/></clipPath><clipPath id="i"><path fill="#fff" d="M902 40h73.333V0H902z"/></clipPath><clipPath id="j"><path fill="#fff" d="M828.666 40h73.333V0h-73.333z"/></clipPath><clipPath id="k"><path fill="#fff" d="M755.334 40h73.333V0h-73.333z"/></clipPath><clipPath id="l"><path fill="#fff" d="M682 40h73.333V0H682z"/></clipPath><clipPath id="m"><path fill="#fff" d="M608.666 40h73.333V0h-73.333z"/></clipPath><clipPath id="n"><path fill="#fff" d="M535.334 40h73.333V0h-73.333z"/></clipPath><clipPath id="o"><path fill="#fff" d="M462 40h73.333V0H462z"/></clipPath><clipPath id="p"><path fill="#fff" d="M388.666 40h73.333V0h-73.333z"/></clipPath><clipPath id="q"><path fill="#fff" d="M315.334 40h73.333V0h-73.333z"/></clipPath><clipPath id="r"><path fill="#fff" d="M242 40h73.333V0H242z"/></clipPath><clipPath id="s"><path fill="#fff" d="M168.668 40h73.333V0h-73.333z"/></clipPath><clipPath id="t"><path fill="#fff" d="M95.334 40h73.333V0H95.334z"/></clipPath><clipPath id="u"><path fill="#fff" d="M22 40h73.333V0H22z"/></clipPath><clipPath id="v"><path fill="#fff" d="M-51.332 40h73.333V0h-73.333z"/></clipPath></defs></svg>