<svg width="691" height="313" viewBox="0 0 691 313" fill="none" xmlns="http://www.w3.org/2000/svg">
<rect x="363.926" y="233.474" width="26.234" height="79.4836" fill="#534741"/>
<path d="M378.5 71L437.823 252.468H319.177L378.5 71Z" fill="#2A7D3D"/>
<rect x="436.828" y="197.392" width="29.1064" height="96.5657" fill="#534741"/>
<path d="M453 0L518.818 220.468H387.182L453 0Z" fill="#2A7D3D"/>
<path d="M517.301 173H312.414L214.996 313H419.883L517.301 173Z" fill="#FEAF4E"/>
<path d="M313.188 173H518.074L623.997 313H419.11L313.188 173Z" fill="#FFC95B"/>
<path d="M398.238 211.415H490.488L538.18 274.585H445.93L398.238 211.415Z" fill="#FF881B"/>
<path d="M312.82 173C293.028 240.684 301.01 275.159 342.182 313H288.061C265.928 262.895 282.225 231.061 312.82 173Z" fill="#FF881B"/>
<rect x="26.2539" y="270.266" width="12.7724" height="42.6913" fill="#534741"/>
<path d="M33.3503 183L62.2324 280.468H4.46809L33.3503 183Z" fill="#2A7D3D"/>
<rect x="650.254" y="270.266" width="12.7724" height="42.6913" fill="#534741"/>
<path d="M657.35 183L686.232 280.468H628.468L657.35 183Z" fill="#2A7D3D"/>
</svg>
