<svg xmlns="http://www.w3.org/2000/svg" width="691" height="313" fill="none" viewBox="0 0 691 313"><path fill="#534741" d="M363.926 233.474h26.234v79.484h-26.234z"/><path fill="#2a7d3d" d="m378.5 71 59.323 181.468H319.177z"/><path fill="#534741" d="M436.828 197.392h29.106v96.566h-29.106z"/><path fill="#2a7d3d" d="m453 0 65.818 220.468H387.182z"/><path fill="#feaf4e" d="M517.301 173H312.414l-97.418 140h204.887z"/><path fill="#ffc95b" d="M313.188 173h204.886l105.923 140H419.11z"/><path fill="#ff881b" d="M398.238 211.415h92.25l47.692 63.17h-92.25zM312.82 173c-19.792 67.684-11.81 102.159 29.362 140h-54.121c-22.133-50.105-5.836-81.939 24.759-140"/><path fill="#534741" d="M26.254 270.266h12.772v42.691H26.254z"/><path fill="#2a7d3d" d="m33.35 183 28.882 97.468H4.468z"/><path fill="#534741" d="M650.254 270.266h12.772v42.691h-12.772z"/><path fill="#2a7d3d" d="m657.35 183 28.882 97.468h-57.764z"/></svg>